%TF.GenerationSoftware,Flux,Pcbnew,7.0.11-7.0.11~ubuntu20.04.1*%
%TF.CreationDate,2024-08-15T12:33:14+00:00*%
%TF.ProjectId,input,696e7075-742e-46b6-9963-61645f706362,rev?*%
%TF.SameCoordinates,Original*%
%TF.FileFunction,Soldermask,Top*%
%TF.FilePolarity,Negative*%
%FSLAX46Y46*%
G04 Gerber Fmt 4.6, Leading zero omitted, Abs format (unit mm)*
G04 Filename: businesscardpcb*
G04 Build it with Flux! Visit our site at: https://www.flux.ai (PCBNEW 7.0.11-7.0.11~ubuntu20.04.1) date 2024-08-15 12:33:14*
%MOMM*%
%LPD*%
G01*
G04 APERTURE LIST*
G04 APERTURE END LIST*
%TO.C,*%
G36*
X-14940100Y-7684100D02*
G01*
X-15090100Y-7684100D01*
X-15090100Y-7534100D01*
X-14940100Y-7534100D01*
X-14940100Y-7684100D01*
G37*
G36*
X3699391Y-14728529D02*
G01*
X3706717Y-14729251D01*
X3714000Y-14730331D01*
X3721221Y-14731767D01*
X3728363Y-14733556D01*
X3735408Y-14735693D01*
X3742340Y-14738174D01*
X3749142Y-14740991D01*
X3755798Y-14744139D01*
X3762291Y-14747610D01*
X3768605Y-14751395D01*
X3774727Y-14755485D01*
X3780641Y-14759871D01*
X3786332Y-14764541D01*
X3791787Y-14769486D01*
X3796993Y-14774692D01*
X3801937Y-14780147D01*
X3806608Y-14785838D01*
X3810994Y-14791751D01*
X3815084Y-14797873D01*
X3818869Y-14804188D01*
X3822339Y-14810681D01*
X3825487Y-14817337D01*
X3828305Y-14824138D01*
X3830785Y-14831070D01*
X3832922Y-14838116D01*
X3834711Y-14845258D01*
X3836147Y-14852478D01*
X3837228Y-14859761D01*
X3837949Y-14867088D01*
X3838311Y-14874442D01*
X3838311Y-14881804D01*
X3837949Y-14889157D01*
X3837228Y-14896484D01*
X3836147Y-14903767D01*
X3834711Y-14910988D01*
X3832922Y-14918130D01*
X3830785Y-14925175D01*
X3828305Y-14932107D01*
X3825487Y-14938909D01*
X3822339Y-14945564D01*
X3818869Y-14952057D01*
X3815084Y-14958372D01*
X3810994Y-14964494D01*
X3806608Y-14970407D01*
X3801937Y-14976099D01*
X3796993Y-14981554D01*
X3791787Y-14986760D01*
X3786332Y-14991704D01*
X3780641Y-14996375D01*
X3774727Y-15000760D01*
X3768605Y-15004851D01*
X3762291Y-15008636D01*
X3755798Y-15012106D01*
X3749142Y-15015254D01*
X3742340Y-15018072D01*
X3735408Y-15020552D01*
X3728363Y-15022689D01*
X3721221Y-15024478D01*
X3714000Y-15025914D01*
X3706717Y-15026995D01*
X3699391Y-15027716D01*
X3692037Y-15028078D01*
X3684675Y-15028078D01*
X3677321Y-15027716D01*
X3669994Y-15026995D01*
X3662712Y-15025914D01*
X3655491Y-15024478D01*
X3648349Y-15022689D01*
X3641304Y-15020552D01*
X3634372Y-15018072D01*
X3627570Y-15015254D01*
X3620914Y-15012106D01*
X3614421Y-15008636D01*
X3608106Y-15004851D01*
X3601985Y-15000760D01*
X3596071Y-14996375D01*
X3590380Y-14991704D01*
X3584925Y-14986760D01*
X3579719Y-14981554D01*
X3574775Y-14976099D01*
X3570104Y-14970407D01*
X3565718Y-14964494D01*
X3561628Y-14958372D01*
X3557843Y-14952057D01*
X3554372Y-14945564D01*
X3551224Y-14938909D01*
X3548407Y-14932107D01*
X3545927Y-14925175D01*
X3543789Y-14918130D01*
X3542001Y-14910988D01*
X3540564Y-14903767D01*
X3539484Y-14896484D01*
X3538762Y-14889157D01*
X3538401Y-14881804D01*
X3538401Y-14874442D01*
X3538762Y-14867088D01*
X3539484Y-14859761D01*
X3540564Y-14852478D01*
X3542001Y-14845258D01*
X3543789Y-14838116D01*
X3545927Y-14831070D01*
X3548407Y-14824138D01*
X3551224Y-14817337D01*
X3554372Y-14810681D01*
X3557843Y-14804188D01*
X3561628Y-14797873D01*
X3565718Y-14791751D01*
X3570104Y-14785838D01*
X3574775Y-14780147D01*
X3579719Y-14774692D01*
X3584925Y-14769486D01*
X3590380Y-14764541D01*
X3596071Y-14759871D01*
X3601985Y-14755485D01*
X3608106Y-14751395D01*
X3614421Y-14747610D01*
X3620914Y-14744139D01*
X3627570Y-14740991D01*
X3634372Y-14738174D01*
X3641304Y-14735693D01*
X3648349Y-14733556D01*
X3655491Y-14731767D01*
X3662712Y-14730331D01*
X3669994Y-14729251D01*
X3677321Y-14728529D01*
X3684675Y-14728168D01*
X3692037Y-14728168D01*
X3699391Y-14728529D01*
G37*
G36*
X3699393Y-15509529D02*
G01*
X3706720Y-15510251D01*
X3714003Y-15511331D01*
X3721224Y-15512767D01*
X3728366Y-15514556D01*
X3735411Y-15516693D01*
X3742343Y-15519174D01*
X3749145Y-15521991D01*
X3755800Y-15525139D01*
X3762293Y-15528610D01*
X3768608Y-15532395D01*
X3774730Y-15536485D01*
X3780643Y-15540871D01*
X3786335Y-15545541D01*
X3791790Y-15550486D01*
X3796996Y-15555692D01*
X3801940Y-15561147D01*
X3806611Y-15566838D01*
X3810996Y-15572751D01*
X3815087Y-15578873D01*
X3818872Y-15585188D01*
X3822342Y-15591681D01*
X3825490Y-15598337D01*
X3828308Y-15605138D01*
X3830788Y-15612070D01*
X3832925Y-15619116D01*
X3834714Y-15626258D01*
X3836150Y-15633478D01*
X3837231Y-15640761D01*
X3837952Y-15648088D01*
X3838314Y-15655442D01*
X3838314Y-15662804D01*
X3837952Y-15670157D01*
X3837231Y-15677484D01*
X3836150Y-15684767D01*
X3834714Y-15691988D01*
X3832925Y-15699130D01*
X3830788Y-15706175D01*
X3828308Y-15713107D01*
X3825490Y-15719909D01*
X3822342Y-15726564D01*
X3818872Y-15733057D01*
X3815087Y-15739372D01*
X3810996Y-15745494D01*
X3806611Y-15751407D01*
X3801940Y-15757099D01*
X3796996Y-15762554D01*
X3791790Y-15767760D01*
X3786335Y-15772704D01*
X3780643Y-15777375D01*
X3774730Y-15781760D01*
X3768608Y-15785851D01*
X3762293Y-15789636D01*
X3755800Y-15793106D01*
X3749145Y-15796254D01*
X3742343Y-15799072D01*
X3735411Y-15801552D01*
X3728366Y-15803689D01*
X3721224Y-15805478D01*
X3714003Y-15806914D01*
X3706720Y-15807995D01*
X3699393Y-15808716D01*
X3692040Y-15809078D01*
X3684678Y-15809078D01*
X3677324Y-15808716D01*
X3669997Y-15807995D01*
X3662714Y-15806914D01*
X3655494Y-15805478D01*
X3648352Y-15803689D01*
X3641306Y-15801552D01*
X3634374Y-15799072D01*
X3627573Y-15796254D01*
X3620917Y-15793106D01*
X3614424Y-15789636D01*
X3608109Y-15785851D01*
X3601987Y-15781760D01*
X3596074Y-15777375D01*
X3590383Y-15772704D01*
X3584928Y-15767760D01*
X3579722Y-15762554D01*
X3574777Y-15757099D01*
X3570107Y-15751407D01*
X3565721Y-15745494D01*
X3561631Y-15739372D01*
X3557846Y-15733057D01*
X3554375Y-15726564D01*
X3551227Y-15719909D01*
X3548410Y-15713107D01*
X3545929Y-15706175D01*
X3543792Y-15699130D01*
X3542003Y-15691988D01*
X3540567Y-15684767D01*
X3539487Y-15677484D01*
X3538765Y-15670157D01*
X3538404Y-15662804D01*
X3538404Y-15655442D01*
X3538765Y-15648088D01*
X3539487Y-15640761D01*
X3540567Y-15633478D01*
X3542003Y-15626258D01*
X3543792Y-15619116D01*
X3545929Y-15612070D01*
X3548410Y-15605138D01*
X3551227Y-15598337D01*
X3554375Y-15591681D01*
X3557846Y-15585188D01*
X3561631Y-15578873D01*
X3565721Y-15572751D01*
X3570107Y-15566838D01*
X3574777Y-15561147D01*
X3579722Y-15555692D01*
X3584928Y-15550486D01*
X3590383Y-15545541D01*
X3596074Y-15540871D01*
X3601987Y-15536485D01*
X3608109Y-15532395D01*
X3614424Y-15528610D01*
X3620917Y-15525139D01*
X3627573Y-15521991D01*
X3634374Y-15519174D01*
X3641306Y-15516693D01*
X3648352Y-15514556D01*
X3655494Y-15512767D01*
X3662714Y-15511331D01*
X3669997Y-15510251D01*
X3677324Y-15509529D01*
X3684678Y-15509168D01*
X3692040Y-15509168D01*
X3699393Y-15509529D01*
G37*
G36*
X9194557Y-7798652D02*
G01*
X9199193Y-7799109D01*
X9203790Y-7799868D01*
X9208328Y-7800926D01*
X9212786Y-7802279D01*
X9217147Y-7803920D01*
X9221391Y-7805843D01*
X9225500Y-7808039D01*
X9229457Y-7810499D01*
X9233244Y-7813213D01*
X9236845Y-7816169D01*
X9240246Y-7819354D01*
X9243431Y-7822755D01*
X9246387Y-7826356D01*
X9249101Y-7830143D01*
X9251561Y-7834100D01*
X9253757Y-7838209D01*
X9255680Y-7842453D01*
X9257321Y-7846814D01*
X9258674Y-7851272D01*
X9259732Y-7855810D01*
X9260491Y-7860407D01*
X9260948Y-7865043D01*
X9261100Y-7869700D01*
X9261100Y-8677300D01*
X9260948Y-8681957D01*
X9260491Y-8686593D01*
X9259732Y-8691190D01*
X9258674Y-8695728D01*
X9257321Y-8700186D01*
X9255680Y-8704547D01*
X9253757Y-8708791D01*
X9251561Y-8712900D01*
X9249101Y-8716857D01*
X9246387Y-8720644D01*
X9243431Y-8724245D01*
X9240246Y-8727646D01*
X9236845Y-8730831D01*
X9233244Y-8733787D01*
X9229457Y-8736501D01*
X9225500Y-8738961D01*
X9221391Y-8741157D01*
X9217147Y-8743080D01*
X9212786Y-8744721D01*
X9208328Y-8746074D01*
X9203790Y-8747132D01*
X9199193Y-8747891D01*
X9194557Y-8748348D01*
X9189900Y-8748500D01*
X8532300Y-8748500D01*
X8527643Y-8748348D01*
X8523007Y-8747891D01*
X8518410Y-8747132D01*
X8513872Y-8746074D01*
X8509414Y-8744721D01*
X8505053Y-8743080D01*
X8500809Y-8741157D01*
X8496700Y-8738961D01*
X8492743Y-8736501D01*
X8488956Y-8733787D01*
X8485355Y-8730831D01*
X8481954Y-8727646D01*
X8478769Y-8724245D01*
X8475813Y-8720644D01*
X8473099Y-8716857D01*
X8470639Y-8712900D01*
X8468443Y-8708791D01*
X8466520Y-8704547D01*
X8464879Y-8700186D01*
X8463526Y-8695728D01*
X8462468Y-8691190D01*
X8461709Y-8686593D01*
X8461252Y-8681957D01*
X8461100Y-8677300D01*
X8461100Y-7869700D01*
X8461252Y-7865043D01*
X8461709Y-7860407D01*
X8462468Y-7855810D01*
X8463526Y-7851272D01*
X8464879Y-7846814D01*
X8466520Y-7842453D01*
X8468443Y-7838209D01*
X8470639Y-7834100D01*
X8473099Y-7830143D01*
X8475813Y-7826356D01*
X8478769Y-7822755D01*
X8481954Y-7819354D01*
X8485355Y-7816169D01*
X8488956Y-7813213D01*
X8492743Y-7810499D01*
X8496700Y-7808039D01*
X8500809Y-7805843D01*
X8505053Y-7803920D01*
X8509414Y-7802279D01*
X8513872Y-7800926D01*
X8518410Y-7799868D01*
X8523007Y-7799109D01*
X8527643Y-7798652D01*
X8532300Y-7798500D01*
X9189900Y-7798500D01*
X9194557Y-7798652D01*
G37*
G36*
X7544557Y-7798652D02*
G01*
X7549193Y-7799109D01*
X7553790Y-7799868D01*
X7558328Y-7800926D01*
X7562786Y-7802279D01*
X7567147Y-7803920D01*
X7571391Y-7805843D01*
X7575500Y-7808039D01*
X7579457Y-7810499D01*
X7583244Y-7813213D01*
X7586845Y-7816169D01*
X7590246Y-7819354D01*
X7593431Y-7822755D01*
X7596387Y-7826356D01*
X7599101Y-7830143D01*
X7601561Y-7834100D01*
X7603757Y-7838209D01*
X7605680Y-7842453D01*
X7607321Y-7846814D01*
X7608674Y-7851272D01*
X7609732Y-7855810D01*
X7610491Y-7860407D01*
X7610948Y-7865043D01*
X7611100Y-7869700D01*
X7611100Y-8677300D01*
X7610948Y-8681957D01*
X7610491Y-8686593D01*
X7609732Y-8691190D01*
X7608674Y-8695728D01*
X7607321Y-8700186D01*
X7605680Y-8704547D01*
X7603757Y-8708791D01*
X7601561Y-8712900D01*
X7599101Y-8716857D01*
X7596387Y-8720644D01*
X7593431Y-8724245D01*
X7590246Y-8727646D01*
X7586845Y-8730831D01*
X7583244Y-8733787D01*
X7579457Y-8736501D01*
X7575500Y-8738961D01*
X7571391Y-8741157D01*
X7567147Y-8743080D01*
X7562786Y-8744721D01*
X7558328Y-8746074D01*
X7553790Y-8747132D01*
X7549193Y-8747891D01*
X7544557Y-8748348D01*
X7539900Y-8748500D01*
X6882300Y-8748500D01*
X6877643Y-8748348D01*
X6873007Y-8747891D01*
X6868410Y-8747132D01*
X6863872Y-8746074D01*
X6859414Y-8744721D01*
X6855053Y-8743080D01*
X6850809Y-8741157D01*
X6846700Y-8738961D01*
X6842743Y-8736501D01*
X6838956Y-8733787D01*
X6835355Y-8730831D01*
X6831954Y-8727646D01*
X6828769Y-8724245D01*
X6825813Y-8720644D01*
X6823099Y-8716857D01*
X6820639Y-8712900D01*
X6818443Y-8708791D01*
X6816520Y-8704547D01*
X6814879Y-8700186D01*
X6813526Y-8695728D01*
X6812468Y-8691190D01*
X6811709Y-8686593D01*
X6811252Y-8681957D01*
X6811100Y-8677300D01*
X6811100Y-7869700D01*
X6811252Y-7865043D01*
X6811709Y-7860407D01*
X6812468Y-7855810D01*
X6813526Y-7851272D01*
X6814879Y-7846814D01*
X6816520Y-7842453D01*
X6818443Y-7838209D01*
X6820639Y-7834100D01*
X6823099Y-7830143D01*
X6825813Y-7826356D01*
X6828769Y-7822755D01*
X6831954Y-7819354D01*
X6835355Y-7816169D01*
X6838956Y-7813213D01*
X6842743Y-7810499D01*
X6846700Y-7808039D01*
X6850809Y-7805843D01*
X6855053Y-7803920D01*
X6859414Y-7802279D01*
X6863872Y-7800926D01*
X6868410Y-7799868D01*
X6873007Y-7799109D01*
X6877643Y-7798652D01*
X6882300Y-7798500D01*
X7539900Y-7798500D01*
X7544557Y-7798652D01*
G37*
G36*
X10560560Y-9340652D02*
G01*
X10565196Y-9341109D01*
X10569793Y-9341868D01*
X10574331Y-9342926D01*
X10578789Y-9344279D01*
X10583150Y-9345920D01*
X10587394Y-9347843D01*
X10591503Y-9350039D01*
X10595459Y-9352499D01*
X10599247Y-9355213D01*
X10602848Y-9358169D01*
X10606249Y-9361354D01*
X10609434Y-9364755D01*
X10612390Y-9368356D01*
X10615103Y-9372143D01*
X10617564Y-9376100D01*
X10619760Y-9380209D01*
X10621683Y-9384453D01*
X10623324Y-9388814D01*
X10624677Y-9393272D01*
X10625735Y-9397810D01*
X10626494Y-9402407D01*
X10626950Y-9407043D01*
X10627103Y-9411700D01*
X10627103Y-10169300D01*
X10626950Y-10173957D01*
X10626494Y-10178593D01*
X10625735Y-10183190D01*
X10624677Y-10187728D01*
X10623324Y-10192186D01*
X10621683Y-10196547D01*
X10619760Y-10200791D01*
X10617564Y-10204900D01*
X10615103Y-10208857D01*
X10612390Y-10212644D01*
X10609434Y-10216245D01*
X10606249Y-10219646D01*
X10602848Y-10222831D01*
X10599247Y-10225787D01*
X10595459Y-10228501D01*
X10591503Y-10230961D01*
X10587394Y-10233157D01*
X10583150Y-10235080D01*
X10578789Y-10236721D01*
X10574331Y-10238074D01*
X10569793Y-10239132D01*
X10565196Y-10239891D01*
X10560560Y-10240348D01*
X10555903Y-10240500D01*
X9748303Y-10240500D01*
X9743646Y-10240348D01*
X9739009Y-10239891D01*
X9734412Y-10239132D01*
X9729875Y-10238074D01*
X9725416Y-10236721D01*
X9721056Y-10235080D01*
X9716812Y-10233157D01*
X9712703Y-10230961D01*
X9708746Y-10228501D01*
X9704959Y-10225787D01*
X9701357Y-10222831D01*
X9697957Y-10219646D01*
X9694772Y-10216245D01*
X9691816Y-10212644D01*
X9689102Y-10208857D01*
X9686642Y-10204900D01*
X9684446Y-10200791D01*
X9682523Y-10196547D01*
X9680881Y-10192186D01*
X9679529Y-10187728D01*
X9678471Y-10183190D01*
X9677712Y-10178593D01*
X9677255Y-10173957D01*
X9677103Y-10169300D01*
X9677103Y-9411700D01*
X9677255Y-9407043D01*
X9677712Y-9402407D01*
X9678471Y-9397810D01*
X9679529Y-9393272D01*
X9680881Y-9388814D01*
X9682523Y-9384453D01*
X9684446Y-9380209D01*
X9686642Y-9376100D01*
X9689102Y-9372143D01*
X9691816Y-9368356D01*
X9694772Y-9364755D01*
X9697957Y-9361354D01*
X9701357Y-9358169D01*
X9704959Y-9355213D01*
X9708746Y-9352499D01*
X9712703Y-9350039D01*
X9716812Y-9347843D01*
X9721056Y-9345920D01*
X9725416Y-9344279D01*
X9729875Y-9342926D01*
X9734412Y-9341868D01*
X9739009Y-9341109D01*
X9743646Y-9340652D01*
X9748303Y-9340500D01*
X10555903Y-9340500D01*
X10560560Y-9340652D01*
G37*
G36*
X10560554Y-7790652D02*
G01*
X10565191Y-7791109D01*
X10569788Y-7791868D01*
X10574325Y-7792926D01*
X10578784Y-7794279D01*
X10583144Y-7795920D01*
X10587388Y-7797843D01*
X10591497Y-7800039D01*
X10595454Y-7802499D01*
X10599241Y-7805213D01*
X10602843Y-7808169D01*
X10606243Y-7811354D01*
X10609428Y-7814755D01*
X10612384Y-7818356D01*
X10615098Y-7822143D01*
X10617558Y-7826100D01*
X10619754Y-7830209D01*
X10621677Y-7834453D01*
X10623319Y-7838814D01*
X10624671Y-7843272D01*
X10625729Y-7847810D01*
X10626488Y-7852407D01*
X10626945Y-7857043D01*
X10627097Y-7861700D01*
X10627097Y-8619300D01*
X10626945Y-8623957D01*
X10626488Y-8628593D01*
X10625729Y-8633190D01*
X10624671Y-8637728D01*
X10623319Y-8642186D01*
X10621677Y-8646547D01*
X10619754Y-8650791D01*
X10617558Y-8654900D01*
X10615098Y-8658857D01*
X10612384Y-8662644D01*
X10609428Y-8666245D01*
X10606243Y-8669646D01*
X10602843Y-8672831D01*
X10599241Y-8675787D01*
X10595454Y-8678501D01*
X10591497Y-8680961D01*
X10587388Y-8683157D01*
X10583144Y-8685080D01*
X10578784Y-8686721D01*
X10574325Y-8688074D01*
X10569788Y-8689132D01*
X10565191Y-8689891D01*
X10560554Y-8690348D01*
X10555897Y-8690500D01*
X9748297Y-8690500D01*
X9743640Y-8690348D01*
X9739004Y-8689891D01*
X9734407Y-8689132D01*
X9729869Y-8688074D01*
X9725411Y-8686721D01*
X9721050Y-8685080D01*
X9716806Y-8683157D01*
X9712697Y-8680961D01*
X9708741Y-8678501D01*
X9704953Y-8675787D01*
X9701352Y-8672831D01*
X9697951Y-8669646D01*
X9694766Y-8666245D01*
X9691810Y-8662644D01*
X9689097Y-8658857D01*
X9686636Y-8654900D01*
X9684440Y-8650791D01*
X9682517Y-8646547D01*
X9680876Y-8642186D01*
X9679523Y-8637728D01*
X9678465Y-8633190D01*
X9677706Y-8628593D01*
X9677250Y-8623957D01*
X9677097Y-8619300D01*
X9677097Y-7861700D01*
X9677250Y-7857043D01*
X9677706Y-7852407D01*
X9678465Y-7847810D01*
X9679523Y-7843272D01*
X9680876Y-7838814D01*
X9682517Y-7834453D01*
X9684440Y-7830209D01*
X9686636Y-7826100D01*
X9689097Y-7822143D01*
X9691810Y-7818356D01*
X9694766Y-7814755D01*
X9697951Y-7811354D01*
X9701352Y-7808169D01*
X9704953Y-7805213D01*
X9708741Y-7802499D01*
X9712697Y-7800039D01*
X9716806Y-7797843D01*
X9721050Y-7795920D01*
X9725411Y-7794279D01*
X9729869Y-7792926D01*
X9734407Y-7791868D01*
X9739004Y-7791109D01*
X9743640Y-7790652D01*
X9748297Y-7790500D01*
X10555897Y-7790500D01*
X10560554Y-7790652D01*
G37*
G36*
X12999262Y-16878713D02*
G01*
X13008783Y-16879651D01*
X13018222Y-16881209D01*
X13027539Y-16883382D01*
X13036694Y-16886159D01*
X13045648Y-16889529D01*
X13054363Y-16893477D01*
X13062800Y-16897987D01*
X13070924Y-16903039D01*
X13078701Y-16908612D01*
X13086096Y-16914681D01*
X13093079Y-16921221D01*
X13099619Y-16928204D01*
X13105688Y-16935599D01*
X13111261Y-16943376D01*
X13116313Y-16951500D01*
X13120823Y-16959937D01*
X13124771Y-16968652D01*
X13128141Y-16977606D01*
X13130918Y-16986761D01*
X13133091Y-16996078D01*
X13134649Y-17005517D01*
X13135587Y-17015038D01*
X13135900Y-17024600D01*
X13135900Y-17332200D01*
X13135587Y-17341762D01*
X13134649Y-17351283D01*
X13133091Y-17360722D01*
X13130918Y-17370039D01*
X13128141Y-17379194D01*
X13124771Y-17388148D01*
X13120823Y-17396863D01*
X13116313Y-17405300D01*
X13111261Y-17413424D01*
X13105688Y-17421201D01*
X13099619Y-17428596D01*
X13093079Y-17435579D01*
X13086096Y-17442119D01*
X13078701Y-17448188D01*
X13070924Y-17453761D01*
X13062800Y-17458813D01*
X13054363Y-17463323D01*
X13045648Y-17467271D01*
X13036694Y-17470641D01*
X13027539Y-17473418D01*
X13018222Y-17475591D01*
X13008783Y-17477149D01*
X12999262Y-17478087D01*
X12989700Y-17478400D01*
X11332100Y-17478400D01*
X11322538Y-17478087D01*
X11313017Y-17477149D01*
X11303578Y-17475591D01*
X11294261Y-17473418D01*
X11285106Y-17470641D01*
X11276152Y-17467271D01*
X11267437Y-17463323D01*
X11259000Y-17458813D01*
X11250876Y-17453761D01*
X11243099Y-17448188D01*
X11235704Y-17442119D01*
X11228721Y-17435579D01*
X11222181Y-17428596D01*
X11216112Y-17421201D01*
X11210539Y-17413424D01*
X11205487Y-17405300D01*
X11200977Y-17396863D01*
X11197029Y-17388148D01*
X11193659Y-17379194D01*
X11190882Y-17370039D01*
X11188709Y-17360722D01*
X11187151Y-17351283D01*
X11186213Y-17341762D01*
X11185900Y-17332200D01*
X11185900Y-17024600D01*
X11186213Y-17015038D01*
X11187151Y-17005517D01*
X11188709Y-16996078D01*
X11190882Y-16986761D01*
X11193659Y-16977606D01*
X11197029Y-16968652D01*
X11200977Y-16959937D01*
X11205487Y-16951500D01*
X11210539Y-16943376D01*
X11216112Y-16935599D01*
X11222181Y-16928204D01*
X11228721Y-16921221D01*
X11235704Y-16914681D01*
X11243099Y-16908612D01*
X11250876Y-16903039D01*
X11259000Y-16897987D01*
X11267437Y-16893477D01*
X11276152Y-16889529D01*
X11285106Y-16886159D01*
X11294261Y-16883382D01*
X11303578Y-16881209D01*
X11313017Y-16879651D01*
X11322538Y-16878713D01*
X11332100Y-16878400D01*
X12989700Y-16878400D01*
X12999262Y-16878713D01*
G37*
G36*
X12999262Y-14338713D02*
G01*
X13008783Y-14339651D01*
X13018222Y-14341209D01*
X13027539Y-14343382D01*
X13036694Y-14346159D01*
X13045648Y-14349529D01*
X13054363Y-14353477D01*
X13062800Y-14357987D01*
X13070924Y-14363039D01*
X13078701Y-14368612D01*
X13086096Y-14374681D01*
X13093079Y-14381221D01*
X13099619Y-14388204D01*
X13105688Y-14395599D01*
X13111261Y-14403376D01*
X13116313Y-14411500D01*
X13120823Y-14419937D01*
X13124771Y-14428652D01*
X13128141Y-14437606D01*
X13130918Y-14446761D01*
X13133091Y-14456078D01*
X13134649Y-14465517D01*
X13135587Y-14475038D01*
X13135900Y-14484600D01*
X13135900Y-14792200D01*
X13135587Y-14801762D01*
X13134649Y-14811283D01*
X13133091Y-14820722D01*
X13130918Y-14830039D01*
X13128141Y-14839194D01*
X13124771Y-14848148D01*
X13120823Y-14856863D01*
X13116313Y-14865300D01*
X13111261Y-14873424D01*
X13105688Y-14881201D01*
X13099619Y-14888596D01*
X13093079Y-14895579D01*
X13086096Y-14902119D01*
X13078701Y-14908188D01*
X13070924Y-14913761D01*
X13062800Y-14918813D01*
X13054363Y-14923323D01*
X13045648Y-14927271D01*
X13036694Y-14930641D01*
X13027539Y-14933418D01*
X13018222Y-14935591D01*
X13008783Y-14937149D01*
X12999262Y-14938087D01*
X12989700Y-14938400D01*
X11332100Y-14938400D01*
X11322538Y-14938087D01*
X11313017Y-14937149D01*
X11303578Y-14935591D01*
X11294261Y-14933418D01*
X11285106Y-14930641D01*
X11276152Y-14927271D01*
X11267437Y-14923323D01*
X11259000Y-14918813D01*
X11250876Y-14913761D01*
X11243099Y-14908188D01*
X11235704Y-14902119D01*
X11228721Y-14895579D01*
X11222181Y-14888596D01*
X11216112Y-14881201D01*
X11210539Y-14873424D01*
X11205487Y-14865300D01*
X11200977Y-14856863D01*
X11197029Y-14848148D01*
X11193659Y-14839194D01*
X11190882Y-14830039D01*
X11188709Y-14820722D01*
X11187151Y-14811283D01*
X11186213Y-14801762D01*
X11185900Y-14792200D01*
X11185900Y-14484600D01*
X11186213Y-14475038D01*
X11187151Y-14465517D01*
X11188709Y-14456078D01*
X11190882Y-14446761D01*
X11193659Y-14437606D01*
X11197029Y-14428652D01*
X11200977Y-14419937D01*
X11205487Y-14411500D01*
X11210539Y-14403376D01*
X11216112Y-14395599D01*
X11222181Y-14388204D01*
X11228721Y-14381221D01*
X11235704Y-14374681D01*
X11243099Y-14368612D01*
X11250876Y-14363039D01*
X11259000Y-14357987D01*
X11267437Y-14353477D01*
X11276152Y-14349529D01*
X11285106Y-14346159D01*
X11294261Y-14343382D01*
X11303578Y-14341209D01*
X11313017Y-14339651D01*
X11322538Y-14338713D01*
X11332100Y-14338400D01*
X12989700Y-14338400D01*
X12999262Y-14338713D01*
G37*
G36*
X12999262Y-13068713D02*
G01*
X13008783Y-13069651D01*
X13018222Y-13071209D01*
X13027539Y-13073382D01*
X13036694Y-13076159D01*
X13045648Y-13079529D01*
X13054363Y-13083477D01*
X13062800Y-13087987D01*
X13070924Y-13093039D01*
X13078701Y-13098612D01*
X13086096Y-13104681D01*
X13093079Y-13111221D01*
X13099619Y-13118204D01*
X13105688Y-13125599D01*
X13111261Y-13133376D01*
X13116313Y-13141500D01*
X13120823Y-13149937D01*
X13124771Y-13158652D01*
X13128141Y-13167606D01*
X13130918Y-13176761D01*
X13133091Y-13186078D01*
X13134649Y-13195517D01*
X13135587Y-13205038D01*
X13135900Y-13214600D01*
X13135900Y-13522200D01*
X13135587Y-13531762D01*
X13134649Y-13541283D01*
X13133091Y-13550722D01*
X13130918Y-13560039D01*
X13128141Y-13569194D01*
X13124771Y-13578148D01*
X13120823Y-13586863D01*
X13116313Y-13595300D01*
X13111261Y-13603424D01*
X13105688Y-13611201D01*
X13099619Y-13618596D01*
X13093079Y-13625579D01*
X13086096Y-13632119D01*
X13078701Y-13638188D01*
X13070924Y-13643761D01*
X13062800Y-13648813D01*
X13054363Y-13653323D01*
X13045648Y-13657271D01*
X13036694Y-13660641D01*
X13027539Y-13663418D01*
X13018222Y-13665591D01*
X13008783Y-13667149D01*
X12999262Y-13668087D01*
X12989700Y-13668400D01*
X11332100Y-13668400D01*
X11322538Y-13668087D01*
X11313017Y-13667149D01*
X11303578Y-13665591D01*
X11294261Y-13663418D01*
X11285106Y-13660641D01*
X11276152Y-13657271D01*
X11267437Y-13653323D01*
X11259000Y-13648813D01*
X11250876Y-13643761D01*
X11243099Y-13638188D01*
X11235704Y-13632119D01*
X11228721Y-13625579D01*
X11222181Y-13618596D01*
X11216112Y-13611201D01*
X11210539Y-13603424D01*
X11205487Y-13595300D01*
X11200977Y-13586863D01*
X11197029Y-13578148D01*
X11193659Y-13569194D01*
X11190882Y-13560039D01*
X11188709Y-13550722D01*
X11187151Y-13541283D01*
X11186213Y-13531762D01*
X11185900Y-13522200D01*
X11185900Y-13214600D01*
X11186213Y-13205038D01*
X11187151Y-13195517D01*
X11188709Y-13186078D01*
X11190882Y-13176761D01*
X11193659Y-13167606D01*
X11197029Y-13158652D01*
X11200977Y-13149937D01*
X11205487Y-13141500D01*
X11210539Y-13133376D01*
X11216112Y-13125599D01*
X11222181Y-13118204D01*
X11228721Y-13111221D01*
X11235704Y-13104681D01*
X11243099Y-13098612D01*
X11250876Y-13093039D01*
X11259000Y-13087987D01*
X11267437Y-13083477D01*
X11276152Y-13079529D01*
X11285106Y-13076159D01*
X11294261Y-13073382D01*
X11303578Y-13071209D01*
X11313017Y-13069651D01*
X11322538Y-13068713D01*
X11332100Y-13068400D01*
X12989700Y-13068400D01*
X12999262Y-13068713D01*
G37*
G36*
X8049262Y-14338713D02*
G01*
X8058783Y-14339651D01*
X8068222Y-14341209D01*
X8077539Y-14343382D01*
X8086694Y-14346159D01*
X8095648Y-14349529D01*
X8104363Y-14353477D01*
X8112800Y-14357987D01*
X8120924Y-14363039D01*
X8128701Y-14368612D01*
X8136096Y-14374681D01*
X8143079Y-14381221D01*
X8149619Y-14388204D01*
X8155688Y-14395599D01*
X8161261Y-14403376D01*
X8166313Y-14411500D01*
X8170823Y-14419937D01*
X8174771Y-14428652D01*
X8178141Y-14437606D01*
X8180918Y-14446761D01*
X8183091Y-14456078D01*
X8184649Y-14465517D01*
X8185587Y-14475038D01*
X8185900Y-14484600D01*
X8185900Y-14792200D01*
X8185587Y-14801762D01*
X8184649Y-14811283D01*
X8183091Y-14820722D01*
X8180918Y-14830039D01*
X8178141Y-14839194D01*
X8174771Y-14848148D01*
X8170823Y-14856863D01*
X8166313Y-14865300D01*
X8161261Y-14873424D01*
X8155688Y-14881201D01*
X8149619Y-14888596D01*
X8143079Y-14895579D01*
X8136096Y-14902119D01*
X8128701Y-14908188D01*
X8120924Y-14913761D01*
X8112800Y-14918813D01*
X8104363Y-14923323D01*
X8095648Y-14927271D01*
X8086694Y-14930641D01*
X8077539Y-14933418D01*
X8068222Y-14935591D01*
X8058783Y-14937149D01*
X8049262Y-14938087D01*
X8039700Y-14938400D01*
X6382100Y-14938400D01*
X6372538Y-14938087D01*
X6363017Y-14937149D01*
X6353578Y-14935591D01*
X6344261Y-14933418D01*
X6335106Y-14930641D01*
X6326152Y-14927271D01*
X6317437Y-14923323D01*
X6309000Y-14918813D01*
X6300876Y-14913761D01*
X6293099Y-14908188D01*
X6285704Y-14902119D01*
X6278721Y-14895579D01*
X6272181Y-14888596D01*
X6266112Y-14881201D01*
X6260539Y-14873424D01*
X6255487Y-14865300D01*
X6250977Y-14856863D01*
X6247029Y-14848148D01*
X6243659Y-14839194D01*
X6240882Y-14830039D01*
X6238709Y-14820722D01*
X6237151Y-14811283D01*
X6236213Y-14801762D01*
X6235900Y-14792200D01*
X6235900Y-14484600D01*
X6236213Y-14475038D01*
X6237151Y-14465517D01*
X6238709Y-14456078D01*
X6240882Y-14446761D01*
X6243659Y-14437606D01*
X6247029Y-14428652D01*
X6250977Y-14419937D01*
X6255487Y-14411500D01*
X6260539Y-14403376D01*
X6266112Y-14395599D01*
X6272181Y-14388204D01*
X6278721Y-14381221D01*
X6285704Y-14374681D01*
X6293099Y-14368612D01*
X6300876Y-14363039D01*
X6309000Y-14357987D01*
X6317437Y-14353477D01*
X6326152Y-14349529D01*
X6335106Y-14346159D01*
X6344261Y-14343382D01*
X6353578Y-14341209D01*
X6363017Y-14339651D01*
X6372538Y-14338713D01*
X6382100Y-14338400D01*
X8039700Y-14338400D01*
X8049262Y-14338713D01*
G37*
G36*
X8049262Y-16878713D02*
G01*
X8058783Y-16879651D01*
X8068222Y-16881209D01*
X8077539Y-16883382D01*
X8086694Y-16886159D01*
X8095648Y-16889529D01*
X8104363Y-16893477D01*
X8112800Y-16897987D01*
X8120924Y-16903039D01*
X8128701Y-16908612D01*
X8136096Y-16914681D01*
X8143079Y-16921221D01*
X8149619Y-16928204D01*
X8155688Y-16935599D01*
X8161261Y-16943376D01*
X8166313Y-16951500D01*
X8170823Y-16959937D01*
X8174771Y-16968652D01*
X8178141Y-16977606D01*
X8180918Y-16986761D01*
X8183091Y-16996078D01*
X8184649Y-17005517D01*
X8185587Y-17015038D01*
X8185900Y-17024600D01*
X8185900Y-17332200D01*
X8185587Y-17341762D01*
X8184649Y-17351283D01*
X8183091Y-17360722D01*
X8180918Y-17370039D01*
X8178141Y-17379194D01*
X8174771Y-17388148D01*
X8170823Y-17396863D01*
X8166313Y-17405300D01*
X8161261Y-17413424D01*
X8155688Y-17421201D01*
X8149619Y-17428596D01*
X8143079Y-17435579D01*
X8136096Y-17442119D01*
X8128701Y-17448188D01*
X8120924Y-17453761D01*
X8112800Y-17458813D01*
X8104363Y-17463323D01*
X8095648Y-17467271D01*
X8086694Y-17470641D01*
X8077539Y-17473418D01*
X8068222Y-17475591D01*
X8058783Y-17477149D01*
X8049262Y-17478087D01*
X8039700Y-17478400D01*
X6382100Y-17478400D01*
X6372538Y-17478087D01*
X6363017Y-17477149D01*
X6353578Y-17475591D01*
X6344261Y-17473418D01*
X6335106Y-17470641D01*
X6326152Y-17467271D01*
X6317437Y-17463323D01*
X6309000Y-17458813D01*
X6300876Y-17453761D01*
X6293099Y-17448188D01*
X6285704Y-17442119D01*
X6278721Y-17435579D01*
X6272181Y-17428596D01*
X6266112Y-17421201D01*
X6260539Y-17413424D01*
X6255487Y-17405300D01*
X6250977Y-17396863D01*
X6247029Y-17388148D01*
X6243659Y-17379194D01*
X6240882Y-17370039D01*
X6238709Y-17360722D01*
X6237151Y-17351283D01*
X6236213Y-17341762D01*
X6235900Y-17332200D01*
X6235900Y-17024600D01*
X6236213Y-17015038D01*
X6237151Y-17005517D01*
X6238709Y-16996078D01*
X6240882Y-16986761D01*
X6243659Y-16977606D01*
X6247029Y-16968652D01*
X6250977Y-16959937D01*
X6255487Y-16951500D01*
X6260539Y-16943376D01*
X6266112Y-16935599D01*
X6272181Y-16928204D01*
X6278721Y-16921221D01*
X6285704Y-16914681D01*
X6293099Y-16908612D01*
X6300876Y-16903039D01*
X6309000Y-16897987D01*
X6317437Y-16893477D01*
X6326152Y-16889529D01*
X6335106Y-16886159D01*
X6344261Y-16883382D01*
X6353578Y-16881209D01*
X6363017Y-16879651D01*
X6372538Y-16878713D01*
X6382100Y-16878400D01*
X8039700Y-16878400D01*
X8049262Y-16878713D01*
G37*
G36*
X8049262Y-15608713D02*
G01*
X8058783Y-15609651D01*
X8068222Y-15611209D01*
X8077539Y-15613382D01*
X8086694Y-15616159D01*
X8095648Y-15619529D01*
X8104363Y-15623477D01*
X8112800Y-15627987D01*
X8120924Y-15633039D01*
X8128701Y-15638612D01*
X8136096Y-15644681D01*
X8143079Y-15651221D01*
X8149619Y-15658204D01*
X8155688Y-15665599D01*
X8161261Y-15673376D01*
X8166313Y-15681500D01*
X8170823Y-15689937D01*
X8174771Y-15698652D01*
X8178141Y-15707606D01*
X8180918Y-15716761D01*
X8183091Y-15726078D01*
X8184649Y-15735517D01*
X8185587Y-15745038D01*
X8185900Y-15754600D01*
X8185900Y-16062200D01*
X8185587Y-16071762D01*
X8184649Y-16081283D01*
X8183091Y-16090722D01*
X8180918Y-16100039D01*
X8178141Y-16109194D01*
X8174771Y-16118148D01*
X8170823Y-16126863D01*
X8166313Y-16135300D01*
X8161261Y-16143424D01*
X8155688Y-16151201D01*
X8149619Y-16158596D01*
X8143079Y-16165579D01*
X8136096Y-16172119D01*
X8128701Y-16178188D01*
X8120924Y-16183761D01*
X8112800Y-16188813D01*
X8104363Y-16193323D01*
X8095648Y-16197271D01*
X8086694Y-16200641D01*
X8077539Y-16203418D01*
X8068222Y-16205591D01*
X8058783Y-16207149D01*
X8049262Y-16208087D01*
X8039700Y-16208400D01*
X6382100Y-16208400D01*
X6372538Y-16208087D01*
X6363017Y-16207149D01*
X6353578Y-16205591D01*
X6344261Y-16203418D01*
X6335106Y-16200641D01*
X6326152Y-16197271D01*
X6317437Y-16193323D01*
X6309000Y-16188813D01*
X6300876Y-16183761D01*
X6293099Y-16178188D01*
X6285704Y-16172119D01*
X6278721Y-16165579D01*
X6272181Y-16158596D01*
X6266112Y-16151201D01*
X6260539Y-16143424D01*
X6255487Y-16135300D01*
X6250977Y-16126863D01*
X6247029Y-16118148D01*
X6243659Y-16109194D01*
X6240882Y-16100039D01*
X6238709Y-16090722D01*
X6237151Y-16081283D01*
X6236213Y-16071762D01*
X6235900Y-16062200D01*
X6235900Y-15754600D01*
X6236213Y-15745038D01*
X6237151Y-15735517D01*
X6238709Y-15726078D01*
X6240882Y-15716761D01*
X6243659Y-15707606D01*
X6247029Y-15698652D01*
X6250977Y-15689937D01*
X6255487Y-15681500D01*
X6260539Y-15673376D01*
X6266112Y-15665599D01*
X6272181Y-15658204D01*
X6278721Y-15651221D01*
X6285704Y-15644681D01*
X6293099Y-15638612D01*
X6300876Y-15633039D01*
X6309000Y-15627987D01*
X6317437Y-15623477D01*
X6326152Y-15619529D01*
X6335106Y-15616159D01*
X6344261Y-15613382D01*
X6353578Y-15611209D01*
X6363017Y-15609651D01*
X6372538Y-15608713D01*
X6382100Y-15608400D01*
X8039700Y-15608400D01*
X8049262Y-15608713D01*
G37*
G36*
X12999262Y-15608713D02*
G01*
X13008783Y-15609651D01*
X13018222Y-15611209D01*
X13027539Y-15613382D01*
X13036694Y-15616159D01*
X13045648Y-15619529D01*
X13054363Y-15623477D01*
X13062800Y-15627987D01*
X13070924Y-15633039D01*
X13078701Y-15638612D01*
X13086096Y-15644681D01*
X13093079Y-15651221D01*
X13099619Y-15658204D01*
X13105688Y-15665599D01*
X13111261Y-15673376D01*
X13116313Y-15681500D01*
X13120823Y-15689937D01*
X13124771Y-15698652D01*
X13128141Y-15707606D01*
X13130918Y-15716761D01*
X13133091Y-15726078D01*
X13134649Y-15735517D01*
X13135587Y-15745038D01*
X13135900Y-15754600D01*
X13135900Y-16062200D01*
X13135587Y-16071762D01*
X13134649Y-16081283D01*
X13133091Y-16090722D01*
X13130918Y-16100039D01*
X13128141Y-16109194D01*
X13124771Y-16118148D01*
X13120823Y-16126863D01*
X13116313Y-16135300D01*
X13111261Y-16143424D01*
X13105688Y-16151201D01*
X13099619Y-16158596D01*
X13093079Y-16165579D01*
X13086096Y-16172119D01*
X13078701Y-16178188D01*
X13070924Y-16183761D01*
X13062800Y-16188813D01*
X13054363Y-16193323D01*
X13045648Y-16197271D01*
X13036694Y-16200641D01*
X13027539Y-16203418D01*
X13018222Y-16205591D01*
X13008783Y-16207149D01*
X12999262Y-16208087D01*
X12989700Y-16208400D01*
X11332100Y-16208400D01*
X11322538Y-16208087D01*
X11313017Y-16207149D01*
X11303578Y-16205591D01*
X11294261Y-16203418D01*
X11285106Y-16200641D01*
X11276152Y-16197271D01*
X11267437Y-16193323D01*
X11259000Y-16188813D01*
X11250876Y-16183761D01*
X11243099Y-16178188D01*
X11235704Y-16172119D01*
X11228721Y-16165579D01*
X11222181Y-16158596D01*
X11216112Y-16151201D01*
X11210539Y-16143424D01*
X11205487Y-16135300D01*
X11200977Y-16126863D01*
X11197029Y-16118148D01*
X11193659Y-16109194D01*
X11190882Y-16100039D01*
X11188709Y-16090722D01*
X11187151Y-16081283D01*
X11186213Y-16071762D01*
X11185900Y-16062200D01*
X11185900Y-15754600D01*
X11186213Y-15745038D01*
X11187151Y-15735517D01*
X11188709Y-15726078D01*
X11190882Y-15716761D01*
X11193659Y-15707606D01*
X11197029Y-15698652D01*
X11200977Y-15689937D01*
X11205487Y-15681500D01*
X11210539Y-15673376D01*
X11216112Y-15665599D01*
X11222181Y-15658204D01*
X11228721Y-15651221D01*
X11235704Y-15644681D01*
X11243099Y-15638612D01*
X11250876Y-15633039D01*
X11259000Y-15627987D01*
X11267437Y-15623477D01*
X11276152Y-15619529D01*
X11285106Y-15616159D01*
X11294261Y-15613382D01*
X11303578Y-15611209D01*
X11313017Y-15609651D01*
X11322538Y-15608713D01*
X11332100Y-15608400D01*
X12989700Y-15608400D01*
X12999262Y-15608713D01*
G37*
G36*
X8049262Y-13068713D02*
G01*
X8058783Y-13069651D01*
X8068222Y-13071209D01*
X8077539Y-13073382D01*
X8086694Y-13076159D01*
X8095648Y-13079529D01*
X8104363Y-13083477D01*
X8112800Y-13087987D01*
X8120924Y-13093039D01*
X8128701Y-13098612D01*
X8136096Y-13104681D01*
X8143079Y-13111221D01*
X8149619Y-13118204D01*
X8155688Y-13125599D01*
X8161261Y-13133376D01*
X8166313Y-13141500D01*
X8170823Y-13149937D01*
X8174771Y-13158652D01*
X8178141Y-13167606D01*
X8180918Y-13176761D01*
X8183091Y-13186078D01*
X8184649Y-13195517D01*
X8185587Y-13205038D01*
X8185900Y-13214600D01*
X8185900Y-13522200D01*
X8185587Y-13531762D01*
X8184649Y-13541283D01*
X8183091Y-13550722D01*
X8180918Y-13560039D01*
X8178141Y-13569194D01*
X8174771Y-13578148D01*
X8170823Y-13586863D01*
X8166313Y-13595300D01*
X8161261Y-13603424D01*
X8155688Y-13611201D01*
X8149619Y-13618596D01*
X8143079Y-13625579D01*
X8136096Y-13632119D01*
X8128701Y-13638188D01*
X8120924Y-13643761D01*
X8112800Y-13648813D01*
X8104363Y-13653323D01*
X8095648Y-13657271D01*
X8086694Y-13660641D01*
X8077539Y-13663418D01*
X8068222Y-13665591D01*
X8058783Y-13667149D01*
X8049262Y-13668087D01*
X8039700Y-13668400D01*
X6382100Y-13668400D01*
X6372538Y-13668087D01*
X6363017Y-13667149D01*
X6353578Y-13665591D01*
X6344261Y-13663418D01*
X6335106Y-13660641D01*
X6326152Y-13657271D01*
X6317437Y-13653323D01*
X6309000Y-13648813D01*
X6300876Y-13643761D01*
X6293099Y-13638188D01*
X6285704Y-13632119D01*
X6278721Y-13625579D01*
X6272181Y-13618596D01*
X6266112Y-13611201D01*
X6260539Y-13603424D01*
X6255487Y-13595300D01*
X6250977Y-13586863D01*
X6247029Y-13578148D01*
X6243659Y-13569194D01*
X6240882Y-13560039D01*
X6238709Y-13550722D01*
X6237151Y-13541283D01*
X6236213Y-13531762D01*
X6235900Y-13522200D01*
X6235900Y-13214600D01*
X6236213Y-13205038D01*
X6237151Y-13195517D01*
X6238709Y-13186078D01*
X6240882Y-13176761D01*
X6243659Y-13167606D01*
X6247029Y-13158652D01*
X6250977Y-13149937D01*
X6255487Y-13141500D01*
X6260539Y-13133376D01*
X6266112Y-13125599D01*
X6272181Y-13118204D01*
X6278721Y-13111221D01*
X6285704Y-13104681D01*
X6293099Y-13098612D01*
X6300876Y-13093039D01*
X6309000Y-13087987D01*
X6317437Y-13083477D01*
X6326152Y-13079529D01*
X6335106Y-13076159D01*
X6344261Y-13073382D01*
X6353578Y-13071209D01*
X6363017Y-13069651D01*
X6372538Y-13068713D01*
X6382100Y-13068400D01*
X8039700Y-13068400D01*
X8049262Y-13068713D01*
G37*
G36*
X5424571Y-15450898D02*
G01*
X5427573Y-15451393D01*
X5433449Y-15452968D01*
X5436297Y-15454040D01*
X5441752Y-15456730D01*
X5444336Y-15458337D01*
X5449161Y-15462039D01*
X5453462Y-15466340D01*
X5457165Y-15471166D01*
X5458772Y-15473750D01*
X5461462Y-15479205D01*
X5462534Y-15482053D01*
X5464108Y-15487928D01*
X5464604Y-15490931D01*
X5465002Y-15497000D01*
X5465002Y-15964000D01*
X5464604Y-15970069D01*
X5464108Y-15973072D01*
X5462534Y-15978947D01*
X5461462Y-15981795D01*
X5458772Y-15987250D01*
X5457165Y-15989834D01*
X5453462Y-15994660D01*
X5449161Y-15998961D01*
X5444336Y-16002663D01*
X5441752Y-16004270D01*
X5436297Y-16006960D01*
X5433449Y-16008032D01*
X5427573Y-16009607D01*
X5424571Y-16010102D01*
X5418502Y-16010500D01*
X4891502Y-16010500D01*
X4885432Y-16010102D01*
X4882430Y-16009607D01*
X4876555Y-16008032D01*
X4873707Y-16006960D01*
X4868252Y-16004270D01*
X4865668Y-16002663D01*
X4860842Y-15998961D01*
X4856541Y-15994660D01*
X4852838Y-15989834D01*
X4851232Y-15987250D01*
X4848541Y-15981795D01*
X4847470Y-15978947D01*
X4845895Y-15973072D01*
X4845400Y-15970069D01*
X4845002Y-15964000D01*
X4845002Y-15497000D01*
X4845400Y-15490931D01*
X4845895Y-15487928D01*
X4847470Y-15482053D01*
X4848541Y-15479205D01*
X4851232Y-15473750D01*
X4852838Y-15471166D01*
X4856541Y-15466340D01*
X4860842Y-15462039D01*
X4865668Y-15458337D01*
X4868252Y-15456730D01*
X4873707Y-15454040D01*
X4876555Y-15452968D01*
X4882430Y-15451393D01*
X4885432Y-15450898D01*
X4891502Y-15450500D01*
X5418502Y-15450500D01*
X5424571Y-15450898D01*
G37*
G36*
X5424568Y-14490898D02*
G01*
X5427570Y-14491393D01*
X5433445Y-14492968D01*
X5436293Y-14494040D01*
X5441748Y-14496730D01*
X5444332Y-14498337D01*
X5449158Y-14502039D01*
X5453459Y-14506340D01*
X5457162Y-14511166D01*
X5458768Y-14513750D01*
X5461459Y-14519205D01*
X5462530Y-14522053D01*
X5464105Y-14527928D01*
X5464600Y-14530931D01*
X5464998Y-14537000D01*
X5464998Y-15004000D01*
X5464600Y-15010069D01*
X5464105Y-15013072D01*
X5462530Y-15018947D01*
X5461459Y-15021795D01*
X5458768Y-15027250D01*
X5457162Y-15029834D01*
X5453459Y-15034660D01*
X5449158Y-15038961D01*
X5444332Y-15042663D01*
X5441748Y-15044270D01*
X5436293Y-15046960D01*
X5433445Y-15048032D01*
X5427570Y-15049607D01*
X5424568Y-15050102D01*
X5418498Y-15050500D01*
X4891498Y-15050500D01*
X4885429Y-15050102D01*
X4882427Y-15049607D01*
X4876551Y-15048032D01*
X4873703Y-15046960D01*
X4868248Y-15044270D01*
X4865664Y-15042663D01*
X4860839Y-15038961D01*
X4856538Y-15034660D01*
X4852835Y-15029834D01*
X4851228Y-15027250D01*
X4848538Y-15021795D01*
X4847466Y-15018947D01*
X4845892Y-15013072D01*
X4845396Y-15010069D01*
X4844998Y-15004000D01*
X4844998Y-14537000D01*
X4845396Y-14530931D01*
X4845892Y-14527928D01*
X4847466Y-14522053D01*
X4848538Y-14519205D01*
X4851228Y-14513750D01*
X4852835Y-14511166D01*
X4856538Y-14506340D01*
X4860839Y-14502039D01*
X4865664Y-14498337D01*
X4868248Y-14496730D01*
X4873703Y-14494040D01*
X4876551Y-14492968D01*
X4882427Y-14491393D01*
X4885429Y-14490898D01*
X4891498Y-14490500D01*
X5418498Y-14490500D01*
X5424568Y-14490898D01*
G37*
G36*
X9213157Y-9303955D02*
G01*
X9217793Y-9304411D01*
X9222390Y-9305170D01*
X9226928Y-9306228D01*
X9231386Y-9307581D01*
X9235747Y-9309222D01*
X9239991Y-9311145D01*
X9244100Y-9313341D01*
X9248057Y-9315801D01*
X9251844Y-9318515D01*
X9255445Y-9321471D01*
X9258846Y-9324656D01*
X9262031Y-9328057D01*
X9264987Y-9331658D01*
X9267701Y-9335445D01*
X9270161Y-9339402D01*
X9272357Y-9343511D01*
X9274280Y-9347755D01*
X9275921Y-9352116D01*
X9277274Y-9356574D01*
X9278332Y-9361112D01*
X9279091Y-9365709D01*
X9279548Y-9370345D01*
X9279700Y-9375002D01*
X9279700Y-10182602D01*
X9279548Y-10187259D01*
X9279091Y-10191896D01*
X9278332Y-10196493D01*
X9277274Y-10201030D01*
X9275921Y-10205489D01*
X9274280Y-10209849D01*
X9272357Y-10214093D01*
X9270161Y-10218202D01*
X9267701Y-10222159D01*
X9264987Y-10225946D01*
X9262031Y-10229548D01*
X9258846Y-10232948D01*
X9255445Y-10236133D01*
X9251844Y-10239089D01*
X9248057Y-10241803D01*
X9244100Y-10244263D01*
X9239991Y-10246459D01*
X9235747Y-10248382D01*
X9231386Y-10250024D01*
X9226928Y-10251376D01*
X9222390Y-10252434D01*
X9217793Y-10253193D01*
X9213157Y-10253650D01*
X9208500Y-10253802D01*
X8475900Y-10253802D01*
X8471243Y-10253650D01*
X8466607Y-10253193D01*
X8462010Y-10252434D01*
X8457472Y-10251376D01*
X8453014Y-10250024D01*
X8448653Y-10248382D01*
X8444409Y-10246459D01*
X8440300Y-10244263D01*
X8436343Y-10241803D01*
X8432556Y-10239089D01*
X8428955Y-10236133D01*
X8425554Y-10232948D01*
X8422369Y-10229548D01*
X8419413Y-10225946D01*
X8416699Y-10222159D01*
X8414239Y-10218202D01*
X8412043Y-10214093D01*
X8410120Y-10209849D01*
X8408479Y-10205489D01*
X8407126Y-10201030D01*
X8406068Y-10196493D01*
X8405309Y-10191896D01*
X8404852Y-10187259D01*
X8404700Y-10182602D01*
X8404700Y-9375002D01*
X8404852Y-9370345D01*
X8405309Y-9365709D01*
X8406068Y-9361112D01*
X8407126Y-9356574D01*
X8408479Y-9352116D01*
X8410120Y-9347755D01*
X8412043Y-9343511D01*
X8414239Y-9339402D01*
X8416699Y-9335445D01*
X8419413Y-9331658D01*
X8422369Y-9328057D01*
X8425554Y-9324656D01*
X8428955Y-9321471D01*
X8432556Y-9318515D01*
X8436343Y-9315801D01*
X8440300Y-9313341D01*
X8444409Y-9311145D01*
X8448653Y-9309222D01*
X8453014Y-9307581D01*
X8457472Y-9306228D01*
X8462010Y-9305170D01*
X8466607Y-9304411D01*
X8471243Y-9303955D01*
X8475900Y-9303802D01*
X9208500Y-9303802D01*
X9213157Y-9303955D01*
G37*
G36*
X7638157Y-9303950D02*
G01*
X7642793Y-9304407D01*
X7647390Y-9305166D01*
X7651928Y-9306224D01*
X7656386Y-9307576D01*
X7660747Y-9309218D01*
X7664991Y-9311141D01*
X7669100Y-9313337D01*
X7673057Y-9315797D01*
X7676844Y-9318511D01*
X7680445Y-9321467D01*
X7683846Y-9324652D01*
X7687031Y-9328052D01*
X7689987Y-9331654D01*
X7692701Y-9335441D01*
X7695161Y-9339398D01*
X7697357Y-9343507D01*
X7699280Y-9347751D01*
X7700921Y-9352111D01*
X7702274Y-9356570D01*
X7703332Y-9361107D01*
X7704091Y-9365704D01*
X7704548Y-9370341D01*
X7704700Y-9374998D01*
X7704700Y-10182598D01*
X7704548Y-10187255D01*
X7704091Y-10191891D01*
X7703332Y-10196488D01*
X7702274Y-10201026D01*
X7700921Y-10205484D01*
X7699280Y-10209845D01*
X7697357Y-10214089D01*
X7695161Y-10218198D01*
X7692701Y-10222155D01*
X7689987Y-10225942D01*
X7687031Y-10229543D01*
X7683846Y-10232944D01*
X7680445Y-10236129D01*
X7676844Y-10239085D01*
X7673057Y-10241799D01*
X7669100Y-10244259D01*
X7664991Y-10246455D01*
X7660747Y-10248378D01*
X7656386Y-10250019D01*
X7651928Y-10251372D01*
X7647390Y-10252430D01*
X7642793Y-10253189D01*
X7638157Y-10253645D01*
X7633500Y-10253798D01*
X6900900Y-10253798D01*
X6896243Y-10253645D01*
X6891607Y-10253189D01*
X6887010Y-10252430D01*
X6882472Y-10251372D01*
X6878014Y-10250019D01*
X6873653Y-10248378D01*
X6869409Y-10246455D01*
X6865300Y-10244259D01*
X6861343Y-10241799D01*
X6857556Y-10239085D01*
X6853955Y-10236129D01*
X6850554Y-10232944D01*
X6847369Y-10229543D01*
X6844413Y-10225942D01*
X6841699Y-10222155D01*
X6839239Y-10218198D01*
X6837043Y-10214089D01*
X6835120Y-10209845D01*
X6833479Y-10205484D01*
X6832126Y-10201026D01*
X6831068Y-10196488D01*
X6830309Y-10191891D01*
X6829852Y-10187255D01*
X6829700Y-10182598D01*
X6829700Y-9374998D01*
X6829852Y-9370341D01*
X6830309Y-9365704D01*
X6831068Y-9361107D01*
X6832126Y-9356570D01*
X6833479Y-9352111D01*
X6835120Y-9347751D01*
X6837043Y-9343507D01*
X6839239Y-9339398D01*
X6841699Y-9335441D01*
X6844413Y-9331654D01*
X6847369Y-9328052D01*
X6850554Y-9324652D01*
X6853955Y-9321467D01*
X6857556Y-9318511D01*
X6861343Y-9315797D01*
X6865300Y-9313337D01*
X6869409Y-9311141D01*
X6873653Y-9309218D01*
X6878014Y-9307576D01*
X6882472Y-9306224D01*
X6887010Y-9305166D01*
X6891607Y-9304407D01*
X6896243Y-9303950D01*
X6900900Y-9303798D01*
X7633500Y-9303798D01*
X7638157Y-9303950D01*
G37*
%TD*%
M02*
