<svg xmlns="http://www.w3.org/2000/svg" xmlns:xlink="http://www.w3.org/1999/xlink" width="1920" zoomAndPan="magnify" viewBox="0 0 1440 809.999993" height="1080" preserveAspectRatio="xMidYMid meet" version="1.0"><defs><g/><clipPath id="0e31c28767"><path d="M 4.902344 0 L 1432 0 L 1432 499 L 4.902344 499 Z M 4.902344 0 " clip-rule="nonzero"/></clipPath></defs><g clip-path="url(#0e31c28767)"><path fill="#000000" d="M 248.273438 -1.359375 C 280.902344 -1.359375 313.53125 -1.359375 346.160156 -1.359375 C 461.28125 16.617188 570.953125 52.414062 675.164062 106.03125 C 825.964844 165.453125 979.136719 171.796875 1134.683594 125.0625 C 1211.445312 103.449219 1283.953125 72.183594 1352.207031 31.265625 C 1354.929688 32.171875 1356.742188 33.984375 1357.648438 36.703125 C 1337.359375 75.003906 1317.421875 113.519531 1297.828125 152.25 C 1342.230469 153.609375 1386.640625 154.0625 1431.0625 153.609375 C 1431.523438 157.203125 1430.617188 160.375 1428.34375 163.125 C 1323.300781 261.433594 1206.378906 342.996094 1077.585938 407.8125 C 995.027344 448.0625 908.015625 463.472656 816.554688 454.03125 C 731.859375 449.957031 648.476562 437.273438 566.402344 415.96875 C 454.945312 381.765625 342.558594 350.953125 229.242188 323.53125 C 173.394531 311.105469 117.199219 308.835938 60.660156 316.734375 C 50.730469 377.035156 45.292969 437.753906 44.34375 498.890625 C 30.75 498.890625 17.152344 498.890625 3.558594 498.890625 C 3.558594 486.203125 3.558594 473.515625 3.558594 460.828125 C 23.070312 302.164062 73.824219 153.992188 155.824219 16.3125 C 161.941406 13.964844 166.925781 15.324219 170.78125 20.390625 C 195.988281 9.90625 221.820312 2.65625 248.273438 -1.359375 Z M 248.273438 66.609375 C 258.648438 68.386719 266.351562 73.824219 271.386719 82.921875 C 278.722656 103.363281 280.082031 124.207031 275.464844 145.453125 C 286.460938 148.515625 297.335938 152.140625 308.09375 156.328125 C 309.90625 155.421875 311.71875 154.515625 313.53125 153.609375 C 321.496094 130.859375 333.28125 110.46875 348.878906 92.4375 C 361.859375 88.738281 371.375 92.816406 377.429688 104.671875 C 377.410156 117.484375 375.597656 130.171875 371.992188 142.734375 C 361.957031 179.234375 351.082031 215.484375 339.363281 251.484375 C 332.847656 268.550781 320.609375 276.253906 302.65625 274.59375 C 296.167969 270.617188 293.449219 264.726562 294.496094 256.921875 C 297.269531 239.882812 300.894531 223.117188 305.375 206.625 C 292.1875 198.90625 278.140625 193.015625 263.226562 188.953125 C 253.050781 201.117188 244.894531 214.710938 238.757812 229.734375 C 231.035156 237.464844 221.972656 242.902344 211.566406 246.046875 C 200.84375 243.480469 194.953125 236.683594 193.894531 225.65625 C 209.316406 178.921875 221.550781 131.34375 230.601562 82.921875 C 234.503906 74.921875 240.394531 69.484375 248.273438 66.609375 Z M 463.078125 110.109375 C 474.125 110.71875 481.828125 116.15625 486.191406 126.421875 C 494.742188 181.113281 490.664062 235.035156 473.953125 288.1875 C 468.96875 308.613281 456.277344 316.769531 435.886719 312.65625 C 433.820312 308.738281 432.011719 304.660156 430.449219 300.421875 C 434.433594 286.65625 438.964844 273.0625 444.046875 259.640625 C 434.140625 257.433594 424.171875 255.621094 414.136719 254.203125 C 405.445312 264.660156 396.382812 275.082031 386.945312 285.46875 C 373.96875 292.921875 365.808594 289.292969 362.472656 274.59375 C 387.683594 227.359375 412.609375 179.78125 437.246094 131.859375 C 443.125 120.972656 451.734375 113.722656 463.078125 110.109375 Z M 585.4375 153.609375 C 616 155.042969 628.238281 170.449219 622.144531 199.828125 C 619.542969 203.617188 615.917969 205.429688 611.265625 205.265625 C 602.574219 203.277344 594.867188 199.652344 588.15625 194.390625 C 574.65625 198.378906 566.046875 207.441406 562.324219 221.578125 C 550.867188 245.347656 547.238281 269.816406 551.449219 294.984375 C 557.890625 309.332031 569.222656 315.222656 585.4375 312.65625 C 593.230469 324.132812 591.414062 334.101562 579.996094 342.5625 C 550.175781 351.894531 528.878906 342.378906 516.101562 314.015625 C 503.976562 263.714844 513.039062 217.496094 543.289062 175.359375 C 554.554688 162.128906 568.605469 154.878906 585.4375 153.609375 Z M 1178.191406 156.328125 C 1197.992188 156.191406 1207.964844 166.160156 1208.097656 186.234375 C 1207.121094 193.246094 1205.308594 200.042969 1202.660156 206.625 C 1222.964844 218.535156 1230.667969 236.207031 1225.773438 259.640625 C 1217.769531 274.785156 1205.535156 285.203125 1189.066406 290.90625 C 1177.5625 294.414062 1165.78125 295.773438 1153.71875 294.984375 C 1145.421875 259.21875 1135.453125 223.875 1123.808594 188.953125 C 1125.515625 184.171875 1128.234375 180.09375 1131.964844 176.71875 C 1146.617188 167.484375 1162.023438 160.6875 1178.191406 156.328125 Z M 664.289062 180.796875 C 678.554688 182.824219 687.164062 190.980469 690.121094 205.265625 C 690.199219 223.53125 689.292969 241.660156 687.402344 259.640625 C 701.105469 245.78125 716.0625 233.546875 732.265625 222.9375 C 741.429688 219.929688 747.773438 222.648438 751.296875 231.09375 C 749.03125 240.609375 744.953125 249.21875 739.0625 256.921875 C 730.050781 268.199219 720.535156 279.074219 710.511719 289.546875 C 725.453125 315.773438 732.25 343.867188 730.90625 373.828125 C 725.324219 384.136719 716.714844 387.308594 705.074219 383.34375 C 702.582031 382.328125 700.316406 380.96875 698.277344 379.265625 C 691.464844 356.097656 686.027344 332.535156 681.960938 308.578125 C 679.109375 304.210938 675.03125 302.398438 669.726562 303.140625 C 666.34375 326.03125 655.46875 344.605469 637.097656 358.875 C 624.296875 366.460938 615.234375 363.742188 609.90625 350.71875 C 621.402344 328.175781 631.824219 305.066406 641.175781 281.390625 C 647.304688 254.574219 650.929688 227.386719 652.054688 199.828125 C 653.492188 191.441406 657.574219 185.097656 664.289062 180.796875 Z M 1085.742188 191.671875 C 1098.332031 195.023438 1106.035156 203.179688 1108.855469 216.140625 C 1117.191406 244.625 1119.910156 273.625 1117.011719 303.140625 C 1110.097656 331.863281 1092.421875 341.378906 1063.988281 331.6875 C 1048.867188 324.722656 1038.445312 313.394531 1032.71875 297.703125 C 1025.0625 272.515625 1018.265625 247.140625 1012.328125 221.578125 C 1016.640625 203.855469 1025.25 201.136719 1038.160156 213.421875 C 1045.824219 239.550781 1053.074219 265.832031 1059.910156 292.265625 C 1062.367188 303.652344 1069.167969 308.636719 1080.304688 307.21875 C 1086.25 300.261719 1088.96875 292.105469 1088.460938 282.75 C 1086.414062 258.230469 1081.882812 234.214844 1074.867188 210.703125 C 1075.726562 202.363281 1079.347656 196.019531 1085.742188 191.671875 Z M 938.914062 218.859375 C 942.234375 220.296875 945.402344 222.109375 948.429688 224.296875 C 953.722656 234.585938 957.347656 245.460938 959.304688 256.921875 C 962.921875 284.007812 965.640625 311.195312 967.464844 338.484375 C 970.808594 340.136719 974.433594 341.042969 978.339844 341.203125 C 994.183594 337.792969 1010.046875 335.527344 1025.921875 334.40625 C 1035.734375 339.726562 1036.636719 346.523438 1028.640625 354.796875 C 1001.53125 366.714844 973.4375 371.246094 944.351562 368.390625 C 936.875 326.503906 930.53125 284.363281 925.316406 241.96875 C 925.710938 231.460938 930.242188 223.757812 938.914062 218.859375 Z M 865.5 227.015625 C 890.011719 229.765625 901.796875 243.359375 900.847656 267.796875 C 890.082031 268.960938 880.566406 266.242188 872.296875 259.640625 C 862.164062 263.605469 855.820312 270.855469 853.261719 281.390625 C 848.316406 308.277344 854.207031 332.296875 870.9375 353.4375 C 874.667969 355.816406 878.75 357.175781 883.171875 357.515625 C 892.449219 353.800781 901.964844 352.441406 911.722656 353.4375 C 919.535156 370.652344 914.097656 382.433594 895.40625 388.78125 C 854.925781 396.371094 831.8125 379.601562 826.070312 338.484375 C 819.871094 306.507812 823.496094 275.699219 836.949219 246.046875 C 845.101562 237.246094 854.617188 230.902344 865.5 227.015625 Z M 865.5 227.015625 " fill-opacity="0.984" fill-rule="evenodd"/></g><path fill="#000000" d="M 457.640625 161.765625 C 461.554688 165.695312 463.371094 170.679688 463.078125 176.71875 C 461.757812 189.078125 459.945312 201.3125 457.640625 213.421875 C 456.734375 214.328125 455.828125 215.234375 454.921875 216.140625 C 447.273438 214.183594 439.570312 212.371094 431.808594 210.703125 C 428.390625 209.75 427.484375 207.941406 429.089844 205.265625 C 440.351562 191.773438 449.871094 177.273438 457.640625 161.765625 Z M 457.640625 161.765625 " fill-opacity="1" fill-rule="evenodd"/><path fill="#000000" d="M 1164.59375 186.234375 C 1179.855469 182.371094 1185.75 187.808594 1182.269531 202.546875 C 1176.835938 208.429688 1170.488281 212.960938 1163.234375 216.140625 C 1157.914062 209.800781 1153.835938 202.550781 1151 194.390625 C 1155.472656 191.136719 1160 188.417969 1164.59375 186.234375 Z M 1164.59375 186.234375 " fill-opacity="1" fill-rule="evenodd"/><path fill="#000000" d="M 1186.347656 232.453125 C 1200.792969 232.84375 1206.683594 240.09375 1204.019531 254.203125 C 1177.785156 280.015625 1166.453125 275.027344 1170.03125 239.25 C 1176.078125 237.710938 1181.515625 235.445312 1186.347656 232.453125 Z M 1186.347656 232.453125 " fill-opacity="1" fill-rule="evenodd"/><g fill="#000000" fill-opacity="1"><g transform="translate(30.049377, 667.425531)"><g><path d="M 178.578125 -11.265625 C 179.460938 -8.171875 180.457031 -5.019531 181.5625 -1.8125 C 182.664062 1.382812 184.429688 4.53125 186.859375 7.625 C 189.066406 5.414062 191 3.09375 192.65625 0.65625 C 194.3125 -1.769531 195.800781 -4.195312 197.125 -6.625 C 214.800781 -39.53125 229.601562 -73.878906 241.53125 -109.671875 C 241.96875 -110.992188 242.410156 -112.535156 242.859375 -114.296875 C 243.734375 -117.609375 245.828125 -118.828125 249.140625 -117.953125 C 250.242188 -117.503906 251.289062 -117.222656 252.28125 -117.109375 C 253.28125 -117.003906 254.332031 -116.84375 255.4375 -116.625 C 259.414062 -115.738281 260.960938 -113.195312 260.078125 -109 C 258.972656 -105.019531 257.8125 -100.988281 256.59375 -96.90625 C 255.382812 -92.820312 254.117188 -88.789062 252.796875 -84.8125 C 247.710938 -70.457031 242.242188 -56.210938 236.390625 -42.078125 C 230.535156 -27.941406 224.296875 -13.914062 217.671875 0 C 216.347656 2.644531 214.96875 5.238281 213.53125 7.78125 C 212.09375 10.320312 210.492188 12.804688 208.734375 15.234375 C 204.085938 20.753906 198.125 23.738281 190.84375 24.1875 C 181.5625 24.625 173.441406 23.078125 166.484375 19.546875 C 159.523438 16.015625 153.726562 10.050781 149.09375 1.65625 C 142.90625 -10.488281 137.601562 -22.851562 133.1875 -35.4375 C 128.769531 -48.03125 125.015625 -60.84375 121.921875 -73.875 C 119.710938 -82.9375 117.832031 -91.992188 116.28125 -101.046875 C 114.738281 -110.109375 113.414062 -119.164062 112.3125 -128.21875 C 111.875 -132.195312 111.265625 -134.570312 110.484375 -135.34375 C 109.710938 -136.113281 107.226562 -136.71875 103.03125 -137.15625 C 100.382812 -137.382812 97.789062 -137.609375 95.25 -137.828125 C 92.707031 -138.046875 90.113281 -138.265625 87.46875 -138.484375 C 83.707031 -138.929688 81.382812 -138.878906 80.5 -138.328125 C 79.625 -137.773438 78.523438 -135.726562 77.203125 -132.1875 C 72.554688 -119.382812 68.078125 -106.460938 63.765625 -93.421875 C 59.460938 -80.390625 55.210938 -67.25 51.015625 -54 C 48.585938 -46.050781 46.160156 -38.046875 43.734375 -29.984375 C 41.304688 -21.921875 38.765625 -13.800781 36.109375 -5.625 C 35.003906 -1.65625 33.898438 1.875 32.796875 4.96875 C 29.703125 12.914062 24.398438 14.796875 16.890625 10.609375 C 15.128906 9.503906 14.46875 8.175781 14.90625 6.625 C 15.125 5.519531 15.398438 4.359375 15.734375 3.140625 C 16.066406 1.929688 16.34375 0.664062 16.5625 -0.65625 C 22.96875 -22.75 29.59375 -44.835938 36.4375 -66.921875 C 43.289062 -89.015625 50.914062 -110.882812 59.3125 -132.53125 C 59.53125 -133.1875 59.800781 -133.898438 60.125 -134.671875 C 60.457031 -135.453125 60.738281 -136.171875 60.96875 -136.828125 C 61.84375 -139.253906 60.847656 -140.691406 57.984375 -141.140625 C 47.597656 -142.679688 37.4375 -142.953125 27.5 -141.953125 C 17.5625 -140.960938 7.953125 -137.707031 -1.328125 -132.1875 C -2.429688 -131.53125 -3.585938 -130.925781 -4.796875 -130.375 C -6.015625 -129.820312 -7.285156 -129.210938 -8.609375 -128.546875 C -11.265625 -127.222656 -13.859375 -126.613281 -16.390625 -126.71875 C -18.929688 -126.832031 -21.53125 -127.332031 -24.1875 -128.21875 C -28.164062 -129.320312 -28.828125 -131.421875 -26.171875 -134.515625 C -24.179688 -136.941406 -21.863281 -139.039062 -19.21875 -140.8125 C -6.1875 -150.300781 8.28125 -155.597656 24.1875 -156.703125 C 30.144531 -157.148438 36.160156 -157.316406 42.234375 -157.203125 C 48.316406 -157.097656 54.445312 -156.492188 60.625 -155.390625 C 65.488281 -154.722656 68.800781 -156.597656 70.5625 -161.015625 C 76.96875 -178.242188 83.648438 -195.304688 90.609375 -212.203125 C 97.566406 -229.097656 104.03125 -246.160156 110 -263.390625 C 110.882812 -265.597656 111.546875 -267.695312 111.984375 -269.6875 C 113.753906 -274.988281 115.191406 -278.132812 116.296875 -279.125 C 117.398438 -280.125 120.710938 -280.625 126.234375 -280.625 C 131.753906 -280.625 135.5625 -280.566406 137.65625 -280.453125 C 139.757812 -280.347656 141.085938 -279.300781 141.640625 -277.3125 C 142.191406 -275.320312 142.6875 -271.457031 143.125 -265.71875 C 144.675781 -247.382812 146.222656 -229.101562 147.765625 -210.875 C 149.304688 -192.65625 150.851562 -174.488281 152.40625 -156.375 C 152.40625 -155.71875 152.515625 -155 152.734375 -154.21875 C 152.953125 -153.445312 153.0625 -152.617188 153.0625 -151.734375 C 153.28125 -147.546875 155.710938 -145.335938 160.359375 -145.109375 C 165.429688 -145.109375 170.5625 -145 175.75 -144.78125 C 180.945312 -144.5625 186.085938 -144.671875 191.171875 -145.109375 C 192.929688 -145.335938 194.75 -145.453125 196.625 -145.453125 C 198.507812 -145.453125 200.332031 -145.007812 202.09375 -144.125 C 203.195312 -143.457031 204.132812 -142.789062 204.90625 -142.125 C 205.6875 -141.46875 206.078125 -140.476562 206.078125 -139.15625 C 206.078125 -138.050781 205.6875 -137.222656 204.90625 -136.671875 C 204.132812 -136.117188 203.3125 -135.617188 202.4375 -135.171875 C 201.332031 -134.515625 200.0625 -134.070312 198.625 -133.84375 C 197.1875 -133.625 195.804688 -133.40625 194.484375 -133.1875 C 189.398438 -132.300781 184.257812 -131.859375 179.0625 -131.859375 C 173.875 -131.859375 168.742188 -131.96875 163.671875 -132.1875 C 159.910156 -132.1875 157.644531 -131.800781 156.875 -131.03125 C 156.101562 -130.257812 155.9375 -127.992188 156.375 -124.234375 C 159.03125 -105.242188 161.957031 -86.304688 165.15625 -67.421875 C 168.363281 -48.535156 172.835938 -29.816406 178.578125 -11.265625 Z M 106.015625 -208.0625 C 102.484375 -199.007812 99.003906 -190.007812 95.578125 -181.0625 C 92.160156 -172.113281 88.679688 -163.113281 85.140625 -154.0625 C 88.453125 -152.738281 91.597656 -151.910156 94.578125 -151.578125 C 97.566406 -151.242188 100.5 -151.078125 103.375 -151.078125 C 106.46875 -150.859375 108.289062 -151.023438 108.84375 -151.578125 C 109.394531 -152.128906 109.554688 -154.0625 109.328125 -157.375 C 108.671875 -164.664062 108.285156 -172.066406 108.171875 -179.578125 C 108.066406 -187.085938 108.015625 -194.59375 108.015625 -202.09375 C 108.015625 -202.976562 108.066406 -203.972656 108.171875 -205.078125 C 108.285156 -206.179688 107.566406 -207.175781 106.015625 -208.0625 Z M 106.015625 -208.0625 "/></g></g></g><g fill="#000000" fill-opacity="1"><g transform="translate(264.620936, 667.425531)"><g><path d="M 186.203125 -96.75 C 189.296875 -96.082031 191.28125 -95.25 192.15625 -94.25 C 193.039062 -93.257812 193.039062 -91.21875 192.15625 -88.125 C 188.625 -74.65625 184.425781 -61.515625 179.5625 -48.703125 C 174.707031 -35.890625 168.523438 -23.742188 161.015625 -12.265625 C 157.921875 -7.617188 154.71875 -3.75 151.40625 -0.65625 C 146.769531 3.53125 140.804688 6.175781 133.515625 7.28125 C 126.222656 8.394531 119.816406 7.625 114.296875 4.96875 C 111.210938 3.644531 108.785156 1.769531 107.015625 -0.65625 C 105.242188 -3.09375 103.695312 -5.859375 102.375 -8.953125 C 100.382812 -14.023438 98.945312 -19.265625 98.0625 -24.671875 C 97.1875 -30.085938 96.632812 -35.554688 96.40625 -41.078125 C 95.75 -52.347656 95.804688 -63.554688 96.578125 -74.703125 C 97.347656 -85.859375 97.957031 -97.070312 98.40625 -108.34375 C 99.0625 -120.488281 98.175781 -132.632812 95.75 -144.78125 C 95.3125 -146.550781 94.816406 -148.484375 94.265625 -150.578125 C 93.710938 -152.679688 92.21875 -153.953125 89.78125 -154.390625 C 87.570312 -154.828125 85.804688 -154.328125 84.484375 -152.890625 C 83.160156 -151.460938 81.835938 -149.972656 80.515625 -148.421875 C 67.921875 -132.742188 58.3125 -115.40625 51.6875 -96.40625 C 46.382812 -81.164062 41.742188 -65.757812 37.765625 -50.1875 C 33.796875 -34.625 30.375 -19 27.5 -3.3125 C 26.613281 1.101562 25.726562 3.640625 24.84375 4.296875 C 23.957031 4.960938 21.421875 5.40625 17.234375 5.625 C 15.679688 5.625 14.128906 5.679688 12.578125 5.796875 C 11.035156 5.910156 9.492188 5.96875 7.953125 5.96875 C 2.867188 6.40625 -0.273438 6.125 -1.484375 5.125 C -2.703125 4.132812 -3.644531 1.320312 -4.3125 -3.3125 C -5.1875 -9.050781 -6.066406 -14.789062 -6.953125 -20.53125 C -7.835938 -26.28125 -8.390625 -32.023438 -8.609375 -37.765625 C -9.492188 -58.753906 -9.382812 -79.679688 -8.28125 -100.546875 C -7.175781 -121.421875 -4.859375 -142.238281 -1.328125 -163 C -1.328125 -163.882812 -1.160156 -164.769531 -0.828125 -165.65625 C -0.492188 -166.539062 -0.328125 -167.425781 -0.328125 -168.3125 C 0.109375 -172.726562 2.644531 -174.828125 7.28125 -174.609375 C 12.582031 -174.609375 18.21875 -174.71875 24.1875 -174.9375 C 28.164062 -175.15625 30.375 -173.164062 30.8125 -168.96875 C 31.03125 -166.09375 31.140625 -163.550781 31.140625 -161.34375 C 31.140625 -153.175781 31.140625 -144.945312 31.140625 -136.65625 C 31.140625 -128.375 31.140625 -120.039062 31.140625 -111.65625 C 31.140625 -110.332031 31.140625 -108.894531 31.140625 -107.34375 C 31.140625 -105.800781 31.140625 -104.035156 31.140625 -102.046875 C 32.910156 -103.367188 34.070312 -104.800781 34.625 -106.34375 C 35.175781 -107.894531 35.78125 -109.332031 36.4375 -110.65625 C 39.75 -117.5 43.226562 -124.175781 46.875 -130.6875 C 50.519531 -137.207031 54.664062 -143.453125 59.3125 -149.421875 C 63.0625 -154.054688 67.195312 -158.03125 71.71875 -161.34375 C 76.25 -164.65625 81.5 -166.976562 87.46875 -168.3125 C 100.71875 -171.394531 110.765625 -166.972656 117.609375 -155.046875 C 119.816406 -151.078125 121.414062 -146.882812 122.40625 -142.46875 C 123.40625 -138.050781 124.128906 -133.632812 124.578125 -129.21875 C 125.015625 -122.8125 125.175781 -116.40625 125.0625 -110 C 124.957031 -103.59375 124.570312 -97.1875 123.90625 -90.78125 C 122.800781 -78.851562 122.023438 -66.867188 121.578125 -54.828125 C 121.140625 -42.796875 122.25 -30.816406 124.90625 -18.890625 C 124.90625 -18.222656 124.957031 -17.613281 125.0625 -17.0625 C 125.175781 -16.507812 125.34375 -15.898438 125.5625 -15.234375 C 126.226562 -13.253906 126.835938 -11.15625 127.390625 -8.9375 C 127.941406 -6.726562 129.539062 -5.40625 132.1875 -4.96875 C 134.625 -4.53125 136.671875 -5.140625 138.328125 -6.796875 C 139.984375 -8.453125 141.472656 -10.160156 142.796875 -11.921875 C 145.003906 -14.578125 146.988281 -17.503906 148.75 -20.703125 C 150.519531 -23.910156 152.289062 -27.0625 154.0625 -30.15625 C 159.144531 -39.875 163.671875 -49.8125 167.640625 -59.96875 C 171.617188 -70.125 175.375 -80.394531 178.90625 -90.78125 C 179.351562 -92.550781 179.960938 -94.148438 180.734375 -95.578125 C 181.503906 -97.015625 183.328125 -97.40625 186.203125 -96.75 Z M 186.203125 -96.75 "/></g></g></g><g fill="#000000" fill-opacity="1"><g transform="translate(440.880939, 667.425531)"><g><path d="M 32.796875 -144.78125 C 32.359375 -145.445312 31.914062 -146.164062 31.46875 -146.9375 C 31.03125 -147.707031 30.367188 -148.644531 29.484375 -149.75 C 27.941406 -143.5625 26.671875 -137.597656 25.671875 -131.859375 C 24.679688 -126.117188 23.632812 -120.488281 22.53125 -114.96875 C 18.769531 -94.863281 13.90625 -75.148438 7.9375 -55.828125 C 1.976562 -36.503906 -4.863281 -17.453125 -12.59375 1.328125 C -14.132812 5.523438 -15.675781 8.007812 -17.21875 8.78125 C -18.769531 9.550781 -21.425781 9.609375 -25.1875 8.953125 C -28.9375 8.285156 -30.257812 6.1875 -29.15625 2.65625 C -28.050781 -0.21875 -27.054688 -3.144531 -26.171875 -6.125 C -25.285156 -9.113281 -24.289062 -12.148438 -23.1875 -15.234375 C -15.238281 -38.429688 -8.613281 -61.957031 -3.3125 -85.8125 C 1.988281 -109.664062 7.179688 -133.628906 12.265625 -157.703125 C 13.140625 -161.679688 14.019531 -165.65625 14.90625 -169.625 C 15.789062 -173.601562 16.675781 -177.472656 17.5625 -181.234375 C 20.425781 -192.929688 26.609375 -195.25 36.109375 -188.1875 C 42.734375 -183.101562 48.035156 -177.359375 52.015625 -170.953125 C 59.960938 -158.140625 67.414062 -145 74.375 -131.53125 C 81.332031 -118.0625 87.132812 -104.035156 91.78125 -89.453125 C 93.101562 -85.703125 94.203125 -83.601562 95.078125 -83.15625 C 95.960938 -82.71875 98.394531 -83.269531 102.375 -84.8125 C 107.457031 -87.019531 112.425781 -89.335938 117.28125 -91.765625 C 122.144531 -94.203125 126.785156 -96.96875 131.203125 -100.0625 C 132.304688 -100.9375 133.460938 -101.757812 134.671875 -102.53125 C 135.890625 -103.3125 137.160156 -103.921875 138.484375 -104.359375 C 142.460938 -105.242188 145.113281 -104.140625 146.4375 -101.046875 C 147.101562 -99.722656 147.046875 -98.5625 146.265625 -97.5625 C 145.492188 -96.570312 144.671875 -95.632812 143.796875 -94.75 C 140.035156 -92.101562 136.164062 -89.453125 132.1875 -86.796875 C 128.21875 -84.148438 124.132812 -81.832031 119.9375 -79.84375 C 117.726562 -78.738281 115.460938 -77.6875 113.140625 -76.6875 C 110.828125 -75.695312 108.5625 -74.757812 106.34375 -73.875 C 101.925781 -72.332031 99.441406 -71.0625 98.890625 -70.0625 C 98.335938 -69.070312 98.503906 -66.476562 99.390625 -62.28125 C 100.054688 -59.851562 100.550781 -57.367188 100.875 -54.828125 C 101.207031 -52.285156 101.597656 -49.800781 102.046875 -47.375 C 102.929688 -42.519531 103.148438 -37.71875 102.703125 -32.96875 C 102.265625 -28.21875 101.492188 -23.410156 100.390625 -18.546875 C 97.734375 -8.609375 91.988281 -0.769531 83.15625 4.96875 C 75.425781 10.269531 67.304688 13.363281 58.796875 14.25 C 50.296875 15.132812 41.738281 14.03125 33.125 10.9375 C 25.394531 8.28125 19.488281 4.082031 15.40625 -1.65625 C 11.320312 -7.394531 9.28125 -13.796875 9.28125 -20.859375 C 9.28125 -27.929688 11.597656 -34.78125 16.234375 -41.40625 C 20.429688 -47.375 25.34375 -52.234375 30.96875 -55.984375 C 36.601562 -59.742188 42.625 -63.0625 49.03125 -65.9375 C 52.789062 -67.695312 55.382812 -69.128906 56.8125 -70.234375 C 58.25 -71.335938 58.859375 -72.773438 58.640625 -74.546875 C 58.421875 -76.316406 57.757812 -79.078125 56.65625 -82.828125 C 53.34375 -93.429688 49.585938 -103.867188 45.390625 -114.140625 C 41.191406 -124.410156 36.992188 -134.625 32.796875 -144.78125 Z M 65.59375 -8.953125 C 66.695312 -12.035156 67.46875 -15.175781 67.90625 -18.375 C 68.351562 -21.582031 68.578125 -24.515625 68.578125 -27.171875 C 68.578125 -32.242188 68.191406 -36.929688 67.421875 -41.234375 C 66.648438 -45.546875 65.710938 -49.800781 64.609375 -54 C 63.941406 -57.539062 62.175781 -58.535156 59.3125 -56.984375 C 53.5625 -54.109375 48.367188 -50.679688 43.734375 -46.703125 C 39.097656 -42.734375 35.5625 -37.65625 33.125 -31.46875 C 31.144531 -25.726562 30.867188 -20.257812 32.296875 -15.0625 C 33.734375 -9.875 36.769531 -5.515625 41.40625 -1.984375 C 46.269531 1.546875 50.960938 2.648438 55.484375 1.328125 C 60.015625 0.00390625 63.382812 -3.421875 65.59375 -8.953125 Z M 65.59375 -8.953125 "/></g></g></g><g fill="#000000" fill-opacity="1"><g transform="translate(571.419358, 667.425531)"><g><path d="M 81.5 -94.421875 C 81.5 -94.421875 80.945312 -94.203125 79.84375 -93.765625 C 79.84375 -93.097656 79.84375 -92.429688 79.84375 -91.765625 C 79.84375 -91.109375 79.953125 -90.445312 80.171875 -89.78125 C 83.046875 -78.957031 83.875 -68.300781 82.65625 -57.8125 C 81.445312 -47.320312 78.742188 -37 74.546875 -26.84375 C 69.910156 -15.570312 63.226562 -7.726562 54.5 -3.3125 C 45.769531 1.101562 35.554688 1.988281 23.859375 -0.65625 C 17.671875 -2.207031 12.476562 -4.804688 8.28125 -8.453125 C 4.082031 -12.097656 0.660156 -16.566406 -1.984375 -21.859375 C -5.078125 -27.828125 -7.117188 -33.957031 -8.109375 -40.25 C -9.109375 -46.550781 -9.390625 -52.90625 -8.953125 -59.3125 C -7.835938 -71.007812 -5.566406 -82.328125 -2.140625 -93.265625 C 1.273438 -104.203125 6.1875 -114.523438 12.59375 -124.234375 C 14.582031 -127.328125 16.734375 -130.253906 19.046875 -133.015625 C 21.367188 -135.773438 23.96875 -138.257812 26.84375 -140.46875 C 31.914062 -144.226562 36.492188 -146.109375 40.578125 -146.109375 C 44.671875 -146.109375 49.144531 -144.34375 54 -140.8125 C 55.988281 -139.257812 57.921875 -137.65625 59.796875 -136 C 61.679688 -134.34375 63.503906 -132.632812 65.265625 -130.875 C 66.585938 -129.539062 67.910156 -128.210938 69.234375 -126.890625 C 70.566406 -125.566406 71.894531 -124.242188 73.21875 -122.921875 C 81.164062 -114.742188 89.890625 -108.941406 99.390625 -105.515625 C 108.890625 -102.097656 119.382812 -101.9375 130.875 -105.03125 C 132.632812 -105.46875 134.453125 -105.851562 136.328125 -106.1875 C 138.210938 -106.519531 140.035156 -106.796875 141.796875 -107.015625 C 143.347656 -107.453125 144.726562 -107.445312 145.9375 -107 C 147.15625 -106.5625 147.984375 -105.460938 148.421875 -103.703125 C 149.304688 -100.171875 147.875 -97.851562 144.125 -96.75 C 134.84375 -94.539062 125.507812 -92.828125 116.125 -91.609375 C 106.738281 -90.390625 97.296875 -90.882812 87.796875 -93.09375 C 86.691406 -93.539062 85.640625 -93.816406 84.640625 -93.921875 C 83.648438 -94.035156 82.601562 -94.203125 81.5 -94.421875 Z M 47.703125 -115.953125 C 47.046875 -116.835938 46.382812 -117.722656 45.71875 -118.609375 C 45.0625 -119.492188 44.066406 -120.15625 42.734375 -120.59375 C 40.972656 -118.601562 39.539062 -116.445312 38.4375 -114.125 C 37.332031 -111.8125 36.335938 -109.441406 35.453125 -107.015625 C 33.460938 -100.609375 31.804688 -94.09375 30.484375 -87.46875 C 29.160156 -80.84375 28.054688 -74.21875 27.171875 -67.59375 C 26.066406 -60.519531 25.566406 -53.445312 25.671875 -46.375 C 25.785156 -39.3125 26.945312 -32.25 29.15625 -25.1875 C 29.59375 -23.414062 30.144531 -21.644531 30.8125 -19.875 C 31.476562 -18.113281 32.472656 -16.457031 33.796875 -14.90625 C 37.328125 -10.269531 41.300781 -9.941406 45.71875 -13.921875 C 48.8125 -16.785156 51.460938 -20.539062 53.671875 -25.1875 C 61.179688 -40.863281 64.21875 -56.265625 62.78125 -71.390625 C 61.34375 -86.523438 56.316406 -101.378906 47.703125 -115.953125 Z M 47.703125 -115.953125 "/></g></g></g><g fill="#000000" fill-opacity="1"><g transform="translate(703.614297, 667.425531)"><g><path d="M 186.203125 -96.75 C 189.296875 -96.082031 191.28125 -95.25 192.15625 -94.25 C 193.039062 -93.257812 193.039062 -91.21875 192.15625 -88.125 C 188.625 -74.65625 184.425781 -61.515625 179.5625 -48.703125 C 174.707031 -35.890625 168.523438 -23.742188 161.015625 -12.265625 C 157.921875 -7.617188 154.71875 -3.75 151.40625 -0.65625 C 146.769531 3.53125 140.804688 6.175781 133.515625 7.28125 C 126.222656 8.394531 119.816406 7.625 114.296875 4.96875 C 111.210938 3.644531 108.785156 1.769531 107.015625 -0.65625 C 105.242188 -3.09375 103.695312 -5.859375 102.375 -8.953125 C 100.382812 -14.023438 98.945312 -19.265625 98.0625 -24.671875 C 97.1875 -30.085938 96.632812 -35.554688 96.40625 -41.078125 C 95.75 -52.347656 95.804688 -63.554688 96.578125 -74.703125 C 97.347656 -85.859375 97.957031 -97.070312 98.40625 -108.34375 C 99.0625 -120.488281 98.175781 -132.632812 95.75 -144.78125 C 95.3125 -146.550781 94.816406 -148.484375 94.265625 -150.578125 C 93.710938 -152.679688 92.21875 -153.953125 89.78125 -154.390625 C 87.570312 -154.828125 85.804688 -154.328125 84.484375 -152.890625 C 83.160156 -151.460938 81.835938 -149.972656 80.515625 -148.421875 C 67.921875 -132.742188 58.3125 -115.40625 51.6875 -96.40625 C 46.382812 -81.164062 41.742188 -65.757812 37.765625 -50.1875 C 33.796875 -34.625 30.375 -19 27.5 -3.3125 C 26.613281 1.101562 25.726562 3.640625 24.84375 4.296875 C 23.957031 4.960938 21.421875 5.40625 17.234375 5.625 C 15.679688 5.625 14.128906 5.679688 12.578125 5.796875 C 11.035156 5.910156 9.492188 5.96875 7.953125 5.96875 C 2.867188 6.40625 -0.273438 6.125 -1.484375 5.125 C -2.703125 4.132812 -3.644531 1.320312 -4.3125 -3.3125 C -5.1875 -9.050781 -6.066406 -14.789062 -6.953125 -20.53125 C -7.835938 -26.28125 -8.390625 -32.023438 -8.609375 -37.765625 C -9.492188 -58.753906 -9.382812 -79.679688 -8.28125 -100.546875 C -7.175781 -121.421875 -4.859375 -142.238281 -1.328125 -163 C -1.328125 -163.882812 -1.160156 -164.769531 -0.828125 -165.65625 C -0.492188 -166.539062 -0.328125 -167.425781 -0.328125 -168.3125 C 0.109375 -172.726562 2.644531 -174.828125 7.28125 -174.609375 C 12.582031 -174.609375 18.21875 -174.71875 24.1875 -174.9375 C 28.164062 -175.15625 30.375 -173.164062 30.8125 -168.96875 C 31.03125 -166.09375 31.140625 -163.550781 31.140625 -161.34375 C 31.140625 -153.175781 31.140625 -144.945312 31.140625 -136.65625 C 31.140625 -128.375 31.140625 -120.039062 31.140625 -111.65625 C 31.140625 -110.332031 31.140625 -108.894531 31.140625 -107.34375 C 31.140625 -105.800781 31.140625 -104.035156 31.140625 -102.046875 C 32.910156 -103.367188 34.070312 -104.800781 34.625 -106.34375 C 35.175781 -107.894531 35.78125 -109.332031 36.4375 -110.65625 C 39.75 -117.5 43.226562 -124.175781 46.875 -130.6875 C 50.519531 -137.207031 54.664062 -143.453125 59.3125 -149.421875 C 63.0625 -154.054688 67.195312 -158.03125 71.71875 -161.34375 C 76.25 -164.65625 81.5 -166.976562 87.46875 -168.3125 C 100.71875 -171.394531 110.765625 -166.972656 117.609375 -155.046875 C 119.816406 -151.078125 121.414062 -146.882812 122.40625 -142.46875 C 123.40625 -138.050781 124.128906 -133.632812 124.578125 -129.21875 C 125.015625 -122.8125 125.175781 -116.40625 125.0625 -110 C 124.957031 -103.59375 124.570312 -97.1875 123.90625 -90.78125 C 122.800781 -78.851562 122.023438 -66.867188 121.578125 -54.828125 C 121.140625 -42.796875 122.25 -30.816406 124.90625 -18.890625 C 124.90625 -18.222656 124.957031 -17.613281 125.0625 -17.0625 C 125.175781 -16.507812 125.34375 -15.898438 125.5625 -15.234375 C 126.226562 -13.253906 126.835938 -11.15625 127.390625 -8.9375 C 127.941406 -6.726562 129.539062 -5.40625 132.1875 -4.96875 C 134.625 -4.53125 136.671875 -5.140625 138.328125 -6.796875 C 139.984375 -8.453125 141.472656 -10.160156 142.796875 -11.921875 C 145.003906 -14.578125 146.988281 -17.503906 148.75 -20.703125 C 150.519531 -23.910156 152.289062 -27.0625 154.0625 -30.15625 C 159.144531 -39.875 163.671875 -49.8125 167.640625 -59.96875 C 171.617188 -70.125 175.375 -80.394531 178.90625 -90.78125 C 179.351562 -92.550781 179.960938 -94.148438 180.734375 -95.578125 C 181.503906 -97.015625 183.328125 -97.40625 186.203125 -96.75 Z M 186.203125 -96.75 "/></g></g></g><g fill="#000000" fill-opacity="1"><g transform="translate(879.874284, 667.425531)"><g/></g></g><g fill="#000000" fill-opacity="1"><g transform="translate(983.907412, 667.425531)"><g><path d="M 98.734375 -203.421875 C 99.390625 -192.816406 99.992188 -182.4375 100.546875 -172.28125 C 101.097656 -162.125 101.597656 -152.738281 102.046875 -144.125 C 102.046875 -124.46875 101.269531 -105.800781 99.71875 -88.125 C 98.175781 -70.457031 94.644531 -53.226562 89.125 -36.4375 C 88.457031 -34.226562 88.234375 -32.460938 88.453125 -31.140625 C 88.679688 -29.816406 90.007812 -28.601562 92.4375 -27.5 C 100.164062 -24.625 107.894531 -21.804688 115.625 -19.046875 C 123.351562 -16.285156 131.414062 -14.242188 139.8125 -12.921875 C 152.84375 -10.710938 165.765625 -11.484375 178.578125 -15.234375 C 179.898438 -15.679688 181.28125 -16.066406 182.71875 -16.390625 C 184.15625 -16.722656 185.535156 -17.113281 186.859375 -17.5625 C 190.617188 -18.664062 192.9375 -17.453125 193.8125 -13.921875 C 194.914062 -10.609375 193.703125 -8.175781 190.171875 -6.625 C 184.210938 -4.414062 178.191406 -2.757812 172.109375 -1.65625 C 166.035156 -0.550781 159.796875 0.109375 153.390625 0.328125 C 138.378906 0.773438 123.363281 -1.320312 108.34375 -5.96875 C 104.800781 -7.070312 101.375 -8.226562 98.0625 -9.4375 C 94.75 -10.65625 91.328125 -11.816406 87.796875 -12.921875 C 84.484375 -14.242188 82.382812 -14.738281 81.5 -14.40625 C 80.613281 -14.082031 79.289062 -12.484375 77.53125 -9.609375 C 75.757812 -6.515625 73.878906 -3.585938 71.890625 -0.828125 C 69.898438 1.929688 67.800781 4.632812 65.59375 7.28125 C 57.863281 16.125 49.082031 22.203125 39.25 25.515625 C 29.425781 28.828125 18.769531 29.707031 7.28125 28.15625 C -1.320312 27.050781 -7.832031 23.078125 -12.25 16.234375 C -16.675781 9.390625 -17.785156 1.4375 -15.578125 -7.625 C -14.023438 -14.03125 -11.367188 -19.492188 -7.609375 -24.015625 C -3.859375 -28.546875 0.773438 -32.359375 6.296875 -35.453125 C 16.453125 -41.191406 27.601562 -43.84375 39.75 -43.40625 C 43.945312 -43.1875 46.429688 -43.460938 47.203125 -44.234375 C 47.984375 -45.003906 48.816406 -47.488281 49.703125 -51.6875 C 51.242188 -59.851562 52.457031 -68.019531 53.34375 -76.1875 C 54.226562 -84.363281 54.78125 -92.648438 55 -101.046875 C 55.65625 -121.148438 56.316406 -141.25 56.984375 -161.34375 C 57.648438 -181.445312 58.203125 -201.546875 58.640625 -221.640625 C 58.640625 -222.742188 58.691406 -223.738281 58.796875 -224.625 C 58.910156 -225.507812 58.96875 -226.394531 58.96875 -227.28125 C 58.75 -231.914062 60.847656 -234.34375 65.265625 -234.5625 C 69.023438 -234.789062 72.671875 -235.066406 76.203125 -235.390625 C 79.734375 -235.722656 83.265625 -236.222656 86.796875 -236.890625 C 89.453125 -237.109375 91.382812 -236.664062 92.59375 -235.5625 C 93.8125 -234.457031 94.644531 -232.800781 95.09375 -230.59375 C 97.070312 -221.539062 98.285156 -212.484375 98.734375 -203.421875 Z M 38.765625 -31.140625 C 33.679688 -32.023438 28.875 -31.414062 24.34375 -29.3125 C 19.820312 -27.21875 16.125 -24.015625 13.25 -19.703125 C 10.382812 -15.398438 9.0625 -10.597656 9.28125 -5.296875 C 9.28125 0.878906 11.046875 5.957031 14.578125 9.9375 C 17.222656 13.03125 19.984375 13.472656 22.859375 11.265625 C 23.523438 10.597656 24.1875 9.929688 24.84375 9.265625 C 25.507812 8.609375 26.175781 7.945312 26.84375 7.28125 C 30.59375 2.425781 33.738281 -2.703125 36.28125 -8.109375 C 38.820312 -13.523438 41.085938 -19.101562 43.078125 -24.84375 C 43.734375 -27.050781 43.617188 -28.539062 42.734375 -29.3125 C 41.847656 -30.09375 40.523438 -30.703125 38.765625 -31.140625 Z M 38.765625 -31.140625 "/></g></g></g><g fill="#000000" fill-opacity="1"><g transform="translate(1171.100874, 667.425531)"><g><path d="M 177.921875 -92.765625 C 181.003906 -91.441406 182.710938 -90.335938 183.046875 -89.453125 C 183.378906 -88.566406 182.882812 -86.46875 181.5625 -83.15625 C 175.15625 -68.800781 168.582031 -54.609375 161.84375 -40.578125 C 155.101562 -26.554688 148.09375 -12.585938 140.8125 1.328125 C 139.257812 4.421875 137.488281 7.507812 135.5 10.59375 C 133.519531 13.6875 131.3125 16.5625 128.875 19.21875 C 124.457031 24.070312 119.15625 26.992188 112.96875 27.984375 C 106.789062 28.984375 100.828125 28.210938 95.078125 25.671875 C 89.335938 23.128906 84.921875 18.988281 81.828125 13.25 C 78.515625 6.84375 76.03125 0.160156 74.375 -6.796875 C 72.71875 -13.753906 71.335938 -20.765625 70.234375 -27.828125 C 69.128906 -34.453125 68.410156 -41.019531 68.078125 -47.53125 C 67.753906 -54.050781 67.367188 -60.625 66.921875 -67.25 C 66.921875 -67.914062 66.921875 -68.742188 66.921875 -69.734375 C 66.921875 -70.734375 66.367188 -71.675781 65.265625 -72.5625 C 63.503906 -69.25 61.679688 -66.046875 59.796875 -62.953125 C 57.921875 -59.859375 55.988281 -56.65625 54 -53.34375 C 52.238281 -50.25 50.304688 -47.265625 48.203125 -44.390625 C 46.109375 -41.523438 43.84375 -38.65625 41.40625 -35.78125 C 36.550781 -30.695312 30.476562 -28.15625 23.1875 -28.15625 C 13.914062 -28.15625 7.507812 -32.351562 3.96875 -40.75 C 2.207031 -44.945312 0.882812 -49.253906 0 -53.671875 C -0.882812 -58.085938 -1.4375 -62.503906 -1.65625 -66.921875 C -2.09375 -76.421875 -1.648438 -85.695312 -0.328125 -94.75 C 0.992188 -103.8125 3.53125 -112.648438 7.28125 -121.265625 C 11.707031 -131.421875 17.617188 -140.03125 25.015625 -147.09375 C 32.410156 -154.164062 41.851562 -158.804688 53.34375 -161.015625 C 57.320312 -161.679688 61.128906 -161.789062 64.765625 -161.34375 C 68.410156 -160.90625 72.113281 -160.242188 75.875 -159.359375 C 78.082031 -158.921875 80.617188 -159.144531 83.484375 -160.03125 C 87.898438 -161.789062 92.484375 -162.613281 97.234375 -162.5 C 101.984375 -162.394531 106.679688 -162.234375 111.328125 -162.015625 C 112.429688 -162.015625 113.203125 -161.625 113.640625 -160.84375 C 114.078125 -160.070312 114.410156 -159.25 114.640625 -158.375 C 115.296875 -156.382812 115.675781 -154.335938 115.78125 -152.234375 C 115.894531 -150.140625 115.953125 -148.097656 115.953125 -146.109375 C 115.734375 -128.441406 115.179688 -110.828125 114.296875 -93.265625 C 113.421875 -75.703125 112.429688 -58.085938 111.328125 -40.421875 C 110.878906 -33.796875 110.546875 -27.222656 110.328125 -20.703125 C 110.109375 -14.191406 110.109375 -7.625 110.328125 -1 C 110.328125 0.769531 110.4375 2.648438 110.65625 4.640625 C 110.875 6.628906 111.425781 8.617188 112.3125 10.609375 C 114.082031 9.941406 115.460938 8.890625 116.453125 7.453125 C 117.453125 6.015625 118.390625 4.742188 119.265625 3.640625 C 124.566406 -4.085938 129.425781 -12.09375 133.84375 -20.375 C 138.257812 -28.65625 142.566406 -36.992188 146.765625 -45.390625 C 150.523438 -52.453125 154.113281 -59.570312 157.53125 -66.75 C 160.957031 -73.9375 164.4375 -81.0625 167.96875 -88.125 C 169.738281 -91.664062 171.117188 -93.65625 172.109375 -94.09375 C 173.109375 -94.53125 175.046875 -94.085938 177.921875 -92.765625 Z M 75.875 -135.84375 C 76.3125 -140.476562 75.257812 -143.789062 72.71875 -145.78125 C 70.175781 -147.769531 66.695312 -148.210938 62.28125 -147.109375 C 60.519531 -146.441406 58.863281 -145.609375 57.3125 -144.609375 C 55.769531 -143.617188 54.335938 -142.460938 53.015625 -141.140625 C 50.359375 -138.710938 48.035156 -136.117188 46.046875 -133.359375 C 44.066406 -130.597656 42.191406 -127.78125 40.421875 -124.90625 C 33.796875 -114.519531 29.15625 -103.640625 26.5 -92.265625 C 23.851562 -80.890625 22.421875 -69.128906 22.203125 -56.984375 C 22.203125 -56.097656 22.144531 -55.15625 22.03125 -54.15625 C 21.914062 -53.164062 21.972656 -52.234375 22.203125 -51.359375 C 22.421875 -49.367188 22.304688 -47.15625 21.859375 -44.71875 C 21.421875 -42.289062 22.640625 -40.75 25.515625 -40.09375 C 27.941406 -39.425781 29.816406 -40.140625 31.140625 -42.234375 C 32.460938 -44.335938 33.566406 -46.273438 34.453125 -48.046875 C 41.960938 -60.410156 48.863281 -73.050781 55.15625 -85.96875 C 61.457031 -98.894531 67.476562 -111.875 73.21875 -124.90625 C 74.539062 -128.21875 75.425781 -131.863281 75.875 -135.84375 Z M 75.875 -135.84375 "/></g></g></g><g fill="#000000" fill-opacity="1"><g transform="translate(1341.728464, 667.425531)"><g><path d="M 97.40625 -97.078125 C 100.050781 -95.972656 101.316406 -94.59375 101.203125 -92.9375 C 101.097656 -91.28125 100.601562 -89.566406 99.71875 -87.796875 C 95.75 -78.515625 91.71875 -69.125 87.625 -59.625 C 83.539062 -50.132812 79.398438 -40.640625 75.203125 -31.140625 C 73.878906 -28.273438 72.554688 -25.457031 71.234375 -22.6875 C 69.910156 -19.925781 68.472656 -17.113281 66.921875 -14.25 C 63.171875 -7.84375 57.925781 -3.421875 51.1875 -0.984375 C 44.445312 1.441406 37.539062 1.878906 30.46875 0.328125 C 23.40625 -1.210938 17.664062 -4.96875 13.25 -10.9375 C 10.382812 -14.6875 8.117188 -18.660156 6.453125 -22.859375 C 4.796875 -27.054688 3.414062 -31.363281 2.3125 -35.78125 C 0.550781 -42.625 -0.601562 -49.578125 -1.15625 -56.640625 C -1.707031 -63.710938 -1.875 -70.34375 -1.65625 -76.53125 C -1.875 -90.226562 -1.046875 -103.367188 0.828125 -115.953125 C 2.703125 -128.546875 5.296875 -141.023438 8.609375 -153.390625 C 8.835938 -154.722656 9.226562 -156.050781 9.78125 -157.375 C 10.332031 -158.695312 10.828125 -160.019531 11.265625 -161.34375 C 12.367188 -164.4375 14.46875 -165.875 17.5625 -165.65625 C 18.21875 -165.65625 18.765625 -165.65625 19.203125 -165.65625 C 19.648438 -165.65625 20.097656 -165.65625 20.546875 -165.65625 C 27.171875 -165.4375 31.085938 -164.71875 32.296875 -163.5 C 33.515625 -162.289062 33.789062 -158.484375 33.125 -152.078125 C 32.25 -138.816406 31.367188 -125.671875 30.484375 -112.640625 C 29.597656 -99.609375 29.375 -86.578125 29.8125 -73.546875 C 30.039062 -66.265625 30.265625 -59.03125 30.484375 -51.84375 C 30.703125 -44.664062 31.472656 -37.546875 32.796875 -30.484375 C 33.242188 -27.609375 33.90625 -24.84375 34.78125 -22.1875 C 35.664062 -19.539062 36.769531 -17.003906 38.09375 -14.578125 C 40.96875 -9.492188 43.953125 -9.273438 47.046875 -13.921875 C 48.367188 -15.679688 49.523438 -17.554688 50.515625 -19.546875 C 51.515625 -21.535156 52.566406 -23.523438 53.671875 -25.515625 C 59.191406 -36.109375 64.65625 -46.757812 70.0625 -57.46875 C 75.476562 -68.1875 80.945312 -78.847656 86.46875 -89.453125 C 86.6875 -90.117188 86.960938 -90.726562 87.296875 -91.28125 C 87.628906 -91.832031 87.90625 -92.4375 88.125 -93.09375 C 89.675781 -95.96875 90.945312 -97.570312 91.9375 -97.90625 C 92.9375 -98.238281 94.757812 -97.960938 97.40625 -97.078125 Z M 27.828125 -183.21875 C 18.554688 -183 13.804688 -186.644531 13.578125 -194.15625 C 13.359375 -198.34375 14.570312 -201.925781 17.21875 -204.90625 C 19.875 -207.894531 23.082031 -209.390625 26.84375 -209.390625 C 31.476562 -209.390625 35.175781 -208.285156 37.9375 -206.078125 C 40.695312 -203.867188 42.078125 -200.773438 42.078125 -196.796875 C 42.078125 -187.960938 37.328125 -183.4375 27.828125 -183.21875 Z M 27.828125 -183.21875 "/></g></g></g><g fill="#000000" fill-opacity="1"><g transform="translate(34.269057, 783.475186)"><g><path d="M 3.953125 -35.234375 C 3.953125 -40.222656 4.863281 -44.894531 6.6875 -49.25 C 8.507812 -53.601562 10.9375 -57.398438 13.96875 -60.640625 C 17.070312 -63.804688 20.816406 -66.398438 25.203125 -68.421875 C 29.585938 -70.453125 34.175781 -71.46875 38.96875 -71.46875 C 44.375 -71.46875 49.316406 -70.367188 53.796875 -68.171875 C 58.285156 -65.984375 62.097656 -62.914062 65.234375 -58.96875 C 68.378906 -55.019531 70.628906 -50.378906 71.984375 -45.046875 L 61.859375 -45.046875 C 59.960938 -50.378906 56.972656 -54.425781 52.890625 -57.1875 C 48.804688 -59.957031 44.164062 -61.34375 38.96875 -61.34375 C 35.59375 -61.34375 32.316406 -60.617188 29.140625 -59.171875 C 25.972656 -57.722656 23.28125 -55.816406 21.0625 -53.453125 C 18.832031 -51.160156 17.078125 -48.460938 15.796875 -45.359375 C 14.515625 -42.253906 13.875 -38.878906 13.875 -35.234375 C 13.875 -31.722656 14.492188 -28.414062 15.734375 -25.3125 C 16.984375 -22.207031 18.722656 -19.472656 20.953125 -17.109375 C 23.179688 -14.816406 25.894531 -12.992188 29.09375 -11.640625 C 32.300781 -10.296875 35.59375 -9.625 38.96875 -9.625 C 44.375 -9.625 49.1875 -11.109375 53.40625 -14.078125 C 57.625 -17.046875 60.644531 -21.191406 62.46875 -26.515625 L 72.484375 -26.515625 C 71.128906 -21.191406 68.863281 -16.488281 65.6875 -12.40625 C 62.519531 -8.320312 58.660156 -5.148438 54.109375 -2.890625 C 49.554688 -0.628906 44.507812 0.5 38.96875 0.5 C 34.175781 0.5 29.640625 -0.425781 25.359375 -2.28125 C 21.078125 -4.132812 17.382812 -6.679688 14.28125 -9.921875 C 11.238281 -13.160156 8.753906 -16.957031 6.828125 -21.3125 C 4.910156 -25.664062 3.953125 -30.304688 3.953125 -35.234375 Z M 3.953125 -35.234375 "/></g></g></g><g fill="#000000" fill-opacity="1"><g transform="translate(110.590134, 783.475186)"><g><path d="M 64.28125 -27.328125 C 64.28125 -22.609375 63.453125 -18.476562 61.796875 -14.9375 C 60.148438 -11.394531 57.90625 -8.441406 55.0625 -6.078125 C 52.226562 -3.710938 49.039062 -1.9375 45.5 -0.75 C 41.957031 0.425781 38.332031 1.015625 34.625 1.015625 C 30.976562 1.015625 27.398438 0.425781 23.890625 -0.75 C 20.378906 -1.9375 17.222656 -3.710938 14.421875 -6.078125 C 11.617188 -8.441406 9.390625 -11.394531 7.734375 -14.9375 C 6.085938 -18.476562 5.265625 -22.609375 5.265625 -27.328125 C 5.265625 -32.054688 6.085938 -36.191406 7.734375 -39.734375 C 9.390625 -43.273438 11.632812 -46.226562 14.46875 -48.59375 C 17.3125 -50.957031 20.503906 -52.726562 24.046875 -53.90625 C 27.585938 -55.082031 31.210938 -55.671875 34.921875 -55.671875 C 38.640625 -55.671875 42.234375 -55.082031 45.703125 -53.90625 C 49.179688 -52.726562 52.320312 -50.957031 55.125 -48.59375 C 57.925781 -46.226562 60.148438 -43.273438 61.796875 -39.734375 C 63.453125 -36.191406 64.28125 -32.054688 64.28125 -27.328125 Z M 15.1875 -27.328125 C 15.1875 -23.015625 16.144531 -19.421875 18.0625 -16.546875 C 19.988281 -13.679688 22.453125 -11.519531 25.453125 -10.0625 C 28.460938 -8.613281 31.585938 -7.890625 34.828125 -7.890625 C 38.128906 -7.890625 41.265625 -8.613281 44.234375 -10.0625 C 47.203125 -11.519531 49.648438 -13.695312 51.578125 -16.59375 C 53.503906 -19.5 54.46875 -23.078125 54.46875 -27.328125 C 54.46875 -31.648438 53.519531 -35.257812 51.625 -38.15625 C 49.738281 -41.0625 47.289062 -43.238281 44.28125 -44.6875 C 41.28125 -46.144531 38.160156 -46.875 34.921875 -46.875 C 31.617188 -46.875 28.460938 -46.144531 25.453125 -44.6875 C 22.453125 -43.238281 19.988281 -41.078125 18.0625 -38.203125 C 16.144531 -35.335938 15.1875 -31.710938 15.1875 -27.328125 Z M 15.1875 -27.328125 "/></g></g></g><g fill="#000000" fill-opacity="1"><g transform="translate(180.837909, 783.475186)"><g><path d="M 18.828125 -47.984375 C 20.722656 -50.753906 22.96875 -52.726562 25.5625 -53.90625 C 28.15625 -55.082031 31.039062 -55.671875 34.21875 -55.671875 C 38.0625 -55.671875 41.617188 -55.046875 44.890625 -53.796875 C 48.171875 -52.554688 50.820312 -50.007812 52.84375 -46.15625 C 56.28125 -52.363281 62.117188 -55.535156 70.359375 -55.671875 C 75.421875 -55.671875 79.535156 -54.59375 82.703125 -52.4375 C 85.878906 -50.28125 88.222656 -47.363281 89.734375 -43.6875 C 91.253906 -40.007812 92.015625 -35.84375 92.015625 -31.1875 L 92.015625 0 L 82.09375 0 L 82.09375 -31.078125 C 82.09375 -33.640625 81.804688 -36.101562 81.234375 -38.46875 C 80.660156 -40.832031 79.546875 -42.753906 77.890625 -44.234375 C 76.242188 -45.722656 73.832031 -46.46875 70.65625 -46.46875 C 65.800781 -46.46875 62.15625 -44.984375 59.71875 -42.015625 C 57.289062 -39.046875 56.078125 -35.332031 56.078125 -30.875 L 56.078125 0 L 46.15625 0 L 46.15625 -30.78125 C 46.15625 -33.34375 45.785156 -35.820312 45.046875 -38.21875 C 44.304688 -40.613281 43.054688 -42.585938 41.296875 -44.140625 C 39.546875 -45.691406 37.148438 -46.46875 34.109375 -46.46875 C 29.796875 -46.46875 26.171875 -45.03125 23.234375 -42.15625 C 20.296875 -39.289062 18.828125 -35.160156 18.828125 -29.765625 L 18.828125 0 L 8.90625 0 L 8.90625 -55.671875 L 18.828125 -55.671875 Z M 18.828125 -47.984375 "/></g></g></g><g fill="#000000" fill-opacity="1"><g transform="translate(280.541172, 783.475186)"><g><path d="M 7.484375 16 L 7.484375 -54.765625 L 17.40625 -54.765625 L 17.40625 -47.484375 C 19.363281 -50.453125 22.082031 -52.554688 25.5625 -53.796875 C 29.039062 -55.046875 32.5 -55.671875 35.9375 -55.671875 C 42.28125 -55.671875 47.523438 -54.335938 51.671875 -51.671875 C 55.828125 -49.015625 58.929688 -45.523438 60.984375 -41.203125 C 63.046875 -36.878906 64.078125 -32.222656 64.078125 -27.234375 C 64.078125 -22.304688 63.015625 -17.695312 60.890625 -13.40625 C 58.765625 -9.125 55.609375 -5.664062 51.421875 -3.03125 C 47.242188 -0.40625 42.050781 0.90625 35.84375 0.90625 C 32.46875 0.90625 29.160156 0.367188 25.921875 -0.703125 C 22.679688 -1.785156 19.84375 -3.945312 17.40625 -7.1875 L 17.40625 16 Z M 17.40625 -27.4375 C 17.40625 -23.113281 18.300781 -19.5 20.09375 -16.59375 C 21.882812 -13.695312 24.195312 -11.519531 27.03125 -10.0625 C 29.863281 -8.613281 32.800781 -7.890625 35.84375 -7.890625 C 39.882812 -7.890625 43.269531 -8.832031 46 -10.71875 C 48.738281 -12.613281 50.78125 -15.0625 52.125 -18.0625 C 53.476562 -21.070312 54.15625 -24.195312 54.15625 -27.4375 C 54.15625 -30.738281 53.476562 -33.875 52.125 -36.84375 C 50.78125 -39.8125 48.757812 -42.238281 46.0625 -44.125 C 43.363281 -46.019531 39.988281 -46.96875 35.9375 -46.96875 C 32.894531 -46.96875 29.957031 -46.242188 27.125 -44.796875 C 24.289062 -43.347656 21.960938 -41.1875 20.140625 -38.3125 C 18.316406 -35.445312 17.40625 -31.820312 17.40625 -27.4375 Z M 17.40625 -27.4375 "/></g></g></g><g fill="#000000" fill-opacity="1"><g transform="translate(350.282852, 783.475186)"><g><path d="M 47.984375 -7.1875 C 45.960938 -4.21875 43.46875 -2.140625 40.5 -0.953125 C 37.53125 0.222656 34.253906 0.8125 30.671875 0.8125 C 25.140625 0.8125 20.617188 -0.265625 17.109375 -2.421875 C 13.597656 -4.585938 11.015625 -7.644531 9.359375 -11.59375 C 7.710938 -15.539062 6.890625 -20.113281 6.890625 -25.3125 L 6.890625 -55.28125 L 16.8125 -55.28125 L 16.8125 -25.3125 C 16.8125 -21.9375 17.195312 -18.929688 17.96875 -16.296875 C 18.75 -13.660156 20.179688 -11.617188 22.265625 -10.171875 C 24.359375 -8.722656 27.394531 -8 31.375 -8 C 36.570312 -8 40.554688 -9.632812 43.328125 -12.90625 C 46.097656 -16.175781 47.484375 -20.207031 47.484375 -25 L 47.484375 -55.28125 L 57.40625 -55.28125 L 57.40625 0 L 47.984375 0 Z M 47.984375 -7.1875 "/></g></g></g><g fill="#000000" fill-opacity="1"><g transform="translate(415.46953, 783.475186)"><g><path d="M 20.546875 -54.765625 L 32.59375 -54.765625 L 32.59375 -46.875 L 20.546875 -46.875 L 20.546875 -16 C 20.546875 -12.757812 21.285156 -10.613281 22.765625 -9.5625 C 24.253906 -8.519531 26.25 -8 28.75 -8 C 29.351562 -8 30.007812 -8.015625 30.71875 -8.046875 C 31.425781 -8.078125 32.15625 -8.128906 32.90625 -8.203125 L 32.90625 0.09375 C 32.09375 0.164062 31.3125 0.21875 30.5625 0.25 C 29.820312 0.28125 29.082031 0.296875 28.34375 0.296875 C 24.769531 0.296875 21.648438 -0.1875 18.984375 -1.15625 C 16.316406 -2.132812 14.253906 -3.804688 12.796875 -6.171875 C 11.347656 -8.535156 10.625 -11.84375 10.625 -16.09375 L 10.625 -46.875 L 2.421875 -46.875 L 2.421875 -54.765625 L 10.625 -54.765625 L 10.625 -65 L 20.546875 -66.921875 Z M 20.546875 -54.765625 "/></g></g></g><g fill="#000000" fill-opacity="1"><g transform="translate(450.289762, 783.475186)"><g><path d="M 61.34375 -29.765625 C 61.414062 -29.492188 61.453125 -29.222656 61.453125 -28.953125 C 61.453125 -28.679688 61.453125 -28.378906 61.453125 -28.046875 C 61.453125 -26.960938 61.347656 -25.945312 61.140625 -25 L 14.78125 -25 C 14.78125 -21.425781 15.738281 -18.359375 17.65625 -15.796875 C 19.582031 -13.234375 21.976562 -11.257812 24.84375 -9.875 C 27.71875 -8.488281 30.503906 -7.796875 33.203125 -7.796875 C 36.578125 -7.796875 39.734375 -8.535156 42.671875 -10.015625 C 45.609375 -11.503906 47.882812 -13.800781 49.5 -16.90625 L 59.734375 -16.90625 C 58.378906 -12.925781 56.316406 -9.601562 53.546875 -6.9375 C 50.785156 -4.269531 47.628906 -2.273438 44.078125 -0.953125 C 40.535156 0.359375 36.878906 1.015625 33.109375 1.015625 C 29.597656 1.015625 26.15625 0.425781 22.78125 -0.75 C 19.40625 -1.9375 16.367188 -3.710938 13.671875 -6.078125 C 10.972656 -8.441406 8.828125 -11.394531 7.234375 -14.9375 C 5.648438 -18.476562 4.859375 -22.609375 4.859375 -27.328125 C 4.859375 -32.054688 5.648438 -36.175781 7.234375 -39.6875 C 8.828125 -43.195312 10.972656 -46.128906 13.671875 -48.484375 C 16.367188 -50.847656 19.40625 -52.617188 22.78125 -53.796875 C 26.15625 -54.984375 29.664062 -55.578125 33.3125 -55.578125 C 37.832031 -55.578125 42.164062 -54.613281 46.3125 -52.6875 C 50.46875 -50.769531 53.925781 -47.90625 56.6875 -44.09375 C 59.457031 -40.28125 61.007812 -35.503906 61.34375 -29.765625 Z M 50.921875 -33.203125 C 50.316406 -36.515625 49.117188 -39.164062 47.328125 -41.15625 C 45.535156 -43.144531 43.40625 -44.59375 40.9375 -45.5 C 38.476562 -46.414062 35.9375 -46.875 33.3125 -46.875 C 30.675781 -46.875 28.09375 -46.414062 25.5625 -45.5 C 23.03125 -44.59375 20.835938 -43.125 18.984375 -41.09375 C 17.128906 -39.070312 15.863281 -36.441406 15.1875 -33.203125 Z M 50.921875 -33.203125 "/></g></g></g><g fill="#000000" fill-opacity="1"><g transform="translate(517.09599, 783.475186)"><g><path d="M 17.40625 -47.984375 C 19.363281 -50.753906 21.675781 -52.757812 24.34375 -54 C 27.007812 -55.25 29.863281 -55.875 32.90625 -55.875 C 33.976562 -55.875 35.054688 -55.804688 36.140625 -55.671875 C 37.222656 -55.535156 38.300781 -55.335938 39.375 -55.078125 L 39.375 -46.359375 C 37.757812 -46.835938 36.070312 -47.078125 34.3125 -47.078125 C 31.28125 -47.078125 28.476562 -46.316406 25.90625 -44.796875 C 23.34375 -43.273438 21.285156 -41.210938 19.734375 -38.609375 C 18.179688 -36.015625 17.40625 -33.03125 17.40625 -29.65625 L 17.40625 0 L 7.59375 0 L 7.59375 -54.671875 L 17.40625 -54.671875 Z M 17.40625 -47.984375 "/></g></g></g><g fill="#000000" fill-opacity="1"><g transform="translate(559.609074, 783.475186)"><g/></g></g><g fill="#000000" fill-opacity="1"><g transform="translate(584.813224, 783.475186)"><g><path d="M 44.140625 -52.546875 C 43.660156 -54.628906 42.675781 -56.328125 41.1875 -57.640625 C 39.707031 -58.960938 37.972656 -59.941406 35.984375 -60.578125 C 33.992188 -61.222656 31.988281 -61.546875 29.96875 -61.546875 C 27.539062 -61.546875 25.109375 -61.125 22.671875 -60.28125 C 20.242188 -59.4375 18.289062 -58.070312 16.8125 -56.1875 C 16.195312 -55.445312 15.753906 -54.585938 15.484375 -53.609375 C 15.210938 -52.628906 15.078125 -51.632812 15.078125 -50.625 C 15.078125 -47.914062 15.867188 -45.882812 17.453125 -44.53125 C 19.046875 -43.1875 21.070312 -42.273438 23.53125 -41.796875 C 26 -41.328125 28.550781 -40.960938 31.1875 -40.703125 C 33.613281 -40.429688 36.109375 -40.007812 38.671875 -39.4375 C 41.234375 -38.863281 43.675781 -38.035156 46 -36.953125 C 48.332031 -35.867188 50.359375 -34.414062 52.078125 -32.59375 C 53.804688 -30.769531 55.003906 -28.441406 55.671875 -25.609375 C 56.015625 -23.921875 56.1875 -22.367188 56.1875 -20.953125 C 56.1875 -17.515625 55.425781 -14.460938 53.90625 -11.796875 C 52.382812 -9.128906 50.359375 -6.867188 47.828125 -5.015625 C 45.296875 -3.160156 42.460938 -1.757812 39.328125 -0.8125 C 36.191406 0.132812 33.035156 0.609375 29.859375 0.609375 C 27.160156 0.609375 24.375 0.203125 21.5 -0.609375 C 18.632812 -1.421875 15.96875 -2.617188 13.5 -4.203125 C 11.039062 -5.785156 8.984375 -7.773438 7.328125 -10.171875 C 5.679688 -12.566406 4.691406 -15.351562 4.359375 -18.53125 L 4.25 -20.453125 L 14.578125 -20.65625 L 14.671875 -19.140625 L 14.671875 -19.53125 C 14.941406 -17.375 15.867188 -15.535156 17.453125 -14.015625 C 19.046875 -12.503906 20.988281 -11.375 23.28125 -10.625 C 25.570312 -9.882812 27.800781 -9.515625 29.96875 -9.515625 C 32.53125 -9.515625 35.023438 -9.96875 37.453125 -10.875 C 39.878906 -11.789062 41.882812 -13.109375 43.46875 -14.828125 C 45.0625 -16.546875 45.859375 -18.625 45.859375 -21.0625 C 45.859375 -21.800781 45.757812 -22.609375 45.5625 -23.484375 C 45.15625 -25.304688 44.15625 -26.671875 42.5625 -27.578125 C 40.976562 -28.492188 39.070312 -29.15625 36.84375 -29.5625 C 34.625 -29.96875 32.332031 -30.269531 29.96875 -30.46875 C 27.195312 -30.738281 24.394531 -31.160156 21.5625 -31.734375 C 18.726562 -32.304688 16.09375 -33.234375 13.65625 -34.515625 C 11.226562 -35.796875 9.222656 -37.566406 7.640625 -39.828125 C 6.054688 -42.097656 5.128906 -45.085938 4.859375 -48.796875 L 4.859375 -48.6875 C 4.859375 -49.03125 4.84375 -49.335938 4.8125 -49.609375 C 4.78125 -49.878906 4.765625 -50.148438 4.765625 -50.421875 C 4.765625 -54.804688 6.078125 -58.71875 8.703125 -62.15625 C 11.066406 -65.257812 14.207031 -67.601562 18.125 -69.1875 C 22.039062 -70.78125 26.054688 -71.578125 30.171875 -71.578125 C 33.816406 -71.578125 37.375 -70.914062 40.84375 -69.59375 C 44.320312 -68.28125 47.273438 -66.253906 49.703125 -63.515625 C 52.128906 -60.785156 53.648438 -57.265625 54.265625 -52.953125 Z M 44.140625 -52.546875 "/></g></g></g><g fill="#000000" fill-opacity="1"><g transform="translate(645.040104, 783.475186)"><g><path d="M 61.25 -20.859375 C 60.375 -15.992188 58.515625 -11.957031 55.671875 -8.75 C 52.835938 -5.550781 49.460938 -3.15625 45.546875 -1.5625 C 41.640625 0.0195312 37.59375 0.8125 33.40625 0.8125 C 29.894531 0.8125 26.453125 0.222656 23.078125 -0.953125 C 19.703125 -2.140625 16.664062 -3.910156 13.96875 -6.265625 C 11.269531 -8.628906 9.125 -11.566406 7.53125 -15.078125 C 5.945312 -18.585938 5.15625 -22.707031 5.15625 -27.4375 C 5.15625 -32.15625 5.945312 -36.285156 7.53125 -39.828125 C 9.125 -43.378906 11.285156 -46.316406 14.015625 -48.640625 C 16.753906 -50.972656 19.8125 -52.726562 23.1875 -53.90625 C 26.5625 -55.082031 30.035156 -55.671875 33.609375 -55.671875 C 37.796875 -55.671875 41.8125 -54.878906 45.65625 -53.296875 C 49.5 -51.710938 52.835938 -49.300781 55.671875 -46.0625 C 58.515625 -42.820312 60.375 -38.769531 61.25 -33.90625 L 51.015625 -33.90625 C 49.804688 -38.300781 47.5625 -41.5625 44.28125 -43.6875 C 41.007812 -45.8125 37.488281 -46.875 33.71875 -46.875 C 30.675781 -46.875 27.71875 -46.164062 24.84375 -44.75 C 21.976562 -43.332031 19.632812 -41.1875 17.8125 -38.3125 C 15.988281 -35.445312 15.078125 -31.820312 15.078125 -27.4375 C 15.078125 -23.050781 15.988281 -19.40625 17.8125 -16.5 C 19.632812 -13.59375 21.976562 -11.429688 24.84375 -10.015625 C 27.71875 -8.597656 30.707031 -7.890625 33.8125 -7.890625 C 37.59375 -7.890625 41.101562 -8.96875 44.34375 -11.125 C 47.582031 -13.289062 49.804688 -16.535156 51.015625 -20.859375 Z M 61.25 -20.859375 "/></g></g></g><g fill="#000000" fill-opacity="1"><g transform="translate(711.340253, 783.475186)"><g><path d="M 6.984375 -68.84375 C 6.984375 -70.726562 7.640625 -72.144531 8.953125 -73.09375 C 10.273438 -74.039062 11.710938 -74.515625 13.265625 -74.515625 C 14.816406 -74.515625 16.210938 -74.054688 17.453125 -73.140625 C 18.703125 -72.234375 19.328125 -70.800781 19.328125 -68.84375 C 19.328125 -66.945312 18.6875 -65.507812 17.40625 -64.53125 C 16.125 -63.550781 14.707031 -63.0625 13.15625 -63.0625 C 11.675781 -63.0625 10.273438 -63.550781 8.953125 -64.53125 C 7.640625 -65.507812 6.984375 -66.945312 6.984375 -68.84375 Z M 8.203125 -55.375 L 8.203125 0 L 18.125 0 L 18.125 -55.375 Z M 8.203125 -55.375 "/></g></g></g><g fill="#000000" fill-opacity="1"><g transform="translate(738.568849, 783.475186)"><g><path d="M 61.34375 -29.765625 C 61.414062 -29.492188 61.453125 -29.222656 61.453125 -28.953125 C 61.453125 -28.679688 61.453125 -28.378906 61.453125 -28.046875 C 61.453125 -26.960938 61.347656 -25.945312 61.140625 -25 L 14.78125 -25 C 14.78125 -21.425781 15.738281 -18.359375 17.65625 -15.796875 C 19.582031 -13.234375 21.976562 -11.257812 24.84375 -9.875 C 27.71875 -8.488281 30.503906 -7.796875 33.203125 -7.796875 C 36.578125 -7.796875 39.734375 -8.535156 42.671875 -10.015625 C 45.609375 -11.503906 47.882812 -13.800781 49.5 -16.90625 L 59.734375 -16.90625 C 58.378906 -12.925781 56.316406 -9.601562 53.546875 -6.9375 C 50.785156 -4.269531 47.628906 -2.273438 44.078125 -0.953125 C 40.535156 0.359375 36.878906 1.015625 33.109375 1.015625 C 29.597656 1.015625 26.15625 0.425781 22.78125 -0.75 C 19.40625 -1.9375 16.367188 -3.710938 13.671875 -6.078125 C 10.972656 -8.441406 8.828125 -11.394531 7.234375 -14.9375 C 5.648438 -18.476562 4.859375 -22.609375 4.859375 -27.328125 C 4.859375 -32.054688 5.648438 -36.175781 7.234375 -39.6875 C 8.828125 -43.195312 10.972656 -46.128906 13.671875 -48.484375 C 16.367188 -50.847656 19.40625 -52.617188 22.78125 -53.796875 C 26.15625 -54.984375 29.664062 -55.578125 33.3125 -55.578125 C 37.832031 -55.578125 42.164062 -54.613281 46.3125 -52.6875 C 50.46875 -50.769531 53.925781 -47.90625 56.6875 -44.09375 C 59.457031 -40.28125 61.007812 -35.503906 61.34375 -29.765625 Z M 50.921875 -33.203125 C 50.316406 -36.515625 49.117188 -39.164062 47.328125 -41.15625 C 45.535156 -43.144531 43.40625 -44.59375 40.9375 -45.5 C 38.476562 -46.414062 35.9375 -46.875 33.3125 -46.875 C 30.675781 -46.875 28.09375 -46.414062 25.5625 -45.5 C 23.03125 -44.59375 20.835938 -43.125 18.984375 -41.09375 C 17.128906 -39.070312 15.863281 -36.441406 15.1875 -33.203125 Z M 50.921875 -33.203125 "/></g></g></g><g fill="#000000" fill-opacity="1"><g transform="translate(805.375078, 783.475186)"><g><path d="M 17.515625 -47.984375 C 19.535156 -50.953125 21.976562 -52.957031 24.84375 -54 C 27.71875 -55.050781 30.875 -55.578125 34.3125 -55.578125 C 39.914062 -55.578125 44.453125 -54.492188 47.921875 -52.328125 C 51.398438 -50.171875 53.96875 -47.132812 55.625 -43.21875 C 57.28125 -39.3125 58.109375 -34.722656 58.109375 -29.453125 L 58.109375 0 L 48.28125 0 L 48.28125 -29.359375 C 48.28125 -32.796875 47.890625 -35.832031 47.109375 -38.46875 C 46.335938 -41.101562 44.890625 -43.144531 42.765625 -44.59375 C 40.640625 -46.039062 37.585938 -46.765625 33.609375 -46.765625 C 30.171875 -46.765625 27.253906 -46.003906 24.859375 -44.484375 C 22.460938 -42.972656 20.640625 -40.929688 19.390625 -38.359375 C 18.140625 -35.796875 17.515625 -32.929688 17.515625 -29.765625 L 17.515625 0 L 7.59375 0 L 7.59375 -54.765625 L 17.515625 -54.765625 Z M 17.515625 -47.984375 "/></g></g></g><g fill="#000000" fill-opacity="1"><g transform="translate(870.966652, 783.475186)"><g><path d="M 61.25 -20.859375 C 60.375 -15.992188 58.515625 -11.957031 55.671875 -8.75 C 52.835938 -5.550781 49.460938 -3.15625 45.546875 -1.5625 C 41.640625 0.0195312 37.59375 0.8125 33.40625 0.8125 C 29.894531 0.8125 26.453125 0.222656 23.078125 -0.953125 C 19.703125 -2.140625 16.664062 -3.910156 13.96875 -6.265625 C 11.269531 -8.628906 9.125 -11.566406 7.53125 -15.078125 C 5.945312 -18.585938 5.15625 -22.707031 5.15625 -27.4375 C 5.15625 -32.15625 5.945312 -36.285156 7.53125 -39.828125 C 9.125 -43.378906 11.285156 -46.316406 14.015625 -48.640625 C 16.753906 -50.972656 19.8125 -52.726562 23.1875 -53.90625 C 26.5625 -55.082031 30.035156 -55.671875 33.609375 -55.671875 C 37.796875 -55.671875 41.8125 -54.878906 45.65625 -53.296875 C 49.5 -51.710938 52.835938 -49.300781 55.671875 -46.0625 C 58.515625 -42.820312 60.375 -38.769531 61.25 -33.90625 L 51.015625 -33.90625 C 49.804688 -38.300781 47.5625 -41.5625 44.28125 -43.6875 C 41.007812 -45.8125 37.488281 -46.875 33.71875 -46.875 C 30.675781 -46.875 27.71875 -46.164062 24.84375 -44.75 C 21.976562 -43.332031 19.632812 -41.1875 17.8125 -38.3125 C 15.988281 -35.445312 15.078125 -31.820312 15.078125 -27.4375 C 15.078125 -23.050781 15.988281 -19.40625 17.8125 -16.5 C 19.632812 -13.59375 21.976562 -11.429688 24.84375 -10.015625 C 27.71875 -8.597656 30.707031 -7.890625 33.8125 -7.890625 C 37.59375 -7.890625 41.101562 -8.96875 44.34375 -11.125 C 47.582031 -13.289062 49.804688 -16.535156 51.015625 -20.859375 Z M 61.25 -20.859375 "/></g></g></g><g fill="#000000" fill-opacity="1"><g transform="translate(937.266801, 783.475186)"><g><path d="M 61.34375 -29.765625 C 61.414062 -29.492188 61.453125 -29.222656 61.453125 -28.953125 C 61.453125 -28.679688 61.453125 -28.378906 61.453125 -28.046875 C 61.453125 -26.960938 61.347656 -25.945312 61.140625 -25 L 14.78125 -25 C 14.78125 -21.425781 15.738281 -18.359375 17.65625 -15.796875 C 19.582031 -13.234375 21.976562 -11.257812 24.84375 -9.875 C 27.71875 -8.488281 30.503906 -7.796875 33.203125 -7.796875 C 36.578125 -7.796875 39.734375 -8.535156 42.671875 -10.015625 C 45.609375 -11.503906 47.882812 -13.800781 49.5 -16.90625 L 59.734375 -16.90625 C 58.378906 -12.925781 56.316406 -9.601562 53.546875 -6.9375 C 50.785156 -4.269531 47.628906 -2.273438 44.078125 -0.953125 C 40.535156 0.359375 36.878906 1.015625 33.109375 1.015625 C 29.597656 1.015625 26.15625 0.425781 22.78125 -0.75 C 19.40625 -1.9375 16.367188 -3.710938 13.671875 -6.078125 C 10.972656 -8.441406 8.828125 -11.394531 7.234375 -14.9375 C 5.648438 -18.476562 4.859375 -22.609375 4.859375 -27.328125 C 4.859375 -32.054688 5.648438 -36.175781 7.234375 -39.6875 C 8.828125 -43.195312 10.972656 -46.128906 13.671875 -48.484375 C 16.367188 -50.847656 19.40625 -52.617188 22.78125 -53.796875 C 26.15625 -54.984375 29.664062 -55.578125 33.3125 -55.578125 C 37.832031 -55.578125 42.164062 -54.613281 46.3125 -52.6875 C 50.46875 -50.769531 53.925781 -47.90625 56.6875 -44.09375 C 59.457031 -40.28125 61.007812 -35.503906 61.34375 -29.765625 Z M 50.921875 -33.203125 C 50.316406 -36.515625 49.117188 -39.164062 47.328125 -41.15625 C 45.535156 -43.144531 43.40625 -44.59375 40.9375 -45.5 C 38.476562 -46.414062 35.9375 -46.875 33.3125 -46.875 C 30.675781 -46.875 28.09375 -46.414062 25.5625 -45.5 C 23.03125 -44.59375 20.835938 -43.125 18.984375 -41.09375 C 17.128906 -39.070312 15.863281 -36.441406 15.1875 -33.203125 Z M 50.921875 -33.203125 "/></g></g></g><g fill="#000000" fill-opacity="1"><g transform="translate(1004.073029, 783.475186)"><g/></g></g><g fill="#000000" fill-opacity="1"><g transform="translate(1029.277179, 783.475186)"><g><path d="M 44.140625 -52.546875 C 43.660156 -54.628906 42.675781 -56.328125 41.1875 -57.640625 C 39.707031 -58.960938 37.972656 -59.941406 35.984375 -60.578125 C 33.992188 -61.222656 31.988281 -61.546875 29.96875 -61.546875 C 27.539062 -61.546875 25.109375 -61.125 22.671875 -60.28125 C 20.242188 -59.4375 18.289062 -58.070312 16.8125 -56.1875 C 16.195312 -55.445312 15.753906 -54.585938 15.484375 -53.609375 C 15.210938 -52.628906 15.078125 -51.632812 15.078125 -50.625 C 15.078125 -47.914062 15.867188 -45.882812 17.453125 -44.53125 C 19.046875 -43.1875 21.070312 -42.273438 23.53125 -41.796875 C 26 -41.328125 28.550781 -40.960938 31.1875 -40.703125 C 33.613281 -40.429688 36.109375 -40.007812 38.671875 -39.4375 C 41.234375 -38.863281 43.675781 -38.035156 46 -36.953125 C 48.332031 -35.867188 50.359375 -34.414062 52.078125 -32.59375 C 53.804688 -30.769531 55.003906 -28.441406 55.671875 -25.609375 C 56.015625 -23.921875 56.1875 -22.367188 56.1875 -20.953125 C 56.1875 -17.515625 55.425781 -14.460938 53.90625 -11.796875 C 52.382812 -9.128906 50.359375 -6.867188 47.828125 -5.015625 C 45.296875 -3.160156 42.460938 -1.757812 39.328125 -0.8125 C 36.191406 0.132812 33.035156 0.609375 29.859375 0.609375 C 27.160156 0.609375 24.375 0.203125 21.5 -0.609375 C 18.632812 -1.421875 15.96875 -2.617188 13.5 -4.203125 C 11.039062 -5.785156 8.984375 -7.773438 7.328125 -10.171875 C 5.679688 -12.566406 4.691406 -15.351562 4.359375 -18.53125 L 4.25 -20.453125 L 14.578125 -20.65625 L 14.671875 -19.140625 L 14.671875 -19.53125 C 14.941406 -17.375 15.867188 -15.535156 17.453125 -14.015625 C 19.046875 -12.503906 20.988281 -11.375 23.28125 -10.625 C 25.570312 -9.882812 27.800781 -9.515625 29.96875 -9.515625 C 32.53125 -9.515625 35.023438 -9.96875 37.453125 -10.875 C 39.878906 -11.789062 41.882812 -13.109375 43.46875 -14.828125 C 45.0625 -16.546875 45.859375 -18.625 45.859375 -21.0625 C 45.859375 -21.800781 45.757812 -22.609375 45.5625 -23.484375 C 45.15625 -25.304688 44.15625 -26.671875 42.5625 -27.578125 C 40.976562 -28.492188 39.070312 -29.15625 36.84375 -29.5625 C 34.625 -29.96875 32.332031 -30.269531 29.96875 -30.46875 C 27.195312 -30.738281 24.394531 -31.160156 21.5625 -31.734375 C 18.726562 -32.304688 16.09375 -33.234375 13.65625 -34.515625 C 11.226562 -35.796875 9.222656 -37.566406 7.640625 -39.828125 C 6.054688 -42.097656 5.128906 -45.085938 4.859375 -48.796875 L 4.859375 -48.6875 C 4.859375 -49.03125 4.84375 -49.335938 4.8125 -49.609375 C 4.78125 -49.878906 4.765625 -50.148438 4.765625 -50.421875 C 4.765625 -54.804688 6.078125 -58.71875 8.703125 -62.15625 C 11.066406 -65.257812 14.207031 -67.601562 18.125 -69.1875 C 22.039062 -70.78125 26.054688 -71.578125 30.171875 -71.578125 C 33.816406 -71.578125 37.375 -70.914062 40.84375 -69.59375 C 44.320312 -68.28125 47.273438 -66.253906 49.703125 -63.515625 C 52.128906 -60.785156 53.648438 -57.265625 54.265625 -52.953125 Z M 44.140625 -52.546875 "/></g></g></g><g fill="#000000" fill-opacity="1"><g transform="translate(1089.503993, 783.475186)"><g><path d="M 20.546875 -54.765625 L 32.59375 -54.765625 L 32.59375 -46.875 L 20.546875 -46.875 L 20.546875 -16 C 20.546875 -12.757812 21.285156 -10.613281 22.765625 -9.5625 C 24.253906 -8.519531 26.25 -8 28.75 -8 C 29.351562 -8 30.007812 -8.015625 30.71875 -8.046875 C 31.425781 -8.078125 32.15625 -8.128906 32.90625 -8.203125 L 32.90625 0.09375 C 32.09375 0.164062 31.3125 0.21875 30.5625 0.25 C 29.820312 0.28125 29.082031 0.296875 28.34375 0.296875 C 24.769531 0.296875 21.648438 -0.1875 18.984375 -1.15625 C 16.316406 -2.132812 14.253906 -3.804688 12.796875 -6.171875 C 11.347656 -8.535156 10.625 -11.84375 10.625 -16.09375 L 10.625 -46.875 L 2.421875 -46.875 L 2.421875 -54.765625 L 10.625 -54.765625 L 10.625 -65 L 20.546875 -66.921875 Z M 20.546875 -54.765625 "/></g></g></g><g fill="#000000" fill-opacity="1"><g transform="translate(1124.324224, 783.475186)"><g><path d="M 47.984375 -7.1875 C 45.960938 -4.21875 43.46875 -2.140625 40.5 -0.953125 C 37.53125 0.222656 34.253906 0.8125 30.671875 0.8125 C 25.140625 0.8125 20.617188 -0.265625 17.109375 -2.421875 C 13.597656 -4.585938 11.015625 -7.644531 9.359375 -11.59375 C 7.710938 -15.539062 6.890625 -20.113281 6.890625 -25.3125 L 6.890625 -55.28125 L 16.8125 -55.28125 L 16.8125 -25.3125 C 16.8125 -21.9375 17.195312 -18.929688 17.96875 -16.296875 C 18.75 -13.660156 20.179688 -11.617188 22.265625 -10.171875 C 24.359375 -8.722656 27.394531 -8 31.375 -8 C 36.570312 -8 40.554688 -9.632812 43.328125 -12.90625 C 46.097656 -16.175781 47.484375 -20.207031 47.484375 -25 L 47.484375 -55.28125 L 57.40625 -55.28125 L 57.40625 0 L 47.984375 0 Z M 47.984375 -7.1875 "/></g></g></g><g fill="#000000" fill-opacity="1"><g transform="translate(1189.51087, 783.475186)"><g><path d="M 61.453125 -70.859375 L 61.453125 0 L 51.53125 0 L 51.53125 -7.390625 C 49.570312 -4.421875 46.890625 -2.3125 43.484375 -1.0625 C 40.078125 0.1875 36.648438 0.84375 33.203125 0.90625 C 26.859375 0.90625 21.507812 -0.335938 17.15625 -2.828125 C 12.800781 -5.328125 9.523438 -8.734375 7.328125 -13.046875 C 5.140625 -17.367188 4.046875 -22.234375 4.046875 -27.640625 C 4.046875 -32.898438 5.175781 -37.640625 7.4375 -41.859375 C 9.695312 -46.078125 13.003906 -49.429688 17.359375 -51.921875 C 21.710938 -54.421875 26.960938 -55.671875 33.109375 -55.671875 C 36.484375 -55.671875 39.804688 -55.148438 43.078125 -54.109375 C 46.347656 -53.066406 49.164062 -50.925781 51.53125 -47.6875 L 51.53125 -70.859375 Z M 51.53125 -27.4375 C 51.53125 -31.820312 50.632812 -35.445312 48.84375 -38.3125 C 47.050781 -41.1875 44.753906 -43.347656 41.953125 -44.796875 C 39.160156 -46.242188 36.210938 -46.96875 33.109375 -46.96875 C 29.054688 -46.96875 25.613281 -46.019531 22.78125 -44.125 C 19.945312 -42.238281 17.769531 -39.8125 16.25 -36.84375 C 14.726562 -33.875 13.96875 -30.738281 13.96875 -27.4375 C 13.96875 -23.71875 14.707031 -20.375 16.1875 -17.40625 C 17.675781 -14.4375 19.851562 -12.109375 22.71875 -10.421875 C 25.59375 -8.734375 29.019531 -7.890625 33 -7.890625 C 36.101562 -7.890625 39.070312 -8.597656 41.90625 -10.015625 C 44.738281 -11.429688 47.050781 -13.59375 48.84375 -16.5 C 50.632812 -19.40625 51.53125 -23.050781 51.53125 -27.4375 Z M 51.53125 -27.4375 "/></g></g></g><g fill="#000000" fill-opacity="1"><g transform="translate(1258.746472, 783.475186)"><g><path d="M 61.34375 -29.765625 C 61.414062 -29.492188 61.453125 -29.222656 61.453125 -28.953125 C 61.453125 -28.679688 61.453125 -28.378906 61.453125 -28.046875 C 61.453125 -26.960938 61.347656 -25.945312 61.140625 -25 L 14.78125 -25 C 14.78125 -21.425781 15.738281 -18.359375 17.65625 -15.796875 C 19.582031 -13.234375 21.976562 -11.257812 24.84375 -9.875 C 27.71875 -8.488281 30.503906 -7.796875 33.203125 -7.796875 C 36.578125 -7.796875 39.734375 -8.535156 42.671875 -10.015625 C 45.609375 -11.503906 47.882812 -13.800781 49.5 -16.90625 L 59.734375 -16.90625 C 58.378906 -12.925781 56.316406 -9.601562 53.546875 -6.9375 C 50.785156 -4.269531 47.628906 -2.273438 44.078125 -0.953125 C 40.535156 0.359375 36.878906 1.015625 33.109375 1.015625 C 29.597656 1.015625 26.15625 0.425781 22.78125 -0.75 C 19.40625 -1.9375 16.367188 -3.710938 13.671875 -6.078125 C 10.972656 -8.441406 8.828125 -11.394531 7.234375 -14.9375 C 5.648438 -18.476562 4.859375 -22.609375 4.859375 -27.328125 C 4.859375 -32.054688 5.648438 -36.175781 7.234375 -39.6875 C 8.828125 -43.195312 10.972656 -46.128906 13.671875 -48.484375 C 16.367188 -50.847656 19.40625 -52.617188 22.78125 -53.796875 C 26.15625 -54.984375 29.664062 -55.578125 33.3125 -55.578125 C 37.832031 -55.578125 42.164062 -54.613281 46.3125 -52.6875 C 50.46875 -50.769531 53.925781 -47.90625 56.6875 -44.09375 C 59.457031 -40.28125 61.007812 -35.503906 61.34375 -29.765625 Z M 50.921875 -33.203125 C 50.316406 -36.515625 49.117188 -39.164062 47.328125 -41.15625 C 45.535156 -43.144531 43.40625 -44.59375 40.9375 -45.5 C 38.476562 -46.414062 35.9375 -46.875 33.3125 -46.875 C 30.675781 -46.875 28.09375 -46.414062 25.5625 -45.5 C 23.03125 -44.59375 20.835938 -43.125 18.984375 -41.09375 C 17.128906 -39.070312 15.863281 -36.441406 15.1875 -33.203125 Z M 50.921875 -33.203125 "/></g></g></g><g fill="#000000" fill-opacity="1"><g transform="translate(1325.552766, 783.475186)"><g><path d="M 17.515625 -47.984375 C 19.535156 -50.953125 21.976562 -52.957031 24.84375 -54 C 27.71875 -55.050781 30.875 -55.578125 34.3125 -55.578125 C 39.914062 -55.578125 44.453125 -54.492188 47.921875 -52.328125 C 51.398438 -50.171875 53.96875 -47.132812 55.625 -43.21875 C 57.28125 -39.3125 58.109375 -34.722656 58.109375 -29.453125 L 58.109375 0 L 48.28125 0 L 48.28125 -29.359375 C 48.28125 -32.796875 47.890625 -35.832031 47.109375 -38.46875 C 46.335938 -41.101562 44.890625 -43.144531 42.765625 -44.59375 C 40.640625 -46.039062 37.585938 -46.765625 33.609375 -46.765625 C 30.171875 -46.765625 27.253906 -46.003906 24.859375 -44.484375 C 22.460938 -42.972656 20.640625 -40.929688 19.390625 -38.359375 C 18.140625 -35.796875 17.515625 -32.929688 17.515625 -29.765625 L 17.515625 0 L 7.59375 0 L 7.59375 -54.765625 L 17.515625 -54.765625 Z M 17.515625 -47.984375 "/></g></g></g><g fill="#000000" fill-opacity="1"><g transform="translate(1391.14434, 783.475186)"><g><path d="M 20.546875 -54.765625 L 32.59375 -54.765625 L 32.59375 -46.875 L 20.546875 -46.875 L 20.546875 -16 C 20.546875 -12.757812 21.285156 -10.613281 22.765625 -9.5625 C 24.253906 -8.519531 26.25 -8 28.75 -8 C 29.351562 -8 30.007812 -8.015625 30.71875 -8.046875 C 31.425781 -8.078125 32.15625 -8.128906 32.90625 -8.203125 L 32.90625 0.09375 C 32.09375 0.164062 31.3125 0.21875 30.5625 0.25 C 29.820312 0.28125 29.082031 0.296875 28.34375 0.296875 C 24.769531 0.296875 21.648438 -0.1875 18.984375 -1.15625 C 16.316406 -2.132812 14.253906 -3.804688 12.796875 -6.171875 C 11.347656 -8.535156 10.625 -11.84375 10.625 -16.09375 L 10.625 -46.875 L 2.421875 -46.875 L 2.421875 -54.765625 L 10.625 -54.765625 L 10.625 -65 L 20.546875 -66.921875 Z M 20.546875 -54.765625 "/></g></g></g></svg>