%TF.GenerationSoftware,Flux,Pcbnew,7.0.11-7.0.11~ubuntu20.04.1*%
%TF.CreationDate,2024-08-15T16:12:26+00:00*%
%TF.ProjectId,input,696e7075-742e-46b6-9963-61645f706362,rev?*%
%TF.SameCoordinates,Original*%
%TF.FileFunction,Soldermask,Top*%
%TF.FilePolarity,Negative*%
%FSLAX46Y46*%
G04 Gerber Fmt 4.6, Leading zero omitted, Abs format (unit mm)*
G04 Filename: businesscardpcb*
G04 Build it with Flux! Visit our site at: https://www.flux.ai (PCBNEW 7.0.11-7.0.11~ubuntu20.04.1) date 2024-08-15 16:12:26*
%MOMM*%
%LPD*%
G01*
G04 APERTURE LIST*
G04 APERTURE END LIST*
%TO.C,*%
G36*
X-14940100Y-7684100D02*
G01*
X-15090100Y-7684100D01*
X-15090100Y-7534100D01*
X-14940100Y-7534100D01*
X-14940100Y-7684100D01*
G37*
G36*
X25991437Y18809505D02*
G01*
X25425751Y18243820D01*
X25142908Y18526663D01*
X25708594Y19092348D01*
X25991437Y18809505D01*
G37*
G36*
X24697434Y20103513D02*
G01*
X24131748Y19537828D01*
X23601418Y20068158D01*
X24167104Y20633843D01*
X24697434Y20103513D01*
G37*
G36*
X25439894Y19361050D02*
G01*
X24874209Y18795364D01*
X24449945Y19219628D01*
X25015630Y19785314D01*
X25439894Y19361050D01*
G37*
G36*
X26825821Y17975118D02*
G01*
X26260136Y17409433D01*
X25694450Y17975118D01*
X26260136Y18540803D01*
X26825821Y17975118D01*
G37*
G36*
X3699393Y-15509529D02*
G01*
X3706720Y-15510251D01*
X3714003Y-15511331D01*
X3721224Y-15512767D01*
X3728366Y-15514556D01*
X3735411Y-15516693D01*
X3742343Y-15519174D01*
X3749145Y-15521991D01*
X3755800Y-15525139D01*
X3762293Y-15528610D01*
X3768608Y-15532395D01*
X3774730Y-15536485D01*
X3780643Y-15540871D01*
X3786335Y-15545541D01*
X3791790Y-15550486D01*
X3796996Y-15555692D01*
X3801940Y-15561147D01*
X3806611Y-15566838D01*
X3810996Y-15572751D01*
X3815087Y-15578873D01*
X3818872Y-15585188D01*
X3822342Y-15591681D01*
X3825490Y-15598337D01*
X3828308Y-15605138D01*
X3830788Y-15612070D01*
X3832925Y-15619116D01*
X3834714Y-15626258D01*
X3836150Y-15633478D01*
X3837231Y-15640761D01*
X3837952Y-15648088D01*
X3838314Y-15655442D01*
X3838314Y-15662804D01*
X3837952Y-15670157D01*
X3837231Y-15677484D01*
X3836150Y-15684767D01*
X3834714Y-15691988D01*
X3832925Y-15699130D01*
X3830788Y-15706175D01*
X3828308Y-15713107D01*
X3825490Y-15719909D01*
X3822342Y-15726564D01*
X3818872Y-15733057D01*
X3815087Y-15739372D01*
X3810996Y-15745494D01*
X3806611Y-15751407D01*
X3801940Y-15757099D01*
X3796996Y-15762554D01*
X3791790Y-15767760D01*
X3786335Y-15772704D01*
X3780643Y-15777375D01*
X3774730Y-15781760D01*
X3768608Y-15785851D01*
X3762293Y-15789636D01*
X3755800Y-15793106D01*
X3749145Y-15796254D01*
X3742343Y-15799072D01*
X3735411Y-15801552D01*
X3728366Y-15803689D01*
X3721224Y-15805478D01*
X3714003Y-15806914D01*
X3706720Y-15807995D01*
X3699393Y-15808716D01*
X3692040Y-15809078D01*
X3684678Y-15809078D01*
X3677324Y-15808716D01*
X3669997Y-15807995D01*
X3662714Y-15806914D01*
X3655494Y-15805478D01*
X3648352Y-15803689D01*
X3641306Y-15801552D01*
X3634374Y-15799072D01*
X3627573Y-15796254D01*
X3620917Y-15793106D01*
X3614424Y-15789636D01*
X3608109Y-15785851D01*
X3601987Y-15781760D01*
X3596074Y-15777375D01*
X3590383Y-15772704D01*
X3584928Y-15767760D01*
X3579722Y-15762554D01*
X3574777Y-15757099D01*
X3570107Y-15751407D01*
X3565721Y-15745494D01*
X3561631Y-15739372D01*
X3557846Y-15733057D01*
X3554375Y-15726564D01*
X3551227Y-15719909D01*
X3548410Y-15713107D01*
X3545929Y-15706175D01*
X3543792Y-15699130D01*
X3542003Y-15691988D01*
X3540567Y-15684767D01*
X3539487Y-15677484D01*
X3538765Y-15670157D01*
X3538404Y-15662804D01*
X3538404Y-15655442D01*
X3538765Y-15648088D01*
X3539487Y-15640761D01*
X3540567Y-15633478D01*
X3542003Y-15626258D01*
X3543792Y-15619116D01*
X3545929Y-15612070D01*
X3548410Y-15605138D01*
X3551227Y-15598337D01*
X3554375Y-15591681D01*
X3557846Y-15585188D01*
X3561631Y-15578873D01*
X3565721Y-15572751D01*
X3570107Y-15566838D01*
X3574777Y-15561147D01*
X3579722Y-15555692D01*
X3584928Y-15550486D01*
X3590383Y-15545541D01*
X3596074Y-15540871D01*
X3601987Y-15536485D01*
X3608109Y-15532395D01*
X3614424Y-15528610D01*
X3620917Y-15525139D01*
X3627573Y-15521991D01*
X3634374Y-15519174D01*
X3641306Y-15516693D01*
X3648352Y-15514556D01*
X3655494Y-15512767D01*
X3662714Y-15511331D01*
X3669997Y-15510251D01*
X3677324Y-15509529D01*
X3684678Y-15509168D01*
X3692040Y-15509168D01*
X3699393Y-15509529D01*
G37*
G36*
X3699391Y-14728529D02*
G01*
X3706717Y-14729251D01*
X3714000Y-14730331D01*
X3721221Y-14731767D01*
X3728363Y-14733556D01*
X3735408Y-14735693D01*
X3742340Y-14738174D01*
X3749142Y-14740991D01*
X3755798Y-14744139D01*
X3762291Y-14747610D01*
X3768605Y-14751395D01*
X3774727Y-14755485D01*
X3780641Y-14759871D01*
X3786332Y-14764541D01*
X3791787Y-14769486D01*
X3796993Y-14774692D01*
X3801937Y-14780147D01*
X3806608Y-14785838D01*
X3810994Y-14791751D01*
X3815084Y-14797873D01*
X3818869Y-14804188D01*
X3822339Y-14810681D01*
X3825487Y-14817337D01*
X3828305Y-14824138D01*
X3830785Y-14831070D01*
X3832922Y-14838116D01*
X3834711Y-14845258D01*
X3836147Y-14852478D01*
X3837228Y-14859761D01*
X3837949Y-14867088D01*
X3838311Y-14874442D01*
X3838311Y-14881804D01*
X3837949Y-14889157D01*
X3837228Y-14896484D01*
X3836147Y-14903767D01*
X3834711Y-14910988D01*
X3832922Y-14918130D01*
X3830785Y-14925175D01*
X3828305Y-14932107D01*
X3825487Y-14938909D01*
X3822339Y-14945564D01*
X3818869Y-14952057D01*
X3815084Y-14958372D01*
X3810994Y-14964494D01*
X3806608Y-14970407D01*
X3801937Y-14976099D01*
X3796993Y-14981554D01*
X3791787Y-14986760D01*
X3786332Y-14991704D01*
X3780641Y-14996375D01*
X3774727Y-15000760D01*
X3768605Y-15004851D01*
X3762291Y-15008636D01*
X3755798Y-15012106D01*
X3749142Y-15015254D01*
X3742340Y-15018072D01*
X3735408Y-15020552D01*
X3728363Y-15022689D01*
X3721221Y-15024478D01*
X3714000Y-15025914D01*
X3706717Y-15026995D01*
X3699391Y-15027716D01*
X3692037Y-15028078D01*
X3684675Y-15028078D01*
X3677321Y-15027716D01*
X3669994Y-15026995D01*
X3662712Y-15025914D01*
X3655491Y-15024478D01*
X3648349Y-15022689D01*
X3641304Y-15020552D01*
X3634372Y-15018072D01*
X3627570Y-15015254D01*
X3620914Y-15012106D01*
X3614421Y-15008636D01*
X3608106Y-15004851D01*
X3601985Y-15000760D01*
X3596071Y-14996375D01*
X3590380Y-14991704D01*
X3584925Y-14986760D01*
X3579719Y-14981554D01*
X3574775Y-14976099D01*
X3570104Y-14970407D01*
X3565718Y-14964494D01*
X3561628Y-14958372D01*
X3557843Y-14952057D01*
X3554372Y-14945564D01*
X3551224Y-14938909D01*
X3548407Y-14932107D01*
X3545927Y-14925175D01*
X3543789Y-14918130D01*
X3542001Y-14910988D01*
X3540564Y-14903767D01*
X3539484Y-14896484D01*
X3538762Y-14889157D01*
X3538401Y-14881804D01*
X3538401Y-14874442D01*
X3538762Y-14867088D01*
X3539484Y-14859761D01*
X3540564Y-14852478D01*
X3542001Y-14845258D01*
X3543789Y-14838116D01*
X3545927Y-14831070D01*
X3548407Y-14824138D01*
X3551224Y-14817337D01*
X3554372Y-14810681D01*
X3557843Y-14804188D01*
X3561628Y-14797873D01*
X3565718Y-14791751D01*
X3570104Y-14785838D01*
X3574775Y-14780147D01*
X3579719Y-14774692D01*
X3584925Y-14769486D01*
X3590380Y-14764541D01*
X3596071Y-14759871D01*
X3601985Y-14755485D01*
X3608106Y-14751395D01*
X3614421Y-14747610D01*
X3620914Y-14744139D01*
X3627570Y-14740991D01*
X3634372Y-14738174D01*
X3641304Y-14735693D01*
X3648349Y-14733556D01*
X3655491Y-14731767D01*
X3662712Y-14730331D01*
X3669994Y-14729251D01*
X3677321Y-14728529D01*
X3684675Y-14728168D01*
X3692037Y-14728168D01*
X3699391Y-14728529D01*
G37*
G36*
X9194557Y-7798652D02*
G01*
X9199193Y-7799109D01*
X9203790Y-7799868D01*
X9208328Y-7800926D01*
X9212786Y-7802279D01*
X9217147Y-7803920D01*
X9221391Y-7805843D01*
X9225500Y-7808039D01*
X9229457Y-7810499D01*
X9233244Y-7813213D01*
X9236845Y-7816169D01*
X9240246Y-7819354D01*
X9243431Y-7822755D01*
X9246387Y-7826356D01*
X9249101Y-7830143D01*
X9251561Y-7834100D01*
X9253757Y-7838209D01*
X9255680Y-7842453D01*
X9257321Y-7846814D01*
X9258674Y-7851272D01*
X9259732Y-7855810D01*
X9260491Y-7860407D01*
X9260948Y-7865043D01*
X9261100Y-7869700D01*
X9261100Y-8677300D01*
X9260948Y-8681957D01*
X9260491Y-8686593D01*
X9259732Y-8691190D01*
X9258674Y-8695728D01*
X9257321Y-8700186D01*
X9255680Y-8704547D01*
X9253757Y-8708791D01*
X9251561Y-8712900D01*
X9249101Y-8716857D01*
X9246387Y-8720644D01*
X9243431Y-8724245D01*
X9240246Y-8727646D01*
X9236845Y-8730831D01*
X9233244Y-8733787D01*
X9229457Y-8736501D01*
X9225500Y-8738961D01*
X9221391Y-8741157D01*
X9217147Y-8743080D01*
X9212786Y-8744721D01*
X9208328Y-8746074D01*
X9203790Y-8747132D01*
X9199193Y-8747891D01*
X9194557Y-8748348D01*
X9189900Y-8748500D01*
X8532300Y-8748500D01*
X8527643Y-8748348D01*
X8523007Y-8747891D01*
X8518410Y-8747132D01*
X8513872Y-8746074D01*
X8509414Y-8744721D01*
X8505053Y-8743080D01*
X8500809Y-8741157D01*
X8496700Y-8738961D01*
X8492743Y-8736501D01*
X8488956Y-8733787D01*
X8485355Y-8730831D01*
X8481954Y-8727646D01*
X8478769Y-8724245D01*
X8475813Y-8720644D01*
X8473099Y-8716857D01*
X8470639Y-8712900D01*
X8468443Y-8708791D01*
X8466520Y-8704547D01*
X8464879Y-8700186D01*
X8463526Y-8695728D01*
X8462468Y-8691190D01*
X8461709Y-8686593D01*
X8461252Y-8681957D01*
X8461100Y-8677300D01*
X8461100Y-7869700D01*
X8461252Y-7865043D01*
X8461709Y-7860407D01*
X8462468Y-7855810D01*
X8463526Y-7851272D01*
X8464879Y-7846814D01*
X8466520Y-7842453D01*
X8468443Y-7838209D01*
X8470639Y-7834100D01*
X8473099Y-7830143D01*
X8475813Y-7826356D01*
X8478769Y-7822755D01*
X8481954Y-7819354D01*
X8485355Y-7816169D01*
X8488956Y-7813213D01*
X8492743Y-7810499D01*
X8496700Y-7808039D01*
X8500809Y-7805843D01*
X8505053Y-7803920D01*
X8509414Y-7802279D01*
X8513872Y-7800926D01*
X8518410Y-7799868D01*
X8523007Y-7799109D01*
X8527643Y-7798652D01*
X8532300Y-7798500D01*
X9189900Y-7798500D01*
X9194557Y-7798652D01*
G37*
G36*
X7544557Y-7798652D02*
G01*
X7549193Y-7799109D01*
X7553790Y-7799868D01*
X7558328Y-7800926D01*
X7562786Y-7802279D01*
X7567147Y-7803920D01*
X7571391Y-7805843D01*
X7575500Y-7808039D01*
X7579457Y-7810499D01*
X7583244Y-7813213D01*
X7586845Y-7816169D01*
X7590246Y-7819354D01*
X7593431Y-7822755D01*
X7596387Y-7826356D01*
X7599101Y-7830143D01*
X7601561Y-7834100D01*
X7603757Y-7838209D01*
X7605680Y-7842453D01*
X7607321Y-7846814D01*
X7608674Y-7851272D01*
X7609732Y-7855810D01*
X7610491Y-7860407D01*
X7610948Y-7865043D01*
X7611100Y-7869700D01*
X7611100Y-8677300D01*
X7610948Y-8681957D01*
X7610491Y-8686593D01*
X7609732Y-8691190D01*
X7608674Y-8695728D01*
X7607321Y-8700186D01*
X7605680Y-8704547D01*
X7603757Y-8708791D01*
X7601561Y-8712900D01*
X7599101Y-8716857D01*
X7596387Y-8720644D01*
X7593431Y-8724245D01*
X7590246Y-8727646D01*
X7586845Y-8730831D01*
X7583244Y-8733787D01*
X7579457Y-8736501D01*
X7575500Y-8738961D01*
X7571391Y-8741157D01*
X7567147Y-8743080D01*
X7562786Y-8744721D01*
X7558328Y-8746074D01*
X7553790Y-8747132D01*
X7549193Y-8747891D01*
X7544557Y-8748348D01*
X7539900Y-8748500D01*
X6882300Y-8748500D01*
X6877643Y-8748348D01*
X6873007Y-8747891D01*
X6868410Y-8747132D01*
X6863872Y-8746074D01*
X6859414Y-8744721D01*
X6855053Y-8743080D01*
X6850809Y-8741157D01*
X6846700Y-8738961D01*
X6842743Y-8736501D01*
X6838956Y-8733787D01*
X6835355Y-8730831D01*
X6831954Y-8727646D01*
X6828769Y-8724245D01*
X6825813Y-8720644D01*
X6823099Y-8716857D01*
X6820639Y-8712900D01*
X6818443Y-8708791D01*
X6816520Y-8704547D01*
X6814879Y-8700186D01*
X6813526Y-8695728D01*
X6812468Y-8691190D01*
X6811709Y-8686593D01*
X6811252Y-8681957D01*
X6811100Y-8677300D01*
X6811100Y-7869700D01*
X6811252Y-7865043D01*
X6811709Y-7860407D01*
X6812468Y-7855810D01*
X6813526Y-7851272D01*
X6814879Y-7846814D01*
X6816520Y-7842453D01*
X6818443Y-7838209D01*
X6820639Y-7834100D01*
X6823099Y-7830143D01*
X6825813Y-7826356D01*
X6828769Y-7822755D01*
X6831954Y-7819354D01*
X6835355Y-7816169D01*
X6838956Y-7813213D01*
X6842743Y-7810499D01*
X6846700Y-7808039D01*
X6850809Y-7805843D01*
X6855053Y-7803920D01*
X6859414Y-7802279D01*
X6863872Y-7800926D01*
X6868410Y-7799868D01*
X6873007Y-7799109D01*
X6877643Y-7798652D01*
X6882300Y-7798500D01*
X7539900Y-7798500D01*
X7544557Y-7798652D01*
G37*
G36*
X22685037Y18809505D02*
G01*
X22119351Y18243820D01*
X21836508Y18526663D01*
X22402194Y19092348D01*
X22685037Y18809505D01*
G37*
G36*
X21391034Y20103513D02*
G01*
X20825348Y19537828D01*
X20295018Y20068158D01*
X20860704Y20633843D01*
X21391034Y20103513D01*
G37*
G36*
X22133494Y19361050D02*
G01*
X21567809Y18795364D01*
X21143545Y19219628D01*
X21709230Y19785314D01*
X22133494Y19361050D01*
G37*
G36*
X23519421Y17975118D02*
G01*
X22953736Y17409433D01*
X22388050Y17975118D01*
X22953736Y18540803D01*
X23519421Y17975118D01*
G37*
G36*
X29297737Y22312105D02*
G01*
X28732051Y21746420D01*
X28449208Y22029263D01*
X29014894Y22594948D01*
X29297737Y22312105D01*
G37*
G36*
X28003734Y23606113D02*
G01*
X27438048Y23040428D01*
X26907718Y23570758D01*
X27473404Y24136443D01*
X28003734Y23606113D01*
G37*
G36*
X28746194Y22863650D02*
G01*
X28180509Y22297964D01*
X27756245Y22722228D01*
X28321930Y23287914D01*
X28746194Y22863650D01*
G37*
G36*
X30132121Y21477718D02*
G01*
X29566436Y20912033D01*
X29000750Y21477718D01*
X29566436Y22043403D01*
X30132121Y21477718D01*
G37*
G36*
X-40061800Y-17838300D02*
G01*
X-40061800Y-19538300D01*
X-41761800Y-19538300D01*
X-41761800Y-18700571D01*
X-41411649Y-18700571D01*
X-41410445Y-18725082D01*
X-41408040Y-18749505D01*
X-41404439Y-18773781D01*
X-41399651Y-18797851D01*
X-41393688Y-18821656D01*
X-41386564Y-18845141D01*
X-41378296Y-18868248D01*
X-41368905Y-18890921D01*
X-41358412Y-18913106D01*
X-41346843Y-18934749D01*
X-41334227Y-18955799D01*
X-41320592Y-18976204D01*
X-41305973Y-18995916D01*
X-41290404Y-19014886D01*
X-41273924Y-19033070D01*
X-41256570Y-19050424D01*
X-41238386Y-19066904D01*
X-41219416Y-19082473D01*
X-41199704Y-19097092D01*
X-41179299Y-19110727D01*
X-41158249Y-19123343D01*
X-41136606Y-19134912D01*
X-41114421Y-19145405D01*
X-41091748Y-19154796D01*
X-41068641Y-19163064D01*
X-41045156Y-19170188D01*
X-41021351Y-19176151D01*
X-40997281Y-19180939D01*
X-40973005Y-19184540D01*
X-40948582Y-19186945D01*
X-40924071Y-19188149D01*
X-40899529Y-19188149D01*
X-40875018Y-19186945D01*
X-40850595Y-19184540D01*
X-40826319Y-19180939D01*
X-40802249Y-19176151D01*
X-40778444Y-19170188D01*
X-40754959Y-19163064D01*
X-40731852Y-19154796D01*
X-40709179Y-19145405D01*
X-40686994Y-19134912D01*
X-40665351Y-19123343D01*
X-40644301Y-19110727D01*
X-40623896Y-19097092D01*
X-40604184Y-19082473D01*
X-40585214Y-19066904D01*
X-40567030Y-19050424D01*
X-40549676Y-19033070D01*
X-40533196Y-19014886D01*
X-40517627Y-18995916D01*
X-40503008Y-18976204D01*
X-40489373Y-18955799D01*
X-40476757Y-18934749D01*
X-40465188Y-18913106D01*
X-40454695Y-18890921D01*
X-40445304Y-18868248D01*
X-40437036Y-18845141D01*
X-40429912Y-18821656D01*
X-40423949Y-18797851D01*
X-40419161Y-18773781D01*
X-40415560Y-18749505D01*
X-40413155Y-18725082D01*
X-40411951Y-18700571D01*
X-40411951Y-18676029D01*
X-40413155Y-18651518D01*
X-40415560Y-18627095D01*
X-40419161Y-18602819D01*
X-40423949Y-18578749D01*
X-40429912Y-18554944D01*
X-40437036Y-18531459D01*
X-40445304Y-18508352D01*
X-40454695Y-18485679D01*
X-40458533Y-18477563D01*
X-40465188Y-18463494D01*
X-40476757Y-18441851D01*
X-40489373Y-18420801D01*
X-40503008Y-18400396D01*
X-40517627Y-18380684D01*
X-40533196Y-18361714D01*
X-40549676Y-18343530D01*
X-40567030Y-18326176D01*
X-40585214Y-18309696D01*
X-40604184Y-18294127D01*
X-40623896Y-18279508D01*
X-40644301Y-18265873D01*
X-40665351Y-18253257D01*
X-40686994Y-18241688D01*
X-40709179Y-18231195D01*
X-40731852Y-18221804D01*
X-40754959Y-18213536D01*
X-40778444Y-18206412D01*
X-40802249Y-18200449D01*
X-40826319Y-18195661D01*
X-40850595Y-18192060D01*
X-40875018Y-18189655D01*
X-40899529Y-18188451D01*
X-40924071Y-18188451D01*
X-40948582Y-18189655D01*
X-40973005Y-18192060D01*
X-40997281Y-18195661D01*
X-41021351Y-18200449D01*
X-41045156Y-18206412D01*
X-41068641Y-18213536D01*
X-41091748Y-18221804D01*
X-41114421Y-18231195D01*
X-41136606Y-18241688D01*
X-41158249Y-18253257D01*
X-41179299Y-18265873D01*
X-41199704Y-18279508D01*
X-41219416Y-18294127D01*
X-41238386Y-18309696D01*
X-41256570Y-18326176D01*
X-41273924Y-18343530D01*
X-41290404Y-18361714D01*
X-41305973Y-18380684D01*
X-41320592Y-18400396D01*
X-41334227Y-18420801D01*
X-41346843Y-18441851D01*
X-41358412Y-18463494D01*
X-41368905Y-18485679D01*
X-41378296Y-18508352D01*
X-41386564Y-18531459D01*
X-41393688Y-18554944D01*
X-41399651Y-18578749D01*
X-41404439Y-18602819D01*
X-41408040Y-18627095D01*
X-41410445Y-18651518D01*
X-41411649Y-18676029D01*
X-41411649Y-18700571D01*
X-41761800Y-18700571D01*
X-41761800Y-17838300D01*
X-40061800Y-17838300D01*
G37*
G36*
X-40849250Y-10220603D02*
G01*
X-40807731Y-10224692D01*
X-40766462Y-10230814D01*
X-40725544Y-10238953D01*
X-40685074Y-10249090D01*
X-40645150Y-10261201D01*
X-40605869Y-10275256D01*
X-40567325Y-10291222D01*
X-40529610Y-10309059D01*
X-40492816Y-10328726D01*
X-40457032Y-10350174D01*
X-40422343Y-10373353D01*
X-40388833Y-10398206D01*
X-40356583Y-10424672D01*
X-40325670Y-10452690D01*
X-40296170Y-10482191D01*
X-40268152Y-10513103D01*
X-40241685Y-10545353D01*
X-40216833Y-10578863D01*
X-40193654Y-10613552D01*
X-40172206Y-10649337D01*
X-40152539Y-10686130D01*
X-40134701Y-10723845D01*
X-40118736Y-10762389D01*
X-40104681Y-10801671D01*
X-40092570Y-10841594D01*
X-40082433Y-10882064D01*
X-40074294Y-10922982D01*
X-40068172Y-10964251D01*
X-40064083Y-11005770D01*
X-40062036Y-11047440D01*
X-40062036Y-11089160D01*
X-40064083Y-11130830D01*
X-40068172Y-11172349D01*
X-40074294Y-11213618D01*
X-40082433Y-11254536D01*
X-40092570Y-11295006D01*
X-40104681Y-11334929D01*
X-40118736Y-11374211D01*
X-40134701Y-11412755D01*
X-40152539Y-11450470D01*
X-40172206Y-11487263D01*
X-40193654Y-11523048D01*
X-40216833Y-11557737D01*
X-40241685Y-11591247D01*
X-40268152Y-11623497D01*
X-40296170Y-11654409D01*
X-40325670Y-11683910D01*
X-40356583Y-11711928D01*
X-40388833Y-11738394D01*
X-40422343Y-11763247D01*
X-40457032Y-11786426D01*
X-40492816Y-11807874D01*
X-40529610Y-11827541D01*
X-40567325Y-11845378D01*
X-40605869Y-11861344D01*
X-40645150Y-11875399D01*
X-40685074Y-11887510D01*
X-40725544Y-11897647D01*
X-40766462Y-11905786D01*
X-40807731Y-11911908D01*
X-40849250Y-11915997D01*
X-40890920Y-11918044D01*
X-40932640Y-11918044D01*
X-40974310Y-11915997D01*
X-41015829Y-11911908D01*
X-41057097Y-11905786D01*
X-41098016Y-11897647D01*
X-41138486Y-11887510D01*
X-41178409Y-11875399D01*
X-41217691Y-11861344D01*
X-41256235Y-11845378D01*
X-41293949Y-11827541D01*
X-41330743Y-11807874D01*
X-41366528Y-11786426D01*
X-41401217Y-11763247D01*
X-41434727Y-11738394D01*
X-41466977Y-11711928D01*
X-41497889Y-11683910D01*
X-41527390Y-11654409D01*
X-41555407Y-11623497D01*
X-41581874Y-11591247D01*
X-41606727Y-11557737D01*
X-41629905Y-11523048D01*
X-41651354Y-11487263D01*
X-41671020Y-11450470D01*
X-41688858Y-11412755D01*
X-41704824Y-11374211D01*
X-41718879Y-11334929D01*
X-41730989Y-11295006D01*
X-41741127Y-11254536D01*
X-41749266Y-11213618D01*
X-41755387Y-11172349D01*
X-41759477Y-11130830D01*
X-41761524Y-11089160D01*
X-41761524Y-11080571D01*
X-41411629Y-11080571D01*
X-41410425Y-11105082D01*
X-41408020Y-11129505D01*
X-41404419Y-11153781D01*
X-41399631Y-11177851D01*
X-41393668Y-11201656D01*
X-41386544Y-11225141D01*
X-41378276Y-11248248D01*
X-41368885Y-11270921D01*
X-41358392Y-11293106D01*
X-41346823Y-11314749D01*
X-41334207Y-11335799D01*
X-41320572Y-11356204D01*
X-41305953Y-11375916D01*
X-41290384Y-11394886D01*
X-41273903Y-11413070D01*
X-41256550Y-11430424D01*
X-41238366Y-11446904D01*
X-41219396Y-11462473D01*
X-41199684Y-11477092D01*
X-41179279Y-11490727D01*
X-41158229Y-11503343D01*
X-41136585Y-11514912D01*
X-41114400Y-11525405D01*
X-41091727Y-11534796D01*
X-41068621Y-11543064D01*
X-41045136Y-11550188D01*
X-41021330Y-11556151D01*
X-40997261Y-11560939D01*
X-40972985Y-11564540D01*
X-40948562Y-11566945D01*
X-40924050Y-11568149D01*
X-40899509Y-11568149D01*
X-40874997Y-11566945D01*
X-40850574Y-11564540D01*
X-40826299Y-11560939D01*
X-40802229Y-11556151D01*
X-40778423Y-11550188D01*
X-40754939Y-11543064D01*
X-40731832Y-11534796D01*
X-40709159Y-11525405D01*
X-40686974Y-11514912D01*
X-40665331Y-11503343D01*
X-40644281Y-11490727D01*
X-40623876Y-11477092D01*
X-40604164Y-11462473D01*
X-40585193Y-11446904D01*
X-40567010Y-11430424D01*
X-40549656Y-11413070D01*
X-40533175Y-11394886D01*
X-40517607Y-11375916D01*
X-40502987Y-11356204D01*
X-40489353Y-11335799D01*
X-40476736Y-11314749D01*
X-40465168Y-11293106D01*
X-40454675Y-11270921D01*
X-40445283Y-11248248D01*
X-40437016Y-11225141D01*
X-40429892Y-11201656D01*
X-40423929Y-11177851D01*
X-40419141Y-11153781D01*
X-40415540Y-11129505D01*
X-40413135Y-11105082D01*
X-40411930Y-11080571D01*
X-40411930Y-11056029D01*
X-40413135Y-11031518D01*
X-40415540Y-11007095D01*
X-40419141Y-10982819D01*
X-40423929Y-10958749D01*
X-40429892Y-10934944D01*
X-40437016Y-10911459D01*
X-40445283Y-10888352D01*
X-40454675Y-10865679D01*
X-40465168Y-10843494D01*
X-40476736Y-10821851D01*
X-40489353Y-10800801D01*
X-40502987Y-10780396D01*
X-40517607Y-10760684D01*
X-40533175Y-10741714D01*
X-40549656Y-10723530D01*
X-40567010Y-10706176D01*
X-40585193Y-10689696D01*
X-40604164Y-10674127D01*
X-40623876Y-10659508D01*
X-40644281Y-10645873D01*
X-40665331Y-10633257D01*
X-40686974Y-10621688D01*
X-40709159Y-10611195D01*
X-40731832Y-10601804D01*
X-40754939Y-10593536D01*
X-40778423Y-10586412D01*
X-40802229Y-10580449D01*
X-40826299Y-10575661D01*
X-40850574Y-10572060D01*
X-40874997Y-10569655D01*
X-40899509Y-10568451D01*
X-40924050Y-10568451D01*
X-40948562Y-10569655D01*
X-40972985Y-10572060D01*
X-40997261Y-10575661D01*
X-41021330Y-10580449D01*
X-41045136Y-10586412D01*
X-41068621Y-10593536D01*
X-41091727Y-10601804D01*
X-41114400Y-10611195D01*
X-41136585Y-10621688D01*
X-41158229Y-10633257D01*
X-41179279Y-10645873D01*
X-41199684Y-10659508D01*
X-41219396Y-10674127D01*
X-41238366Y-10689696D01*
X-41256550Y-10706176D01*
X-41273903Y-10723530D01*
X-41290384Y-10741714D01*
X-41305953Y-10760684D01*
X-41320572Y-10780396D01*
X-41334207Y-10800801D01*
X-41346823Y-10821851D01*
X-41358392Y-10843494D01*
X-41368885Y-10865679D01*
X-41378276Y-10888352D01*
X-41386544Y-10911459D01*
X-41393668Y-10934944D01*
X-41399631Y-10958749D01*
X-41404419Y-10982819D01*
X-41408020Y-11007095D01*
X-41410425Y-11031518D01*
X-41411629Y-11056029D01*
X-41411629Y-11080571D01*
X-41761524Y-11080571D01*
X-41761524Y-11047440D01*
X-41759477Y-11005770D01*
X-41755387Y-10964251D01*
X-41749266Y-10922982D01*
X-41741127Y-10882064D01*
X-41730989Y-10841594D01*
X-41718879Y-10801671D01*
X-41704824Y-10762389D01*
X-41688858Y-10723845D01*
X-41671020Y-10686130D01*
X-41651354Y-10649337D01*
X-41629905Y-10613552D01*
X-41606727Y-10578863D01*
X-41581874Y-10545353D01*
X-41555407Y-10513103D01*
X-41527390Y-10482191D01*
X-41497889Y-10452690D01*
X-41466977Y-10424672D01*
X-41434727Y-10398206D01*
X-41401217Y-10373353D01*
X-41366528Y-10350174D01*
X-41330743Y-10328726D01*
X-41293949Y-10309059D01*
X-41256235Y-10291222D01*
X-41217691Y-10275256D01*
X-41178409Y-10261201D01*
X-41138486Y-10249090D01*
X-41098016Y-10238953D01*
X-41057097Y-10230814D01*
X-41015829Y-10224692D01*
X-40974310Y-10220603D01*
X-40932640Y-10218556D01*
X-40890920Y-10218556D01*
X-40849250Y-10220603D01*
G37*
G36*
X-40849263Y-15300603D02*
G01*
X-40807744Y-15304692D01*
X-40766476Y-15310814D01*
X-40725557Y-15318953D01*
X-40685087Y-15329090D01*
X-40645164Y-15341201D01*
X-40605882Y-15355256D01*
X-40567338Y-15371222D01*
X-40529624Y-15389059D01*
X-40492830Y-15408726D01*
X-40457045Y-15430174D01*
X-40422356Y-15453353D01*
X-40388846Y-15478206D01*
X-40356596Y-15504672D01*
X-40325684Y-15532690D01*
X-40296183Y-15562191D01*
X-40268166Y-15593103D01*
X-40241699Y-15625353D01*
X-40216846Y-15658863D01*
X-40193668Y-15693552D01*
X-40172219Y-15729337D01*
X-40152553Y-15766130D01*
X-40134715Y-15803845D01*
X-40118749Y-15842389D01*
X-40104694Y-15881671D01*
X-40092584Y-15921594D01*
X-40082446Y-15962064D01*
X-40074307Y-16002982D01*
X-40068186Y-16044251D01*
X-40064096Y-16085770D01*
X-40062049Y-16127440D01*
X-40062049Y-16169160D01*
X-40064096Y-16210830D01*
X-40068186Y-16252349D01*
X-40074307Y-16293618D01*
X-40082446Y-16334536D01*
X-40092584Y-16375006D01*
X-40104694Y-16414929D01*
X-40118749Y-16454211D01*
X-40134715Y-16492755D01*
X-40152553Y-16530470D01*
X-40172219Y-16567263D01*
X-40193668Y-16603048D01*
X-40216846Y-16637737D01*
X-40241699Y-16671247D01*
X-40268166Y-16703497D01*
X-40296183Y-16734409D01*
X-40325684Y-16763910D01*
X-40356596Y-16791928D01*
X-40388846Y-16818394D01*
X-40422356Y-16843247D01*
X-40457045Y-16866426D01*
X-40492830Y-16887874D01*
X-40529624Y-16907541D01*
X-40567338Y-16925378D01*
X-40605882Y-16941344D01*
X-40645164Y-16955399D01*
X-40685087Y-16967510D01*
X-40725557Y-16977647D01*
X-40766476Y-16985786D01*
X-40807744Y-16991908D01*
X-40849263Y-16995997D01*
X-40890933Y-16998044D01*
X-40932653Y-16998044D01*
X-40974323Y-16995997D01*
X-41015842Y-16991908D01*
X-41057111Y-16985786D01*
X-41098029Y-16977647D01*
X-41138499Y-16967510D01*
X-41178423Y-16955399D01*
X-41217704Y-16941344D01*
X-41256248Y-16925378D01*
X-41293963Y-16907541D01*
X-41330757Y-16887874D01*
X-41366541Y-16866426D01*
X-41401230Y-16843247D01*
X-41434740Y-16818394D01*
X-41466990Y-16791928D01*
X-41497903Y-16763910D01*
X-41527403Y-16734409D01*
X-41555421Y-16703497D01*
X-41581888Y-16671247D01*
X-41606740Y-16637737D01*
X-41629919Y-16603048D01*
X-41651367Y-16567263D01*
X-41671034Y-16530470D01*
X-41688872Y-16492755D01*
X-41704837Y-16454211D01*
X-41718892Y-16414929D01*
X-41731003Y-16375006D01*
X-41741140Y-16334536D01*
X-41749279Y-16293618D01*
X-41755401Y-16252349D01*
X-41759490Y-16210830D01*
X-41761537Y-16169160D01*
X-41761537Y-16160571D01*
X-41411643Y-16160571D01*
X-41410438Y-16185082D01*
X-41408033Y-16209505D01*
X-41404432Y-16233781D01*
X-41399644Y-16257851D01*
X-41393681Y-16281656D01*
X-41386557Y-16305141D01*
X-41378290Y-16328248D01*
X-41368898Y-16350921D01*
X-41358405Y-16373106D01*
X-41346837Y-16394749D01*
X-41334220Y-16415799D01*
X-41320586Y-16436204D01*
X-41305966Y-16455916D01*
X-41290398Y-16474886D01*
X-41273917Y-16493070D01*
X-41256564Y-16510424D01*
X-41238380Y-16526904D01*
X-41219409Y-16542473D01*
X-41199697Y-16557092D01*
X-41179292Y-16570727D01*
X-41158242Y-16583343D01*
X-41136599Y-16594912D01*
X-41114414Y-16605405D01*
X-41091741Y-16614796D01*
X-41068634Y-16623064D01*
X-41045150Y-16630188D01*
X-41021344Y-16636151D01*
X-40997274Y-16640939D01*
X-40972999Y-16644540D01*
X-40948576Y-16646945D01*
X-40924064Y-16648149D01*
X-40899523Y-16648149D01*
X-40875011Y-16646945D01*
X-40850588Y-16644540D01*
X-40826312Y-16640939D01*
X-40802243Y-16636151D01*
X-40778437Y-16630188D01*
X-40754952Y-16623064D01*
X-40731846Y-16614796D01*
X-40709173Y-16605405D01*
X-40686988Y-16594912D01*
X-40665344Y-16583343D01*
X-40644294Y-16570727D01*
X-40623889Y-16557092D01*
X-40604177Y-16542473D01*
X-40585207Y-16526904D01*
X-40567023Y-16510424D01*
X-40549670Y-16493070D01*
X-40533189Y-16474886D01*
X-40517620Y-16455916D01*
X-40503001Y-16436204D01*
X-40489366Y-16415799D01*
X-40476750Y-16394749D01*
X-40465181Y-16373106D01*
X-40454688Y-16350921D01*
X-40445297Y-16328248D01*
X-40437029Y-16305141D01*
X-40429905Y-16281656D01*
X-40423942Y-16257851D01*
X-40419154Y-16233781D01*
X-40415553Y-16209505D01*
X-40413148Y-16185082D01*
X-40411944Y-16160571D01*
X-40411944Y-16136029D01*
X-40413148Y-16111518D01*
X-40415553Y-16087095D01*
X-40419154Y-16062819D01*
X-40423942Y-16038749D01*
X-40429905Y-16014944D01*
X-40437029Y-15991459D01*
X-40445297Y-15968352D01*
X-40454688Y-15945679D01*
X-40465181Y-15923494D01*
X-40476750Y-15901851D01*
X-40489366Y-15880801D01*
X-40503001Y-15860396D01*
X-40517620Y-15840684D01*
X-40533189Y-15821714D01*
X-40549670Y-15803530D01*
X-40567023Y-15786176D01*
X-40585207Y-15769696D01*
X-40604177Y-15754127D01*
X-40623889Y-15739508D01*
X-40644294Y-15725873D01*
X-40665344Y-15713257D01*
X-40686988Y-15701688D01*
X-40709173Y-15691195D01*
X-40731846Y-15681804D01*
X-40754952Y-15673536D01*
X-40778437Y-15666412D01*
X-40802243Y-15660449D01*
X-40826312Y-15655661D01*
X-40850588Y-15652060D01*
X-40875011Y-15649655D01*
X-40899523Y-15648451D01*
X-40924064Y-15648451D01*
X-40948576Y-15649655D01*
X-40972999Y-15652060D01*
X-40997274Y-15655661D01*
X-41021344Y-15660449D01*
X-41045150Y-15666412D01*
X-41068634Y-15673536D01*
X-41091741Y-15681804D01*
X-41114414Y-15691195D01*
X-41136599Y-15701688D01*
X-41158242Y-15713257D01*
X-41179292Y-15725873D01*
X-41199697Y-15739508D01*
X-41219409Y-15754127D01*
X-41238380Y-15769696D01*
X-41256564Y-15786176D01*
X-41273917Y-15803530D01*
X-41290398Y-15821714D01*
X-41305966Y-15840684D01*
X-41320586Y-15860396D01*
X-41334220Y-15880801D01*
X-41346837Y-15901851D01*
X-41358405Y-15923494D01*
X-41368898Y-15945679D01*
X-41378290Y-15968352D01*
X-41386557Y-15991459D01*
X-41393681Y-16014944D01*
X-41399644Y-16038749D01*
X-41404432Y-16062819D01*
X-41408033Y-16087095D01*
X-41410438Y-16111518D01*
X-41411643Y-16136029D01*
X-41411643Y-16160571D01*
X-41761537Y-16160571D01*
X-41761537Y-16127440D01*
X-41759490Y-16085770D01*
X-41755401Y-16044251D01*
X-41749279Y-16002982D01*
X-41741140Y-15962064D01*
X-41731003Y-15921594D01*
X-41718892Y-15881671D01*
X-41704837Y-15842389D01*
X-41688872Y-15803845D01*
X-41671034Y-15766130D01*
X-41651367Y-15729337D01*
X-41629919Y-15693552D01*
X-41606740Y-15658863D01*
X-41581888Y-15625353D01*
X-41555421Y-15593103D01*
X-41527403Y-15562191D01*
X-41497903Y-15532690D01*
X-41466990Y-15504672D01*
X-41434740Y-15478206D01*
X-41401230Y-15453353D01*
X-41366541Y-15430174D01*
X-41330757Y-15408726D01*
X-41293963Y-15389059D01*
X-41256248Y-15371222D01*
X-41217704Y-15355256D01*
X-41178423Y-15341201D01*
X-41138499Y-15329090D01*
X-41098029Y-15318953D01*
X-41057111Y-15310814D01*
X-41015842Y-15304692D01*
X-40974323Y-15300603D01*
X-40932653Y-15298556D01*
X-40890933Y-15298556D01*
X-40849263Y-15300603D01*
G37*
G36*
X-40849257Y-12760603D02*
G01*
X-40807737Y-12764692D01*
X-40766469Y-12770814D01*
X-40725550Y-12778953D01*
X-40685081Y-12789090D01*
X-40645157Y-12801201D01*
X-40605876Y-12815256D01*
X-40567331Y-12831222D01*
X-40529617Y-12849059D01*
X-40492823Y-12868726D01*
X-40457039Y-12890174D01*
X-40422350Y-12913353D01*
X-40388840Y-12938206D01*
X-40356590Y-12964672D01*
X-40325677Y-12992690D01*
X-40296176Y-13022191D01*
X-40268159Y-13053103D01*
X-40241692Y-13085353D01*
X-40216839Y-13118863D01*
X-40193661Y-13153552D01*
X-40172213Y-13189337D01*
X-40152546Y-13226130D01*
X-40134708Y-13263845D01*
X-40118743Y-13302389D01*
X-40104688Y-13341671D01*
X-40092577Y-13381594D01*
X-40082440Y-13422064D01*
X-40074301Y-13462982D01*
X-40068179Y-13504251D01*
X-40064090Y-13545770D01*
X-40062043Y-13587440D01*
X-40062043Y-13629160D01*
X-40064090Y-13670830D01*
X-40068179Y-13712349D01*
X-40074301Y-13753618D01*
X-40082440Y-13794536D01*
X-40092577Y-13835006D01*
X-40104688Y-13874929D01*
X-40118743Y-13914211D01*
X-40134708Y-13952755D01*
X-40152546Y-13990470D01*
X-40172213Y-14027263D01*
X-40193661Y-14063048D01*
X-40216839Y-14097737D01*
X-40241692Y-14131247D01*
X-40268159Y-14163497D01*
X-40296176Y-14194409D01*
X-40325677Y-14223910D01*
X-40356590Y-14251928D01*
X-40388840Y-14278394D01*
X-40422350Y-14303247D01*
X-40457039Y-14326426D01*
X-40492823Y-14347874D01*
X-40529617Y-14367541D01*
X-40567331Y-14385378D01*
X-40605876Y-14401344D01*
X-40645157Y-14415399D01*
X-40685081Y-14427510D01*
X-40725550Y-14437647D01*
X-40766469Y-14445786D01*
X-40807737Y-14451908D01*
X-40849257Y-14455997D01*
X-40890926Y-14458044D01*
X-40932647Y-14458044D01*
X-40974316Y-14455997D01*
X-41015836Y-14451908D01*
X-41057104Y-14445786D01*
X-41098023Y-14437647D01*
X-41138492Y-14427510D01*
X-41178416Y-14415399D01*
X-41217697Y-14401344D01*
X-41256242Y-14385378D01*
X-41293956Y-14367541D01*
X-41330750Y-14347874D01*
X-41366534Y-14326426D01*
X-41401223Y-14303247D01*
X-41434733Y-14278394D01*
X-41466983Y-14251928D01*
X-41497896Y-14223910D01*
X-41527397Y-14194409D01*
X-41555414Y-14163497D01*
X-41581881Y-14131247D01*
X-41606734Y-14097737D01*
X-41629912Y-14063048D01*
X-41651360Y-14027263D01*
X-41671027Y-13990470D01*
X-41688865Y-13952755D01*
X-41704830Y-13914211D01*
X-41718885Y-13874929D01*
X-41730996Y-13835006D01*
X-41741133Y-13794536D01*
X-41749273Y-13753618D01*
X-41755394Y-13712349D01*
X-41759483Y-13670830D01*
X-41761531Y-13629160D01*
X-41761531Y-13620571D01*
X-41411636Y-13620571D01*
X-41410432Y-13645082D01*
X-41408026Y-13669505D01*
X-41404425Y-13693781D01*
X-41399638Y-13717851D01*
X-41393675Y-13741656D01*
X-41386551Y-13765141D01*
X-41378283Y-13788248D01*
X-41368891Y-13810921D01*
X-41358399Y-13833106D01*
X-41346830Y-13854749D01*
X-41334213Y-13875799D01*
X-41320579Y-13896204D01*
X-41305960Y-13915916D01*
X-41290391Y-13934886D01*
X-41273910Y-13953070D01*
X-41256557Y-13970424D01*
X-41238373Y-13986904D01*
X-41219402Y-14002473D01*
X-41199691Y-14017092D01*
X-41179285Y-14030727D01*
X-41158236Y-14043343D01*
X-41136592Y-14054912D01*
X-41114407Y-14065405D01*
X-41091734Y-14074796D01*
X-41068627Y-14083064D01*
X-41045143Y-14090188D01*
X-41021337Y-14096151D01*
X-40997267Y-14100939D01*
X-40972992Y-14104540D01*
X-40948569Y-14106945D01*
X-40924057Y-14108149D01*
X-40899516Y-14108149D01*
X-40875004Y-14106945D01*
X-40850581Y-14104540D01*
X-40826306Y-14100939D01*
X-40802236Y-14096151D01*
X-40778430Y-14090188D01*
X-40754946Y-14083064D01*
X-40731839Y-14074796D01*
X-40709166Y-14065405D01*
X-40686981Y-14054912D01*
X-40665337Y-14043343D01*
X-40644288Y-14030727D01*
X-40623882Y-14017092D01*
X-40604171Y-14002473D01*
X-40585200Y-13986904D01*
X-40567016Y-13970424D01*
X-40549663Y-13953070D01*
X-40533182Y-13934886D01*
X-40517613Y-13915916D01*
X-40502994Y-13896204D01*
X-40489360Y-13875799D01*
X-40476743Y-13854749D01*
X-40465174Y-13833106D01*
X-40454682Y-13810921D01*
X-40445290Y-13788248D01*
X-40437022Y-13765141D01*
X-40429898Y-13741656D01*
X-40423935Y-13717851D01*
X-40419148Y-13693781D01*
X-40415547Y-13669505D01*
X-40413141Y-13645082D01*
X-40411937Y-13620571D01*
X-40411937Y-13596029D01*
X-40413141Y-13571518D01*
X-40415547Y-13547095D01*
X-40419148Y-13522819D01*
X-40423935Y-13498749D01*
X-40429898Y-13474944D01*
X-40437022Y-13451459D01*
X-40445290Y-13428352D01*
X-40454682Y-13405679D01*
X-40465174Y-13383494D01*
X-40476743Y-13361851D01*
X-40489360Y-13340801D01*
X-40502994Y-13320396D01*
X-40517613Y-13300684D01*
X-40533182Y-13281714D01*
X-40549663Y-13263530D01*
X-40567016Y-13246176D01*
X-40585200Y-13229696D01*
X-40604171Y-13214127D01*
X-40623882Y-13199508D01*
X-40644288Y-13185873D01*
X-40665337Y-13173257D01*
X-40686981Y-13161688D01*
X-40709166Y-13151195D01*
X-40731839Y-13141804D01*
X-40754946Y-13133536D01*
X-40778430Y-13126412D01*
X-40802236Y-13120449D01*
X-40826306Y-13115661D01*
X-40850581Y-13112060D01*
X-40875004Y-13109655D01*
X-40899516Y-13108451D01*
X-40924057Y-13108451D01*
X-40948569Y-13109655D01*
X-40972992Y-13112060D01*
X-40997267Y-13115661D01*
X-41021337Y-13120449D01*
X-41045143Y-13126412D01*
X-41068627Y-13133536D01*
X-41091734Y-13141804D01*
X-41114407Y-13151195D01*
X-41136592Y-13161688D01*
X-41158236Y-13173257D01*
X-41179285Y-13185873D01*
X-41199691Y-13199508D01*
X-41219402Y-13214127D01*
X-41238373Y-13229696D01*
X-41256557Y-13246176D01*
X-41273910Y-13263530D01*
X-41290391Y-13281714D01*
X-41305960Y-13300684D01*
X-41320579Y-13320396D01*
X-41334213Y-13340801D01*
X-41346830Y-13361851D01*
X-41358399Y-13383494D01*
X-41368891Y-13405679D01*
X-41378283Y-13428352D01*
X-41386551Y-13451459D01*
X-41393675Y-13474944D01*
X-41399638Y-13498749D01*
X-41404425Y-13522819D01*
X-41408026Y-13547095D01*
X-41410432Y-13571518D01*
X-41411636Y-13596029D01*
X-41411636Y-13620571D01*
X-41761531Y-13620571D01*
X-41761531Y-13587440D01*
X-41759483Y-13545770D01*
X-41755394Y-13504251D01*
X-41749273Y-13462982D01*
X-41741133Y-13422064D01*
X-41730996Y-13381594D01*
X-41718885Y-13341671D01*
X-41704830Y-13302389D01*
X-41688865Y-13263845D01*
X-41671027Y-13226130D01*
X-41651360Y-13189337D01*
X-41629912Y-13153552D01*
X-41606734Y-13118863D01*
X-41581881Y-13085353D01*
X-41555414Y-13053103D01*
X-41527397Y-13022191D01*
X-41497896Y-12992690D01*
X-41466983Y-12964672D01*
X-41434733Y-12938206D01*
X-41401223Y-12913353D01*
X-41366534Y-12890174D01*
X-41330750Y-12868726D01*
X-41293956Y-12849059D01*
X-41256242Y-12831222D01*
X-41217697Y-12815256D01*
X-41178416Y-12801201D01*
X-41138492Y-12789090D01*
X-41098023Y-12778953D01*
X-41057104Y-12770814D01*
X-41015836Y-12764692D01*
X-40974316Y-12760603D01*
X-40932647Y-12758556D01*
X-40890926Y-12758556D01*
X-40849257Y-12760603D01*
G37*
G36*
X29297737Y18809505D02*
G01*
X28732051Y18243820D01*
X28449208Y18526663D01*
X29014894Y19092348D01*
X29297737Y18809505D01*
G37*
G36*
X28003734Y20103513D02*
G01*
X27438048Y19537828D01*
X26907718Y20068158D01*
X27473404Y20633843D01*
X28003734Y20103513D01*
G37*
G36*
X28746194Y19361050D02*
G01*
X28180509Y18795364D01*
X27756245Y19219628D01*
X28321930Y19785314D01*
X28746194Y19361050D01*
G37*
G36*
X30132121Y17975118D02*
G01*
X29566436Y17409433D01*
X29000750Y17975118D01*
X29566436Y18540803D01*
X30132121Y17975118D01*
G37*
G36*
X10560560Y-9340652D02*
G01*
X10565196Y-9341109D01*
X10569793Y-9341868D01*
X10574331Y-9342926D01*
X10578789Y-9344279D01*
X10583150Y-9345920D01*
X10587394Y-9347843D01*
X10591503Y-9350039D01*
X10595459Y-9352499D01*
X10599247Y-9355213D01*
X10602848Y-9358169D01*
X10606249Y-9361354D01*
X10609434Y-9364755D01*
X10612390Y-9368356D01*
X10615103Y-9372143D01*
X10617564Y-9376100D01*
X10619760Y-9380209D01*
X10621683Y-9384453D01*
X10623324Y-9388814D01*
X10624677Y-9393272D01*
X10625735Y-9397810D01*
X10626494Y-9402407D01*
X10626950Y-9407043D01*
X10627103Y-9411700D01*
X10627103Y-10169300D01*
X10626950Y-10173957D01*
X10626494Y-10178593D01*
X10625735Y-10183190D01*
X10624677Y-10187728D01*
X10623324Y-10192186D01*
X10621683Y-10196547D01*
X10619760Y-10200791D01*
X10617564Y-10204900D01*
X10615103Y-10208857D01*
X10612390Y-10212644D01*
X10609434Y-10216245D01*
X10606249Y-10219646D01*
X10602848Y-10222831D01*
X10599247Y-10225787D01*
X10595459Y-10228501D01*
X10591503Y-10230961D01*
X10587394Y-10233157D01*
X10583150Y-10235080D01*
X10578789Y-10236721D01*
X10574331Y-10238074D01*
X10569793Y-10239132D01*
X10565196Y-10239891D01*
X10560560Y-10240348D01*
X10555903Y-10240500D01*
X9748303Y-10240500D01*
X9743646Y-10240348D01*
X9739009Y-10239891D01*
X9734412Y-10239132D01*
X9729875Y-10238074D01*
X9725416Y-10236721D01*
X9721056Y-10235080D01*
X9716812Y-10233157D01*
X9712703Y-10230961D01*
X9708746Y-10228501D01*
X9704959Y-10225787D01*
X9701357Y-10222831D01*
X9697957Y-10219646D01*
X9694772Y-10216245D01*
X9691816Y-10212644D01*
X9689102Y-10208857D01*
X9686642Y-10204900D01*
X9684446Y-10200791D01*
X9682523Y-10196547D01*
X9680881Y-10192186D01*
X9679529Y-10187728D01*
X9678471Y-10183190D01*
X9677712Y-10178593D01*
X9677255Y-10173957D01*
X9677103Y-10169300D01*
X9677103Y-9411700D01*
X9677255Y-9407043D01*
X9677712Y-9402407D01*
X9678471Y-9397810D01*
X9679529Y-9393272D01*
X9680881Y-9388814D01*
X9682523Y-9384453D01*
X9684446Y-9380209D01*
X9686642Y-9376100D01*
X9689102Y-9372143D01*
X9691816Y-9368356D01*
X9694772Y-9364755D01*
X9697957Y-9361354D01*
X9701357Y-9358169D01*
X9704959Y-9355213D01*
X9708746Y-9352499D01*
X9712703Y-9350039D01*
X9716812Y-9347843D01*
X9721056Y-9345920D01*
X9725416Y-9344279D01*
X9729875Y-9342926D01*
X9734412Y-9341868D01*
X9739009Y-9341109D01*
X9743646Y-9340652D01*
X9748303Y-9340500D01*
X10555903Y-9340500D01*
X10560560Y-9340652D01*
G37*
G36*
X10560554Y-7790652D02*
G01*
X10565191Y-7791109D01*
X10569788Y-7791868D01*
X10574325Y-7792926D01*
X10578784Y-7794279D01*
X10583144Y-7795920D01*
X10587388Y-7797843D01*
X10591497Y-7800039D01*
X10595454Y-7802499D01*
X10599241Y-7805213D01*
X10602843Y-7808169D01*
X10606243Y-7811354D01*
X10609428Y-7814755D01*
X10612384Y-7818356D01*
X10615098Y-7822143D01*
X10617558Y-7826100D01*
X10619754Y-7830209D01*
X10621677Y-7834453D01*
X10623319Y-7838814D01*
X10624671Y-7843272D01*
X10625729Y-7847810D01*
X10626488Y-7852407D01*
X10626945Y-7857043D01*
X10627097Y-7861700D01*
X10627097Y-8619300D01*
X10626945Y-8623957D01*
X10626488Y-8628593D01*
X10625729Y-8633190D01*
X10624671Y-8637728D01*
X10623319Y-8642186D01*
X10621677Y-8646547D01*
X10619754Y-8650791D01*
X10617558Y-8654900D01*
X10615098Y-8658857D01*
X10612384Y-8662644D01*
X10609428Y-8666245D01*
X10606243Y-8669646D01*
X10602843Y-8672831D01*
X10599241Y-8675787D01*
X10595454Y-8678501D01*
X10591497Y-8680961D01*
X10587388Y-8683157D01*
X10583144Y-8685080D01*
X10578784Y-8686721D01*
X10574325Y-8688074D01*
X10569788Y-8689132D01*
X10565191Y-8689891D01*
X10560554Y-8690348D01*
X10555897Y-8690500D01*
X9748297Y-8690500D01*
X9743640Y-8690348D01*
X9739004Y-8689891D01*
X9734407Y-8689132D01*
X9729869Y-8688074D01*
X9725411Y-8686721D01*
X9721050Y-8685080D01*
X9716806Y-8683157D01*
X9712697Y-8680961D01*
X9708741Y-8678501D01*
X9704953Y-8675787D01*
X9701352Y-8672831D01*
X9697951Y-8669646D01*
X9694766Y-8666245D01*
X9691810Y-8662644D01*
X9689097Y-8658857D01*
X9686636Y-8654900D01*
X9684440Y-8650791D01*
X9682517Y-8646547D01*
X9680876Y-8642186D01*
X9679523Y-8637728D01*
X9678465Y-8633190D01*
X9677706Y-8628593D01*
X9677250Y-8623957D01*
X9677097Y-8619300D01*
X9677097Y-7861700D01*
X9677250Y-7857043D01*
X9677706Y-7852407D01*
X9678465Y-7847810D01*
X9679523Y-7843272D01*
X9680876Y-7838814D01*
X9682517Y-7834453D01*
X9684440Y-7830209D01*
X9686636Y-7826100D01*
X9689097Y-7822143D01*
X9691810Y-7818356D01*
X9694766Y-7814755D01*
X9697951Y-7811354D01*
X9701352Y-7808169D01*
X9704953Y-7805213D01*
X9708741Y-7802499D01*
X9712697Y-7800039D01*
X9716806Y-7797843D01*
X9721050Y-7795920D01*
X9725411Y-7794279D01*
X9729869Y-7792926D01*
X9734407Y-7791868D01*
X9739004Y-7791109D01*
X9743640Y-7790652D01*
X9748297Y-7790500D01*
X10555897Y-7790500D01*
X10560554Y-7790652D01*
G37*
G36*
X39216837Y18809505D02*
G01*
X38651151Y18243820D01*
X38368308Y18526663D01*
X38933994Y19092348D01*
X39216837Y18809505D01*
G37*
G36*
X37922834Y20103513D02*
G01*
X37357148Y19537828D01*
X36826818Y20068158D01*
X37392504Y20633843D01*
X37922834Y20103513D01*
G37*
G36*
X38665294Y19361050D02*
G01*
X38099609Y18795364D01*
X37675345Y19219628D01*
X38241030Y19785314D01*
X38665294Y19361050D01*
G37*
G36*
X40051221Y17975118D02*
G01*
X39485536Y17409433D01*
X38919850Y17975118D01*
X39485536Y18540803D01*
X40051221Y17975118D01*
G37*
G36*
X35910437Y22312105D02*
G01*
X35344751Y21746420D01*
X35061908Y22029263D01*
X35627594Y22594948D01*
X35910437Y22312105D01*
G37*
G36*
X34616434Y23606113D02*
G01*
X34050748Y23040428D01*
X33520418Y23570758D01*
X34086104Y24136443D01*
X34616434Y23606113D01*
G37*
G36*
X35358894Y22863650D02*
G01*
X34793209Y22297964D01*
X34368945Y22722228D01*
X34934630Y23287914D01*
X35358894Y22863650D01*
G37*
G36*
X36744821Y21477718D02*
G01*
X36179136Y20912033D01*
X35613450Y21477718D01*
X36179136Y22043403D01*
X36744821Y21477718D01*
G37*
G36*
X22685037Y15470005D02*
G01*
X22119351Y14904320D01*
X21836508Y15187163D01*
X22402194Y15752848D01*
X22685037Y15470005D01*
G37*
G36*
X21391034Y16764013D02*
G01*
X20825348Y16198328D01*
X20295018Y16728658D01*
X20860704Y17294343D01*
X21391034Y16764013D01*
G37*
G36*
X22133494Y16021550D02*
G01*
X21567809Y15455864D01*
X21143545Y15880128D01*
X21709230Y16445814D01*
X22133494Y16021550D01*
G37*
G36*
X23519421Y14635618D02*
G01*
X22953736Y14069933D01*
X22388050Y14635618D01*
X22953736Y15201303D01*
X23519421Y14635618D01*
G37*
G36*
X32604137Y18809505D02*
G01*
X32038451Y18243820D01*
X31755608Y18526663D01*
X32321294Y19092348D01*
X32604137Y18809505D01*
G37*
G36*
X31310134Y20103513D02*
G01*
X30744448Y19537828D01*
X30214118Y20068158D01*
X30779804Y20633843D01*
X31310134Y20103513D01*
G37*
G36*
X32052594Y19361050D02*
G01*
X31486909Y18795364D01*
X31062645Y19219628D01*
X31628330Y19785314D01*
X32052594Y19361050D01*
G37*
G36*
X33438521Y17975118D02*
G01*
X32872836Y17409433D01*
X32307150Y17975118D01*
X32872836Y18540803D01*
X33438521Y17975118D01*
G37*
G36*
X22685037Y22312105D02*
G01*
X22119351Y21746420D01*
X21836508Y22029263D01*
X22402194Y22594948D01*
X22685037Y22312105D01*
G37*
G36*
X21391034Y23606113D02*
G01*
X20825348Y23040428D01*
X20295018Y23570758D01*
X20860704Y24136443D01*
X21391034Y23606113D01*
G37*
G36*
X22133494Y22863650D02*
G01*
X21567809Y22297964D01*
X21143545Y22722228D01*
X21709230Y23287914D01*
X22133494Y22863650D01*
G37*
G36*
X23519421Y21477718D02*
G01*
X22953736Y20912033D01*
X22388050Y21477718D01*
X22953736Y22043403D01*
X23519421Y21477718D01*
G37*
G36*
X25991437Y22312105D02*
G01*
X25425751Y21746420D01*
X25142908Y22029263D01*
X25708594Y22594948D01*
X25991437Y22312105D01*
G37*
G36*
X24697434Y23606113D02*
G01*
X24131748Y23040428D01*
X23601418Y23570758D01*
X24167104Y24136443D01*
X24697434Y23606113D01*
G37*
G36*
X25439894Y22863650D02*
G01*
X24874209Y22297964D01*
X24449945Y22722228D01*
X25015630Y23287914D01*
X25439894Y22863650D01*
G37*
G36*
X26825821Y21477718D02*
G01*
X26260136Y20912033D01*
X25694450Y21477718D01*
X26260136Y22043403D01*
X26825821Y21477718D01*
G37*
G36*
X25991437Y15470005D02*
G01*
X25425751Y14904320D01*
X25142908Y15187163D01*
X25708594Y15752848D01*
X25991437Y15470005D01*
G37*
G36*
X24697434Y16764013D02*
G01*
X24131748Y16198328D01*
X23601418Y16728658D01*
X24167104Y17294343D01*
X24697434Y16764013D01*
G37*
G36*
X25439894Y16021550D02*
G01*
X24874209Y15455864D01*
X24449945Y15880128D01*
X25015630Y16445814D01*
X25439894Y16021550D01*
G37*
G36*
X26825821Y14635618D02*
G01*
X26260136Y14069933D01*
X25694450Y14635618D01*
X26260136Y15201303D01*
X26825821Y14635618D01*
G37*
G36*
X16072338Y22312107D02*
G01*
X15506653Y21746422D01*
X15223810Y22029264D01*
X15789496Y22594950D01*
X16072338Y22312107D01*
G37*
G36*
X14778329Y23606108D02*
G01*
X14212644Y23040423D01*
X13682313Y23570753D01*
X14247999Y24136439D01*
X14778329Y23606108D01*
G37*
G36*
X15520793Y22863649D02*
G01*
X14955108Y22297963D01*
X14530844Y22722227D01*
X15096529Y23287913D01*
X15520793Y22863649D01*
G37*
G36*
X16906726Y21477723D02*
G01*
X16341041Y20912038D01*
X15775356Y21477723D01*
X16341041Y22043409D01*
X16906726Y21477723D01*
G37*
G36*
X28176982Y-23360955D02*
G01*
X28201405Y-23363360D01*
X28225681Y-23366961D01*
X28249751Y-23371749D01*
X28273556Y-23377712D01*
X28297041Y-23384836D01*
X28320148Y-23393104D01*
X28342821Y-23402495D01*
X28365006Y-23412988D01*
X28386649Y-23424557D01*
X28407699Y-23437173D01*
X28428104Y-23450808D01*
X28447816Y-23465427D01*
X28466786Y-23480996D01*
X28484970Y-23497476D01*
X28502324Y-23514830D01*
X28518804Y-23533014D01*
X28534373Y-23551984D01*
X28548992Y-23571696D01*
X28562627Y-23592101D01*
X28575243Y-23613151D01*
X28586812Y-23634794D01*
X28597305Y-23656979D01*
X28606696Y-23679652D01*
X28614964Y-23702759D01*
X28622088Y-23726244D01*
X28628051Y-23750049D01*
X28632839Y-23774119D01*
X28636440Y-23798395D01*
X28638845Y-23822818D01*
X28640049Y-23847329D01*
X28640049Y-24671871D01*
X28638845Y-24696382D01*
X28636440Y-24720805D01*
X28632839Y-24745081D01*
X28628051Y-24769151D01*
X28622088Y-24792956D01*
X28614964Y-24816441D01*
X28606696Y-24839548D01*
X28597305Y-24862221D01*
X28586812Y-24884406D01*
X28575243Y-24906049D01*
X28562627Y-24927099D01*
X28548992Y-24947504D01*
X28534373Y-24967216D01*
X28518804Y-24986186D01*
X28502324Y-25004370D01*
X28484970Y-25021724D01*
X28466786Y-25038204D01*
X28447816Y-25053773D01*
X28428104Y-25068392D01*
X28407699Y-25082027D01*
X28386649Y-25094643D01*
X28365006Y-25106212D01*
X28342821Y-25116705D01*
X28320148Y-25126096D01*
X28297041Y-25134364D01*
X28273556Y-25141488D01*
X28249751Y-25147451D01*
X28225681Y-25152239D01*
X28201405Y-25155840D01*
X28176982Y-25158245D01*
X28152471Y-25159449D01*
X28127929Y-25159449D01*
X28103418Y-25158245D01*
X28078995Y-25155840D01*
X28054719Y-25152239D01*
X28030649Y-25147451D01*
X28006844Y-25141488D01*
X27983359Y-25134364D01*
X27960252Y-25126096D01*
X27937579Y-25116705D01*
X27915394Y-25106212D01*
X27893751Y-25094643D01*
X27872701Y-25082027D01*
X27852296Y-25068392D01*
X27832584Y-25053773D01*
X27813614Y-25038204D01*
X27795430Y-25021724D01*
X27778076Y-25004370D01*
X27761596Y-24986186D01*
X27746027Y-24967216D01*
X27731408Y-24947504D01*
X27717773Y-24927099D01*
X27705157Y-24906049D01*
X27693588Y-24884406D01*
X27683095Y-24862221D01*
X27673704Y-24839548D01*
X27665436Y-24816441D01*
X27658312Y-24792956D01*
X27652349Y-24769151D01*
X27647561Y-24745081D01*
X27643960Y-24720805D01*
X27641555Y-24696382D01*
X27640351Y-24671871D01*
X27640351Y-24666962D01*
X27840290Y-24666962D01*
X27841013Y-24681669D01*
X27842456Y-24696323D01*
X27844617Y-24710889D01*
X27847489Y-24725330D01*
X27851067Y-24739614D01*
X27855342Y-24753705D01*
X27860302Y-24767569D01*
X27865937Y-24781172D01*
X27872233Y-24794483D01*
X27879174Y-24807469D01*
X27886744Y-24820099D01*
X27894925Y-24832342D01*
X27903696Y-24844169D01*
X27913037Y-24855552D01*
X27922926Y-24866462D01*
X27933338Y-24876874D01*
X27944248Y-24886763D01*
X27955631Y-24896104D01*
X27967458Y-24904875D01*
X27979701Y-24913056D01*
X27992331Y-24920626D01*
X28005317Y-24927567D01*
X28018628Y-24933863D01*
X28032231Y-24939498D01*
X28046095Y-24944458D01*
X28060186Y-24948733D01*
X28074470Y-24952311D01*
X28088911Y-24955183D01*
X28103477Y-24957344D01*
X28118131Y-24958787D01*
X28132838Y-24959510D01*
X28147562Y-24959510D01*
X28162269Y-24958787D01*
X28176923Y-24957344D01*
X28191489Y-24955183D01*
X28205930Y-24952311D01*
X28220214Y-24948733D01*
X28234305Y-24944458D01*
X28248169Y-24939498D01*
X28261772Y-24933863D01*
X28275083Y-24927567D01*
X28288069Y-24920626D01*
X28300699Y-24913056D01*
X28312942Y-24904875D01*
X28324769Y-24896104D01*
X28336152Y-24886763D01*
X28347062Y-24876874D01*
X28357474Y-24866462D01*
X28367363Y-24855552D01*
X28376704Y-24844169D01*
X28385475Y-24832342D01*
X28393656Y-24820099D01*
X28401226Y-24807469D01*
X28408167Y-24794483D01*
X28414463Y-24781172D01*
X28420098Y-24767569D01*
X28425058Y-24753705D01*
X28429333Y-24739614D01*
X28432911Y-24725330D01*
X28435783Y-24710889D01*
X28437944Y-24696323D01*
X28439387Y-24681669D01*
X28440110Y-24666962D01*
X28440110Y-23852238D01*
X28439387Y-23837531D01*
X28437944Y-23822877D01*
X28435783Y-23808311D01*
X28432911Y-23793870D01*
X28429333Y-23779586D01*
X28425058Y-23765495D01*
X28420098Y-23751631D01*
X28414463Y-23738028D01*
X28408167Y-23724717D01*
X28401226Y-23711731D01*
X28393656Y-23699101D01*
X28385475Y-23686858D01*
X28376704Y-23675031D01*
X28367363Y-23663648D01*
X28357474Y-23652738D01*
X28347062Y-23642326D01*
X28336152Y-23632437D01*
X28324769Y-23623096D01*
X28312942Y-23614325D01*
X28300699Y-23606144D01*
X28288069Y-23598574D01*
X28275083Y-23591633D01*
X28261772Y-23585337D01*
X28248169Y-23579702D01*
X28234305Y-23574742D01*
X28220214Y-23570467D01*
X28205930Y-23566889D01*
X28191489Y-23564017D01*
X28176923Y-23561856D01*
X28162269Y-23560413D01*
X28147562Y-23559690D01*
X28132838Y-23559690D01*
X28118131Y-23560413D01*
X28103477Y-23561856D01*
X28088911Y-23564017D01*
X28074470Y-23566889D01*
X28060186Y-23570467D01*
X28046095Y-23574742D01*
X28032231Y-23579702D01*
X28018628Y-23585337D01*
X28005317Y-23591633D01*
X27992331Y-23598574D01*
X27979701Y-23606144D01*
X27967458Y-23614325D01*
X27955631Y-23623096D01*
X27944248Y-23632437D01*
X27933338Y-23642326D01*
X27922926Y-23652738D01*
X27913037Y-23663648D01*
X27903696Y-23675031D01*
X27894925Y-23686858D01*
X27886744Y-23699101D01*
X27879174Y-23711731D01*
X27872233Y-23724717D01*
X27865937Y-23738028D01*
X27860302Y-23751631D01*
X27855342Y-23765495D01*
X27851067Y-23779586D01*
X27847489Y-23793870D01*
X27844617Y-23808311D01*
X27842456Y-23822877D01*
X27841013Y-23837531D01*
X27840290Y-23852238D01*
X27840290Y-24652238D01*
X27840290Y-24666962D01*
X27640351Y-24666962D01*
X27640351Y-24647329D01*
X27640351Y-23847329D01*
X27641555Y-23822818D01*
X27643960Y-23798395D01*
X27647561Y-23774119D01*
X27652349Y-23750049D01*
X27658312Y-23726244D01*
X27665436Y-23702759D01*
X27673704Y-23679652D01*
X27683095Y-23656979D01*
X27693588Y-23634794D01*
X27705157Y-23613151D01*
X27717773Y-23592101D01*
X27731408Y-23571696D01*
X27746027Y-23551984D01*
X27761596Y-23533014D01*
X27778076Y-23514830D01*
X27795430Y-23497476D01*
X27813614Y-23480996D01*
X27832584Y-23465427D01*
X27852296Y-23450808D01*
X27872701Y-23437173D01*
X27893751Y-23424557D01*
X27915394Y-23412988D01*
X27937579Y-23402495D01*
X27960252Y-23393104D01*
X27983359Y-23384836D01*
X28006844Y-23377712D01*
X28030649Y-23371749D01*
X28054719Y-23366961D01*
X28078995Y-23363360D01*
X28103418Y-23360955D01*
X28127929Y-23359751D01*
X28152471Y-23359751D01*
X28176982Y-23360955D01*
G37*
G36*
X28176982Y-19180955D02*
G01*
X28201405Y-19183360D01*
X28225681Y-19186961D01*
X28249751Y-19191749D01*
X28273556Y-19197712D01*
X28297041Y-19204836D01*
X28320148Y-19213104D01*
X28342821Y-19222495D01*
X28365006Y-19232988D01*
X28386649Y-19244557D01*
X28407699Y-19257173D01*
X28428104Y-19270808D01*
X28447816Y-19285427D01*
X28466786Y-19300996D01*
X28484970Y-19317476D01*
X28502324Y-19334830D01*
X28518804Y-19353014D01*
X28534373Y-19371984D01*
X28548992Y-19391696D01*
X28562627Y-19412101D01*
X28575243Y-19433151D01*
X28586812Y-19454794D01*
X28597305Y-19476979D01*
X28606696Y-19499652D01*
X28614964Y-19522759D01*
X28622088Y-19546244D01*
X28628051Y-19570049D01*
X28632839Y-19594119D01*
X28636440Y-19618395D01*
X28638845Y-19642818D01*
X28640049Y-19667329D01*
X28640049Y-20491871D01*
X28638845Y-20516382D01*
X28636440Y-20540805D01*
X28632839Y-20565081D01*
X28628051Y-20589151D01*
X28622088Y-20612956D01*
X28614964Y-20636441D01*
X28606696Y-20659548D01*
X28597305Y-20682221D01*
X28586812Y-20704406D01*
X28575243Y-20726049D01*
X28562627Y-20747099D01*
X28548992Y-20767504D01*
X28534373Y-20787216D01*
X28518804Y-20806186D01*
X28502324Y-20824370D01*
X28484970Y-20841724D01*
X28466786Y-20858204D01*
X28447816Y-20873773D01*
X28428104Y-20888392D01*
X28407699Y-20902027D01*
X28386649Y-20914643D01*
X28365006Y-20926212D01*
X28342821Y-20936705D01*
X28320148Y-20946096D01*
X28297041Y-20954364D01*
X28273556Y-20961488D01*
X28249751Y-20967451D01*
X28225681Y-20972239D01*
X28201405Y-20975840D01*
X28176982Y-20978245D01*
X28152471Y-20979449D01*
X28127929Y-20979449D01*
X28103418Y-20978245D01*
X28078995Y-20975840D01*
X28054719Y-20972239D01*
X28030649Y-20967451D01*
X28006844Y-20961488D01*
X27983359Y-20954364D01*
X27960252Y-20946096D01*
X27937579Y-20936705D01*
X27915394Y-20926212D01*
X27893751Y-20914643D01*
X27872701Y-20902027D01*
X27852296Y-20888392D01*
X27832584Y-20873773D01*
X27813614Y-20858204D01*
X27795430Y-20841724D01*
X27778076Y-20824370D01*
X27761596Y-20806186D01*
X27746027Y-20787216D01*
X27731408Y-20767504D01*
X27717773Y-20747099D01*
X27705157Y-20726049D01*
X27693588Y-20704406D01*
X27683095Y-20682221D01*
X27673704Y-20659548D01*
X27665436Y-20636441D01*
X27658312Y-20612956D01*
X27652349Y-20589151D01*
X27647561Y-20565081D01*
X27643960Y-20540805D01*
X27641555Y-20516382D01*
X27640351Y-20491871D01*
X27640351Y-20486962D01*
X27840290Y-20486962D01*
X27841013Y-20501669D01*
X27842456Y-20516323D01*
X27844617Y-20530889D01*
X27847489Y-20545330D01*
X27851067Y-20559614D01*
X27855342Y-20573705D01*
X27860302Y-20587569D01*
X27865937Y-20601172D01*
X27872233Y-20614483D01*
X27879174Y-20627469D01*
X27886744Y-20640099D01*
X27894925Y-20652342D01*
X27903696Y-20664169D01*
X27913037Y-20675552D01*
X27922926Y-20686462D01*
X27933338Y-20696874D01*
X27944248Y-20706763D01*
X27955631Y-20716104D01*
X27967458Y-20724875D01*
X27979701Y-20733056D01*
X27992331Y-20740626D01*
X28005317Y-20747567D01*
X28018628Y-20753863D01*
X28032231Y-20759498D01*
X28046095Y-20764458D01*
X28060186Y-20768733D01*
X28074470Y-20772311D01*
X28088911Y-20775183D01*
X28103477Y-20777344D01*
X28118131Y-20778787D01*
X28132838Y-20779510D01*
X28147562Y-20779510D01*
X28162269Y-20778787D01*
X28176923Y-20777344D01*
X28191489Y-20775183D01*
X28205930Y-20772311D01*
X28220214Y-20768733D01*
X28234305Y-20764458D01*
X28248169Y-20759498D01*
X28261772Y-20753863D01*
X28275083Y-20747567D01*
X28288069Y-20740626D01*
X28300699Y-20733056D01*
X28312942Y-20724875D01*
X28324769Y-20716104D01*
X28336152Y-20706763D01*
X28347062Y-20696874D01*
X28357474Y-20686462D01*
X28367363Y-20675552D01*
X28376704Y-20664169D01*
X28385475Y-20652342D01*
X28393656Y-20640099D01*
X28401226Y-20627469D01*
X28408167Y-20614483D01*
X28414463Y-20601172D01*
X28420098Y-20587569D01*
X28425058Y-20573705D01*
X28429333Y-20559614D01*
X28432911Y-20545330D01*
X28435783Y-20530889D01*
X28437944Y-20516323D01*
X28439387Y-20501669D01*
X28440110Y-20486962D01*
X28440110Y-19672238D01*
X28439387Y-19657531D01*
X28437944Y-19642877D01*
X28435783Y-19628311D01*
X28432911Y-19613870D01*
X28429333Y-19599586D01*
X28425058Y-19585495D01*
X28420098Y-19571631D01*
X28414463Y-19558028D01*
X28408167Y-19544717D01*
X28401226Y-19531731D01*
X28393656Y-19519101D01*
X28385475Y-19506858D01*
X28376704Y-19495031D01*
X28367363Y-19483648D01*
X28357474Y-19472738D01*
X28347062Y-19462326D01*
X28336152Y-19452437D01*
X28324769Y-19443096D01*
X28312942Y-19434325D01*
X28300699Y-19426144D01*
X28288069Y-19418574D01*
X28275083Y-19411633D01*
X28261772Y-19405337D01*
X28248169Y-19399702D01*
X28234305Y-19394742D01*
X28220214Y-19390467D01*
X28205930Y-19386889D01*
X28191489Y-19384017D01*
X28176923Y-19381856D01*
X28162269Y-19380413D01*
X28147562Y-19379690D01*
X28132838Y-19379690D01*
X28118131Y-19380413D01*
X28103477Y-19381856D01*
X28088911Y-19384017D01*
X28074470Y-19386889D01*
X28060186Y-19390467D01*
X28046095Y-19394742D01*
X28032231Y-19399702D01*
X28018628Y-19405337D01*
X28005317Y-19411633D01*
X27992331Y-19418574D01*
X27979701Y-19426144D01*
X27967458Y-19434325D01*
X27955631Y-19443096D01*
X27944248Y-19452437D01*
X27933338Y-19462326D01*
X27922926Y-19472738D01*
X27913037Y-19483648D01*
X27903696Y-19495031D01*
X27894925Y-19506858D01*
X27886744Y-19519101D01*
X27879174Y-19531731D01*
X27872233Y-19544717D01*
X27865937Y-19558028D01*
X27860302Y-19571631D01*
X27855342Y-19585495D01*
X27851067Y-19599586D01*
X27847489Y-19613870D01*
X27844617Y-19628311D01*
X27842456Y-19642877D01*
X27841013Y-19657531D01*
X27840290Y-19672238D01*
X27840290Y-20472238D01*
X27840290Y-20486962D01*
X27640351Y-20486962D01*
X27640351Y-20467329D01*
X27640351Y-19667329D01*
X27641555Y-19642818D01*
X27643960Y-19618395D01*
X27647561Y-19594119D01*
X27652349Y-19570049D01*
X27658312Y-19546244D01*
X27665436Y-19522759D01*
X27673704Y-19499652D01*
X27683095Y-19476979D01*
X27693588Y-19454794D01*
X27705157Y-19433151D01*
X27717773Y-19412101D01*
X27731408Y-19391696D01*
X27746027Y-19371984D01*
X27761596Y-19353014D01*
X27778076Y-19334830D01*
X27795430Y-19317476D01*
X27813614Y-19300996D01*
X27832584Y-19285427D01*
X27852296Y-19270808D01*
X27872701Y-19257173D01*
X27893751Y-19244557D01*
X27915394Y-19232988D01*
X27937579Y-19222495D01*
X27960252Y-19213104D01*
X27983359Y-19204836D01*
X28006844Y-19197712D01*
X28030649Y-19191749D01*
X28054719Y-19186961D01*
X28078995Y-19183360D01*
X28103418Y-19180955D01*
X28127929Y-19179751D01*
X28152471Y-19179751D01*
X28176982Y-19180955D01*
G37*
G36*
X36816982Y-23360955D02*
G01*
X36841405Y-23363360D01*
X36865681Y-23366961D01*
X36889751Y-23371749D01*
X36913556Y-23377712D01*
X36937041Y-23384836D01*
X36960148Y-23393104D01*
X36982821Y-23402495D01*
X37005006Y-23412988D01*
X37026649Y-23424557D01*
X37047699Y-23437173D01*
X37068104Y-23450808D01*
X37087816Y-23465427D01*
X37106786Y-23480996D01*
X37124970Y-23497476D01*
X37142324Y-23514830D01*
X37158804Y-23533014D01*
X37174373Y-23551984D01*
X37188992Y-23571696D01*
X37202627Y-23592101D01*
X37215243Y-23613151D01*
X37226812Y-23634794D01*
X37237305Y-23656979D01*
X37246696Y-23679652D01*
X37254964Y-23702759D01*
X37262088Y-23726244D01*
X37268051Y-23750049D01*
X37272839Y-23774119D01*
X37276440Y-23798395D01*
X37278845Y-23822818D01*
X37280049Y-23847329D01*
X37280049Y-24671871D01*
X37278845Y-24696382D01*
X37276440Y-24720805D01*
X37272839Y-24745081D01*
X37268051Y-24769151D01*
X37262088Y-24792956D01*
X37254964Y-24816441D01*
X37246696Y-24839548D01*
X37237305Y-24862221D01*
X37226812Y-24884406D01*
X37215243Y-24906049D01*
X37202627Y-24927099D01*
X37188992Y-24947504D01*
X37174373Y-24967216D01*
X37158804Y-24986186D01*
X37142324Y-25004370D01*
X37124970Y-25021724D01*
X37106786Y-25038204D01*
X37087816Y-25053773D01*
X37068104Y-25068392D01*
X37047699Y-25082027D01*
X37026649Y-25094643D01*
X37005006Y-25106212D01*
X36982821Y-25116705D01*
X36960148Y-25126096D01*
X36937041Y-25134364D01*
X36913556Y-25141488D01*
X36889751Y-25147451D01*
X36865681Y-25152239D01*
X36841405Y-25155840D01*
X36816982Y-25158245D01*
X36792471Y-25159449D01*
X36767929Y-25159449D01*
X36743418Y-25158245D01*
X36718995Y-25155840D01*
X36694719Y-25152239D01*
X36670649Y-25147451D01*
X36646844Y-25141488D01*
X36623359Y-25134364D01*
X36600252Y-25126096D01*
X36577579Y-25116705D01*
X36555394Y-25106212D01*
X36533751Y-25094643D01*
X36512701Y-25082027D01*
X36492296Y-25068392D01*
X36472584Y-25053773D01*
X36453614Y-25038204D01*
X36435430Y-25021724D01*
X36418076Y-25004370D01*
X36401596Y-24986186D01*
X36386027Y-24967216D01*
X36371408Y-24947504D01*
X36357773Y-24927099D01*
X36345157Y-24906049D01*
X36333588Y-24884406D01*
X36323095Y-24862221D01*
X36313704Y-24839548D01*
X36305436Y-24816441D01*
X36298312Y-24792956D01*
X36292349Y-24769151D01*
X36287561Y-24745081D01*
X36283960Y-24720805D01*
X36281555Y-24696382D01*
X36280351Y-24671871D01*
X36280351Y-24666962D01*
X36480290Y-24666962D01*
X36481013Y-24681669D01*
X36482456Y-24696323D01*
X36484617Y-24710889D01*
X36487489Y-24725330D01*
X36491067Y-24739614D01*
X36495342Y-24753705D01*
X36500302Y-24767569D01*
X36505937Y-24781172D01*
X36512233Y-24794483D01*
X36519174Y-24807469D01*
X36526744Y-24820099D01*
X36534925Y-24832342D01*
X36543696Y-24844169D01*
X36553037Y-24855552D01*
X36562926Y-24866462D01*
X36573338Y-24876874D01*
X36584248Y-24886763D01*
X36595631Y-24896104D01*
X36607458Y-24904875D01*
X36619701Y-24913056D01*
X36632331Y-24920626D01*
X36645317Y-24927567D01*
X36658628Y-24933863D01*
X36672231Y-24939498D01*
X36686095Y-24944458D01*
X36700186Y-24948733D01*
X36714470Y-24952311D01*
X36728911Y-24955183D01*
X36743477Y-24957344D01*
X36758131Y-24958787D01*
X36772838Y-24959510D01*
X36787562Y-24959510D01*
X36802269Y-24958787D01*
X36816923Y-24957344D01*
X36831489Y-24955183D01*
X36845930Y-24952311D01*
X36860214Y-24948733D01*
X36874305Y-24944458D01*
X36888169Y-24939498D01*
X36901772Y-24933863D01*
X36915083Y-24927567D01*
X36928069Y-24920626D01*
X36940699Y-24913056D01*
X36952942Y-24904875D01*
X36964769Y-24896104D01*
X36976152Y-24886763D01*
X36987062Y-24876874D01*
X36997474Y-24866462D01*
X37007363Y-24855552D01*
X37016704Y-24844169D01*
X37025475Y-24832342D01*
X37033656Y-24820099D01*
X37041226Y-24807469D01*
X37048167Y-24794483D01*
X37054463Y-24781172D01*
X37060098Y-24767569D01*
X37065058Y-24753705D01*
X37069333Y-24739614D01*
X37072911Y-24725330D01*
X37075783Y-24710889D01*
X37077944Y-24696323D01*
X37079387Y-24681669D01*
X37080110Y-24666962D01*
X37080110Y-23852238D01*
X37079387Y-23837531D01*
X37077944Y-23822877D01*
X37075783Y-23808311D01*
X37072911Y-23793870D01*
X37069333Y-23779586D01*
X37065058Y-23765495D01*
X37060098Y-23751631D01*
X37054463Y-23738028D01*
X37048167Y-23724717D01*
X37041226Y-23711731D01*
X37033656Y-23699101D01*
X37025475Y-23686858D01*
X37016704Y-23675031D01*
X37007363Y-23663648D01*
X36997474Y-23652738D01*
X36987062Y-23642326D01*
X36976152Y-23632437D01*
X36964769Y-23623096D01*
X36952942Y-23614325D01*
X36940699Y-23606144D01*
X36928069Y-23598574D01*
X36915083Y-23591633D01*
X36901772Y-23585337D01*
X36888169Y-23579702D01*
X36874305Y-23574742D01*
X36860214Y-23570467D01*
X36845930Y-23566889D01*
X36831489Y-23564017D01*
X36816923Y-23561856D01*
X36802269Y-23560413D01*
X36787562Y-23559690D01*
X36772838Y-23559690D01*
X36758131Y-23560413D01*
X36743477Y-23561856D01*
X36728911Y-23564017D01*
X36714470Y-23566889D01*
X36700186Y-23570467D01*
X36686095Y-23574742D01*
X36672231Y-23579702D01*
X36658628Y-23585337D01*
X36645317Y-23591633D01*
X36632331Y-23598574D01*
X36619701Y-23606144D01*
X36607458Y-23614325D01*
X36595631Y-23623096D01*
X36584248Y-23632437D01*
X36573338Y-23642326D01*
X36562926Y-23652738D01*
X36553037Y-23663648D01*
X36543696Y-23675031D01*
X36534925Y-23686858D01*
X36526744Y-23699101D01*
X36519174Y-23711731D01*
X36512233Y-23724717D01*
X36505937Y-23738028D01*
X36500302Y-23751631D01*
X36495342Y-23765495D01*
X36491067Y-23779586D01*
X36487489Y-23793870D01*
X36484617Y-23808311D01*
X36482456Y-23822877D01*
X36481013Y-23837531D01*
X36480290Y-23852238D01*
X36480290Y-24652238D01*
X36480290Y-24666962D01*
X36280351Y-24666962D01*
X36280351Y-24647329D01*
X36280351Y-23847329D01*
X36281555Y-23822818D01*
X36283960Y-23798395D01*
X36287561Y-23774119D01*
X36292349Y-23750049D01*
X36298312Y-23726244D01*
X36305436Y-23702759D01*
X36313704Y-23679652D01*
X36323095Y-23656979D01*
X36333588Y-23634794D01*
X36345157Y-23613151D01*
X36357773Y-23592101D01*
X36371408Y-23571696D01*
X36386027Y-23551984D01*
X36401596Y-23533014D01*
X36418076Y-23514830D01*
X36435430Y-23497476D01*
X36453614Y-23480996D01*
X36472584Y-23465427D01*
X36492296Y-23450808D01*
X36512701Y-23437173D01*
X36533751Y-23424557D01*
X36555394Y-23412988D01*
X36577579Y-23402495D01*
X36600252Y-23393104D01*
X36623359Y-23384836D01*
X36646844Y-23377712D01*
X36670649Y-23371749D01*
X36694719Y-23366961D01*
X36718995Y-23363360D01*
X36743418Y-23360955D01*
X36767929Y-23359751D01*
X36792471Y-23359751D01*
X36816982Y-23360955D01*
G37*
G36*
X36816982Y-19180955D02*
G01*
X36841405Y-19183360D01*
X36865681Y-19186961D01*
X36889751Y-19191749D01*
X36913556Y-19197712D01*
X36937041Y-19204836D01*
X36960148Y-19213104D01*
X36982821Y-19222495D01*
X37005006Y-19232988D01*
X37026649Y-19244557D01*
X37047699Y-19257173D01*
X37068104Y-19270808D01*
X37087816Y-19285427D01*
X37106786Y-19300996D01*
X37124970Y-19317476D01*
X37142324Y-19334830D01*
X37158804Y-19353014D01*
X37174373Y-19371984D01*
X37188992Y-19391696D01*
X37202627Y-19412101D01*
X37215243Y-19433151D01*
X37226812Y-19454794D01*
X37237305Y-19476979D01*
X37246696Y-19499652D01*
X37254964Y-19522759D01*
X37262088Y-19546244D01*
X37268051Y-19570049D01*
X37272839Y-19594119D01*
X37276440Y-19618395D01*
X37278845Y-19642818D01*
X37280049Y-19667329D01*
X37280049Y-20491871D01*
X37278845Y-20516382D01*
X37276440Y-20540805D01*
X37272839Y-20565081D01*
X37268051Y-20589151D01*
X37262088Y-20612956D01*
X37254964Y-20636441D01*
X37246696Y-20659548D01*
X37237305Y-20682221D01*
X37226812Y-20704406D01*
X37215243Y-20726049D01*
X37202627Y-20747099D01*
X37188992Y-20767504D01*
X37174373Y-20787216D01*
X37158804Y-20806186D01*
X37142324Y-20824370D01*
X37124970Y-20841724D01*
X37106786Y-20858204D01*
X37087816Y-20873773D01*
X37068104Y-20888392D01*
X37047699Y-20902027D01*
X37026649Y-20914643D01*
X37005006Y-20926212D01*
X36982821Y-20936705D01*
X36960148Y-20946096D01*
X36937041Y-20954364D01*
X36913556Y-20961488D01*
X36889751Y-20967451D01*
X36865681Y-20972239D01*
X36841405Y-20975840D01*
X36816982Y-20978245D01*
X36792471Y-20979449D01*
X36767929Y-20979449D01*
X36743418Y-20978245D01*
X36718995Y-20975840D01*
X36694719Y-20972239D01*
X36670649Y-20967451D01*
X36646844Y-20961488D01*
X36623359Y-20954364D01*
X36600252Y-20946096D01*
X36577579Y-20936705D01*
X36555394Y-20926212D01*
X36533751Y-20914643D01*
X36512701Y-20902027D01*
X36492296Y-20888392D01*
X36472584Y-20873773D01*
X36453614Y-20858204D01*
X36435430Y-20841724D01*
X36418076Y-20824370D01*
X36401596Y-20806186D01*
X36386027Y-20787216D01*
X36371408Y-20767504D01*
X36357773Y-20747099D01*
X36345157Y-20726049D01*
X36333588Y-20704406D01*
X36323095Y-20682221D01*
X36313704Y-20659548D01*
X36305436Y-20636441D01*
X36298312Y-20612956D01*
X36292349Y-20589151D01*
X36287561Y-20565081D01*
X36283960Y-20540805D01*
X36281555Y-20516382D01*
X36280351Y-20491871D01*
X36280351Y-20486962D01*
X36480290Y-20486962D01*
X36481013Y-20501669D01*
X36482456Y-20516323D01*
X36484617Y-20530889D01*
X36487489Y-20545330D01*
X36491067Y-20559614D01*
X36495342Y-20573705D01*
X36500302Y-20587569D01*
X36505937Y-20601172D01*
X36512233Y-20614483D01*
X36519174Y-20627469D01*
X36526744Y-20640099D01*
X36534925Y-20652342D01*
X36543696Y-20664169D01*
X36553037Y-20675552D01*
X36562926Y-20686462D01*
X36573338Y-20696874D01*
X36584248Y-20706763D01*
X36595631Y-20716104D01*
X36607458Y-20724875D01*
X36619701Y-20733056D01*
X36632331Y-20740626D01*
X36645317Y-20747567D01*
X36658628Y-20753863D01*
X36672231Y-20759498D01*
X36686095Y-20764458D01*
X36700186Y-20768733D01*
X36714470Y-20772311D01*
X36728911Y-20775183D01*
X36743477Y-20777344D01*
X36758131Y-20778787D01*
X36772838Y-20779510D01*
X36787562Y-20779510D01*
X36802269Y-20778787D01*
X36816923Y-20777344D01*
X36831489Y-20775183D01*
X36845930Y-20772311D01*
X36860214Y-20768733D01*
X36874305Y-20764458D01*
X36888169Y-20759498D01*
X36901772Y-20753863D01*
X36915083Y-20747567D01*
X36928069Y-20740626D01*
X36940699Y-20733056D01*
X36952942Y-20724875D01*
X36964769Y-20716104D01*
X36976152Y-20706763D01*
X36987062Y-20696874D01*
X36997474Y-20686462D01*
X37007363Y-20675552D01*
X37016704Y-20664169D01*
X37025475Y-20652342D01*
X37033656Y-20640099D01*
X37041226Y-20627469D01*
X37048167Y-20614483D01*
X37054463Y-20601172D01*
X37060098Y-20587569D01*
X37065058Y-20573705D01*
X37069333Y-20559614D01*
X37072911Y-20545330D01*
X37075783Y-20530889D01*
X37077944Y-20516323D01*
X37079387Y-20501669D01*
X37080110Y-20486962D01*
X37080110Y-19672238D01*
X37079387Y-19657531D01*
X37077944Y-19642877D01*
X37075783Y-19628311D01*
X37072911Y-19613870D01*
X37069333Y-19599586D01*
X37065058Y-19585495D01*
X37060098Y-19571631D01*
X37054463Y-19558028D01*
X37048167Y-19544717D01*
X37041226Y-19531731D01*
X37033656Y-19519101D01*
X37025475Y-19506858D01*
X37016704Y-19495031D01*
X37007363Y-19483648D01*
X36997474Y-19472738D01*
X36987062Y-19462326D01*
X36976152Y-19452437D01*
X36964769Y-19443096D01*
X36952942Y-19434325D01*
X36940699Y-19426144D01*
X36928069Y-19418574D01*
X36915083Y-19411633D01*
X36901772Y-19405337D01*
X36888169Y-19399702D01*
X36874305Y-19394742D01*
X36860214Y-19390467D01*
X36845930Y-19386889D01*
X36831489Y-19384017D01*
X36816923Y-19381856D01*
X36802269Y-19380413D01*
X36787562Y-19379690D01*
X36772838Y-19379690D01*
X36758131Y-19380413D01*
X36743477Y-19381856D01*
X36728911Y-19384017D01*
X36714470Y-19386889D01*
X36700186Y-19390467D01*
X36686095Y-19394742D01*
X36672231Y-19399702D01*
X36658628Y-19405337D01*
X36645317Y-19411633D01*
X36632331Y-19418574D01*
X36619701Y-19426144D01*
X36607458Y-19434325D01*
X36595631Y-19443096D01*
X36584248Y-19452437D01*
X36573338Y-19462326D01*
X36562926Y-19472738D01*
X36553037Y-19483648D01*
X36543696Y-19495031D01*
X36534925Y-19506858D01*
X36526744Y-19519101D01*
X36519174Y-19531731D01*
X36512233Y-19544717D01*
X36505937Y-19558028D01*
X36500302Y-19571631D01*
X36495342Y-19585495D01*
X36491067Y-19599586D01*
X36487489Y-19613870D01*
X36484617Y-19628311D01*
X36482456Y-19642877D01*
X36481013Y-19657531D01*
X36480290Y-19672238D01*
X36480290Y-20472238D01*
X36480290Y-20486962D01*
X36280351Y-20486962D01*
X36280351Y-20467329D01*
X36280351Y-19667329D01*
X36281555Y-19642818D01*
X36283960Y-19618395D01*
X36287561Y-19594119D01*
X36292349Y-19570049D01*
X36298312Y-19546244D01*
X36305436Y-19522759D01*
X36313704Y-19499652D01*
X36323095Y-19476979D01*
X36333588Y-19454794D01*
X36345157Y-19433151D01*
X36357773Y-19412101D01*
X36371408Y-19391696D01*
X36386027Y-19371984D01*
X36401596Y-19353014D01*
X36418076Y-19334830D01*
X36435430Y-19317476D01*
X36453614Y-19300996D01*
X36472584Y-19285427D01*
X36492296Y-19270808D01*
X36512701Y-19257173D01*
X36533751Y-19244557D01*
X36555394Y-19232988D01*
X36577579Y-19222495D01*
X36600252Y-19213104D01*
X36623359Y-19204836D01*
X36646844Y-19197712D01*
X36670649Y-19191749D01*
X36694719Y-19186961D01*
X36718995Y-19183360D01*
X36743418Y-19180955D01*
X36767929Y-19179751D01*
X36792471Y-19179751D01*
X36816982Y-19180955D01*
G37*
G36*
X30860200Y-20079600D02*
G01*
X30560200Y-20079600D01*
X30560200Y-18929600D01*
X30860200Y-18929600D01*
X30860200Y-20079600D01*
G37*
G36*
X29260200Y-20079600D02*
G01*
X28960200Y-20079600D01*
X28960200Y-18929600D01*
X29260200Y-18929600D01*
X29260200Y-20079600D01*
G37*
G36*
X30060200Y-20079600D02*
G01*
X29760200Y-20079600D01*
X29760200Y-18929600D01*
X30060200Y-18929600D01*
X30060200Y-20079600D01*
G37*
G36*
X35960200Y-20079600D02*
G01*
X35660200Y-20079600D01*
X35660200Y-18929600D01*
X35960200Y-18929600D01*
X35960200Y-20079600D01*
G37*
G36*
X35160200Y-20079600D02*
G01*
X34860200Y-20079600D01*
X34860200Y-18929600D01*
X35160200Y-18929600D01*
X35160200Y-20079600D01*
G37*
G36*
X31860200Y-20079600D02*
G01*
X31560200Y-20079600D01*
X31560200Y-18929600D01*
X31860200Y-18929600D01*
X31860200Y-20079600D01*
G37*
G36*
X35660200Y-20079600D02*
G01*
X35360200Y-20079600D01*
X35360200Y-18929600D01*
X35660200Y-18929600D01*
X35660200Y-20079600D01*
G37*
G36*
X29560200Y-20079600D02*
G01*
X29260200Y-20079600D01*
X29260200Y-18929600D01*
X29560200Y-18929600D01*
X29560200Y-20079600D01*
G37*
G36*
X32860200Y-20079600D02*
G01*
X32560200Y-20079600D01*
X32560200Y-18929600D01*
X32860200Y-18929600D01*
X32860200Y-20079600D01*
G37*
G36*
X31360200Y-20079600D02*
G01*
X31060200Y-20079600D01*
X31060200Y-18929600D01*
X31360200Y-18929600D01*
X31360200Y-20079600D01*
G37*
G36*
X30360200Y-20079600D02*
G01*
X30060200Y-20079600D01*
X30060200Y-18929600D01*
X30360200Y-18929600D01*
X30360200Y-20079600D01*
G37*
G36*
X33360200Y-20079600D02*
G01*
X33060200Y-20079600D01*
X33060200Y-18929600D01*
X33360200Y-18929600D01*
X33360200Y-20079600D01*
G37*
G36*
X34860200Y-20079600D02*
G01*
X34560200Y-20079600D01*
X34560200Y-18929600D01*
X34860200Y-18929600D01*
X34860200Y-20079600D01*
G37*
G36*
X32360200Y-20079600D02*
G01*
X32060200Y-20079600D01*
X32060200Y-18929600D01*
X32360200Y-18929600D01*
X32360200Y-20079600D01*
G37*
G36*
X33860200Y-20079600D02*
G01*
X33560200Y-20079600D01*
X33560200Y-18929600D01*
X33860200Y-18929600D01*
X33860200Y-20079600D01*
G37*
G36*
X34360200Y-20079600D02*
G01*
X34060200Y-20079600D01*
X34060200Y-18929600D01*
X34360200Y-18929600D01*
X34360200Y-20079600D01*
G37*
G36*
X35010197Y-11734597D02*
G01*
X34410197Y-11734597D01*
X34410197Y-9784597D01*
X35010197Y-9784597D01*
X35010197Y-11734597D01*
G37*
G36*
X27390203Y-16684605D02*
G01*
X26790203Y-16684605D01*
X26790203Y-14734605D01*
X27390203Y-14734605D01*
X27390203Y-16684605D01*
G37*
G36*
X33740197Y-11734598D02*
G01*
X33140197Y-11734598D01*
X33140197Y-9784598D01*
X33740197Y-9784598D01*
X33740197Y-11734598D01*
G37*
G36*
X31200197Y-11734601D02*
G01*
X30600197Y-11734601D01*
X30600197Y-9784601D01*
X31200197Y-9784601D01*
X31200197Y-11734601D01*
G37*
G36*
X35010203Y-16684597D02*
G01*
X34410203Y-16684597D01*
X34410203Y-14734597D01*
X35010203Y-14734597D01*
X35010203Y-16684597D01*
G37*
G36*
X36280203Y-16684595D02*
G01*
X35680203Y-16684595D01*
X35680203Y-14734595D01*
X36280203Y-14734595D01*
X36280203Y-16684595D01*
G37*
G36*
X27390197Y-11734605D02*
G01*
X26790197Y-11734605D01*
X26790197Y-9784605D01*
X27390197Y-9784605D01*
X27390197Y-11734605D01*
G37*
G36*
X36280197Y-11734595D02*
G01*
X35680197Y-11734595D01*
X35680197Y-9784595D01*
X36280197Y-9784595D01*
X36280197Y-11734595D01*
G37*
G36*
X32470203Y-16684599D02*
G01*
X31870203Y-16684599D01*
X31870203Y-14734599D01*
X32470203Y-14734599D01*
X32470203Y-16684599D01*
G37*
G36*
X28660197Y-11734603D02*
G01*
X28060197Y-11734603D01*
X28060197Y-9784603D01*
X28660197Y-9784603D01*
X28660197Y-11734603D01*
G37*
G36*
X32470197Y-11734599D02*
G01*
X31870197Y-11734599D01*
X31870197Y-9784599D01*
X32470197Y-9784599D01*
X32470197Y-11734599D01*
G37*
G36*
X33740203Y-16684598D02*
G01*
X33140203Y-16684598D01*
X33140203Y-14734598D01*
X33740203Y-14734598D01*
X33740203Y-16684598D01*
G37*
G36*
X28660203Y-16684603D02*
G01*
X28060203Y-16684603D01*
X28060203Y-14734603D01*
X28660203Y-14734603D01*
X28660203Y-16684603D01*
G37*
G36*
X29930203Y-16684602D02*
G01*
X29330203Y-16684602D01*
X29330203Y-14734602D01*
X29930203Y-14734602D01*
X29930203Y-16684602D01*
G37*
G36*
X29930197Y-11734602D02*
G01*
X29330197Y-11734602D01*
X29330197Y-9784602D01*
X29930197Y-9784602D01*
X29930197Y-11734602D01*
G37*
G36*
X31200203Y-16684601D02*
G01*
X30600203Y-16684601D01*
X30600203Y-14734601D01*
X31200203Y-14734601D01*
X31200203Y-16684601D01*
G37*
G36*
X20755212Y-26059600D02*
G01*
X19255212Y-26059600D01*
X19255212Y-24059600D01*
X20755212Y-24059600D01*
X20755212Y-26059600D01*
G37*
G36*
X23055212Y-26059592D02*
G01*
X21555212Y-26059592D01*
X21555212Y-24059592D01*
X23055212Y-24059592D01*
X23055212Y-26059592D01*
G37*
G36*
X18455212Y-26059608D02*
G01*
X16955212Y-26059608D01*
X16955212Y-24059608D01*
X18455212Y-24059608D01*
X18455212Y-26059608D01*
G37*
G36*
X21905188Y-19759600D02*
G01*
X18105188Y-19759600D01*
X18105188Y-17759600D01*
X21905188Y-17759600D01*
X21905188Y-19759600D01*
G37*
G36*
X32604137Y15470005D02*
G01*
X32038451Y14904320D01*
X31755608Y15187163D01*
X32321294Y15752848D01*
X32604137Y15470005D01*
G37*
G36*
X31310134Y16764013D02*
G01*
X30744448Y16198328D01*
X30214118Y16728658D01*
X30779804Y17294343D01*
X31310134Y16764013D01*
G37*
G36*
X32052594Y16021550D02*
G01*
X31486909Y15455864D01*
X31062645Y15880128D01*
X31628330Y16445814D01*
X32052594Y16021550D01*
G37*
G36*
X33438521Y14635618D02*
G01*
X32872836Y14069933D01*
X32307150Y14635618D01*
X32872836Y15201303D01*
X33438521Y14635618D01*
G37*
G36*
X19378737Y18809505D02*
G01*
X18813051Y18243820D01*
X18530208Y18526663D01*
X19095894Y19092348D01*
X19378737Y18809505D01*
G37*
G36*
X18084734Y20103513D02*
G01*
X17519048Y19537828D01*
X16988718Y20068158D01*
X17554404Y20633843D01*
X18084734Y20103513D01*
G37*
G36*
X18827194Y19361050D02*
G01*
X18261509Y18795364D01*
X17837245Y19219628D01*
X18402930Y19785314D01*
X18827194Y19361050D01*
G37*
G36*
X20213121Y17975118D02*
G01*
X19647436Y17409433D01*
X19081750Y17975118D01*
X19647436Y18540803D01*
X20213121Y17975118D01*
G37*
G36*
X39216837Y22312105D02*
G01*
X38651151Y21746420D01*
X38368308Y22029263D01*
X38933994Y22594948D01*
X39216837Y22312105D01*
G37*
G36*
X37922834Y23606113D02*
G01*
X37357148Y23040428D01*
X36826818Y23570758D01*
X37392504Y24136443D01*
X37922834Y23606113D01*
G37*
G36*
X38665294Y22863650D02*
G01*
X38099609Y22297964D01*
X37675345Y22722228D01*
X38241030Y23287914D01*
X38665294Y22863650D01*
G37*
G36*
X40051221Y21477718D02*
G01*
X39485536Y20912033D01*
X38919850Y21477718D01*
X39485536Y22043403D01*
X40051221Y21477718D01*
G37*
G36*
X12999262Y-16878713D02*
G01*
X13008783Y-16879651D01*
X13018222Y-16881209D01*
X13027539Y-16883382D01*
X13036694Y-16886159D01*
X13045648Y-16889529D01*
X13054363Y-16893477D01*
X13062800Y-16897987D01*
X13070924Y-16903039D01*
X13078701Y-16908612D01*
X13086096Y-16914681D01*
X13093079Y-16921221D01*
X13099619Y-16928204D01*
X13105688Y-16935599D01*
X13111261Y-16943376D01*
X13116313Y-16951500D01*
X13120823Y-16959937D01*
X13124771Y-16968652D01*
X13128141Y-16977606D01*
X13130918Y-16986761D01*
X13133091Y-16996078D01*
X13134649Y-17005517D01*
X13135587Y-17015038D01*
X13135900Y-17024600D01*
X13135900Y-17332200D01*
X13135587Y-17341762D01*
X13134649Y-17351283D01*
X13133091Y-17360722D01*
X13130918Y-17370039D01*
X13128141Y-17379194D01*
X13124771Y-17388148D01*
X13120823Y-17396863D01*
X13116313Y-17405300D01*
X13111261Y-17413424D01*
X13105688Y-17421201D01*
X13099619Y-17428596D01*
X13093079Y-17435579D01*
X13086096Y-17442119D01*
X13078701Y-17448188D01*
X13070924Y-17453761D01*
X13062800Y-17458813D01*
X13054363Y-17463323D01*
X13045648Y-17467271D01*
X13036694Y-17470641D01*
X13027539Y-17473418D01*
X13018222Y-17475591D01*
X13008783Y-17477149D01*
X12999262Y-17478087D01*
X12989700Y-17478400D01*
X11332100Y-17478400D01*
X11322538Y-17478087D01*
X11313017Y-17477149D01*
X11303578Y-17475591D01*
X11294261Y-17473418D01*
X11285106Y-17470641D01*
X11276152Y-17467271D01*
X11267437Y-17463323D01*
X11259000Y-17458813D01*
X11250876Y-17453761D01*
X11243099Y-17448188D01*
X11235704Y-17442119D01*
X11228721Y-17435579D01*
X11222181Y-17428596D01*
X11216112Y-17421201D01*
X11210539Y-17413424D01*
X11205487Y-17405300D01*
X11200977Y-17396863D01*
X11197029Y-17388148D01*
X11193659Y-17379194D01*
X11190882Y-17370039D01*
X11188709Y-17360722D01*
X11187151Y-17351283D01*
X11186213Y-17341762D01*
X11185900Y-17332200D01*
X11185900Y-17024600D01*
X11186213Y-17015038D01*
X11187151Y-17005517D01*
X11188709Y-16996078D01*
X11190882Y-16986761D01*
X11193659Y-16977606D01*
X11197029Y-16968652D01*
X11200977Y-16959937D01*
X11205487Y-16951500D01*
X11210539Y-16943376D01*
X11216112Y-16935599D01*
X11222181Y-16928204D01*
X11228721Y-16921221D01*
X11235704Y-16914681D01*
X11243099Y-16908612D01*
X11250876Y-16903039D01*
X11259000Y-16897987D01*
X11267437Y-16893477D01*
X11276152Y-16889529D01*
X11285106Y-16886159D01*
X11294261Y-16883382D01*
X11303578Y-16881209D01*
X11313017Y-16879651D01*
X11322538Y-16878713D01*
X11332100Y-16878400D01*
X12989700Y-16878400D01*
X12999262Y-16878713D01*
G37*
G36*
X12999262Y-14338713D02*
G01*
X13008783Y-14339651D01*
X13018222Y-14341209D01*
X13027539Y-14343382D01*
X13036694Y-14346159D01*
X13045648Y-14349529D01*
X13054363Y-14353477D01*
X13062800Y-14357987D01*
X13070924Y-14363039D01*
X13078701Y-14368612D01*
X13086096Y-14374681D01*
X13093079Y-14381221D01*
X13099619Y-14388204D01*
X13105688Y-14395599D01*
X13111261Y-14403376D01*
X13116313Y-14411500D01*
X13120823Y-14419937D01*
X13124771Y-14428652D01*
X13128141Y-14437606D01*
X13130918Y-14446761D01*
X13133091Y-14456078D01*
X13134649Y-14465517D01*
X13135587Y-14475038D01*
X13135900Y-14484600D01*
X13135900Y-14792200D01*
X13135587Y-14801762D01*
X13134649Y-14811283D01*
X13133091Y-14820722D01*
X13130918Y-14830039D01*
X13128141Y-14839194D01*
X13124771Y-14848148D01*
X13120823Y-14856863D01*
X13116313Y-14865300D01*
X13111261Y-14873424D01*
X13105688Y-14881201D01*
X13099619Y-14888596D01*
X13093079Y-14895579D01*
X13086096Y-14902119D01*
X13078701Y-14908188D01*
X13070924Y-14913761D01*
X13062800Y-14918813D01*
X13054363Y-14923323D01*
X13045648Y-14927271D01*
X13036694Y-14930641D01*
X13027539Y-14933418D01*
X13018222Y-14935591D01*
X13008783Y-14937149D01*
X12999262Y-14938087D01*
X12989700Y-14938400D01*
X11332100Y-14938400D01*
X11322538Y-14938087D01*
X11313017Y-14937149D01*
X11303578Y-14935591D01*
X11294261Y-14933418D01*
X11285106Y-14930641D01*
X11276152Y-14927271D01*
X11267437Y-14923323D01*
X11259000Y-14918813D01*
X11250876Y-14913761D01*
X11243099Y-14908188D01*
X11235704Y-14902119D01*
X11228721Y-14895579D01*
X11222181Y-14888596D01*
X11216112Y-14881201D01*
X11210539Y-14873424D01*
X11205487Y-14865300D01*
X11200977Y-14856863D01*
X11197029Y-14848148D01*
X11193659Y-14839194D01*
X11190882Y-14830039D01*
X11188709Y-14820722D01*
X11187151Y-14811283D01*
X11186213Y-14801762D01*
X11185900Y-14792200D01*
X11185900Y-14484600D01*
X11186213Y-14475038D01*
X11187151Y-14465517D01*
X11188709Y-14456078D01*
X11190882Y-14446761D01*
X11193659Y-14437606D01*
X11197029Y-14428652D01*
X11200977Y-14419937D01*
X11205487Y-14411500D01*
X11210539Y-14403376D01*
X11216112Y-14395599D01*
X11222181Y-14388204D01*
X11228721Y-14381221D01*
X11235704Y-14374681D01*
X11243099Y-14368612D01*
X11250876Y-14363039D01*
X11259000Y-14357987D01*
X11267437Y-14353477D01*
X11276152Y-14349529D01*
X11285106Y-14346159D01*
X11294261Y-14343382D01*
X11303578Y-14341209D01*
X11313017Y-14339651D01*
X11322538Y-14338713D01*
X11332100Y-14338400D01*
X12989700Y-14338400D01*
X12999262Y-14338713D01*
G37*
G36*
X12999262Y-13068713D02*
G01*
X13008783Y-13069651D01*
X13018222Y-13071209D01*
X13027539Y-13073382D01*
X13036694Y-13076159D01*
X13045648Y-13079529D01*
X13054363Y-13083477D01*
X13062800Y-13087987D01*
X13070924Y-13093039D01*
X13078701Y-13098612D01*
X13086096Y-13104681D01*
X13093079Y-13111221D01*
X13099619Y-13118204D01*
X13105688Y-13125599D01*
X13111261Y-13133376D01*
X13116313Y-13141500D01*
X13120823Y-13149937D01*
X13124771Y-13158652D01*
X13128141Y-13167606D01*
X13130918Y-13176761D01*
X13133091Y-13186078D01*
X13134649Y-13195517D01*
X13135587Y-13205038D01*
X13135900Y-13214600D01*
X13135900Y-13522200D01*
X13135587Y-13531762D01*
X13134649Y-13541283D01*
X13133091Y-13550722D01*
X13130918Y-13560039D01*
X13128141Y-13569194D01*
X13124771Y-13578148D01*
X13120823Y-13586863D01*
X13116313Y-13595300D01*
X13111261Y-13603424D01*
X13105688Y-13611201D01*
X13099619Y-13618596D01*
X13093079Y-13625579D01*
X13086096Y-13632119D01*
X13078701Y-13638188D01*
X13070924Y-13643761D01*
X13062800Y-13648813D01*
X13054363Y-13653323D01*
X13045648Y-13657271D01*
X13036694Y-13660641D01*
X13027539Y-13663418D01*
X13018222Y-13665591D01*
X13008783Y-13667149D01*
X12999262Y-13668087D01*
X12989700Y-13668400D01*
X11332100Y-13668400D01*
X11322538Y-13668087D01*
X11313017Y-13667149D01*
X11303578Y-13665591D01*
X11294261Y-13663418D01*
X11285106Y-13660641D01*
X11276152Y-13657271D01*
X11267437Y-13653323D01*
X11259000Y-13648813D01*
X11250876Y-13643761D01*
X11243099Y-13638188D01*
X11235704Y-13632119D01*
X11228721Y-13625579D01*
X11222181Y-13618596D01*
X11216112Y-13611201D01*
X11210539Y-13603424D01*
X11205487Y-13595300D01*
X11200977Y-13586863D01*
X11197029Y-13578148D01*
X11193659Y-13569194D01*
X11190882Y-13560039D01*
X11188709Y-13550722D01*
X11187151Y-13541283D01*
X11186213Y-13531762D01*
X11185900Y-13522200D01*
X11185900Y-13214600D01*
X11186213Y-13205038D01*
X11187151Y-13195517D01*
X11188709Y-13186078D01*
X11190882Y-13176761D01*
X11193659Y-13167606D01*
X11197029Y-13158652D01*
X11200977Y-13149937D01*
X11205487Y-13141500D01*
X11210539Y-13133376D01*
X11216112Y-13125599D01*
X11222181Y-13118204D01*
X11228721Y-13111221D01*
X11235704Y-13104681D01*
X11243099Y-13098612D01*
X11250876Y-13093039D01*
X11259000Y-13087987D01*
X11267437Y-13083477D01*
X11276152Y-13079529D01*
X11285106Y-13076159D01*
X11294261Y-13073382D01*
X11303578Y-13071209D01*
X11313017Y-13069651D01*
X11322538Y-13068713D01*
X11332100Y-13068400D01*
X12989700Y-13068400D01*
X12999262Y-13068713D01*
G37*
G36*
X8049262Y-14338713D02*
G01*
X8058783Y-14339651D01*
X8068222Y-14341209D01*
X8077539Y-14343382D01*
X8086694Y-14346159D01*
X8095648Y-14349529D01*
X8104363Y-14353477D01*
X8112800Y-14357987D01*
X8120924Y-14363039D01*
X8128701Y-14368612D01*
X8136096Y-14374681D01*
X8143079Y-14381221D01*
X8149619Y-14388204D01*
X8155688Y-14395599D01*
X8161261Y-14403376D01*
X8166313Y-14411500D01*
X8170823Y-14419937D01*
X8174771Y-14428652D01*
X8178141Y-14437606D01*
X8180918Y-14446761D01*
X8183091Y-14456078D01*
X8184649Y-14465517D01*
X8185587Y-14475038D01*
X8185900Y-14484600D01*
X8185900Y-14792200D01*
X8185587Y-14801762D01*
X8184649Y-14811283D01*
X8183091Y-14820722D01*
X8180918Y-14830039D01*
X8178141Y-14839194D01*
X8174771Y-14848148D01*
X8170823Y-14856863D01*
X8166313Y-14865300D01*
X8161261Y-14873424D01*
X8155688Y-14881201D01*
X8149619Y-14888596D01*
X8143079Y-14895579D01*
X8136096Y-14902119D01*
X8128701Y-14908188D01*
X8120924Y-14913761D01*
X8112800Y-14918813D01*
X8104363Y-14923323D01*
X8095648Y-14927271D01*
X8086694Y-14930641D01*
X8077539Y-14933418D01*
X8068222Y-14935591D01*
X8058783Y-14937149D01*
X8049262Y-14938087D01*
X8039700Y-14938400D01*
X6382100Y-14938400D01*
X6372538Y-14938087D01*
X6363017Y-14937149D01*
X6353578Y-14935591D01*
X6344261Y-14933418D01*
X6335106Y-14930641D01*
X6326152Y-14927271D01*
X6317437Y-14923323D01*
X6309000Y-14918813D01*
X6300876Y-14913761D01*
X6293099Y-14908188D01*
X6285704Y-14902119D01*
X6278721Y-14895579D01*
X6272181Y-14888596D01*
X6266112Y-14881201D01*
X6260539Y-14873424D01*
X6255487Y-14865300D01*
X6250977Y-14856863D01*
X6247029Y-14848148D01*
X6243659Y-14839194D01*
X6240882Y-14830039D01*
X6238709Y-14820722D01*
X6237151Y-14811283D01*
X6236213Y-14801762D01*
X6235900Y-14792200D01*
X6235900Y-14484600D01*
X6236213Y-14475038D01*
X6237151Y-14465517D01*
X6238709Y-14456078D01*
X6240882Y-14446761D01*
X6243659Y-14437606D01*
X6247029Y-14428652D01*
X6250977Y-14419937D01*
X6255487Y-14411500D01*
X6260539Y-14403376D01*
X6266112Y-14395599D01*
X6272181Y-14388204D01*
X6278721Y-14381221D01*
X6285704Y-14374681D01*
X6293099Y-14368612D01*
X6300876Y-14363039D01*
X6309000Y-14357987D01*
X6317437Y-14353477D01*
X6326152Y-14349529D01*
X6335106Y-14346159D01*
X6344261Y-14343382D01*
X6353578Y-14341209D01*
X6363017Y-14339651D01*
X6372538Y-14338713D01*
X6382100Y-14338400D01*
X8039700Y-14338400D01*
X8049262Y-14338713D01*
G37*
G36*
X8049262Y-16878713D02*
G01*
X8058783Y-16879651D01*
X8068222Y-16881209D01*
X8077539Y-16883382D01*
X8086694Y-16886159D01*
X8095648Y-16889529D01*
X8104363Y-16893477D01*
X8112800Y-16897987D01*
X8120924Y-16903039D01*
X8128701Y-16908612D01*
X8136096Y-16914681D01*
X8143079Y-16921221D01*
X8149619Y-16928204D01*
X8155688Y-16935599D01*
X8161261Y-16943376D01*
X8166313Y-16951500D01*
X8170823Y-16959937D01*
X8174771Y-16968652D01*
X8178141Y-16977606D01*
X8180918Y-16986761D01*
X8183091Y-16996078D01*
X8184649Y-17005517D01*
X8185587Y-17015038D01*
X8185900Y-17024600D01*
X8185900Y-17332200D01*
X8185587Y-17341762D01*
X8184649Y-17351283D01*
X8183091Y-17360722D01*
X8180918Y-17370039D01*
X8178141Y-17379194D01*
X8174771Y-17388148D01*
X8170823Y-17396863D01*
X8166313Y-17405300D01*
X8161261Y-17413424D01*
X8155688Y-17421201D01*
X8149619Y-17428596D01*
X8143079Y-17435579D01*
X8136096Y-17442119D01*
X8128701Y-17448188D01*
X8120924Y-17453761D01*
X8112800Y-17458813D01*
X8104363Y-17463323D01*
X8095648Y-17467271D01*
X8086694Y-17470641D01*
X8077539Y-17473418D01*
X8068222Y-17475591D01*
X8058783Y-17477149D01*
X8049262Y-17478087D01*
X8039700Y-17478400D01*
X6382100Y-17478400D01*
X6372538Y-17478087D01*
X6363017Y-17477149D01*
X6353578Y-17475591D01*
X6344261Y-17473418D01*
X6335106Y-17470641D01*
X6326152Y-17467271D01*
X6317437Y-17463323D01*
X6309000Y-17458813D01*
X6300876Y-17453761D01*
X6293099Y-17448188D01*
X6285704Y-17442119D01*
X6278721Y-17435579D01*
X6272181Y-17428596D01*
X6266112Y-17421201D01*
X6260539Y-17413424D01*
X6255487Y-17405300D01*
X6250977Y-17396863D01*
X6247029Y-17388148D01*
X6243659Y-17379194D01*
X6240882Y-17370039D01*
X6238709Y-17360722D01*
X6237151Y-17351283D01*
X6236213Y-17341762D01*
X6235900Y-17332200D01*
X6235900Y-17024600D01*
X6236213Y-17015038D01*
X6237151Y-17005517D01*
X6238709Y-16996078D01*
X6240882Y-16986761D01*
X6243659Y-16977606D01*
X6247029Y-16968652D01*
X6250977Y-16959937D01*
X6255487Y-16951500D01*
X6260539Y-16943376D01*
X6266112Y-16935599D01*
X6272181Y-16928204D01*
X6278721Y-16921221D01*
X6285704Y-16914681D01*
X6293099Y-16908612D01*
X6300876Y-16903039D01*
X6309000Y-16897987D01*
X6317437Y-16893477D01*
X6326152Y-16889529D01*
X6335106Y-16886159D01*
X6344261Y-16883382D01*
X6353578Y-16881209D01*
X6363017Y-16879651D01*
X6372538Y-16878713D01*
X6382100Y-16878400D01*
X8039700Y-16878400D01*
X8049262Y-16878713D01*
G37*
G36*
X8049262Y-15608713D02*
G01*
X8058783Y-15609651D01*
X8068222Y-15611209D01*
X8077539Y-15613382D01*
X8086694Y-15616159D01*
X8095648Y-15619529D01*
X8104363Y-15623477D01*
X8112800Y-15627987D01*
X8120924Y-15633039D01*
X8128701Y-15638612D01*
X8136096Y-15644681D01*
X8143079Y-15651221D01*
X8149619Y-15658204D01*
X8155688Y-15665599D01*
X8161261Y-15673376D01*
X8166313Y-15681500D01*
X8170823Y-15689937D01*
X8174771Y-15698652D01*
X8178141Y-15707606D01*
X8180918Y-15716761D01*
X8183091Y-15726078D01*
X8184649Y-15735517D01*
X8185587Y-15745038D01*
X8185900Y-15754600D01*
X8185900Y-16062200D01*
X8185587Y-16071762D01*
X8184649Y-16081283D01*
X8183091Y-16090722D01*
X8180918Y-16100039D01*
X8178141Y-16109194D01*
X8174771Y-16118148D01*
X8170823Y-16126863D01*
X8166313Y-16135300D01*
X8161261Y-16143424D01*
X8155688Y-16151201D01*
X8149619Y-16158596D01*
X8143079Y-16165579D01*
X8136096Y-16172119D01*
X8128701Y-16178188D01*
X8120924Y-16183761D01*
X8112800Y-16188813D01*
X8104363Y-16193323D01*
X8095648Y-16197271D01*
X8086694Y-16200641D01*
X8077539Y-16203418D01*
X8068222Y-16205591D01*
X8058783Y-16207149D01*
X8049262Y-16208087D01*
X8039700Y-16208400D01*
X6382100Y-16208400D01*
X6372538Y-16208087D01*
X6363017Y-16207149D01*
X6353578Y-16205591D01*
X6344261Y-16203418D01*
X6335106Y-16200641D01*
X6326152Y-16197271D01*
X6317437Y-16193323D01*
X6309000Y-16188813D01*
X6300876Y-16183761D01*
X6293099Y-16178188D01*
X6285704Y-16172119D01*
X6278721Y-16165579D01*
X6272181Y-16158596D01*
X6266112Y-16151201D01*
X6260539Y-16143424D01*
X6255487Y-16135300D01*
X6250977Y-16126863D01*
X6247029Y-16118148D01*
X6243659Y-16109194D01*
X6240882Y-16100039D01*
X6238709Y-16090722D01*
X6237151Y-16081283D01*
X6236213Y-16071762D01*
X6235900Y-16062200D01*
X6235900Y-15754600D01*
X6236213Y-15745038D01*
X6237151Y-15735517D01*
X6238709Y-15726078D01*
X6240882Y-15716761D01*
X6243659Y-15707606D01*
X6247029Y-15698652D01*
X6250977Y-15689937D01*
X6255487Y-15681500D01*
X6260539Y-15673376D01*
X6266112Y-15665599D01*
X6272181Y-15658204D01*
X6278721Y-15651221D01*
X6285704Y-15644681D01*
X6293099Y-15638612D01*
X6300876Y-15633039D01*
X6309000Y-15627987D01*
X6317437Y-15623477D01*
X6326152Y-15619529D01*
X6335106Y-15616159D01*
X6344261Y-15613382D01*
X6353578Y-15611209D01*
X6363017Y-15609651D01*
X6372538Y-15608713D01*
X6382100Y-15608400D01*
X8039700Y-15608400D01*
X8049262Y-15608713D01*
G37*
G36*
X12999262Y-15608713D02*
G01*
X13008783Y-15609651D01*
X13018222Y-15611209D01*
X13027539Y-15613382D01*
X13036694Y-15616159D01*
X13045648Y-15619529D01*
X13054363Y-15623477D01*
X13062800Y-15627987D01*
X13070924Y-15633039D01*
X13078701Y-15638612D01*
X13086096Y-15644681D01*
X13093079Y-15651221D01*
X13099619Y-15658204D01*
X13105688Y-15665599D01*
X13111261Y-15673376D01*
X13116313Y-15681500D01*
X13120823Y-15689937D01*
X13124771Y-15698652D01*
X13128141Y-15707606D01*
X13130918Y-15716761D01*
X13133091Y-15726078D01*
X13134649Y-15735517D01*
X13135587Y-15745038D01*
X13135900Y-15754600D01*
X13135900Y-16062200D01*
X13135587Y-16071762D01*
X13134649Y-16081283D01*
X13133091Y-16090722D01*
X13130918Y-16100039D01*
X13128141Y-16109194D01*
X13124771Y-16118148D01*
X13120823Y-16126863D01*
X13116313Y-16135300D01*
X13111261Y-16143424D01*
X13105688Y-16151201D01*
X13099619Y-16158596D01*
X13093079Y-16165579D01*
X13086096Y-16172119D01*
X13078701Y-16178188D01*
X13070924Y-16183761D01*
X13062800Y-16188813D01*
X13054363Y-16193323D01*
X13045648Y-16197271D01*
X13036694Y-16200641D01*
X13027539Y-16203418D01*
X13018222Y-16205591D01*
X13008783Y-16207149D01*
X12999262Y-16208087D01*
X12989700Y-16208400D01*
X11332100Y-16208400D01*
X11322538Y-16208087D01*
X11313017Y-16207149D01*
X11303578Y-16205591D01*
X11294261Y-16203418D01*
X11285106Y-16200641D01*
X11276152Y-16197271D01*
X11267437Y-16193323D01*
X11259000Y-16188813D01*
X11250876Y-16183761D01*
X11243099Y-16178188D01*
X11235704Y-16172119D01*
X11228721Y-16165579D01*
X11222181Y-16158596D01*
X11216112Y-16151201D01*
X11210539Y-16143424D01*
X11205487Y-16135300D01*
X11200977Y-16126863D01*
X11197029Y-16118148D01*
X11193659Y-16109194D01*
X11190882Y-16100039D01*
X11188709Y-16090722D01*
X11187151Y-16081283D01*
X11186213Y-16071762D01*
X11185900Y-16062200D01*
X11185900Y-15754600D01*
X11186213Y-15745038D01*
X11187151Y-15735517D01*
X11188709Y-15726078D01*
X11190882Y-15716761D01*
X11193659Y-15707606D01*
X11197029Y-15698652D01*
X11200977Y-15689937D01*
X11205487Y-15681500D01*
X11210539Y-15673376D01*
X11216112Y-15665599D01*
X11222181Y-15658204D01*
X11228721Y-15651221D01*
X11235704Y-15644681D01*
X11243099Y-15638612D01*
X11250876Y-15633039D01*
X11259000Y-15627987D01*
X11267437Y-15623477D01*
X11276152Y-15619529D01*
X11285106Y-15616159D01*
X11294261Y-15613382D01*
X11303578Y-15611209D01*
X11313017Y-15609651D01*
X11322538Y-15608713D01*
X11332100Y-15608400D01*
X12989700Y-15608400D01*
X12999262Y-15608713D01*
G37*
G36*
X8049262Y-13068713D02*
G01*
X8058783Y-13069651D01*
X8068222Y-13071209D01*
X8077539Y-13073382D01*
X8086694Y-13076159D01*
X8095648Y-13079529D01*
X8104363Y-13083477D01*
X8112800Y-13087987D01*
X8120924Y-13093039D01*
X8128701Y-13098612D01*
X8136096Y-13104681D01*
X8143079Y-13111221D01*
X8149619Y-13118204D01*
X8155688Y-13125599D01*
X8161261Y-13133376D01*
X8166313Y-13141500D01*
X8170823Y-13149937D01*
X8174771Y-13158652D01*
X8178141Y-13167606D01*
X8180918Y-13176761D01*
X8183091Y-13186078D01*
X8184649Y-13195517D01*
X8185587Y-13205038D01*
X8185900Y-13214600D01*
X8185900Y-13522200D01*
X8185587Y-13531762D01*
X8184649Y-13541283D01*
X8183091Y-13550722D01*
X8180918Y-13560039D01*
X8178141Y-13569194D01*
X8174771Y-13578148D01*
X8170823Y-13586863D01*
X8166313Y-13595300D01*
X8161261Y-13603424D01*
X8155688Y-13611201D01*
X8149619Y-13618596D01*
X8143079Y-13625579D01*
X8136096Y-13632119D01*
X8128701Y-13638188D01*
X8120924Y-13643761D01*
X8112800Y-13648813D01*
X8104363Y-13653323D01*
X8095648Y-13657271D01*
X8086694Y-13660641D01*
X8077539Y-13663418D01*
X8068222Y-13665591D01*
X8058783Y-13667149D01*
X8049262Y-13668087D01*
X8039700Y-13668400D01*
X6382100Y-13668400D01*
X6372538Y-13668087D01*
X6363017Y-13667149D01*
X6353578Y-13665591D01*
X6344261Y-13663418D01*
X6335106Y-13660641D01*
X6326152Y-13657271D01*
X6317437Y-13653323D01*
X6309000Y-13648813D01*
X6300876Y-13643761D01*
X6293099Y-13638188D01*
X6285704Y-13632119D01*
X6278721Y-13625579D01*
X6272181Y-13618596D01*
X6266112Y-13611201D01*
X6260539Y-13603424D01*
X6255487Y-13595300D01*
X6250977Y-13586863D01*
X6247029Y-13578148D01*
X6243659Y-13569194D01*
X6240882Y-13560039D01*
X6238709Y-13550722D01*
X6237151Y-13541283D01*
X6236213Y-13531762D01*
X6235900Y-13522200D01*
X6235900Y-13214600D01*
X6236213Y-13205038D01*
X6237151Y-13195517D01*
X6238709Y-13186078D01*
X6240882Y-13176761D01*
X6243659Y-13167606D01*
X6247029Y-13158652D01*
X6250977Y-13149937D01*
X6255487Y-13141500D01*
X6260539Y-13133376D01*
X6266112Y-13125599D01*
X6272181Y-13118204D01*
X6278721Y-13111221D01*
X6285704Y-13104681D01*
X6293099Y-13098612D01*
X6300876Y-13093039D01*
X6309000Y-13087987D01*
X6317437Y-13083477D01*
X6326152Y-13079529D01*
X6335106Y-13076159D01*
X6344261Y-13073382D01*
X6353578Y-13071209D01*
X6363017Y-13069651D01*
X6372538Y-13068713D01*
X6382100Y-13068400D01*
X8039700Y-13068400D01*
X8049262Y-13068713D01*
G37*
G36*
X16072337Y15470005D02*
G01*
X15506651Y14904320D01*
X15223808Y15187163D01*
X15789494Y15752848D01*
X16072337Y15470005D01*
G37*
G36*
X14778334Y16764013D02*
G01*
X14212648Y16198328D01*
X13682318Y16728658D01*
X14248004Y17294343D01*
X14778334Y16764013D01*
G37*
G36*
X15520794Y16021550D02*
G01*
X14955109Y15455864D01*
X14530845Y15880128D01*
X15096530Y16445814D01*
X15520794Y16021550D01*
G37*
G36*
X16906721Y14635618D02*
G01*
X16341036Y14069933D01*
X15775350Y14635618D01*
X16341036Y15201303D01*
X16906721Y14635618D01*
G37*
G36*
X39216837Y15470005D02*
G01*
X38651151Y14904320D01*
X38368308Y15187163D01*
X38933994Y15752848D01*
X39216837Y15470005D01*
G37*
G36*
X37922834Y16764013D02*
G01*
X37357148Y16198328D01*
X36826818Y16728658D01*
X37392504Y17294343D01*
X37922834Y16764013D01*
G37*
G36*
X38665294Y16021550D02*
G01*
X38099609Y15455864D01*
X37675345Y15880128D01*
X38241030Y16445814D01*
X38665294Y16021550D01*
G37*
G36*
X40051221Y14635618D02*
G01*
X39485536Y14069933D01*
X38919850Y14635618D01*
X39485536Y15201303D01*
X40051221Y14635618D01*
G37*
G36*
X19378737Y15470005D02*
G01*
X18813051Y14904320D01*
X18530208Y15187163D01*
X19095894Y15752848D01*
X19378737Y15470005D01*
G37*
G36*
X18084734Y16764013D02*
G01*
X17519048Y16198328D01*
X16988718Y16728658D01*
X17554404Y17294343D01*
X18084734Y16764013D01*
G37*
G36*
X18827194Y16021550D02*
G01*
X18261509Y15455864D01*
X17837245Y15880128D01*
X18402930Y16445814D01*
X18827194Y16021550D01*
G37*
G36*
X20213121Y14635618D02*
G01*
X19647436Y14069933D01*
X19081750Y14635618D01*
X19647436Y15201303D01*
X20213121Y14635618D01*
G37*
G36*
X35910437Y18809505D02*
G01*
X35344751Y18243820D01*
X35061908Y18526663D01*
X35627594Y19092348D01*
X35910437Y18809505D01*
G37*
G36*
X34616434Y20103513D02*
G01*
X34050748Y19537828D01*
X33520418Y20068158D01*
X34086104Y20633843D01*
X34616434Y20103513D01*
G37*
G36*
X35358894Y19361050D02*
G01*
X34793209Y18795364D01*
X34368945Y19219628D01*
X34934630Y19785314D01*
X35358894Y19361050D01*
G37*
G36*
X36744821Y17975118D02*
G01*
X36179136Y17409433D01*
X35613450Y17975118D01*
X36179136Y18540803D01*
X36744821Y17975118D01*
G37*
G36*
X5424571Y-15450898D02*
G01*
X5427573Y-15451393D01*
X5433449Y-15452968D01*
X5436297Y-15454040D01*
X5441752Y-15456730D01*
X5444336Y-15458337D01*
X5449161Y-15462039D01*
X5453462Y-15466340D01*
X5457165Y-15471166D01*
X5458772Y-15473750D01*
X5461462Y-15479205D01*
X5462534Y-15482053D01*
X5464108Y-15487928D01*
X5464604Y-15490931D01*
X5465002Y-15497000D01*
X5465002Y-15964000D01*
X5464604Y-15970069D01*
X5464108Y-15973072D01*
X5462534Y-15978947D01*
X5461462Y-15981795D01*
X5458772Y-15987250D01*
X5457165Y-15989834D01*
X5453462Y-15994660D01*
X5449161Y-15998961D01*
X5444336Y-16002663D01*
X5441752Y-16004270D01*
X5436297Y-16006960D01*
X5433449Y-16008032D01*
X5427573Y-16009607D01*
X5424571Y-16010102D01*
X5418502Y-16010500D01*
X4891502Y-16010500D01*
X4885432Y-16010102D01*
X4882430Y-16009607D01*
X4876555Y-16008032D01*
X4873707Y-16006960D01*
X4868252Y-16004270D01*
X4865668Y-16002663D01*
X4860842Y-15998961D01*
X4856541Y-15994660D01*
X4852838Y-15989834D01*
X4851232Y-15987250D01*
X4848541Y-15981795D01*
X4847470Y-15978947D01*
X4845895Y-15973072D01*
X4845400Y-15970069D01*
X4845002Y-15964000D01*
X4845002Y-15497000D01*
X4845400Y-15490931D01*
X4845895Y-15487928D01*
X4847470Y-15482053D01*
X4848541Y-15479205D01*
X4851232Y-15473750D01*
X4852838Y-15471166D01*
X4856541Y-15466340D01*
X4860842Y-15462039D01*
X4865668Y-15458337D01*
X4868252Y-15456730D01*
X4873707Y-15454040D01*
X4876555Y-15452968D01*
X4882430Y-15451393D01*
X4885432Y-15450898D01*
X4891502Y-15450500D01*
X5418502Y-15450500D01*
X5424571Y-15450898D01*
G37*
G36*
X5424568Y-14490898D02*
G01*
X5427570Y-14491393D01*
X5433445Y-14492968D01*
X5436293Y-14494040D01*
X5441748Y-14496730D01*
X5444332Y-14498337D01*
X5449158Y-14502039D01*
X5453459Y-14506340D01*
X5457162Y-14511166D01*
X5458768Y-14513750D01*
X5461459Y-14519205D01*
X5462530Y-14522053D01*
X5464105Y-14527928D01*
X5464600Y-14530931D01*
X5464998Y-14537000D01*
X5464998Y-15004000D01*
X5464600Y-15010069D01*
X5464105Y-15013072D01*
X5462530Y-15018947D01*
X5461459Y-15021795D01*
X5458768Y-15027250D01*
X5457162Y-15029834D01*
X5453459Y-15034660D01*
X5449158Y-15038961D01*
X5444332Y-15042663D01*
X5441748Y-15044270D01*
X5436293Y-15046960D01*
X5433445Y-15048032D01*
X5427570Y-15049607D01*
X5424568Y-15050102D01*
X5418498Y-15050500D01*
X4891498Y-15050500D01*
X4885429Y-15050102D01*
X4882427Y-15049607D01*
X4876551Y-15048032D01*
X4873703Y-15046960D01*
X4868248Y-15044270D01*
X4865664Y-15042663D01*
X4860839Y-15038961D01*
X4856538Y-15034660D01*
X4852835Y-15029834D01*
X4851228Y-15027250D01*
X4848538Y-15021795D01*
X4847466Y-15018947D01*
X4845892Y-15013072D01*
X4845396Y-15010069D01*
X4844998Y-15004000D01*
X4844998Y-14537000D01*
X4845396Y-14530931D01*
X4845892Y-14527928D01*
X4847466Y-14522053D01*
X4848538Y-14519205D01*
X4851228Y-14513750D01*
X4852835Y-14511166D01*
X4856538Y-14506340D01*
X4860839Y-14502039D01*
X4865664Y-14498337D01*
X4868248Y-14496730D01*
X4873703Y-14494040D01*
X4876551Y-14492968D01*
X4882427Y-14491393D01*
X4885429Y-14490898D01*
X4891498Y-14490500D01*
X5418498Y-14490500D01*
X5424568Y-14490898D01*
G37*
G36*
X32604137Y22312105D02*
G01*
X32038451Y21746420D01*
X31755608Y22029263D01*
X32321294Y22594948D01*
X32604137Y22312105D01*
G37*
G36*
X31310134Y23606113D02*
G01*
X30744448Y23040428D01*
X30214118Y23570758D01*
X30779804Y24136443D01*
X31310134Y23606113D01*
G37*
G36*
X32052594Y22863650D02*
G01*
X31486909Y22297964D01*
X31062645Y22722228D01*
X31628330Y23287914D01*
X32052594Y22863650D01*
G37*
G36*
X33438521Y21477718D02*
G01*
X32872836Y20912033D01*
X32307150Y21477718D01*
X32872836Y22043403D01*
X33438521Y21477718D01*
G37*
G36*
X16072337Y18809505D02*
G01*
X15506651Y18243820D01*
X15223808Y18526663D01*
X15789494Y19092348D01*
X16072337Y18809505D01*
G37*
G36*
X14778334Y20103513D02*
G01*
X14212648Y19537828D01*
X13682318Y20068158D01*
X14248004Y20633843D01*
X14778334Y20103513D01*
G37*
G36*
X15520794Y19361050D02*
G01*
X14955109Y18795364D01*
X14530845Y19219628D01*
X15096530Y19785314D01*
X15520794Y19361050D01*
G37*
G36*
X16906721Y17975118D02*
G01*
X16341036Y17409433D01*
X15775350Y17975118D01*
X16341036Y18540803D01*
X16906721Y17975118D01*
G37*
G36*
X35910437Y15470005D02*
G01*
X35344751Y14904320D01*
X35061908Y15187163D01*
X35627594Y15752848D01*
X35910437Y15470005D01*
G37*
G36*
X34616434Y16764013D02*
G01*
X34050748Y16198328D01*
X33520418Y16728658D01*
X34086104Y17294343D01*
X34616434Y16764013D01*
G37*
G36*
X35358894Y16021550D02*
G01*
X34793209Y15455864D01*
X34368945Y15880128D01*
X34934630Y16445814D01*
X35358894Y16021550D01*
G37*
G36*
X36744821Y14635618D02*
G01*
X36179136Y14069933D01*
X35613450Y14635618D01*
X36179136Y15201303D01*
X36744821Y14635618D01*
G37*
G36*
X29297737Y15470005D02*
G01*
X28732051Y14904320D01*
X28449208Y15187163D01*
X29014894Y15752848D01*
X29297737Y15470005D01*
G37*
G36*
X28003734Y16764013D02*
G01*
X27438048Y16198328D01*
X26907718Y16728658D01*
X27473404Y17294343D01*
X28003734Y16764013D01*
G37*
G36*
X28746194Y16021550D02*
G01*
X28180509Y15455864D01*
X27756245Y15880128D01*
X28321930Y16445814D01*
X28746194Y16021550D01*
G37*
G36*
X30132121Y14635618D02*
G01*
X29566436Y14069933D01*
X29000750Y14635618D01*
X29566436Y15201303D01*
X30132121Y14635618D01*
G37*
G36*
X9213157Y-9303955D02*
G01*
X9217793Y-9304411D01*
X9222390Y-9305170D01*
X9226928Y-9306228D01*
X9231386Y-9307581D01*
X9235747Y-9309222D01*
X9239991Y-9311145D01*
X9244100Y-9313341D01*
X9248057Y-9315801D01*
X9251844Y-9318515D01*
X9255445Y-9321471D01*
X9258846Y-9324656D01*
X9262031Y-9328057D01*
X9264987Y-9331658D01*
X9267701Y-9335445D01*
X9270161Y-9339402D01*
X9272357Y-9343511D01*
X9274280Y-9347755D01*
X9275921Y-9352116D01*
X9277274Y-9356574D01*
X9278332Y-9361112D01*
X9279091Y-9365709D01*
X9279548Y-9370345D01*
X9279700Y-9375002D01*
X9279700Y-10182602D01*
X9279548Y-10187259D01*
X9279091Y-10191896D01*
X9278332Y-10196493D01*
X9277274Y-10201030D01*
X9275921Y-10205489D01*
X9274280Y-10209849D01*
X9272357Y-10214093D01*
X9270161Y-10218202D01*
X9267701Y-10222159D01*
X9264987Y-10225946D01*
X9262031Y-10229548D01*
X9258846Y-10232948D01*
X9255445Y-10236133D01*
X9251844Y-10239089D01*
X9248057Y-10241803D01*
X9244100Y-10244263D01*
X9239991Y-10246459D01*
X9235747Y-10248382D01*
X9231386Y-10250024D01*
X9226928Y-10251376D01*
X9222390Y-10252434D01*
X9217793Y-10253193D01*
X9213157Y-10253650D01*
X9208500Y-10253802D01*
X8475900Y-10253802D01*
X8471243Y-10253650D01*
X8466607Y-10253193D01*
X8462010Y-10252434D01*
X8457472Y-10251376D01*
X8453014Y-10250024D01*
X8448653Y-10248382D01*
X8444409Y-10246459D01*
X8440300Y-10244263D01*
X8436343Y-10241803D01*
X8432556Y-10239089D01*
X8428955Y-10236133D01*
X8425554Y-10232948D01*
X8422369Y-10229548D01*
X8419413Y-10225946D01*
X8416699Y-10222159D01*
X8414239Y-10218202D01*
X8412043Y-10214093D01*
X8410120Y-10209849D01*
X8408479Y-10205489D01*
X8407126Y-10201030D01*
X8406068Y-10196493D01*
X8405309Y-10191896D01*
X8404852Y-10187259D01*
X8404700Y-10182602D01*
X8404700Y-9375002D01*
X8404852Y-9370345D01*
X8405309Y-9365709D01*
X8406068Y-9361112D01*
X8407126Y-9356574D01*
X8408479Y-9352116D01*
X8410120Y-9347755D01*
X8412043Y-9343511D01*
X8414239Y-9339402D01*
X8416699Y-9335445D01*
X8419413Y-9331658D01*
X8422369Y-9328057D01*
X8425554Y-9324656D01*
X8428955Y-9321471D01*
X8432556Y-9318515D01*
X8436343Y-9315801D01*
X8440300Y-9313341D01*
X8444409Y-9311145D01*
X8448653Y-9309222D01*
X8453014Y-9307581D01*
X8457472Y-9306228D01*
X8462010Y-9305170D01*
X8466607Y-9304411D01*
X8471243Y-9303955D01*
X8475900Y-9303802D01*
X9208500Y-9303802D01*
X9213157Y-9303955D01*
G37*
G36*
X7638157Y-9303950D02*
G01*
X7642793Y-9304407D01*
X7647390Y-9305166D01*
X7651928Y-9306224D01*
X7656386Y-9307576D01*
X7660747Y-9309218D01*
X7664991Y-9311141D01*
X7669100Y-9313337D01*
X7673057Y-9315797D01*
X7676844Y-9318511D01*
X7680445Y-9321467D01*
X7683846Y-9324652D01*
X7687031Y-9328052D01*
X7689987Y-9331654D01*
X7692701Y-9335441D01*
X7695161Y-9339398D01*
X7697357Y-9343507D01*
X7699280Y-9347751D01*
X7700921Y-9352111D01*
X7702274Y-9356570D01*
X7703332Y-9361107D01*
X7704091Y-9365704D01*
X7704548Y-9370341D01*
X7704700Y-9374998D01*
X7704700Y-10182598D01*
X7704548Y-10187255D01*
X7704091Y-10191891D01*
X7703332Y-10196488D01*
X7702274Y-10201026D01*
X7700921Y-10205484D01*
X7699280Y-10209845D01*
X7697357Y-10214089D01*
X7695161Y-10218198D01*
X7692701Y-10222155D01*
X7689987Y-10225942D01*
X7687031Y-10229543D01*
X7683846Y-10232944D01*
X7680445Y-10236129D01*
X7676844Y-10239085D01*
X7673057Y-10241799D01*
X7669100Y-10244259D01*
X7664991Y-10246455D01*
X7660747Y-10248378D01*
X7656386Y-10250019D01*
X7651928Y-10251372D01*
X7647390Y-10252430D01*
X7642793Y-10253189D01*
X7638157Y-10253645D01*
X7633500Y-10253798D01*
X6900900Y-10253798D01*
X6896243Y-10253645D01*
X6891607Y-10253189D01*
X6887010Y-10252430D01*
X6882472Y-10251372D01*
X6878014Y-10250019D01*
X6873653Y-10248378D01*
X6869409Y-10246455D01*
X6865300Y-10244259D01*
X6861343Y-10241799D01*
X6857556Y-10239085D01*
X6853955Y-10236129D01*
X6850554Y-10232944D01*
X6847369Y-10229543D01*
X6844413Y-10225942D01*
X6841699Y-10222155D01*
X6839239Y-10218198D01*
X6837043Y-10214089D01*
X6835120Y-10209845D01*
X6833479Y-10205484D01*
X6832126Y-10201026D01*
X6831068Y-10196488D01*
X6830309Y-10191891D01*
X6829852Y-10187255D01*
X6829700Y-10182598D01*
X6829700Y-9374998D01*
X6829852Y-9370341D01*
X6830309Y-9365704D01*
X6831068Y-9361107D01*
X6832126Y-9356570D01*
X6833479Y-9352111D01*
X6835120Y-9347751D01*
X6837043Y-9343507D01*
X6839239Y-9339398D01*
X6841699Y-9335441D01*
X6844413Y-9331654D01*
X6847369Y-9328052D01*
X6850554Y-9324652D01*
X6853955Y-9321467D01*
X6857556Y-9318511D01*
X6861343Y-9315797D01*
X6865300Y-9313337D01*
X6869409Y-9311141D01*
X6873653Y-9309218D01*
X6878014Y-9307576D01*
X6882472Y-9306224D01*
X6887010Y-9305166D01*
X6891607Y-9304407D01*
X6896243Y-9303950D01*
X6900900Y-9303798D01*
X7633500Y-9303798D01*
X7638157Y-9303950D01*
G37*
G36*
X19378737Y22312105D02*
G01*
X18813051Y21746420D01*
X18530208Y22029263D01*
X19095894Y22594948D01*
X19378737Y22312105D01*
G37*
G36*
X18084734Y23606113D02*
G01*
X17519048Y23040428D01*
X16988718Y23570758D01*
X17554404Y24136443D01*
X18084734Y23606113D01*
G37*
G36*
X18827194Y22863650D02*
G01*
X18261509Y22297964D01*
X17837245Y22722228D01*
X18402930Y23287914D01*
X18827194Y22863650D01*
G37*
G36*
X20213121Y21477718D02*
G01*
X19647436Y20912033D01*
X19081750Y21477718D01*
X19647436Y22043403D01*
X20213121Y21477718D01*
G37*
G36*
X40051221Y4614618D02*
G01*
X39485536Y4048933D01*
X38919850Y4614618D01*
X39485536Y5180303D01*
X40051221Y4614618D01*
G37*
G36*
X38665294Y6000550D02*
G01*
X38099609Y5434864D01*
X37675345Y5859128D01*
X38241030Y6424814D01*
X38665294Y6000550D01*
G37*
G36*
X37922834Y6743013D02*
G01*
X37357148Y6177328D01*
X36826818Y6707658D01*
X37392504Y7273343D01*
X37922834Y6743013D01*
G37*
G36*
X39216837Y5449005D02*
G01*
X38651151Y4883320D01*
X38368308Y5166163D01*
X38933994Y5731848D01*
X39216837Y5449005D01*
G37*
G36*
X36744821Y4614618D02*
G01*
X36179136Y4048933D01*
X35613450Y4614618D01*
X36179136Y5180303D01*
X36744821Y4614618D01*
G37*
G36*
X35358894Y6000550D02*
G01*
X34793209Y5434864D01*
X34368945Y5859128D01*
X34934630Y6424814D01*
X35358894Y6000550D01*
G37*
G36*
X34616434Y6743013D02*
G01*
X34050748Y6177328D01*
X33520418Y6707658D01*
X34086104Y7273343D01*
X34616434Y6743013D01*
G37*
G36*
X35910437Y5449005D02*
G01*
X35344751Y4883320D01*
X35061908Y5166163D01*
X35627594Y5731848D01*
X35910437Y5449005D01*
G37*
G36*
X33438521Y4614618D02*
G01*
X32872836Y4048933D01*
X32307150Y4614618D01*
X32872836Y5180303D01*
X33438521Y4614618D01*
G37*
G36*
X32052594Y6000550D02*
G01*
X31486909Y5434864D01*
X31062645Y5859128D01*
X31628330Y6424814D01*
X32052594Y6000550D01*
G37*
G36*
X31310134Y6743013D02*
G01*
X30744448Y6177328D01*
X30214118Y6707658D01*
X30779804Y7273343D01*
X31310134Y6743013D01*
G37*
G36*
X32604137Y5449005D02*
G01*
X32038451Y4883320D01*
X31755608Y5166163D01*
X32321294Y5731848D01*
X32604137Y5449005D01*
G37*
G36*
X30132121Y4614618D02*
G01*
X29566436Y4048933D01*
X29000750Y4614618D01*
X29566436Y5180303D01*
X30132121Y4614618D01*
G37*
G36*
X28746194Y6000550D02*
G01*
X28180509Y5434864D01*
X27756245Y5859128D01*
X28321930Y6424814D01*
X28746194Y6000550D01*
G37*
G36*
X28003734Y6743013D02*
G01*
X27438048Y6177328D01*
X26907718Y6707658D01*
X27473404Y7273343D01*
X28003734Y6743013D01*
G37*
G36*
X29297737Y5449005D02*
G01*
X28732051Y4883320D01*
X28449208Y5166163D01*
X29014894Y5731848D01*
X29297737Y5449005D01*
G37*
G36*
X26826021Y4614618D02*
G01*
X26260336Y4048933D01*
X25694650Y4614618D01*
X26260336Y5180303D01*
X26826021Y4614618D01*
G37*
G36*
X25440094Y6000550D02*
G01*
X24874409Y5434864D01*
X24450145Y5859128D01*
X25015830Y6424814D01*
X25440094Y6000550D01*
G37*
G36*
X24697634Y6743013D02*
G01*
X24131948Y6177328D01*
X23601618Y6707658D01*
X24167304Y7273343D01*
X24697634Y6743013D01*
G37*
G36*
X25991637Y5449005D02*
G01*
X25425951Y4883320D01*
X25143108Y5166163D01*
X25708794Y5731848D01*
X25991637Y5449005D01*
G37*
G36*
X23519421Y4614618D02*
G01*
X22953736Y4048933D01*
X22388050Y4614618D01*
X22953736Y5180303D01*
X23519421Y4614618D01*
G37*
G36*
X22133494Y6000550D02*
G01*
X21567809Y5434864D01*
X21143545Y5859128D01*
X21709230Y6424814D01*
X22133494Y6000550D01*
G37*
G36*
X21391034Y6743013D02*
G01*
X20825348Y6177328D01*
X20295018Y6707658D01*
X20860704Y7273343D01*
X21391034Y6743013D01*
G37*
G36*
X22685037Y5449005D02*
G01*
X22119351Y4883320D01*
X21836508Y5166163D01*
X22402194Y5731848D01*
X22685037Y5449005D01*
G37*
G36*
X20213121Y4614618D02*
G01*
X19647436Y4048933D01*
X19081750Y4614618D01*
X19647436Y5180303D01*
X20213121Y4614618D01*
G37*
G36*
X18827194Y6000550D02*
G01*
X18261509Y5434864D01*
X17837245Y5859128D01*
X18402930Y6424814D01*
X18827194Y6000550D01*
G37*
G36*
X18084734Y6743013D02*
G01*
X17519048Y6177328D01*
X16988718Y6707658D01*
X17554404Y7273343D01*
X18084734Y6743013D01*
G37*
G36*
X19378737Y5449005D02*
G01*
X18813051Y4883320D01*
X18530208Y5166163D01*
X19095894Y5731848D01*
X19378737Y5449005D01*
G37*
G36*
X16906821Y4614618D02*
G01*
X16341136Y4048933D01*
X15775450Y4614618D01*
X16341136Y5180303D01*
X16906821Y4614618D01*
G37*
G36*
X15520894Y6000550D02*
G01*
X14955209Y5434864D01*
X14530945Y5859128D01*
X15096630Y6424814D01*
X15520894Y6000550D01*
G37*
G36*
X14778434Y6743013D02*
G01*
X14212748Y6177328D01*
X13682418Y6707658D01*
X14248104Y7273343D01*
X14778434Y6743013D01*
G37*
G36*
X16072437Y5449005D02*
G01*
X15506751Y4883320D01*
X15223908Y5166163D01*
X15789594Y5731848D01*
X16072437Y5449005D01*
G37*
G36*
X40051221Y7982518D02*
G01*
X39485536Y7416833D01*
X38919850Y7982518D01*
X39485536Y8548203D01*
X40051221Y7982518D01*
G37*
G36*
X38665294Y9368450D02*
G01*
X38099609Y8802764D01*
X37675345Y9227028D01*
X38241030Y9792714D01*
X38665294Y9368450D01*
G37*
G36*
X37922834Y10110913D02*
G01*
X37357148Y9545228D01*
X36826818Y10075558D01*
X37392504Y10641243D01*
X37922834Y10110913D01*
G37*
G36*
X39216837Y8816905D02*
G01*
X38651151Y8251220D01*
X38368308Y8534063D01*
X38933994Y9099748D01*
X39216837Y8816905D01*
G37*
G36*
X36744821Y7982518D02*
G01*
X36179136Y7416833D01*
X35613450Y7982518D01*
X36179136Y8548203D01*
X36744821Y7982518D01*
G37*
G36*
X35358894Y9368450D02*
G01*
X34793209Y8802764D01*
X34368945Y9227028D01*
X34934630Y9792714D01*
X35358894Y9368450D01*
G37*
G36*
X34616434Y10110913D02*
G01*
X34050748Y9545228D01*
X33520418Y10075558D01*
X34086104Y10641243D01*
X34616434Y10110913D01*
G37*
G36*
X35910437Y8816905D02*
G01*
X35344751Y8251220D01*
X35061908Y8534063D01*
X35627594Y9099748D01*
X35910437Y8816905D01*
G37*
G36*
X33438521Y7982518D02*
G01*
X32872836Y7416833D01*
X32307150Y7982518D01*
X32872836Y8548203D01*
X33438521Y7982518D01*
G37*
G36*
X32052594Y9368450D02*
G01*
X31486909Y8802764D01*
X31062645Y9227028D01*
X31628330Y9792714D01*
X32052594Y9368450D01*
G37*
G36*
X31310134Y10110913D02*
G01*
X30744448Y9545228D01*
X30214118Y10075558D01*
X30779804Y10641243D01*
X31310134Y10110913D01*
G37*
G36*
X32604137Y8816905D02*
G01*
X32038451Y8251220D01*
X31755608Y8534063D01*
X32321294Y9099748D01*
X32604137Y8816905D01*
G37*
G36*
X30132121Y7982518D02*
G01*
X29566436Y7416833D01*
X29000750Y7982518D01*
X29566436Y8548203D01*
X30132121Y7982518D01*
G37*
G36*
X28746194Y9368450D02*
G01*
X28180509Y8802764D01*
X27756245Y9227028D01*
X28321930Y9792714D01*
X28746194Y9368450D01*
G37*
G36*
X28003734Y10110913D02*
G01*
X27438048Y9545228D01*
X26907718Y10075558D01*
X27473404Y10641243D01*
X28003734Y10110913D01*
G37*
G36*
X29297737Y8816905D02*
G01*
X28732051Y8251220D01*
X28449208Y8534063D01*
X29014894Y9099748D01*
X29297737Y8816905D01*
G37*
G36*
X26826021Y7982518D02*
G01*
X26260336Y7416833D01*
X25694650Y7982518D01*
X26260336Y8548203D01*
X26826021Y7982518D01*
G37*
G36*
X25440094Y9368450D02*
G01*
X24874409Y8802764D01*
X24450145Y9227028D01*
X25015830Y9792714D01*
X25440094Y9368450D01*
G37*
G36*
X24697634Y10110913D02*
G01*
X24131948Y9545228D01*
X23601618Y10075558D01*
X24167304Y10641243D01*
X24697634Y10110913D01*
G37*
G36*
X25991637Y8816905D02*
G01*
X25425951Y8251220D01*
X25143108Y8534063D01*
X25708794Y9099748D01*
X25991637Y8816905D01*
G37*
G36*
X23519421Y7982518D02*
G01*
X22953736Y7416833D01*
X22388050Y7982518D01*
X22953736Y8548203D01*
X23519421Y7982518D01*
G37*
G36*
X22133494Y9368450D02*
G01*
X21567809Y8802764D01*
X21143545Y9227028D01*
X21709230Y9792714D01*
X22133494Y9368450D01*
G37*
G36*
X21391034Y10110913D02*
G01*
X20825348Y9545228D01*
X20295018Y10075558D01*
X20860704Y10641243D01*
X21391034Y10110913D01*
G37*
G36*
X22685037Y8816905D02*
G01*
X22119351Y8251220D01*
X21836508Y8534063D01*
X22402194Y9099748D01*
X22685037Y8816905D01*
G37*
G36*
X20213221Y7982518D02*
G01*
X19647536Y7416833D01*
X19081850Y7982518D01*
X19647536Y8548203D01*
X20213221Y7982518D01*
G37*
G36*
X18827294Y9368450D02*
G01*
X18261609Y8802764D01*
X17837345Y9227028D01*
X18403030Y9792714D01*
X18827294Y9368450D01*
G37*
G36*
X18084834Y10110913D02*
G01*
X17519148Y9545228D01*
X16988818Y10075558D01*
X17554504Y10641243D01*
X18084834Y10110913D01*
G37*
G36*
X19378837Y8816905D02*
G01*
X18813151Y8251220D01*
X18530308Y8534063D01*
X19095994Y9099748D01*
X19378837Y8816905D01*
G37*
G36*
X16906821Y7982518D02*
G01*
X16341136Y7416833D01*
X15775450Y7982518D01*
X16341136Y8548203D01*
X16906821Y7982518D01*
G37*
G36*
X15520894Y9368450D02*
G01*
X14955209Y8802764D01*
X14530945Y9227028D01*
X15096630Y9792714D01*
X15520894Y9368450D01*
G37*
G36*
X14778434Y10110913D02*
G01*
X14212748Y9545228D01*
X13682418Y10075558D01*
X14248104Y10641243D01*
X14778434Y10110913D01*
G37*
G36*
X16072437Y8816905D02*
G01*
X15506751Y8251220D01*
X15223908Y8534063D01*
X15789594Y9099748D01*
X16072437Y8816905D01*
G37*
G36*
X40051421Y11315218D02*
G01*
X39485736Y10749533D01*
X38920050Y11315218D01*
X39485736Y11880903D01*
X40051421Y11315218D01*
G37*
G36*
X38665494Y12701150D02*
G01*
X38099809Y12135464D01*
X37675545Y12559728D01*
X38241230Y13125414D01*
X38665494Y12701150D01*
G37*
G36*
X37923034Y13443613D02*
G01*
X37357348Y12877928D01*
X36827018Y13408258D01*
X37392704Y13973943D01*
X37923034Y13443613D01*
G37*
G36*
X39217037Y12149605D02*
G01*
X38651351Y11583920D01*
X38368508Y11866763D01*
X38934194Y12432448D01*
X39217037Y12149605D01*
G37*
G36*
X36744821Y11315218D02*
G01*
X36179136Y10749533D01*
X35613450Y11315218D01*
X36179136Y11880903D01*
X36744821Y11315218D01*
G37*
G36*
X35358894Y12701150D02*
G01*
X34793209Y12135464D01*
X34368945Y12559728D01*
X34934630Y13125414D01*
X35358894Y12701150D01*
G37*
G36*
X34616434Y13443613D02*
G01*
X34050748Y12877928D01*
X33520418Y13408258D01*
X34086104Y13973943D01*
X34616434Y13443613D01*
G37*
G36*
X35910437Y12149605D02*
G01*
X35344751Y11583920D01*
X35061908Y11866763D01*
X35627594Y12432448D01*
X35910437Y12149605D01*
G37*
G36*
X33438521Y11315218D02*
G01*
X32872836Y10749533D01*
X32307150Y11315218D01*
X32872836Y11880903D01*
X33438521Y11315218D01*
G37*
G36*
X32052594Y12701150D02*
G01*
X31486909Y12135464D01*
X31062645Y12559728D01*
X31628330Y13125414D01*
X32052594Y12701150D01*
G37*
G36*
X31310134Y13443613D02*
G01*
X30744448Y12877928D01*
X30214118Y13408258D01*
X30779804Y13973943D01*
X31310134Y13443613D01*
G37*
G36*
X32604137Y12149605D02*
G01*
X32038451Y11583920D01*
X31755608Y11866763D01*
X32321294Y12432448D01*
X32604137Y12149605D01*
G37*
G36*
X30132121Y11315218D02*
G01*
X29566436Y10749533D01*
X29000750Y11315218D01*
X29566436Y11880903D01*
X30132121Y11315218D01*
G37*
G36*
X28746194Y12701150D02*
G01*
X28180509Y12135464D01*
X27756245Y12559728D01*
X28321930Y13125414D01*
X28746194Y12701150D01*
G37*
G36*
X28003734Y13443613D02*
G01*
X27438048Y12877928D01*
X26907718Y13408258D01*
X27473404Y13973943D01*
X28003734Y13443613D01*
G37*
G36*
X29297737Y12149605D02*
G01*
X28732051Y11583920D01*
X28449208Y11866763D01*
X29014894Y12432448D01*
X29297737Y12149605D01*
G37*
G36*
X26826021Y11315218D02*
G01*
X26260336Y10749533D01*
X25694650Y11315218D01*
X26260336Y11880903D01*
X26826021Y11315218D01*
G37*
G36*
X25440094Y12701150D02*
G01*
X24874409Y12135464D01*
X24450145Y12559728D01*
X25015830Y13125414D01*
X25440094Y12701150D01*
G37*
G36*
X24697634Y13443613D02*
G01*
X24131948Y12877928D01*
X23601618Y13408258D01*
X24167304Y13973943D01*
X24697634Y13443613D01*
G37*
G36*
X25991637Y12149605D02*
G01*
X25425951Y11583920D01*
X25143108Y11866763D01*
X25708794Y12432448D01*
X25991637Y12149605D01*
G37*
G36*
X23519421Y11315218D02*
G01*
X22953736Y10749533D01*
X22388050Y11315218D01*
X22953736Y11880903D01*
X23519421Y11315218D01*
G37*
G36*
X22133494Y12701150D02*
G01*
X21567809Y12135464D01*
X21143545Y12559728D01*
X21709230Y13125414D01*
X22133494Y12701150D01*
G37*
G36*
X21391034Y13443613D02*
G01*
X20825348Y12877928D01*
X20295018Y13408258D01*
X20860704Y13973943D01*
X21391034Y13443613D01*
G37*
G36*
X22685037Y12149605D02*
G01*
X22119351Y11583920D01*
X21836508Y11866763D01*
X22402194Y12432448D01*
X22685037Y12149605D01*
G37*
G36*
X20213221Y11315218D02*
G01*
X19647536Y10749533D01*
X19081850Y11315218D01*
X19647536Y11880903D01*
X20213221Y11315218D01*
G37*
G36*
X18827294Y12701150D02*
G01*
X18261609Y12135464D01*
X17837345Y12559728D01*
X18403030Y13125414D01*
X18827294Y12701150D01*
G37*
G36*
X18084834Y13443613D02*
G01*
X17519148Y12877928D01*
X16988818Y13408258D01*
X17554504Y13973943D01*
X18084834Y13443613D01*
G37*
G36*
X19378837Y12149605D02*
G01*
X18813151Y11583920D01*
X18530308Y11866763D01*
X19095994Y12432448D01*
X19378837Y12149605D01*
G37*
G36*
X16906821Y11315218D02*
G01*
X16341136Y10749533D01*
X15775450Y11315218D01*
X16341136Y11880903D01*
X16906821Y11315218D01*
G37*
G36*
X15520894Y12701150D02*
G01*
X14955209Y12135464D01*
X14530945Y12559728D01*
X15096630Y13125414D01*
X15520894Y12701150D01*
G37*
G36*
X14778434Y13443613D02*
G01*
X14212748Y12877928D01*
X13682418Y13408258D01*
X14248104Y13973943D01*
X14778434Y13443613D01*
G37*
G36*
X16072437Y12149605D02*
G01*
X15506751Y11583920D01*
X15223908Y11866763D01*
X15789594Y12432448D01*
X16072437Y12149605D01*
G37*
%TD*%
M02*
