M48
; DRILL file {KiCad 7.0.11-7.0.11~ubuntu20.04.1} date Thu Aug 15 16:12:26 2024
; FORMAT={-:-/ absolute / metric / decimal}
; #@! TF.CreationDate,2024-08-15T16:12:26+00:00
; #@! TF.GenerationSoftware,Kicad,Pcbnew,7.0.11-7.0.11~ubuntu20.04.1
; #@! TF.FileFunction,MixedPlating,1,2
FMAT,2
METRIC
; #@! TA.AperFunction,Plated,PTH,ComponentDrill
T1C0.300
; #@! TA.AperFunction,Plated,PTH,ComponentDrill
T2C0.600
; #@! TA.AperFunction,Plated,PTH,ComponentDrill
T3C1.000
; #@! TA.AperFunction,NonPlated,NPTH,ComponentDrill
T4C0.700
%
G90
G05
T1
X-1.119Y-15.755
X3.004Y-14.622
X3.006Y-15.64
X10.152Y-6.898
X11.178Y-9.778
X11.543Y17.273
X11.543Y15.951
X11.543Y10.729
X11.543Y9.298
X13.932Y-13.863
X13.932Y-16.366
X16.664Y23.356
X17.537Y22.411
X19.648Y23.284
X20.015Y22.171
X22.49Y7.115
X25.69Y-15.305
X25.96Y-17.587
X27.09Y-18.264
X28.949Y-20.76
X30.21Y-17.163
X30.826Y-14.201
X31.71Y-8.76
X32.17Y-13.651
X32.2Y3.01
X32.21Y-12.76
X32.417Y13.785
X32.419Y20.534
X32.912Y-21.72
X33.21Y-12.303
X33.44Y-14.201
X35.01Y-13.201
X39.201Y13.426
X39.359Y6.725
X39.485Y20.479
X40.484Y7.983
X40.516Y21.478
X40.517Y14.636
T3
X-40.912Y-18.688
X-40.912Y-16.148
X-40.912Y-13.608
X-40.912Y-11.068
T4
X29.57Y-20.58
X35.35Y-20.58
T2
G00X28.14Y-19.68
M15
G01X28.14Y-20.48
M16
G05
G00X28.14Y-23.86
M15
G01X28.14Y-24.66
M16
G05
G00X36.78Y-19.68
M15
G01X36.78Y-20.48
M16
G05
G00X36.78Y-23.86
M15
G01X36.78Y-24.66
M16
G05
M30
