%TF.GenerationSoftware,Flux,Pcbnew,7.0.11-7.0.11~ubuntu20.04.1*%
%TF.CreationDate,2024-08-15T16:12:26+00:00*%
%TF.ProjectId,input,696e7075-742e-46b6-9963-61645f706362,rev?*%
%TF.SameCoordinates,Original*%
%TF.FileFunction,Paste,Top*%
%TF.FilePolarity,Positive*%
%FSLAX46Y46*%
G04 Gerber Fmt 4.6, Leading zero omitted, Abs format (unit mm)*
G04 Filename: businesscardpcb*
G04 Build it with Flux! Visit our site at: https://www.flux.ai (PCBNEW 7.0.11-7.0.11~ubuntu20.04.1) date 2024-08-15 16:12:26*
%MOMM*%
%LPD*%
G01*
G04 APERTURE LIST*
G04 Aperture macros list*
%AMFreePoly0*
4,1,5,0.200000,-0.400000,-0.200000,-0.400000,-0.200000,0.400000,0.200000,0.400000,0.200000,-0.400000,0.200000,-0.400000,$1*%
%AMFreePoly1*
4,1,5,0.375000,-0.400000,-0.375000,-0.400000,-0.375000,0.400000,0.375000,0.400000,0.375000,-0.400000,0.375000,-0.400000,$1*%
%AMFreePoly2*
4,1,5,0.300000,-0.400000,-0.300000,-0.400000,-0.300000,0.400000,0.300000,0.400000,0.300000,-0.400000,0.300000,-0.400000,$1*%
%AMFreePoly3*
4,1,5,0.400000,-0.400000,-0.400000,-0.400000,-0.400000,0.400000,0.400000,0.400000,0.400000,-0.400000,0.400000,-0.400000,$1*%
%AMFreePoly4*
4,1,101,0.333457,0.474848,0.338093,0.474391,0.342690,0.473632,0.347228,0.472574,0.351686,0.471221,0.356047,0.469580,0.360291,0.467657,0.364400,0.465461,0.368357,0.463001,0.372144,0.460287,0.375745,0.457331,0.379146,0.454146,0.382331,0.450745,0.385287,0.447144,0.388001,0.443357,0.390461,0.439400,0.392657,0.435291,0.394580,0.431047,0.396221,0.426686,0.397574,0.422228,
0.398632,0.417690,0.399391,0.413093,0.399848,0.408457,0.400000,0.403800,0.400000,-0.403800,0.399848,-0.408457,0.399391,-0.413093,0.398632,-0.417690,0.397574,-0.422228,0.396221,-0.426686,0.394580,-0.431047,0.392657,-0.435291,0.390461,-0.439400,0.388001,-0.443357,0.385287,-0.447144,0.382331,-0.450745,0.379146,-0.454146,0.375745,-0.457331,0.372144,-0.460287,0.368357,-0.463001,
0.364400,-0.465461,0.360291,-0.467657,0.356047,-0.469580,0.351686,-0.471221,0.347228,-0.472574,0.342690,-0.473632,0.338093,-0.474391,0.333457,-0.474848,0.328800,-0.475000,-0.328800,-0.475000,-0.333457,-0.474848,-0.338093,-0.474391,-0.342690,-0.473632,-0.347228,-0.472574,-0.351686,-0.471221,-0.356047,-0.469580,-0.360291,-0.467657,-0.364400,-0.465461,-0.368357,-0.463001,-0.372144,-0.460287,
-0.375745,-0.457331,-0.379146,-0.454146,-0.382331,-0.450745,-0.385287,-0.447144,-0.388001,-0.443357,-0.390461,-0.439400,-0.392657,-0.435291,-0.394580,-0.431047,-0.396221,-0.426686,-0.397574,-0.422228,-0.398632,-0.417690,-0.399391,-0.413093,-0.399848,-0.408457,-0.400000,-0.403800,-0.400000,0.403800,-0.399848,0.408457,-0.399391,0.413093,-0.398632,0.417690,-0.397574,0.422228,-0.396221,0.426686,
-0.394580,0.431047,-0.392657,0.435291,-0.390461,0.439400,-0.388001,0.443357,-0.385287,0.447144,-0.382331,0.450745,-0.379146,0.454146,-0.375745,0.457331,-0.372144,0.460287,-0.368357,0.463001,-0.364400,0.465461,-0.360291,0.467657,-0.356047,0.469580,-0.351686,0.471221,-0.347228,0.472574,-0.342690,0.473632,-0.338093,0.474391,-0.333457,0.474848,-0.328800,0.475000,0.328800,0.475000,
0.333457,0.474848,0.333457,0.474848,$1*%
%AMFreePoly5*
4,1,101,0.383457,0.474848,0.388093,0.474391,0.392690,0.473632,0.397228,0.472574,0.401686,0.471221,0.406047,0.469580,0.410291,0.467657,0.414400,0.465461,0.418357,0.463001,0.422144,0.460287,0.425745,0.457331,0.429146,0.454146,0.432331,0.450745,0.435287,0.447144,0.438001,0.443357,0.440461,0.439400,0.442657,0.435291,0.444580,0.431047,0.446221,0.426686,0.447574,0.422228,
0.448632,0.417690,0.449391,0.413093,0.449848,0.408457,0.450000,0.403800,0.450000,-0.403800,0.449848,-0.408457,0.449391,-0.413093,0.448632,-0.417690,0.447574,-0.422228,0.446221,-0.426686,0.444580,-0.431047,0.442657,-0.435291,0.440461,-0.439400,0.438001,-0.443357,0.435287,-0.447144,0.432331,-0.450745,0.429146,-0.454146,0.425745,-0.457331,0.422144,-0.460287,0.418357,-0.463001,
0.414400,-0.465461,0.410291,-0.467657,0.406047,-0.469580,0.401686,-0.471221,0.397228,-0.472574,0.392690,-0.473632,0.388093,-0.474391,0.383457,-0.474848,0.378800,-0.475000,-0.378800,-0.475000,-0.383457,-0.474848,-0.388093,-0.474391,-0.392690,-0.473632,-0.397228,-0.472574,-0.401686,-0.471221,-0.406047,-0.469580,-0.410291,-0.467657,-0.414400,-0.465461,-0.418357,-0.463001,-0.422144,-0.460287,
-0.425745,-0.457331,-0.429146,-0.454146,-0.432331,-0.450745,-0.435287,-0.447144,-0.438001,-0.443357,-0.440461,-0.439400,-0.442657,-0.435291,-0.444580,-0.431047,-0.446221,-0.426686,-0.447574,-0.422228,-0.448632,-0.417690,-0.449391,-0.413093,-0.449848,-0.408457,-0.450000,-0.403800,-0.450000,0.403800,-0.449848,0.408457,-0.449391,0.413093,-0.448632,0.417690,-0.447574,0.422228,-0.446221,0.426686,
-0.444580,0.431047,-0.442657,0.435291,-0.440461,0.439400,-0.438001,0.443357,-0.435287,0.447144,-0.432331,0.450745,-0.429146,0.454146,-0.425745,0.457331,-0.422144,0.460287,-0.418357,0.463001,-0.414400,0.465461,-0.410291,0.467657,-0.406047,0.469580,-0.401686,0.471221,-0.397228,0.472574,-0.392690,0.473632,-0.388093,0.474391,-0.383457,0.474848,-0.378800,0.475000,0.378800,0.475000,
0.383457,0.474848,0.383457,0.474848,$1*%
%AMFreePoly6*
4,1,5,0.150000,-0.575000,-0.150000,-0.575000,-0.150000,0.575000,0.150000,0.575000,0.150000,-0.575000,0.150000,-0.575000,$1*%
%AMFreePoly7*
4,1,5,0.975000,-0.300000,-0.975000,-0.300000,-0.975000,0.300000,0.975000,0.300000,0.975000,-0.300000,0.975000,-0.300000,$1*%
%AMFreePoly8*
4,1,5,1.000000,-0.750000,-1.000000,-0.750000,-1.000000,0.750000,1.000000,0.750000,1.000000,-0.750000,1.000000,-0.750000,$1*%
%AMFreePoly9*
4,1,5,1.000000,-1.900000,-1.000000,-1.900000,-1.000000,1.900000,1.000000,1.900000,1.000000,-1.900000,1.000000,-1.900000,$1*%
%AMFreePoly10*
4,1,101,0.838362,0.299687,0.847883,0.298749,0.857322,0.297191,0.866639,0.295018,0.875794,0.292241,0.884748,0.288871,0.893463,0.284923,0.901900,0.280413,0.910024,0.275361,0.917801,0.269788,0.925196,0.263719,0.932179,0.257179,0.938719,0.250196,0.944788,0.242801,0.950361,0.235024,0.955413,0.226900,0.959923,0.218463,0.963871,0.209748,0.967241,0.200794,0.970018,0.191639,
0.972191,0.182322,0.973749,0.172883,0.974687,0.163362,0.975000,0.153800,0.975000,-0.153800,0.974687,-0.163362,0.973749,-0.172883,0.972191,-0.182322,0.970018,-0.191639,0.967241,-0.200794,0.963871,-0.209748,0.959923,-0.218463,0.955413,-0.226900,0.950361,-0.235024,0.944788,-0.242801,0.938719,-0.250196,0.932179,-0.257179,0.925196,-0.263719,0.917801,-0.269788,0.910024,-0.275361,
0.901900,-0.280413,0.893463,-0.284923,0.884748,-0.288871,0.875794,-0.292241,0.866639,-0.295018,0.857322,-0.297191,0.847883,-0.298749,0.838362,-0.299687,0.828800,-0.300000,-0.828800,-0.300000,-0.838362,-0.299687,-0.847883,-0.298749,-0.857322,-0.297191,-0.866639,-0.295018,-0.875794,-0.292241,-0.884748,-0.288871,-0.893463,-0.284923,-0.901900,-0.280413,-0.910024,-0.275361,-0.917801,-0.269788,
-0.925196,-0.263719,-0.932179,-0.257179,-0.938719,-0.250196,-0.944788,-0.242801,-0.950361,-0.235024,-0.955413,-0.226900,-0.959923,-0.218463,-0.963871,-0.209748,-0.967241,-0.200794,-0.970018,-0.191639,-0.972191,-0.182322,-0.973749,-0.172883,-0.974687,-0.163362,-0.975000,-0.153800,-0.975000,0.153800,-0.974687,0.163362,-0.973749,0.172883,-0.972191,0.182322,-0.970018,0.191639,-0.967241,0.200794,
-0.963871,0.209748,-0.959923,0.218463,-0.955413,0.226900,-0.950361,0.235024,-0.944788,0.242801,-0.938719,0.250196,-0.932179,0.257179,-0.925196,0.263719,-0.917801,0.269788,-0.910024,0.275361,-0.901900,0.280413,-0.893463,0.284923,-0.884748,0.288871,-0.875794,0.292241,-0.866639,0.295018,-0.857322,0.297191,-0.847883,0.298749,-0.838362,0.299687,-0.828800,0.300000,0.828800,0.300000,
0.838362,0.299687,0.838362,0.299687,$1*%
%AMFreePoly11*
4,1,65,0.239569,0.309602,0.242572,0.309107,0.248447,0.307532,0.251295,0.306460,0.256750,0.303770,0.259334,0.302163,0.264160,0.298461,0.268461,0.294160,0.272163,0.289334,0.273770,0.286750,0.276460,0.281295,0.277532,0.278447,0.279107,0.272572,0.279602,0.269569,0.280000,0.263500,0.280000,-0.263500,0.279602,-0.269569,0.279107,-0.272572,0.277532,-0.278447,0.276460,-0.281295,
0.273770,-0.286750,0.272163,-0.289334,0.268461,-0.294160,0.264160,-0.298461,0.259334,-0.302163,0.256750,-0.303770,0.251295,-0.306460,0.248447,-0.307532,0.242572,-0.309107,0.239569,-0.309602,0.233500,-0.310000,-0.233500,-0.310000,-0.239569,-0.309602,-0.242572,-0.309107,-0.248447,-0.307532,-0.251295,-0.306460,-0.256750,-0.303770,-0.259334,-0.302163,-0.264160,-0.298461,-0.268461,-0.294160,
-0.272163,-0.289334,-0.273770,-0.286750,-0.276460,-0.281295,-0.277532,-0.278447,-0.279107,-0.272572,-0.279602,-0.269569,-0.280000,-0.263500,-0.280000,0.263500,-0.279602,0.269569,-0.279107,0.272572,-0.277532,0.278447,-0.276460,0.281295,-0.273770,0.286750,-0.272163,0.289334,-0.268461,0.294160,-0.264160,0.298461,-0.259334,0.302163,-0.256750,0.303770,-0.251295,0.306460,-0.248447,0.307532,
-0.242572,0.309107,-0.239569,0.309602,-0.233500,0.310000,0.233500,0.310000,0.239569,0.309602,0.239569,0.309602,$1*%
%AMFreePoly12*
4,1,101,0.370957,0.474848,0.375593,0.474391,0.380190,0.473632,0.384728,0.472574,0.389186,0.471221,0.393547,0.469580,0.397791,0.467657,0.401900,0.465461,0.405857,0.463001,0.409644,0.460287,0.413245,0.457331,0.416646,0.454146,0.419831,0.450745,0.422787,0.447144,0.425501,0.443357,0.427961,0.439400,0.430157,0.435291,0.432080,0.431047,0.433721,0.426686,0.435074,0.422228,
0.436132,0.417690,0.436891,0.413093,0.437348,0.408457,0.437500,0.403800,0.437500,-0.403800,0.437348,-0.408457,0.436891,-0.413093,0.436132,-0.417690,0.435074,-0.422228,0.433721,-0.426686,0.432080,-0.431047,0.430157,-0.435291,0.427961,-0.439400,0.425501,-0.443357,0.422787,-0.447144,0.419831,-0.450745,0.416646,-0.454146,0.413245,-0.457331,0.409644,-0.460287,0.405857,-0.463001,
0.401900,-0.465461,0.397791,-0.467657,0.393547,-0.469580,0.389186,-0.471221,0.384728,-0.472574,0.380190,-0.473632,0.375593,-0.474391,0.370957,-0.474848,0.366300,-0.475000,-0.366300,-0.475000,-0.370957,-0.474848,-0.375593,-0.474391,-0.380190,-0.473632,-0.384728,-0.472574,-0.389186,-0.471221,-0.393547,-0.469580,-0.397791,-0.467657,-0.401900,-0.465461,-0.405857,-0.463001,-0.409644,-0.460287,
-0.413245,-0.457331,-0.416646,-0.454146,-0.419831,-0.450745,-0.422787,-0.447144,-0.425501,-0.443357,-0.427961,-0.439400,-0.430157,-0.435291,-0.432080,-0.431047,-0.433721,-0.426686,-0.435074,-0.422228,-0.436132,-0.417690,-0.436891,-0.413093,-0.437348,-0.408457,-0.437500,-0.403800,-0.437500,0.403800,-0.437348,0.408457,-0.436891,0.413093,-0.436132,0.417690,-0.435074,0.422228,-0.433721,0.426686,
-0.432080,0.431047,-0.430157,0.435291,-0.427961,0.439400,-0.425501,0.443357,-0.422787,0.447144,-0.419831,0.450745,-0.416646,0.454146,-0.413245,0.457331,-0.409644,0.460287,-0.405857,0.463001,-0.401900,0.465461,-0.397791,0.467657,-0.393547,0.469580,-0.389186,0.471221,-0.384728,0.472574,-0.380190,0.473632,-0.375593,0.474391,-0.370957,0.474848,-0.366300,0.475000,0.366300,0.475000,
0.370957,0.474848,0.370957,0.474848,$1*%
G04 Aperture macros list end*
%ADD10FreePoly0,315.000000*%
%ADD11FreePoly1,315.000000*%
%ADD12FreePoly2,315.000000*%
%ADD13FreePoly3,315.000000*%
%ADD14C,0.300000*%
%ADD15FreePoly4,0.000000*%
%ADD16FreePoly5,90.000000*%
%ADD17FreePoly6,0.000000*%
%ADD18FreePoly7,270.000000*%
%ADD19FreePoly8,90.000000*%
%ADD20FreePoly9,90.000000*%
%ADD21FreePoly10,0.000000*%
%ADD22FreePoly11,90.000000*%
%ADD23FreePoly12,180.000000*%
G04 APERTURE END LIST*
D10*
%TO.C,*%
X25567172Y18668084D03*
D11*
X24149426Y20085836D03*
D12*
X24944920Y19290339D03*
D13*
X26260136Y17975118D03*
D14*
X3688359Y-15659123D03*
X3688356Y-14878123D03*
D15*
X8861100Y-8273500D03*
X7211100Y-8273500D03*
D10*
X22260772Y18668084D03*
D11*
X20843026Y20085836D03*
D12*
X21638520Y19290339D03*
D13*
X22953736Y17975118D03*
D10*
X28873472Y22170684D03*
D11*
X27455726Y23588436D03*
D12*
X28251220Y22792939D03*
D13*
X29566436Y21477718D03*
D10*
X28873472Y18668084D03*
D11*
X27455726Y20085836D03*
D12*
X28251220Y19290339D03*
D13*
X29566436Y17975118D03*
D16*
X10152103Y-9790500D03*
X10152097Y-8240500D03*
D10*
X38792572Y18668084D03*
D11*
X37374826Y20085836D03*
D12*
X38170320Y19290339D03*
D13*
X39485536Y17975118D03*
D10*
X35486172Y22170684D03*
D11*
X34068426Y23588436D03*
D12*
X34863920Y22792939D03*
D13*
X36179136Y21477718D03*
D10*
X22260772Y15328584D03*
D11*
X20843026Y16746336D03*
D12*
X21638520Y15950839D03*
D13*
X22953736Y14635618D03*
D10*
X32179872Y18668084D03*
D11*
X30762126Y20085836D03*
D12*
X31557620Y19290339D03*
D13*
X32872836Y17975118D03*
D10*
X22260772Y22170684D03*
D11*
X20843026Y23588436D03*
D12*
X21638520Y22792939D03*
D13*
X22953736Y21477718D03*
D10*
X25567172Y22170684D03*
D11*
X24149426Y23588436D03*
D12*
X24944920Y22792939D03*
D13*
X26260136Y21477718D03*
D10*
X25567172Y15328584D03*
D11*
X24149426Y16746336D03*
D12*
X24944920Y15950839D03*
D13*
X26260136Y14635618D03*
D10*
X15648074Y22170686D03*
D11*
X14230321Y23588431D03*
D12*
X15025819Y22792938D03*
D13*
X16341041Y21477723D03*
D17*
X30710200Y-19504600D03*
X29110200Y-19504600D03*
X29910200Y-19504600D03*
X35810200Y-19504600D03*
X35010200Y-19504600D03*
X31710200Y-19504600D03*
X35510200Y-19504600D03*
X29410200Y-19504600D03*
X32710200Y-19504600D03*
X31210200Y-19504600D03*
X30210200Y-19504600D03*
X33210200Y-19504600D03*
X34710200Y-19504600D03*
X32210200Y-19504600D03*
X33710200Y-19504600D03*
X34210200Y-19504600D03*
D18*
X34710197Y-10759597D03*
X27090203Y-15709605D03*
X33440197Y-10759598D03*
X30900197Y-10759601D03*
X34710203Y-15709597D03*
X35980203Y-15709595D03*
X27090197Y-10759605D03*
X35980197Y-10759595D03*
X32170203Y-15709599D03*
X28360197Y-10759603D03*
X32170197Y-10759599D03*
X33440203Y-15709598D03*
X28360203Y-15709603D03*
X29630203Y-15709602D03*
X29630197Y-10759602D03*
X30900203Y-15709601D03*
D19*
X20005212Y-25059600D03*
X22305212Y-25059592D03*
X17705212Y-25059608D03*
D20*
X20005188Y-18759600D03*
D10*
X32179872Y15328584D03*
D11*
X30762126Y16746336D03*
D12*
X31557620Y15950839D03*
D13*
X32872836Y14635618D03*
D10*
X18954472Y18668084D03*
D11*
X17536726Y20085836D03*
D12*
X18332220Y19290339D03*
D13*
X19647436Y17975118D03*
D10*
X38792572Y22170684D03*
D11*
X37374826Y23588436D03*
D12*
X38170320Y22792939D03*
D13*
X39485536Y21477718D03*
D21*
X12160900Y-17178400D03*
X12160900Y-14638400D03*
X12160900Y-13368400D03*
X7210900Y-14638400D03*
X7210900Y-17178400D03*
X7210900Y-15908400D03*
X12160900Y-15908400D03*
X7210900Y-13368400D03*
D10*
X15648072Y15328584D03*
D11*
X14230326Y16746336D03*
D12*
X15025820Y15950839D03*
D13*
X16341036Y14635618D03*
D10*
X38792572Y15328584D03*
D11*
X37374826Y16746336D03*
D12*
X38170320Y15950839D03*
D13*
X39485536Y14635618D03*
D10*
X18954472Y15328584D03*
D11*
X17536726Y16746336D03*
D12*
X18332220Y15950839D03*
D13*
X19647436Y14635618D03*
D10*
X35486172Y18668084D03*
D11*
X34068426Y20085836D03*
D12*
X34863920Y19290339D03*
D13*
X36179136Y17975118D03*
D22*
X5155002Y-15730500D03*
X5154998Y-14770500D03*
D10*
X32179872Y22170684D03*
D11*
X30762126Y23588436D03*
D12*
X31557620Y22792939D03*
D13*
X32872836Y21477718D03*
D10*
X15648072Y18668084D03*
D11*
X14230326Y20085836D03*
D12*
X15025820Y19290339D03*
D13*
X16341036Y17975118D03*
D10*
X35486172Y15328584D03*
D11*
X34068426Y16746336D03*
D12*
X34863920Y15950839D03*
D13*
X36179136Y14635618D03*
D10*
X28873472Y15328584D03*
D11*
X27455726Y16746336D03*
D12*
X28251220Y15950839D03*
D13*
X29566436Y14635618D03*
D23*
X8842200Y-9778802D03*
X7267200Y-9778798D03*
D10*
X18954472Y22170684D03*
D11*
X17536726Y23588436D03*
D12*
X18332220Y22792939D03*
D13*
X19647436Y21477718D03*
X39485536Y4614618D03*
D12*
X38170320Y5929839D03*
D11*
X37374826Y6725336D03*
D10*
X38792572Y5307584D03*
D13*
X36179136Y4614618D03*
D12*
X34863920Y5929839D03*
D11*
X34068426Y6725336D03*
D10*
X35486172Y5307584D03*
D13*
X32872836Y4614618D03*
D12*
X31557620Y5929839D03*
D11*
X30762126Y6725336D03*
D10*
X32179872Y5307584D03*
D13*
X29566436Y4614618D03*
D12*
X28251220Y5929839D03*
D11*
X27455726Y6725336D03*
D10*
X28873472Y5307584D03*
D13*
X26260336Y4614618D03*
D12*
X24945120Y5929839D03*
D11*
X24149626Y6725336D03*
D10*
X25567372Y5307584D03*
D13*
X22953736Y4614618D03*
D12*
X21638520Y5929839D03*
D11*
X20843026Y6725336D03*
D10*
X22260772Y5307584D03*
D13*
X19647436Y4614618D03*
D12*
X18332220Y5929839D03*
D11*
X17536726Y6725336D03*
D10*
X18954472Y5307584D03*
D13*
X16341136Y4614618D03*
D12*
X15025920Y5929839D03*
D11*
X14230426Y6725336D03*
D10*
X15648172Y5307584D03*
D13*
X39485536Y7982518D03*
D12*
X38170320Y9297739D03*
D11*
X37374826Y10093236D03*
D10*
X38792572Y8675484D03*
D13*
X36179136Y7982518D03*
D12*
X34863920Y9297739D03*
D11*
X34068426Y10093236D03*
D10*
X35486172Y8675484D03*
D13*
X32872836Y7982518D03*
D12*
X31557620Y9297739D03*
D11*
X30762126Y10093236D03*
D10*
X32179872Y8675484D03*
D13*
X29566436Y7982518D03*
D12*
X28251220Y9297739D03*
D11*
X27455726Y10093236D03*
D10*
X28873472Y8675484D03*
D13*
X26260336Y7982518D03*
D12*
X24945120Y9297739D03*
D11*
X24149626Y10093236D03*
D10*
X25567372Y8675484D03*
D13*
X22953736Y7982518D03*
D12*
X21638520Y9297739D03*
D11*
X20843026Y10093236D03*
D10*
X22260772Y8675484D03*
D13*
X19647536Y7982518D03*
D12*
X18332320Y9297739D03*
D11*
X17536826Y10093236D03*
D10*
X18954572Y8675484D03*
D13*
X16341136Y7982518D03*
D12*
X15025920Y9297739D03*
D11*
X14230426Y10093236D03*
D10*
X15648172Y8675484D03*
D13*
X39485736Y11315218D03*
D12*
X38170520Y12630439D03*
D11*
X37375026Y13425936D03*
D10*
X38792772Y12008184D03*
D13*
X36179136Y11315218D03*
D12*
X34863920Y12630439D03*
D11*
X34068426Y13425936D03*
D10*
X35486172Y12008184D03*
D13*
X32872836Y11315218D03*
D12*
X31557620Y12630439D03*
D11*
X30762126Y13425936D03*
D10*
X32179872Y12008184D03*
D13*
X29566436Y11315218D03*
D12*
X28251220Y12630439D03*
D11*
X27455726Y13425936D03*
D10*
X28873472Y12008184D03*
D13*
X26260336Y11315218D03*
D12*
X24945120Y12630439D03*
D11*
X24149626Y13425936D03*
D10*
X25567372Y12008184D03*
D13*
X22953736Y11315218D03*
D12*
X21638520Y12630439D03*
D11*
X20843026Y13425936D03*
D10*
X22260772Y12008184D03*
D13*
X19647536Y11315218D03*
D12*
X18332320Y12630439D03*
D11*
X17536826Y13425936D03*
D10*
X18954572Y12008184D03*
D13*
X16341136Y11315218D03*
D12*
X15025920Y12630439D03*
D11*
X14230426Y13425936D03*
D10*
X15648172Y12008184D03*
%TD*%
M02*
