%TF.GenerationSoftware,Flux,Pcbnew,7.0.11-7.0.11~ubuntu20.04.1*%
%TF.CreationDate,2024-08-15T16:12:26+00:00*%
%TF.ProjectId,input,696e7075-742e-46b6-9963-61645f706362,rev?*%
%TF.SameCoordinates,Original*%
%TF.FileFunction,Copper,L2,Bot*%
%TF.FilePolarity,Positive*%
%FSLAX46Y46*%
G04 Gerber Fmt 4.6, Leading zero omitted, Abs format (unit mm)*
G04 Filename: businesscardpcb*
G04 Build it with Flux! Visit our site at: https://www.flux.ai (PCBNEW 7.0.11-7.0.11~ubuntu20.04.1) date 2024-08-15 16:12:26*
%MOMM*%
%LPD*%
G01*
G04 APERTURE LIST*
G04 Aperture macros list*
%AMFreePoly0*
4,1,5,0.075000,-0.075000,-0.075000,-0.075000,-0.075000,0.075000,0.075000,0.075000,0.075000,-0.075000,0.075000,-0.075000,$1*%
%AMFreePoly1*
4,1,129,0.022069,0.299187,0.036723,0.297744,0.051289,0.295583,0.065730,0.292711,0.080014,0.289133,0.094105,0.284858,0.107969,0.279898,0.121572,0.274263,0.134883,0.267967,0.147869,0.261026,0.160499,0.253456,0.172742,0.245275,0.184569,0.236504,0.195952,0.227163,0.206862,0.217274,0.217274,0.206862,0.227163,0.195952,0.236504,0.184569,0.245275,0.172742,0.253456,0.160499,
0.261026,0.147869,0.267967,0.134883,0.274263,0.121572,0.279898,0.107969,0.284858,0.094105,0.289133,0.080014,0.292711,0.065730,0.295583,0.051289,0.297744,0.036723,0.299187,0.022069,0.299910,0.007362,0.299910,-0.007362,0.299187,-0.022069,0.297744,-0.036723,0.295583,-0.051289,0.292711,-0.065730,0.289133,-0.080014,0.284858,-0.094105,0.279898,-0.107969,0.274263,-0.121572,
0.267967,-0.134883,0.261026,-0.147869,0.253456,-0.160499,0.245275,-0.172742,0.236504,-0.184569,0.227163,-0.195952,0.217274,-0.206862,0.206862,-0.217274,0.195952,-0.227163,0.184569,-0.236504,0.172742,-0.245275,0.160499,-0.253456,0.147869,-0.261026,0.134883,-0.267967,0.121572,-0.274263,0.107969,-0.279898,0.094105,-0.284858,0.080014,-0.289133,0.065730,-0.292711,0.051289,-0.295583,
0.036723,-0.297744,0.022069,-0.299187,0.007362,-0.299910,-0.007362,-0.299910,-0.022069,-0.299187,-0.036723,-0.297744,-0.051289,-0.295583,-0.065730,-0.292711,-0.080014,-0.289133,-0.094105,-0.284858,-0.107969,-0.279898,-0.121572,-0.274263,-0.134883,-0.267967,-0.147869,-0.261026,-0.160499,-0.253456,-0.172742,-0.245275,-0.184569,-0.236504,-0.195952,-0.227163,-0.206862,-0.217274,-0.217274,-0.206862,
-0.227163,-0.195952,-0.236504,-0.184569,-0.245275,-0.172742,-0.253456,-0.160499,-0.261026,-0.147869,-0.267967,-0.134883,-0.274263,-0.121572,-0.279898,-0.107969,-0.284858,-0.094105,-0.289133,-0.080014,-0.292711,-0.065730,-0.295583,-0.051289,-0.297744,-0.036723,-0.299187,-0.022069,-0.299910,-0.007362,-0.299910,0.007362,-0.299187,0.022069,-0.297744,0.036723,-0.295583,0.051289,-0.292711,0.065730,
-0.289133,0.080014,-0.284858,0.094105,-0.279898,0.107969,-0.274263,0.121572,-0.267967,0.134883,-0.261026,0.147869,-0.253456,0.160499,-0.245275,0.172742,-0.236504,0.184569,-0.227163,0.195952,-0.217274,0.206862,-0.206862,0.217274,-0.195952,0.227163,-0.184569,0.236504,-0.172742,0.245275,-0.160499,0.253456,-0.147869,0.261026,-0.134883,0.267967,-0.121572,0.274263,-0.107969,0.279898,
-0.094105,0.284858,-0.080014,0.289133,-0.065730,0.292711,-0.051289,0.295583,-0.036723,0.297744,-0.022069,0.299187,-0.007362,0.299910,0.007362,0.299910,0.022069,0.299187,0.022069,0.299187,$1*%
%AMFreePoly2*
4,1,5,0.850000,-0.850000,-0.850000,-0.850000,-0.850000,0.850000,0.850000,0.850000,0.850000,-0.850000,0.850000,-0.850000,$1*%
%AMFreePoly3*
4,1,5,1.250000,-0.500000,-1.250000,-0.500000,-1.250000,0.500000,1.250000,0.500000,1.250000,-0.500000,1.250000,-0.500000,$1*%
%AMFreePoly4*
4,1,5,0.500000,-0.900000,-0.500000,-0.900000,-0.500000,0.900000,0.500000,0.900000,0.500000,-0.900000,0.500000,-0.900000,$1*%
G04 Aperture macros list end*
%TA.AperFunction,ComponentPad*%
%ADD10FreePoly0,90.000000*%
%TD*%
%TA.AperFunction,ComponentPad*%
%ADD11FreePoly1,0.000000*%
%TD*%
%TA.AperFunction,ComponentPad*%
%ADD12FreePoly2,180.000000*%
%TD*%
%TA.AperFunction,ComponentPad*%
%ADD13C,1.700000*%
%TD*%
%TA.AperFunction,ComponentPad*%
%ADD14O,1.000000X1.800000*%
%TD*%
%TA.AperFunction,SMDPad,CuDef*%
%ADD15FreePoly3,0.000000*%
%TD*%
%TA.AperFunction,SMDPad,CuDef*%
%ADD16FreePoly4,0.000000*%
%TD*%
%TA.AperFunction,Conductor*%
%ADD17C,0.300000*%
%TD*%
%TA.AperFunction,Conductor*%
%ADD18C,0.150000*%
%TD*%
%TA.AperFunction,Conductor*%
%ADD19C,0.254000*%
%TD*%
G04 APERTURE END LIST*
D10*
%TO.P,,180dcbaf-095f-49bd-8aaf-839e77d25fdc*%
%TO.N,N/C*%
X-15015100Y-7609100D03*
D11*
%TO.P,,0cb6b9ad-ebc6-43ff-9b1d-ceede77acbd0__35d18e86-2e91-4a9c-90fe-8f678583db3f*%
%TO.N,Net (P1)*%
X-1119041Y-15754540D03*
%TO.P,,0cb6b9ad-ebc6-43ff-9b1d-ceede77acbd0__7562f64c-f3a7-45a8-98a7-bb9a1d4f0b9c*%
X3004455Y-14622125D03*
%TO.P,,0cb6b9ad-ebc6-43ff-9b1d-ceede77acbd0__e3c70afb-3045-422a-8aff-639b15b495bd*%
X3005959Y-15639725D03*
D12*
%TO.P,,162c6602-c9b5-47a0-aa90-31c37a0f36df__0992ee89-1032-fd30-2029-3e948a6e6976*%
%TO.N,N/C*%
X-40911800Y-18688300D03*
D13*
%TO.P,,162c6602-c9b5-47a0-aa90-31c37a0f36df__2f66f798-d8f8-3f82-91df-9498ebe19ffc*%
X-40911780Y-11068300D03*
%TO.P,,162c6602-c9b5-47a0-aa90-31c37a0f36df__6d4016d0-e35e-4bce-9ab6-94bc5e267a44*%
X-40911793Y-16148300D03*
%TO.P,,162c6602-c9b5-47a0-aa90-31c37a0f36df__e5de0347-9934-34ad-a4a7-6d6797e315f0*%
X-40911787Y-13608300D03*
D14*
%TO.P,,6bb5b840-847d-48eb-8cc3-ad84b5adc210__1216187b-802c-4d88-b628-cd4cb8afd5f0*%
X28140200Y-24259600D03*
%TO.P,,6bb5b840-847d-48eb-8cc3-ad84b5adc210__2309d7ac-3778-47d2-81fb-4cf827d81296*%
X28140200Y-20079600D03*
%TO.P,,6bb5b840-847d-48eb-8cc3-ad84b5adc210__3bc7a76d-a493-4f31-b6bc-75d950d01dbf*%
X36780200Y-24259600D03*
%TO.P,,6bb5b840-847d-48eb-8cc3-ad84b5adc210__cfdd2419-59b5-4493-b58b-0acbfc5abfb0*%
X36780200Y-20079600D03*
D11*
%TO.P,,b7470a86-e053-4fde-bf33-fa52586dc660*%
%TO.N,Net 32*%
X31710200Y-8759600D03*
%TO.P,,ca01ff70-92dc-4bc6-842a-20e3f26d9989*%
%TO.N,Net 38*%
X33440200Y-14201200D03*
%TO.P,,3fe7f614-2efa-4c99-8997-b36e6bd95d7b*%
X30826000Y-14201200D03*
%TO.P,,c1dc7ce5-b123-4e1e-be23-f018513b3e8c*%
X25690200Y-15305200D03*
%TO.P,,5da64d3f-58a2-4b44-ae71-0fe68e9d8270*%
%TO.N,GND*%
X11178100Y-9778500D03*
%TO.P,,f885c2df-4aa6-42fb-a5b0-7606f634b1b4*%
X30210200Y-17163500D03*
%TO.P,,7e97efc4-a41e-40c1-951d-58ccfa3d9723*%
X10152100Y-6897900D03*
%TO.P,,75500b9e-b52c-41eb-a26e-957cf6b05840*%
X33210200Y-12303500D03*
%TO.P,,395d3ddf-bbbd-465e-bcac-f7260009df9a*%
X35010200Y-13201200D03*
%TO.P,,485b82bc-e816-4b7e-a66f-d1d96d4968ef*%
X28948700Y-20759600D03*
%TO.P,,418ddb3b-4d2a-45d5-b0bd-819437d6a7ef*%
%TO.N,Net 35*%
X27090200Y-18263500D03*
%TO.P,,3bb7479d-d302-4492-b395-c17c9d009d32*%
%TO.N,Net 4*%
X13932000Y-16366300D03*
%TO.P,,edb0ee41-52eb-4894-b3fb-071c736b081d*%
X13931900Y-13863100D03*
%TO.P,,d97d1f4a-be8c-40da-a383-3aee5ddfa777*%
%TO.N,Net 33*%
X32210200Y-12759600D03*
%TO.P,,0c926be7-df7e-4b1b-ac65-cfbe8d8f0457*%
%TO.N,Net (IC1 - VOUT)*%
X40516300Y21477700D03*
%TO.P,,67c3a54d-62dd-42d5-bf03-ca80c369d560*%
X39485500Y20479500D03*
%TO.P,,a5f5784f-8955-4350-bf5e-3118ffbd2859*%
X11543000Y17273500D03*
%TO.P,,aba9440a-b4c2-483d-9d26-a87860df7380*%
X11543000Y15950800D03*
%TO.P,,b494931b-c51a-41b5-8ffd-f54f4069088c*%
%TO.N,Net 34*%
X32170200Y-13651000D03*
%TO.P,,234a51137695998c8cb9b92a49ea6836.via2.5*%
%TO.N,GND*%
X32200000Y3010000D03*
%TO.P,,9cea5f23-0843-451a-8816-9659297572ad*%
%TO.N,Net (IC1 - VOUT)*%
X40516500Y14635600D03*
%TO.P,,17304521-cf86-455d-ab16-7e2f142ae1c3*%
X39201100Y13425900D03*
%TO.P,,0899aad5-c559-41b1-8c46-3e64a83eda6a*%
X11543200Y10728800D03*
%TO.P,,9b0bcc0c-2a5c-4507-a198-35de2833b764*%
X11543200Y9297800D03*
%TO.P,,58a96bdd-b287-4bd6-b5e9-4f48f6477546*%
X40483900Y7982700D03*
%TO.P,,c6bf1c2a-3cdf-4763-a6c0-778fbcf7d681*%
X39359500Y6725300D03*
%TO.P,,3c0b369a-7cc4-4933-9d85-1cc51d666418*%
%TO.N,Net 5*%
X17536700Y22411300D03*
%TO.P,,37d62f74-f594-4be3-85f6-96ee632b8d1f*%
X16663800Y23356400D03*
%TO.P,,beb493e2-97ff-4dc4-93cc-989c45fc24bc*%
%TO.N,Net 6*%
X20014600Y22170700D03*
%TO.P,,05b42fe1-51e4-4944-bb2e-8919f8270d26*%
X19647600Y23284300D03*
%TO.P,,234a51137695998c8cb9b92a49ea6836.via.island.4*%
%TO.N,GND*%
X32418600Y20534200D03*
%TO.P,,234a51137695998c8cb9b92a49ea6836.via.island.3*%
X22490500Y7115400D03*
%TO.P,,234a51137695998c8cb9b92a49ea6836.via.island.2*%
X32416700Y13785400D03*
%TO.P,,234a51137695998c8cb9b92a49ea6836.via.island.1*%
X32912000Y-21720000D03*
%TO.P,,234a51137695998c8cb9b92a49ea6836.via.island.0*%
X25960300Y-17587100D03*
%TD*%
D15*
%TO.P,,100dad2f-ecf7-4232-b439-2822b88878d1__04bb599e-33f0-d807-436a-7e3aa32e16c6*%
%TO.N,N/C*%
X38890200Y-12759600D03*
%TO.P,,100dad2f-ecf7-4232-b439-2822b88878d1__0b6d8a61-cc41-a6ce-155f-4a3088b1e96f*%
X38890200Y-14759600D03*
%TO.P,,100dad2f-ecf7-4232-b439-2822b88878d1__0b705b0c-a438-3039-463f-50b79dc5c003*%
X23690200Y-14759600D03*
D16*
%TO.P,,100dad2f-ecf7-4232-b439-2822b88878d1__0c0f4c08-3dc9-617b-6954-eeeb6f5dcaba*%
X32290200Y-24259600D03*
D15*
%TO.P,,100dad2f-ecf7-4232-b439-2822b88878d1__1075bb2a-14af-7a1f-ce59-8bec163d731c*%
X23690200Y-18759600D03*
D16*
%TO.P,,100dad2f-ecf7-4232-b439-2822b88878d1__2c738eb3-9081-8540-20b5-a1caf2e2f84c*%
X36290200Y-24259600D03*
D15*
%TO.P,,100dad2f-ecf7-4232-b439-2822b88878d1__3566abbf-69ea-c14f-9296-83ab56f66966*%
X23690200Y-12759600D03*
%TO.P,,100dad2f-ecf7-4232-b439-2822b88878d1__38235135-60a3-391b-071f-e1f024c50754*%
X23690200Y-20759600D03*
D16*
%TO.P,,100dad2f-ecf7-4232-b439-2822b88878d1__466843c5-1b22-08e2-04ad-3bee11aa4ae3*%
X26290200Y-24259600D03*
D15*
%TO.P,,100dad2f-ecf7-4232-b439-2822b88878d1__4ce796e8-a852-e05c-6b23-448cec7a59c1*%
X23690200Y-22759600D03*
%TO.P,,100dad2f-ecf7-4232-b439-2822b88878d1__53711078-75e7-699f-da5c-c30505a423a5*%
X23690200Y-16759600D03*
%TO.P,,100dad2f-ecf7-4232-b439-2822b88878d1__77fae214-802a-3d6d-6603-ac6edd770eab*%
X23690200Y-8759600D03*
%TO.P,,100dad2f-ecf7-4232-b439-2822b88878d1__8134cac7-5e26-72c0-4540-993334db8df4*%
X38890200Y-10759600D03*
D16*
%TO.P,,100dad2f-ecf7-4232-b439-2822b88878d1__8253b7a0-cf28-3ca4-91a1-f5e40c9f78dd*%
X34290200Y-24259600D03*
D15*
%TO.P,,100dad2f-ecf7-4232-b439-2822b88878d1__8c9e52bd-cd4d-0724-6004-49a3c227803b*%
X38890200Y-18759600D03*
%TO.P,,100dad2f-ecf7-4232-b439-2822b88878d1__a0f66999-5c78-1655-958c-f46ffdbca305*%
X38890200Y-8759600D03*
%TO.P,,100dad2f-ecf7-4232-b439-2822b88878d1__afbec598-1033-df02-3899-cd14c3f8da5b*%
X38890200Y-22759600D03*
%TO.P,,100dad2f-ecf7-4232-b439-2822b88878d1__b45e728c-4440-f0ac-8699-fd918ba49ae4*%
X38890200Y-20759600D03*
%TO.P,,100dad2f-ecf7-4232-b439-2822b88878d1__c7562d54-a562-3400-aad4-0e33d0cdf1d7*%
X23690200Y-10759600D03*
D16*
%TO.P,,100dad2f-ecf7-4232-b439-2822b88878d1__d183297e-efe8-9d98-8e1e-a210f93c1aee*%
X30290200Y-24259600D03*
%TO.P,,100dad2f-ecf7-4232-b439-2822b88878d1__f3c87adc-7c92-b7c0-af52-667dd4306c06*%
X28290200Y-24259600D03*
D15*
%TO.P,,100dad2f-ecf7-4232-b439-2822b88878d1__f6d00191-52a2-6adb-97f9-8d4603212f8c*%
X38890200Y-16759600D03*
%TD*%
D17*
%TO.N,Net (P1)*%
X3005959Y-15639725D02*
X-1119041Y-15639740D01*
X-1119041Y-15639740D02*
X-1119241Y-15639540D01*
X-1119041Y-15639740D02*
X-1119041Y-15754540D01*
D18*
%TO.N,Net 32*%
X23690200Y-8759600D02*
X23690400Y-8759400D01*
X31710200Y-8759600D02*
X23690200Y-8759600D01*
%TO.N,Net 38*%
X33440200Y-14201200D02*
X30826000Y-14201200D01*
X25690200Y-16126200D02*
X25056800Y-16759600D01*
X25690200Y-15305200D02*
X25690200Y-16126200D01*
X23690200Y-16759600D02*
X23690400Y-16759400D01*
X25056800Y-16759600D02*
X23690200Y-16759600D01*
D19*
%TO.N,GND*%
X11178100Y-7923900D02*
X11178100Y-9790500D01*
X11178100Y-9790500D02*
X11178100Y-9778500D01*
D17*
X23690200Y-22759600D02*
X23949000Y-22759600D01*
X23949000Y-22759600D02*
X25056800Y-21651800D01*
X25056800Y-21651900D02*
X24582400Y-21651900D01*
X24582400Y-21651800D02*
X23690200Y-20759600D01*
D19*
X30210200Y-17163600D02*
X30210200Y-14201200D01*
X30210200Y-14201200D02*
X31210200Y-13201200D01*
X10152100Y-6897900D02*
X11178100Y-7923900D01*
D18*
X33210200Y-12303500D02*
X34112500Y-12303500D01*
X34112400Y-12303500D02*
X35010200Y-13201200D01*
D19*
X31210200Y-13201200D02*
X35010200Y-13201200D01*
D18*
X26948700Y-22759600D02*
X28948700Y-20759600D01*
X23690100Y-22759600D02*
X26948700Y-22759600D01*
%TO.N,Net 35*%
X27090300Y-18263500D02*
X36938500Y-18263500D01*
X36938500Y-18263500D02*
X37113900Y-18088200D01*
X37113800Y-18088200D02*
X37113800Y-18959400D01*
X37113800Y-18959400D02*
X37676200Y-19521800D01*
X37446400Y-21315800D02*
X38890200Y-22759600D01*
X37446300Y-20079600D02*
X37446300Y-21315800D01*
X37676200Y-19849800D02*
X37446400Y-20079600D01*
X37676200Y-19521800D02*
X37676200Y-19849800D01*
D19*
X39365200Y-12759600D02*
X40883800Y-14278200D01*
X38890200Y-12759600D02*
X39365200Y-12759600D01*
X40883800Y-21185400D02*
X40753400Y-21315800D01*
X40883800Y-14278200D02*
X40883800Y-21185400D01*
X40334000Y-21315800D02*
X38890200Y-22759600D01*
X40753400Y-21315800D02*
X40334000Y-21315800D01*
%TO.N,Net 4*%
X13932000Y-16366300D02*
X13932000Y-13863100D01*
X13931900Y-13863200D02*
X13932100Y-13863000D01*
D18*
%TO.N,Net 33*%
X25690200Y-12759600D02*
X23690200Y-10759600D01*
X32210200Y-12759600D02*
X25690200Y-12759600D01*
D19*
%TO.N,Net (IC1 - VOUT)*%
X40516300Y21477700D02*
X40483900Y21477700D01*
X40483800Y21477700D02*
X39485600Y20479500D01*
X11543000Y17273500D02*
X11543000Y15950900D01*
X39485500Y20479400D02*
X39485700Y20479600D01*
X11543000Y15950800D02*
X11543200Y15951000D01*
D18*
%TO.N,Net 34*%
X32170200Y-13651000D02*
X36267000Y-13651000D01*
X36732200Y-13651000D02*
X37113800Y-13269300D01*
X36266900Y-13651000D02*
X36732100Y-13651000D01*
X37113800Y-13269300D02*
X37113800Y-9870300D01*
X37113800Y-9042000D02*
X37396200Y-8759600D01*
X37113800Y-9870300D02*
X37113800Y-9041900D01*
X38890200Y-8759600D02*
X38890400Y-8759400D01*
X37396200Y-8759600D02*
X38890200Y-8759600D01*
D19*
%TO.N,Net (IC1 - VOUT)*%
X40516500Y14635600D02*
X40410700Y14635600D01*
X40410700Y14635600D02*
X39201100Y13426000D01*
X39201100Y13425900D02*
X39201300Y13426100D01*
X11543200Y10728800D02*
X11543200Y9297800D01*
X11543200Y9297800D02*
X11543400Y9298000D01*
X40483900Y7982700D02*
X40483900Y7849700D01*
X40483900Y7849700D02*
X39359500Y6725300D01*
%TO.N,Net 5*%
X17536700Y22411300D02*
X16663700Y23284300D01*
X16663800Y23284200D02*
X16663800Y23356400D01*
%TO.N,Net 6*%
X20014600Y22170700D02*
X20014600Y22917300D01*
X20014600Y22917300D02*
X19647600Y23284300D01*
X19647600Y23284300D02*
X19647800Y23284500D01*
%TD*%
%TA.AperFunction,Conductor*%
%TO.N,GND*%
G36*
X39614000Y-26740000D02*
G01*
X17148000Y-26740000D01*
X17060000Y-26652000D01*
X17060000Y-7760000D01*
X21940000Y-7760000D01*
X21940000Y-19760000D01*
X25440000Y-19760000D01*
X25440000Y-17234000D01*
X25455000Y-17189000D01*
X25488000Y-17143000D01*
X25496000Y-17134000D01*
X26054000Y-16576000D01*
X26067000Y-16566000D01*
X26097000Y-16546000D01*
X26139000Y-16487000D01*
X26140000Y-16485000D01*
X26222000Y-16376000D01*
X26222000Y-16375000D01*
X26225000Y-16364000D01*
X26226000Y-16361000D01*
X26233000Y-16328000D01*
X26234000Y-16326000D01*
X26275000Y-16149000D01*
X26276000Y-16147000D01*
X26266000Y-16087000D01*
X26265000Y-16075000D01*
X26265000Y-15890000D01*
X26288000Y-15835000D01*
X26328000Y-15795000D01*
X26431000Y-15615000D01*
X26488000Y-15409000D01*
X26488000Y-15201000D01*
X26431000Y-14991000D01*
X26330000Y-14818000D01*
X26329000Y-14817000D01*
X26181000Y-14668000D01*
X26180000Y-14667000D01*
X25993000Y-14560000D01*
X25796000Y-14508000D01*
X25528000Y-14508000D01*
X25440000Y-14420000D01*
X25440000Y-13407000D01*
X25554000Y-13317000D01*
X25669000Y-13345000D01*
X25722000Y-13336000D01*
X25734000Y-13335000D01*
X30302000Y-13335000D01*
X30379000Y-13520000D01*
X30188000Y-13712000D01*
X30084000Y-13892000D01*
X30083000Y-13893000D01*
X30029000Y-14098000D01*
X30029000Y-14307000D01*
X30081000Y-14505000D01*
X30082000Y-14507000D01*
X30188000Y-14691000D01*
X30336000Y-14839000D01*
X30516000Y-14942000D01*
X30722000Y-14999000D01*
X30930000Y-14999000D01*
X31137000Y-14942000D01*
X31136000Y-14942000D01*
X31316000Y-14839000D01*
X31356000Y-14799000D01*
X31411000Y-14776000D01*
X32856000Y-14776000D01*
X32911000Y-14799000D01*
X32953000Y-14841000D01*
X33126000Y-14942000D01*
X33336000Y-14999000D01*
X33544000Y-14999000D01*
X33751000Y-14942000D01*
X33750000Y-14942000D01*
X33930000Y-14839000D01*
X34078000Y-14691000D01*
X34181000Y-14512000D01*
X34185000Y-14502000D01*
X34244000Y-14287000D01*
X34324000Y-14226000D01*
X36671000Y-14226000D01*
X36686000Y-14228000D01*
X36722000Y-14235000D01*
X36750000Y-14230000D01*
X36752000Y-14228000D01*
X36937000Y-14201000D01*
X37015000Y-14174000D01*
X37140000Y-14264000D01*
X37140000Y-17430000D01*
X37069000Y-17514000D01*
X36986000Y-17528000D01*
X36896000Y-17543000D01*
X36894000Y-17544000D01*
X36800000Y-17609000D01*
X36797000Y-17610000D01*
X36692000Y-17676000D01*
X36651000Y-17688000D01*
X27675000Y-17688000D01*
X27620000Y-17665000D01*
X27580000Y-17625000D01*
X27393000Y-17518000D01*
X27196000Y-17466000D01*
X26987000Y-17466000D01*
X26783000Y-17520000D01*
X26781000Y-17521000D01*
X26599000Y-17627000D01*
X26452000Y-17774000D01*
X26348000Y-17956000D01*
X26293000Y-18161000D01*
X26293000Y-18366000D01*
X26348000Y-18571000D01*
X26452000Y-18753000D01*
X26599000Y-18900000D01*
X26781000Y-19006000D01*
X26783000Y-19007000D01*
X26987000Y-19061000D01*
X27174000Y-19061000D01*
X27261000Y-19213000D01*
X27214000Y-19292000D01*
X27144000Y-19550000D01*
X27144000Y-20609000D01*
X27213000Y-20866000D01*
X27346000Y-21093000D01*
X27527000Y-21274000D01*
X27755000Y-21407000D01*
X28010000Y-21475000D01*
X28272000Y-21475000D01*
X28524000Y-21410000D01*
X28580000Y-21378000D01*
X28681000Y-21391000D01*
X28720000Y-21430000D01*
X30420000Y-21430000D01*
X30420000Y-19730000D01*
X29224000Y-19730000D01*
X29136000Y-19642000D01*
X29136000Y-19551000D01*
X29067000Y-19294000D01*
X28891000Y-18988000D01*
X28977000Y-18838000D01*
X35944000Y-18838000D01*
X36030000Y-18989000D01*
X35853000Y-19293000D01*
X35784000Y-19550000D01*
X35784000Y-19642000D01*
X35696000Y-19730000D01*
X34500000Y-19730000D01*
X34500000Y-21430000D01*
X36200000Y-21430000D01*
X36240000Y-21390000D01*
X36341000Y-21377000D01*
X36397000Y-21409000D01*
X36649000Y-21475000D01*
X36818000Y-21475000D01*
X36884000Y-21510000D01*
X36957000Y-21617000D01*
X36960000Y-21621000D01*
X37015000Y-21713000D01*
X37062000Y-21747000D01*
X37072000Y-21755000D01*
X37117000Y-21800000D01*
X37140000Y-21855000D01*
X37140000Y-22772000D01*
X37052000Y-22860000D01*
X25290000Y-22860000D01*
X25290000Y-25660000D01*
X37290000Y-25660000D01*
X37290000Y-25561000D01*
X37330000Y-25491000D01*
X37393000Y-25455000D01*
X37576000Y-25272000D01*
X37707000Y-25045000D01*
X37776000Y-24788000D01*
X37776000Y-23848000D01*
X37864000Y-23760000D01*
X40640000Y-23760000D01*
X40640000Y-22031000D01*
X40728000Y-21943000D01*
X40799000Y-21943000D01*
X40807000Y-21942000D01*
X40807000Y-21943000D01*
X40816000Y-21941000D01*
X40825000Y-21940000D01*
X40859000Y-21939000D01*
X40915000Y-21922000D01*
X40922000Y-21920000D01*
X40973000Y-21909000D01*
X40994000Y-21898000D01*
X41007000Y-21892000D01*
X41039000Y-21882000D01*
X41038000Y-21882000D01*
X41087000Y-21846000D01*
X41096000Y-21840000D01*
X41151000Y-21811000D01*
X41152000Y-21810000D01*
X41193000Y-21765000D01*
X41196000Y-21762000D01*
X41360000Y-21599000D01*
X41364000Y-21592000D01*
X41377000Y-21575000D01*
X41401000Y-21551000D01*
X41427000Y-21499000D01*
X41432000Y-21491000D01*
X41461000Y-21445000D01*
X41469000Y-21415000D01*
X41475000Y-21399000D01*
X41487000Y-21376000D01*
X41495000Y-21319000D01*
X41497000Y-21309000D01*
X41513000Y-21251000D01*
X41511000Y-21206000D01*
X41511000Y-14374000D01*
X41512000Y-14365000D01*
X41511000Y-14339000D01*
X41511000Y-14235000D01*
X41510000Y-14230000D01*
X41508000Y-14214000D01*
X41507000Y-14173000D01*
X41490000Y-14117000D01*
X41488000Y-14110000D01*
X41477000Y-14059000D01*
X41466000Y-14038000D01*
X41460000Y-14025000D01*
X41451000Y-13996000D01*
X41450000Y-13994000D01*
X41414000Y-13945000D01*
X41409000Y-13936000D01*
X41378000Y-13881000D01*
X41331000Y-13838000D01*
X40663000Y-13170000D01*
X40640000Y-13115000D01*
X40640000Y-7760000D01*
X37140000Y-7760000D01*
X37140000Y-8199000D01*
X37101000Y-8267000D01*
X37000000Y-8328000D01*
X36999000Y-8329000D01*
X36965000Y-8376000D01*
X36957000Y-8386000D01*
X36753000Y-8590000D01*
X36740000Y-8600000D01*
X36707000Y-8622000D01*
X36657000Y-8693000D01*
X36655000Y-8695000D01*
X36584000Y-8792000D01*
X36580000Y-8803000D01*
X36577000Y-8811000D01*
X36559000Y-8895000D01*
X36558000Y-8896000D01*
X36530000Y-9019000D01*
X36529000Y-9021000D01*
X36538000Y-9075000D01*
X36539000Y-9087000D01*
X36539000Y-12988000D01*
X36451000Y-13076000D01*
X33072000Y-13076000D01*
X32982000Y-12957000D01*
X33008000Y-12867000D01*
X33008000Y-12654000D01*
X32951000Y-12447000D01*
X32848000Y-12270000D01*
X32703000Y-12125000D01*
X32702000Y-12125000D01*
X32521000Y-12017000D01*
X32520000Y-12017000D01*
X32315000Y-11962000D01*
X32104000Y-11962000D01*
X31899000Y-12016000D01*
X31718000Y-12124000D01*
X31680000Y-12162000D01*
X31625000Y-12185000D01*
X25960000Y-12185000D01*
X25905000Y-12162000D01*
X25463000Y-11720000D01*
X25440000Y-11665000D01*
X25440000Y-9423000D01*
X25528000Y-9335000D01*
X31126000Y-9335000D01*
X31181000Y-9358000D01*
X31219000Y-9396000D01*
X31401000Y-9502000D01*
X31403000Y-9503000D01*
X31607000Y-9557000D01*
X31816000Y-9557000D01*
X32013000Y-9505000D01*
X32200000Y-9398000D01*
X32201000Y-9397000D01*
X32349000Y-9248000D01*
X32451000Y-9070000D01*
X32508000Y-8865000D01*
X32508000Y-8654000D01*
X32451000Y-8447000D01*
X32348000Y-8270000D01*
X32204000Y-8126000D01*
X32202000Y-8125000D01*
X32021000Y-8017000D01*
X32020000Y-8017000D01*
X31815000Y-7962000D01*
X31604000Y-7962000D01*
X31399000Y-8016000D01*
X31218000Y-8124000D01*
X31217000Y-8126000D01*
X31180000Y-8162000D01*
X31125000Y-8185000D01*
X25528000Y-8185000D01*
X25440000Y-8097000D01*
X25440000Y-7760000D01*
X21940000Y-7760000D01*
X17060000Y-7760000D01*
X17060000Y6831000D01*
X38562000Y6831000D01*
X38562000Y6622000D01*
X38615000Y6421000D01*
X38617000Y6416000D01*
X38723000Y6234000D01*
X38870000Y6087000D01*
X39052000Y5983000D01*
X39257000Y5928000D01*
X39462000Y5928000D01*
X39668000Y5983000D01*
X39667000Y5983000D01*
X39849000Y6087000D01*
X39996000Y6234000D01*
X40102000Y6416000D01*
X40104000Y6421000D01*
X40156000Y6620000D01*
X40176000Y6655000D01*
X40737000Y7215000D01*
X40769000Y7234000D01*
X40791000Y7240000D01*
X40795000Y7242000D01*
X40974000Y7345000D01*
X41122000Y7493000D01*
X41229000Y7680000D01*
X41281000Y7877000D01*
X41281000Y8086000D01*
X41227000Y8289000D01*
X41226000Y8292000D01*
X41122000Y8472000D01*
X40975000Y8620000D01*
X40974000Y8621000D01*
X40787000Y8728000D01*
X40590000Y8780000D01*
X40378000Y8780000D01*
X40181000Y8728000D01*
X39994000Y8621000D01*
X39993000Y8620000D01*
X39845000Y8471000D01*
X39844000Y8470000D01*
X39743000Y8297000D01*
X39686000Y8087000D01*
X39686000Y7971000D01*
X39663000Y7916000D01*
X39292000Y7544000D01*
X39259000Y7525000D01*
X39049000Y7466000D01*
X38871000Y7364000D01*
X38722000Y7215000D01*
X38614000Y7028000D01*
X38562000Y6831000D01*
X17060000Y6831000D01*
X17060000Y13532000D01*
X38404000Y13532000D01*
X38404000Y13320000D01*
X38456000Y13123000D01*
X38563000Y12936000D01*
X38711000Y12788000D01*
X38891000Y12685000D01*
X39097000Y12628000D01*
X39305000Y12628000D01*
X39512000Y12685000D01*
X39511000Y12685000D01*
X39691000Y12788000D01*
X39839000Y12936000D01*
X39942000Y13115000D01*
X40000000Y13324000D01*
X40019000Y13357000D01*
X40478000Y13815000D01*
X40533000Y13838000D01*
X40621000Y13838000D01*
X40826000Y13892000D01*
X41004000Y13998000D01*
X41008000Y14001000D01*
X41153000Y14143000D01*
X41259000Y14328000D01*
X41314000Y14533000D01*
X41314000Y14738000D01*
X41259000Y14943000D01*
X41155000Y15125000D01*
X41006000Y15274000D01*
X40824000Y15378000D01*
X40825000Y15378000D01*
X40619000Y15433000D01*
X40414000Y15433000D01*
X40209000Y15378000D01*
X40027000Y15274000D01*
X39878000Y15125000D01*
X39774000Y14943000D01*
X39758000Y14884000D01*
X39738000Y14850000D01*
X39130000Y14243000D01*
X39095000Y14223000D01*
X38898000Y14171000D01*
X38711000Y14064000D01*
X38563000Y13916000D01*
X38456000Y13729000D01*
X38404000Y13532000D01*
X17060000Y13532000D01*
X17060000Y20582000D01*
X38688000Y20582000D01*
X38688000Y20376000D01*
X38743000Y20172000D01*
X38847000Y19990000D01*
X38996000Y19841000D01*
X39178000Y19737000D01*
X39383000Y19682000D01*
X39588000Y19682000D01*
X39794000Y19737000D01*
X39793000Y19737000D01*
X39975000Y19841000D01*
X40124000Y19990000D01*
X40228000Y20172000D01*
X40283000Y20376000D01*
X40303000Y20410000D01*
X40548000Y20655000D01*
X40593000Y20677000D01*
X40622000Y20680000D01*
X40827000Y20737000D01*
X40826000Y20737000D01*
X41006000Y20840000D01*
X41154000Y20988000D01*
X41257000Y21168000D01*
X41314000Y21373000D01*
X41314000Y21581000D01*
X41257000Y21792000D01*
X41156000Y21965000D01*
X41155000Y21966000D01*
X41007000Y22115000D01*
X41006000Y22116000D01*
X40819000Y22223000D01*
X40622000Y22275000D01*
X40413000Y22275000D01*
X40209000Y22221000D01*
X40207000Y22220000D01*
X40025000Y22114000D01*
X39880000Y21969000D01*
X39772000Y21783000D01*
X39731000Y21627000D01*
X39711000Y21592000D01*
X39414000Y21296000D01*
X39380000Y21276000D01*
X39178000Y21222000D01*
X38996000Y21118000D01*
X38847000Y20969000D01*
X38743000Y20787000D01*
X38688000Y20582000D01*
X17060000Y20582000D01*
X17060000Y21591000D01*
X17177000Y21681000D01*
X17431000Y21614000D01*
X17640000Y21614000D01*
X17844000Y21668000D01*
X17846000Y21669000D01*
X18028000Y21775000D01*
X18173000Y21920000D01*
X18279000Y22102000D01*
X18281000Y22107000D01*
X18333000Y22304000D01*
X18334000Y22307000D01*
X18334000Y22517000D01*
X18282000Y22714000D01*
X18175000Y22901000D01*
X18174000Y22902000D01*
X18025000Y23050000D01*
X18024000Y23051000D01*
X17851000Y23152000D01*
X17639000Y23211000D01*
X17606000Y23230000D01*
X17484000Y23352000D01*
X17468527Y23389000D01*
X18850000Y23389000D01*
X18850000Y23178000D01*
X18905000Y22972000D01*
X19011000Y22794000D01*
X19013000Y22792000D01*
X19157000Y22647000D01*
X19239000Y22600000D01*
X19278000Y22506000D01*
X19217000Y22275000D01*
X19217000Y22065000D01*
X19272000Y21860000D01*
X19274000Y21856000D01*
X19380000Y21678000D01*
X19525000Y21533000D01*
X19702000Y21430000D01*
X19909000Y21373000D01*
X20120000Y21373000D01*
X20326000Y21430000D01*
X20325000Y21430000D01*
X20503000Y21532000D01*
X20652000Y21680000D01*
X20653000Y21681000D01*
X20760000Y21868000D01*
X20812000Y22065000D01*
X20812000Y22274000D01*
X20759000Y22475000D01*
X20757000Y22480000D01*
X20652000Y22661000D01*
X20642000Y22699000D01*
X20642000Y22968000D01*
X20640000Y22976000D01*
X20638000Y22990000D01*
X20637000Y23024000D01*
X20621000Y23076000D01*
X20619000Y23084000D01*
X20609000Y23135000D01*
X20592000Y23165000D01*
X20586000Y23180000D01*
X20580000Y23200000D01*
X20577000Y23206000D01*
X20545000Y23251000D01*
X20509000Y23314000D01*
X20468000Y23352000D01*
X20445000Y23389000D01*
X20393000Y23587000D01*
X20286000Y23774000D01*
X20285000Y23775000D01*
X20136000Y23923000D01*
X19958000Y24025000D01*
X19753000Y24082000D01*
X19542000Y24082000D01*
X19335000Y24025000D01*
X19158000Y23922000D01*
X19014000Y23778000D01*
X19013000Y23776000D01*
X18905000Y23595000D01*
X18905000Y23594000D01*
X18850000Y23389000D01*
X17468527Y23389000D01*
X17461000Y23407000D01*
X17461000Y23459000D01*
X17406000Y23664000D01*
X17302000Y23846000D01*
X17301000Y23847000D01*
X17156000Y23991000D01*
X17151000Y23995000D01*
X17100000Y24025000D01*
X17060000Y24094000D01*
X17060000Y24466000D01*
X-42356000Y24466000D01*
X-42446000Y24589000D01*
X-42396000Y24744000D01*
X-42396000Y24746000D01*
X-42386000Y24773000D01*
X-42389000Y24777000D01*
X-42330000Y24924000D01*
X-42329000Y24926000D01*
X-42293000Y25010000D01*
X-42292000Y25012000D01*
X-42246000Y25108000D01*
X-42209000Y25182000D01*
X-42208000Y25185000D01*
X-42155000Y25278000D01*
X-42154000Y25280000D01*
X-42111000Y25352000D01*
X-42110000Y25354000D01*
X-42061000Y25431000D01*
X-42059000Y25433000D01*
X-42006000Y25510000D01*
X-42004000Y25512000D01*
X-41941000Y25598000D01*
X-41939000Y25601000D01*
X-41887000Y25665000D01*
X-41886000Y25666000D01*
X-41818000Y25748000D01*
X-41816000Y25750000D01*
X-41762000Y25809000D01*
X-41761000Y25810000D01*
X-41699000Y25875000D01*
X-41697000Y25877000D01*
X-41620000Y25951000D01*
X-41619000Y25952000D01*
X-41560000Y26006000D01*
X-41558000Y26008000D01*
X-41476000Y26076000D01*
X-41475000Y26077000D01*
X-41411000Y26129000D01*
X-41408000Y26131000D01*
X-41323000Y26193000D01*
X-41322000Y26195000D01*
X-41244000Y26249000D01*
X-41241000Y26250000D01*
X-41172000Y26295000D01*
X-41170000Y26296000D01*
X-41090000Y26344000D01*
X-41088000Y26345000D01*
X-40995000Y26398000D01*
X-40992000Y26399000D01*
X-40919000Y26436000D01*
X-40918000Y26436000D01*
X-40821000Y26482000D01*
X-40819000Y26483000D01*
X-40737000Y26519000D01*
X-40735000Y26520000D01*
X-40587000Y26579000D01*
X-40584000Y26577000D01*
X-40561000Y26585000D01*
X-40558000Y26585000D01*
X-40465000Y26615000D01*
X-40463000Y26616000D01*
X-40380000Y26640000D01*
X-40377000Y26641000D01*
X-40293000Y26662000D01*
X-40290000Y26662000D01*
X-40184000Y26685000D01*
X-40183000Y26685000D01*
X-40106000Y26700000D01*
X-40103000Y26700000D01*
X-39998000Y26716000D01*
X-39996000Y26716000D01*
X-39917000Y26725000D01*
X-39914000Y26725000D01*
X-39819000Y26733000D01*
X-39817000Y26733000D01*
X-39711000Y26738000D01*
X-39709000Y26738000D01*
X-39614000Y26740000D01*
X39614000Y26740000D01*
X39709000Y26738000D01*
X39711000Y26738000D01*
X39817000Y26733000D01*
X39819000Y26733000D01*
X39914000Y26725000D01*
X39917000Y26725000D01*
X39996000Y26716000D01*
X39998000Y26716000D01*
X40103000Y26700000D01*
X40106000Y26700000D01*
X40183000Y26685000D01*
X40184000Y26685000D01*
X40290000Y26662000D01*
X40293000Y26662000D01*
X40377000Y26641000D01*
X40380000Y26640000D01*
X40463000Y26616000D01*
X40465000Y26615000D01*
X40558000Y26585000D01*
X40561000Y26585000D01*
X40584000Y26577000D01*
X40587000Y26579000D01*
X40735000Y26520000D01*
X40737000Y26519000D01*
X40819000Y26483000D01*
X40821000Y26482000D01*
X40918000Y26436000D01*
X40919000Y26436000D01*
X40992000Y26399000D01*
X40995000Y26398000D01*
X41088000Y26345000D01*
X41090000Y26344000D01*
X41170000Y26296000D01*
X41172000Y26295000D01*
X41241000Y26250000D01*
X41244000Y26249000D01*
X41322000Y26195000D01*
X41323000Y26193000D01*
X41408000Y26131000D01*
X41411000Y26129000D01*
X41475000Y26077000D01*
X41476000Y26076000D01*
X41558000Y26008000D01*
X41560000Y26006000D01*
X41619000Y25952000D01*
X41620000Y25951000D01*
X41697000Y25877000D01*
X41699000Y25875000D01*
X41761000Y25810000D01*
X41762000Y25809000D01*
X41816000Y25750000D01*
X41818000Y25748000D01*
X41886000Y25666000D01*
X41887000Y25665000D01*
X41939000Y25601000D01*
X41941000Y25598000D01*
X42004000Y25512000D01*
X42006000Y25510000D01*
X42059000Y25433000D01*
X42061000Y25431000D01*
X42110000Y25354000D01*
X42111000Y25352000D01*
X42154000Y25280000D01*
X42155000Y25278000D01*
X42208000Y25185000D01*
X42209000Y25182000D01*
X42246000Y25108000D01*
X42292000Y25012000D01*
X42293000Y25010000D01*
X42329000Y24926000D01*
X42330000Y24924000D01*
X42389000Y24777000D01*
X42386000Y24773000D01*
X42396000Y24746000D01*
X42396000Y24744000D01*
X42425000Y24655000D01*
X42426000Y24653000D01*
X42452000Y24563000D01*
X42453000Y24559000D01*
X42475000Y24470000D01*
X42476000Y24468000D01*
X42495000Y24376000D01*
X42495000Y24374000D01*
X42510000Y24296000D01*
X42510000Y24293000D01*
X42526000Y24188000D01*
X42526000Y24186000D01*
X42535000Y24107000D01*
X42535000Y24104000D01*
X42544000Y23997000D01*
X42544000Y23995000D01*
X42548000Y23901000D01*
X42548000Y23899000D01*
X42550000Y23804000D01*
X42550000Y-23813000D01*
X42548000Y-23899000D01*
X42548000Y-23901000D01*
X42543000Y-24007000D01*
X42543000Y-24009000D01*
X42535000Y-24104000D01*
X42535000Y-24107000D01*
X42526000Y-24186000D01*
X42526000Y-24188000D01*
X42510000Y-24293000D01*
X42510000Y-24296000D01*
X42493000Y-24385000D01*
X42493000Y-24388000D01*
X42472000Y-24481000D01*
X42472000Y-24483000D01*
X42449000Y-24575000D01*
X42448000Y-24578000D01*
X42425000Y-24654000D01*
X42425000Y-24655000D01*
X42392000Y-24756000D01*
X42392000Y-24759000D01*
X42387000Y-24774000D01*
X42389000Y-24777000D01*
X42330000Y-24924000D01*
X42329000Y-24926000D01*
X42293000Y-25010000D01*
X42292000Y-25012000D01*
X42246000Y-25108000D01*
X42209000Y-25182000D01*
X42208000Y-25185000D01*
X42155000Y-25278000D01*
X42154000Y-25280000D01*
X42106000Y-25360000D01*
X42105000Y-25362000D01*
X42061000Y-25431000D01*
X42059000Y-25433000D01*
X41999000Y-25521000D01*
X41997000Y-25523000D01*
X41941000Y-25599000D01*
X41939000Y-25601000D01*
X41887000Y-25665000D01*
X41886000Y-25666000D01*
X41818000Y-25748000D01*
X41816000Y-25750000D01*
X41762000Y-25809000D01*
X41761000Y-25810000D01*
X41699000Y-25875000D01*
X41697000Y-25877000D01*
X41620000Y-25951000D01*
X41619000Y-25952000D01*
X41560000Y-26006000D01*
X41558000Y-26008000D01*
X41476000Y-26076000D01*
X41475000Y-26077000D01*
X41411000Y-26129000D01*
X41408000Y-26131000D01*
X41322000Y-26194000D01*
X41320000Y-26196000D01*
X41243000Y-26249000D01*
X41241000Y-26251000D01*
X41164000Y-26300000D01*
X41162000Y-26301000D01*
X41090000Y-26344000D01*
X41088000Y-26345000D01*
X40995000Y-26398000D01*
X40992000Y-26399000D01*
X40918000Y-26436000D01*
X40822000Y-26482000D01*
X40820000Y-26483000D01*
X40736000Y-26519000D01*
X40734000Y-26520000D01*
X40587000Y-26579000D01*
X40583000Y-26576000D01*
X40556000Y-26586000D01*
X40554000Y-26586000D01*
X40465000Y-26615000D01*
X40463000Y-26616000D01*
X40380000Y-26640000D01*
X40377000Y-26641000D01*
X40293000Y-26662000D01*
X40291000Y-26662000D01*
X40187000Y-26685000D01*
X40184000Y-26685000D01*
X40106000Y-26700000D01*
X40103000Y-26700000D01*
X39998000Y-26716000D01*
X39996000Y-26716000D01*
X39917000Y-26725000D01*
X39914000Y-26725000D01*
X39819000Y-26733000D01*
X39817000Y-26733000D01*
X39711000Y-26738000D01*
X39709000Y-26738000D01*
X39614000Y-26740000D01*
G37*
%TD.AperFunction*%
%TD*%
M02*
