%TF.GenerationSoftware,Flux,Pcbnew,7.0.11-7.0.11~ubuntu20.04.1*%
%TF.CreationDate,2024-08-15T16:12:26+00:00*%
%TF.ProjectId,input,696e7075-742e-46b6-9963-61645f706362,rev?*%
%TF.SameCoordinates,Original*%
%TF.FileFunction,Legend,Bot*%
%TF.FilePolarity,Positive*%
%FSLAX46Y46*%
G04 Gerber Fmt 4.6, Leading zero omitted, Abs format (unit mm)*
G04 Filename: businesscardpcb*
G04 Build it with Flux! Visit our site at: https://www.flux.ai (PCBNEW 7.0.11-7.0.11~ubuntu20.04.1) date 2024-08-15 16:12:26*
%MOMM*%
%LPD*%
G01*
G04 APERTURE LIST*
%ADD10C,0.095000*%
%ADD11C,0.038000*%
%ADD12C,0.120000*%
G04 APERTURE END LIST*
D10*
D11*
X31534009Y864337D02*
X31534009Y605290D01*
X31534009Y605290D02*
X31518771Y574814D01*
X31518771Y574814D02*
X31503533Y559576D01*
X31503533Y559576D02*
X31473057Y544337D01*
X31473057Y544337D02*
X31412104Y544337D01*
X31412104Y544337D02*
X31381628Y559576D01*
X31381628Y559576D02*
X31366390Y574814D01*
X31366390Y574814D02*
X31351152Y605290D01*
X31351152Y605290D02*
X31351152Y864337D01*
X31214009Y833861D02*
X31198771Y849099D01*
X31198771Y849099D02*
X31168295Y864337D01*
X31168295Y864337D02*
X31092104Y864337D01*
X31092104Y864337D02*
X31061628Y849099D01*
X31061628Y849099D02*
X31046390Y833861D01*
X31046390Y833861D02*
X31031152Y803385D01*
X31031152Y803385D02*
X31031152Y772909D01*
X31031152Y772909D02*
X31046390Y727195D01*
X31046390Y727195D02*
X31229247Y544337D01*
X31229247Y544337D02*
X31031152Y544337D01*
D12*
%TO.C,*%
X39410200Y-139600D02*
X23170200Y-139600D01*
X23170200Y-139600D02*
X23170200Y-7759600D01*
X23170200Y-23759600D02*
X23170200Y-24379600D01*
X23170200Y-24379600D02*
X25290200Y-24379600D01*
X37290200Y-24379600D02*
X39410200Y-24379600D01*
X39410200Y-24379600D02*
X39410200Y-23759600D01*
X39410200Y-7759600D02*
X39410200Y-139600D01*
X39410200Y-7759600D02*
X40020200Y-7759600D01*
X39410200Y-139600D02*
X23170200Y-139600D01*
X23170200Y-139600D02*
X23170200Y-7459600D01*
X39410200Y-7459600D02*
X39410200Y-139600D01*
%TD*%
M02*
