%TF.GenerationSoftware,Flux,Pcbnew,7.0.11-7.0.11~ubuntu20.04.1*%
%TF.CreationDate,2024-08-15T16:12:26+00:00*%
%TF.ProjectId,input,696e7075-742e-46b6-9963-61645f706362,rev?*%
%TF.SameCoordinates,Original*%
%TF.FileFunction,Copper,L1,Top*%
%TF.FilePolarity,Positive*%
%FSLAX46Y46*%
G04 Gerber Fmt 4.6, Leading zero omitted, Abs format (unit mm)*
G04 Filename: businesscardpcb*
G04 Build it with Flux! Visit our site at: https://www.flux.ai (PCBNEW 7.0.11-7.0.11~ubuntu20.04.1) date 2024-08-15 16:12:26*
%MOMM*%
%LPD*%
G01*
G04 APERTURE LIST*
G04 Aperture macros list*
%AMFreePoly0*
4,1,5,0.075000,-0.075000,-0.075000,-0.075000,-0.075000,0.075000,0.075000,0.075000,0.075000,-0.075000,0.075000,-0.075000,$1*%
%AMFreePoly1*
4,1,5,0.200000,-0.400000,-0.200000,-0.400000,-0.200000,0.400000,0.200000,0.400000,0.200000,-0.400000,0.200000,-0.400000,$1*%
%AMFreePoly2*
4,1,5,0.375000,-0.400000,-0.375000,-0.400000,-0.375000,0.400000,0.375000,0.400000,0.375000,-0.400000,0.375000,-0.400000,$1*%
%AMFreePoly3*
4,1,5,0.300000,-0.400000,-0.300000,-0.400000,-0.300000,0.400000,0.300000,0.400000,0.300000,-0.400000,0.300000,-0.400000,$1*%
%AMFreePoly4*
4,1,5,0.400000,-0.400000,-0.400000,-0.400000,-0.400000,0.400000,0.400000,0.400000,0.400000,-0.400000,0.400000,-0.400000,$1*%
%AMFreePoly5*
4,1,129,0.022069,0.299187,0.036723,0.297744,0.051289,0.295583,0.065730,0.292711,0.080014,0.289133,0.094105,0.284858,0.107969,0.279898,0.121572,0.274263,0.134883,0.267967,0.147869,0.261026,0.160499,0.253456,0.172742,0.245275,0.184569,0.236504,0.195952,0.227163,0.206862,0.217274,0.217274,0.206862,0.227163,0.195952,0.236504,0.184569,0.245275,0.172742,0.253456,0.160499,
0.261026,0.147869,0.267967,0.134883,0.274263,0.121572,0.279898,0.107969,0.284858,0.094105,0.289133,0.080014,0.292711,0.065730,0.295583,0.051289,0.297744,0.036723,0.299187,0.022069,0.299910,0.007362,0.299910,-0.007362,0.299187,-0.022069,0.297744,-0.036723,0.295583,-0.051289,0.292711,-0.065730,0.289133,-0.080014,0.284858,-0.094105,0.279898,-0.107969,0.274263,-0.121572,
0.267967,-0.134883,0.261026,-0.147869,0.253456,-0.160499,0.245275,-0.172742,0.236504,-0.184569,0.227163,-0.195952,0.217274,-0.206862,0.206862,-0.217274,0.195952,-0.227163,0.184569,-0.236504,0.172742,-0.245275,0.160499,-0.253456,0.147869,-0.261026,0.134883,-0.267967,0.121572,-0.274263,0.107969,-0.279898,0.094105,-0.284858,0.080014,-0.289133,0.065730,-0.292711,0.051289,-0.295583,
0.036723,-0.297744,0.022069,-0.299187,0.007362,-0.299910,-0.007362,-0.299910,-0.022069,-0.299187,-0.036723,-0.297744,-0.051289,-0.295583,-0.065730,-0.292711,-0.080014,-0.289133,-0.094105,-0.284858,-0.107969,-0.279898,-0.121572,-0.274263,-0.134883,-0.267967,-0.147869,-0.261026,-0.160499,-0.253456,-0.172742,-0.245275,-0.184569,-0.236504,-0.195952,-0.227163,-0.206862,-0.217274,-0.217274,-0.206862,
-0.227163,-0.195952,-0.236504,-0.184569,-0.245275,-0.172742,-0.253456,-0.160499,-0.261026,-0.147869,-0.267967,-0.134883,-0.274263,-0.121572,-0.279898,-0.107969,-0.284858,-0.094105,-0.289133,-0.080014,-0.292711,-0.065730,-0.295583,-0.051289,-0.297744,-0.036723,-0.299187,-0.022069,-0.299910,-0.007362,-0.299910,0.007362,-0.299187,0.022069,-0.297744,0.036723,-0.295583,0.051289,-0.292711,0.065730,
-0.289133,0.080014,-0.284858,0.094105,-0.279898,0.107969,-0.274263,0.121572,-0.267967,0.134883,-0.261026,0.147869,-0.253456,0.160499,-0.245275,0.172742,-0.236504,0.184569,-0.227163,0.195952,-0.217274,0.206862,-0.206862,0.217274,-0.195952,0.227163,-0.184569,0.236504,-0.172742,0.245275,-0.160499,0.253456,-0.147869,0.261026,-0.134883,0.267967,-0.121572,0.274263,-0.107969,0.279898,
-0.094105,0.284858,-0.080014,0.289133,-0.065730,0.292711,-0.051289,0.295583,-0.036723,0.297744,-0.022069,0.299187,-0.007362,0.299910,0.007362,0.299910,0.022069,0.299187,0.022069,0.299187,$1*%
%AMFreePoly6*
4,1,101,0.333457,0.474848,0.338093,0.474391,0.342690,0.473632,0.347228,0.472574,0.351686,0.471221,0.356047,0.469580,0.360291,0.467657,0.364400,0.465461,0.368357,0.463001,0.372144,0.460287,0.375745,0.457331,0.379146,0.454146,0.382331,0.450745,0.385287,0.447144,0.388001,0.443357,0.390461,0.439400,0.392657,0.435291,0.394580,0.431047,0.396221,0.426686,0.397574,0.422228,
0.398632,0.417690,0.399391,0.413093,0.399848,0.408457,0.400000,0.403800,0.400000,-0.403800,0.399848,-0.408457,0.399391,-0.413093,0.398632,-0.417690,0.397574,-0.422228,0.396221,-0.426686,0.394580,-0.431047,0.392657,-0.435291,0.390461,-0.439400,0.388001,-0.443357,0.385287,-0.447144,0.382331,-0.450745,0.379146,-0.454146,0.375745,-0.457331,0.372144,-0.460287,0.368357,-0.463001,
0.364400,-0.465461,0.360291,-0.467657,0.356047,-0.469580,0.351686,-0.471221,0.347228,-0.472574,0.342690,-0.473632,0.338093,-0.474391,0.333457,-0.474848,0.328800,-0.475000,-0.328800,-0.475000,-0.333457,-0.474848,-0.338093,-0.474391,-0.342690,-0.473632,-0.347228,-0.472574,-0.351686,-0.471221,-0.356047,-0.469580,-0.360291,-0.467657,-0.364400,-0.465461,-0.368357,-0.463001,-0.372144,-0.460287,
-0.375745,-0.457331,-0.379146,-0.454146,-0.382331,-0.450745,-0.385287,-0.447144,-0.388001,-0.443357,-0.390461,-0.439400,-0.392657,-0.435291,-0.394580,-0.431047,-0.396221,-0.426686,-0.397574,-0.422228,-0.398632,-0.417690,-0.399391,-0.413093,-0.399848,-0.408457,-0.400000,-0.403800,-0.400000,0.403800,-0.399848,0.408457,-0.399391,0.413093,-0.398632,0.417690,-0.397574,0.422228,-0.396221,0.426686,
-0.394580,0.431047,-0.392657,0.435291,-0.390461,0.439400,-0.388001,0.443357,-0.385287,0.447144,-0.382331,0.450745,-0.379146,0.454146,-0.375745,0.457331,-0.372144,0.460287,-0.368357,0.463001,-0.364400,0.465461,-0.360291,0.467657,-0.356047,0.469580,-0.351686,0.471221,-0.347228,0.472574,-0.342690,0.473632,-0.338093,0.474391,-0.333457,0.474848,-0.328800,0.475000,0.328800,0.475000,
0.333457,0.474848,0.333457,0.474848,$1*%
%AMFreePoly7*
4,1,5,0.850000,-0.850000,-0.850000,-0.850000,-0.850000,0.850000,0.850000,0.850000,0.850000,-0.850000,0.850000,-0.850000,$1*%
%AMFreePoly8*
4,1,101,0.383457,0.474848,0.388093,0.474391,0.392690,0.473632,0.397228,0.472574,0.401686,0.471221,0.406047,0.469580,0.410291,0.467657,0.414400,0.465461,0.418357,0.463001,0.422144,0.460287,0.425745,0.457331,0.429146,0.454146,0.432331,0.450745,0.435287,0.447144,0.438001,0.443357,0.440461,0.439400,0.442657,0.435291,0.444580,0.431047,0.446221,0.426686,0.447574,0.422228,
0.448632,0.417690,0.449391,0.413093,0.449848,0.408457,0.450000,0.403800,0.450000,-0.403800,0.449848,-0.408457,0.449391,-0.413093,0.448632,-0.417690,0.447574,-0.422228,0.446221,-0.426686,0.444580,-0.431047,0.442657,-0.435291,0.440461,-0.439400,0.438001,-0.443357,0.435287,-0.447144,0.432331,-0.450745,0.429146,-0.454146,0.425745,-0.457331,0.422144,-0.460287,0.418357,-0.463001,
0.414400,-0.465461,0.410291,-0.467657,0.406047,-0.469580,0.401686,-0.471221,0.397228,-0.472574,0.392690,-0.473632,0.388093,-0.474391,0.383457,-0.474848,0.378800,-0.475000,-0.378800,-0.475000,-0.383457,-0.474848,-0.388093,-0.474391,-0.392690,-0.473632,-0.397228,-0.472574,-0.401686,-0.471221,-0.406047,-0.469580,-0.410291,-0.467657,-0.414400,-0.465461,-0.418357,-0.463001,-0.422144,-0.460287,
-0.425745,-0.457331,-0.429146,-0.454146,-0.432331,-0.450745,-0.435287,-0.447144,-0.438001,-0.443357,-0.440461,-0.439400,-0.442657,-0.435291,-0.444580,-0.431047,-0.446221,-0.426686,-0.447574,-0.422228,-0.448632,-0.417690,-0.449391,-0.413093,-0.449848,-0.408457,-0.450000,-0.403800,-0.450000,0.403800,-0.449848,0.408457,-0.449391,0.413093,-0.448632,0.417690,-0.447574,0.422228,-0.446221,0.426686,
-0.444580,0.431047,-0.442657,0.435291,-0.440461,0.439400,-0.438001,0.443357,-0.435287,0.447144,-0.432331,0.450745,-0.429146,0.454146,-0.425745,0.457331,-0.422144,0.460287,-0.418357,0.463001,-0.414400,0.465461,-0.410291,0.467657,-0.406047,0.469580,-0.401686,0.471221,-0.397228,0.472574,-0.392690,0.473632,-0.388093,0.474391,-0.383457,0.474848,-0.378800,0.475000,0.378800,0.475000,
0.383457,0.474848,0.383457,0.474848,$1*%
%AMFreePoly9*
4,1,5,0.150000,-0.575000,-0.150000,-0.575000,-0.150000,0.575000,0.150000,0.575000,0.150000,-0.575000,0.150000,-0.575000,$1*%
%AMFreePoly10*
4,1,5,0.975000,-0.300000,-0.975000,-0.300000,-0.975000,0.300000,0.975000,0.300000,0.975000,-0.300000,0.975000,-0.300000,$1*%
%AMFreePoly11*
4,1,5,1.000000,-0.750000,-1.000000,-0.750000,-1.000000,0.750000,1.000000,0.750000,1.000000,-0.750000,1.000000,-0.750000,$1*%
%AMFreePoly12*
4,1,5,1.000000,-1.900000,-1.000000,-1.900000,-1.000000,1.900000,1.000000,1.900000,1.000000,-1.900000,1.000000,-1.900000,$1*%
%AMFreePoly13*
4,1,101,0.838362,0.299687,0.847883,0.298749,0.857322,0.297191,0.866639,0.295018,0.875794,0.292241,0.884748,0.288871,0.893463,0.284923,0.901900,0.280413,0.910024,0.275361,0.917801,0.269788,0.925196,0.263719,0.932179,0.257179,0.938719,0.250196,0.944788,0.242801,0.950361,0.235024,0.955413,0.226900,0.959923,0.218463,0.963871,0.209748,0.967241,0.200794,0.970018,0.191639,
0.972191,0.182322,0.973749,0.172883,0.974687,0.163362,0.975000,0.153800,0.975000,-0.153800,0.974687,-0.163362,0.973749,-0.172883,0.972191,-0.182322,0.970018,-0.191639,0.967241,-0.200794,0.963871,-0.209748,0.959923,-0.218463,0.955413,-0.226900,0.950361,-0.235024,0.944788,-0.242801,0.938719,-0.250196,0.932179,-0.257179,0.925196,-0.263719,0.917801,-0.269788,0.910024,-0.275361,
0.901900,-0.280413,0.893463,-0.284923,0.884748,-0.288871,0.875794,-0.292241,0.866639,-0.295018,0.857322,-0.297191,0.847883,-0.298749,0.838362,-0.299687,0.828800,-0.300000,-0.828800,-0.300000,-0.838362,-0.299687,-0.847883,-0.298749,-0.857322,-0.297191,-0.866639,-0.295018,-0.875794,-0.292241,-0.884748,-0.288871,-0.893463,-0.284923,-0.901900,-0.280413,-0.910024,-0.275361,-0.917801,-0.269788,
-0.925196,-0.263719,-0.932179,-0.257179,-0.938719,-0.250196,-0.944788,-0.242801,-0.950361,-0.235024,-0.955413,-0.226900,-0.959923,-0.218463,-0.963871,-0.209748,-0.967241,-0.200794,-0.970018,-0.191639,-0.972191,-0.182322,-0.973749,-0.172883,-0.974687,-0.163362,-0.975000,-0.153800,-0.975000,0.153800,-0.974687,0.163362,-0.973749,0.172883,-0.972191,0.182322,-0.970018,0.191639,-0.967241,0.200794,
-0.963871,0.209748,-0.959923,0.218463,-0.955413,0.226900,-0.950361,0.235024,-0.944788,0.242801,-0.938719,0.250196,-0.932179,0.257179,-0.925196,0.263719,-0.917801,0.269788,-0.910024,0.275361,-0.901900,0.280413,-0.893463,0.284923,-0.884748,0.288871,-0.875794,0.292241,-0.866639,0.295018,-0.857322,0.297191,-0.847883,0.298749,-0.838362,0.299687,-0.828800,0.300000,0.828800,0.300000,
0.838362,0.299687,0.838362,0.299687,$1*%
%AMFreePoly14*
4,1,65,0.239569,0.309602,0.242572,0.309107,0.248447,0.307532,0.251295,0.306460,0.256750,0.303770,0.259334,0.302163,0.264160,0.298461,0.268461,0.294160,0.272163,0.289334,0.273770,0.286750,0.276460,0.281295,0.277532,0.278447,0.279107,0.272572,0.279602,0.269569,0.280000,0.263500,0.280000,-0.263500,0.279602,-0.269569,0.279107,-0.272572,0.277532,-0.278447,0.276460,-0.281295,
0.273770,-0.286750,0.272163,-0.289334,0.268461,-0.294160,0.264160,-0.298461,0.259334,-0.302163,0.256750,-0.303770,0.251295,-0.306460,0.248447,-0.307532,0.242572,-0.309107,0.239569,-0.309602,0.233500,-0.310000,-0.233500,-0.310000,-0.239569,-0.309602,-0.242572,-0.309107,-0.248447,-0.307532,-0.251295,-0.306460,-0.256750,-0.303770,-0.259334,-0.302163,-0.264160,-0.298461,-0.268461,-0.294160,
-0.272163,-0.289334,-0.273770,-0.286750,-0.276460,-0.281295,-0.277532,-0.278447,-0.279107,-0.272572,-0.279602,-0.269569,-0.280000,-0.263500,-0.280000,0.263500,-0.279602,0.269569,-0.279107,0.272572,-0.277532,0.278447,-0.276460,0.281295,-0.273770,0.286750,-0.272163,0.289334,-0.268461,0.294160,-0.264160,0.298461,-0.259334,0.302163,-0.256750,0.303770,-0.251295,0.306460,-0.248447,0.307532,
-0.242572,0.309107,-0.239569,0.309602,-0.233500,0.310000,0.233500,0.310000,0.239569,0.309602,0.239569,0.309602,$1*%
%AMFreePoly15*
4,1,101,0.370957,0.474848,0.375593,0.474391,0.380190,0.473632,0.384728,0.472574,0.389186,0.471221,0.393547,0.469580,0.397791,0.467657,0.401900,0.465461,0.405857,0.463001,0.409644,0.460287,0.413245,0.457331,0.416646,0.454146,0.419831,0.450745,0.422787,0.447144,0.425501,0.443357,0.427961,0.439400,0.430157,0.435291,0.432080,0.431047,0.433721,0.426686,0.435074,0.422228,
0.436132,0.417690,0.436891,0.413093,0.437348,0.408457,0.437500,0.403800,0.437500,-0.403800,0.437348,-0.408457,0.436891,-0.413093,0.436132,-0.417690,0.435074,-0.422228,0.433721,-0.426686,0.432080,-0.431047,0.430157,-0.435291,0.427961,-0.439400,0.425501,-0.443357,0.422787,-0.447144,0.419831,-0.450745,0.416646,-0.454146,0.413245,-0.457331,0.409644,-0.460287,0.405857,-0.463001,
0.401900,-0.465461,0.397791,-0.467657,0.393547,-0.469580,0.389186,-0.471221,0.384728,-0.472574,0.380190,-0.473632,0.375593,-0.474391,0.370957,-0.474848,0.366300,-0.475000,-0.366300,-0.475000,-0.370957,-0.474848,-0.375593,-0.474391,-0.380190,-0.473632,-0.384728,-0.472574,-0.389186,-0.471221,-0.393547,-0.469580,-0.397791,-0.467657,-0.401900,-0.465461,-0.405857,-0.463001,-0.409644,-0.460287,
-0.413245,-0.457331,-0.416646,-0.454146,-0.419831,-0.450745,-0.422787,-0.447144,-0.425501,-0.443357,-0.427961,-0.439400,-0.430157,-0.435291,-0.432080,-0.431047,-0.433721,-0.426686,-0.435074,-0.422228,-0.436132,-0.417690,-0.436891,-0.413093,-0.437348,-0.408457,-0.437500,-0.403800,-0.437500,0.403800,-0.437348,0.408457,-0.436891,0.413093,-0.436132,0.417690,-0.435074,0.422228,-0.433721,0.426686,
-0.432080,0.431047,-0.430157,0.435291,-0.427961,0.439400,-0.425501,0.443357,-0.422787,0.447144,-0.419831,0.450745,-0.416646,0.454146,-0.413245,0.457331,-0.409644,0.460287,-0.405857,0.463001,-0.401900,0.465461,-0.397791,0.467657,-0.393547,0.469580,-0.389186,0.471221,-0.384728,0.472574,-0.380190,0.473632,-0.375593,0.474391,-0.370957,0.474848,-0.366300,0.475000,0.366300,0.475000,
0.370957,0.474848,0.370957,0.474848,$1*%
G04 Aperture macros list end*
%TA.AperFunction,ComponentPad*%
%ADD10FreePoly0,90.000000*%
%TD*%
%TA.AperFunction,SMDPad,CuDef*%
%ADD11FreePoly1,315.000000*%
%TD*%
%TA.AperFunction,SMDPad,CuDef*%
%ADD12FreePoly2,315.000000*%
%TD*%
%TA.AperFunction,SMDPad,CuDef*%
%ADD13FreePoly3,315.000000*%
%TD*%
%TA.AperFunction,SMDPad,CuDef*%
%ADD14FreePoly4,315.000000*%
%TD*%
%TA.AperFunction,SMDPad,CuDef*%
%ADD15C,0.300000*%
%TD*%
%TA.AperFunction,ComponentPad*%
%ADD16FreePoly5,0.000000*%
%TD*%
%TA.AperFunction,SMDPad,CuDef*%
%ADD17FreePoly6,0.000000*%
%TD*%
%TA.AperFunction,ComponentPad*%
%ADD18FreePoly7,180.000000*%
%TD*%
%TA.AperFunction,ComponentPad*%
%ADD19C,1.700000*%
%TD*%
%TA.AperFunction,SMDPad,CuDef*%
%ADD20FreePoly8,90.000000*%
%TD*%
%TA.AperFunction,ComponentPad*%
%ADD21O,1.000000X1.800000*%
%TD*%
%TA.AperFunction,SMDPad,CuDef*%
%ADD22FreePoly9,0.000000*%
%TD*%
%TA.AperFunction,SMDPad,CuDef*%
%ADD23FreePoly10,270.000000*%
%TD*%
%TA.AperFunction,SMDPad,CuDef*%
%ADD24FreePoly11,90.000000*%
%TD*%
%TA.AperFunction,SMDPad,CuDef*%
%ADD25FreePoly12,90.000000*%
%TD*%
%TA.AperFunction,SMDPad,CuDef*%
%ADD26FreePoly13,0.000000*%
%TD*%
%TA.AperFunction,SMDPad,CuDef*%
%ADD27FreePoly14,90.000000*%
%TD*%
%TA.AperFunction,SMDPad,CuDef*%
%ADD28FreePoly15,180.000000*%
%TD*%
%TA.AperFunction,Conductor*%
%ADD29C,0.300000*%
%TD*%
%TA.AperFunction,Conductor*%
%ADD30C,0.150000*%
%TD*%
%TA.AperFunction,Conductor*%
%ADD31C,0.254000*%
%TD*%
G04 APERTURE END LIST*
D10*
%TO.P,,180dcbaf-095f-49bd-8aaf-839e77d25fdc*%
%TO.N,N/C*%
X-15015100Y-7609100D03*
D11*
%TO.P,,0aa3adf7-f75a-4594-850d-b34f821d2427__0fa4a357-c542-4374-8bb0-f32ead003e2e*%
X25567172Y18668084D03*
D12*
%TO.P,,0aa3adf7-f75a-4594-850d-b34f821d2427__5cb1ad7e-1776-49d3-861a-635f3c3bb4b8*%
X24149426Y20085836D03*
D13*
%TO.P,,0aa3adf7-f75a-4594-850d-b34f821d2427__7de9ac0a-ec75-48eb-8b57-26b1ef0c8ef1*%
X24944920Y19290339D03*
D14*
%TO.P,,0aa3adf7-f75a-4594-850d-b34f821d2427__981dbe12-a21b-442d-aaaf-ad9c25bd40d8*%
X26260136Y17975118D03*
D15*
%TO.P,,0cb6b9ad-ebc6-43ff-9b1d-ceede77acbd0__ba183820-9b07-4a9e-8e29-d9f7379966ef*%
X3688359Y-15659123D03*
%TO.P,,0cb6b9ad-ebc6-43ff-9b1d-ceede77acbd0__d041fc9e-ab4b-45ae-9975-b16d9b4b9686*%
X3688356Y-14878123D03*
D16*
%TO.P,,0cb6b9ad-ebc6-43ff-9b1d-ceede77acbd0__35d18e86-2e91-4a9c-90fe-8f678583db3f*%
%TO.N,Net (P1)*%
X-1119041Y-15754540D03*
%TO.P,,0cb6b9ad-ebc6-43ff-9b1d-ceede77acbd0__7562f64c-f3a7-45a8-98a7-bb9a1d4f0b9c*%
X3004455Y-14622125D03*
%TO.P,,0cb6b9ad-ebc6-43ff-9b1d-ceede77acbd0__e3c70afb-3045-422a-8aff-639b15b495bd*%
X3005959Y-15639725D03*
D17*
%TO.P,,0fc4e178-314e-4041-9722-8ab8e97c59d3__880f28ef-cf41-0acc-4a98-ce0afa37b0c2*%
%TO.N,N/C*%
X8861100Y-8273500D03*
%TO.P,,0fc4e178-314e-4041-9722-8ab8e97c59d3__dff57d78-487b-f832-db06-4405c23ce37c*%
X7211100Y-8273500D03*
D11*
%TO.P,,13eb72fe-5e41-4aa1-b01e-e86409cd8ab4__0fa4a357-c542-4374-8bb0-f32ead003e2e*%
X22260772Y18668084D03*
D12*
%TO.P,,13eb72fe-5e41-4aa1-b01e-e86409cd8ab4__5cb1ad7e-1776-49d3-861a-635f3c3bb4b8*%
X20843026Y20085836D03*
D13*
%TO.P,,13eb72fe-5e41-4aa1-b01e-e86409cd8ab4__7de9ac0a-ec75-48eb-8b57-26b1ef0c8ef1*%
X21638520Y19290339D03*
D14*
%TO.P,,13eb72fe-5e41-4aa1-b01e-e86409cd8ab4__981dbe12-a21b-442d-aaaf-ad9c25bd40d8*%
X22953736Y17975118D03*
D11*
%TO.P,,1408e5ff-b90c-4741-b2e9-bd993878ab1b__0fa4a357-c542-4374-8bb0-f32ead003e2e*%
X28873472Y22170684D03*
D12*
%TO.P,,1408e5ff-b90c-4741-b2e9-bd993878ab1b__5cb1ad7e-1776-49d3-861a-635f3c3bb4b8*%
X27455726Y23588436D03*
D13*
%TO.P,,1408e5ff-b90c-4741-b2e9-bd993878ab1b__7de9ac0a-ec75-48eb-8b57-26b1ef0c8ef1*%
X28251220Y22792939D03*
D14*
%TO.P,,1408e5ff-b90c-4741-b2e9-bd993878ab1b__981dbe12-a21b-442d-aaaf-ad9c25bd40d8*%
X29566436Y21477718D03*
D18*
%TO.P,,162c6602-c9b5-47a0-aa90-31c37a0f36df__0992ee89-1032-fd30-2029-3e948a6e6976*%
X-40911800Y-18688300D03*
D19*
%TO.P,,162c6602-c9b5-47a0-aa90-31c37a0f36df__2f66f798-d8f8-3f82-91df-9498ebe19ffc*%
X-40911780Y-11068300D03*
%TO.P,,162c6602-c9b5-47a0-aa90-31c37a0f36df__6d4016d0-e35e-4bce-9ab6-94bc5e267a44*%
X-40911793Y-16148300D03*
%TO.P,,162c6602-c9b5-47a0-aa90-31c37a0f36df__e5de0347-9934-34ad-a4a7-6d6797e315f0*%
X-40911787Y-13608300D03*
D11*
%TO.P,,184ef913-9efc-4f37-823f-ea95a63a739b__0fa4a357-c542-4374-8bb0-f32ead003e2e*%
X28873472Y18668084D03*
D12*
%TO.P,,184ef913-9efc-4f37-823f-ea95a63a739b__5cb1ad7e-1776-49d3-861a-635f3c3bb4b8*%
X27455726Y20085836D03*
D13*
%TO.P,,184ef913-9efc-4f37-823f-ea95a63a739b__7de9ac0a-ec75-48eb-8b57-26b1ef0c8ef1*%
X28251220Y19290339D03*
D14*
%TO.P,,184ef913-9efc-4f37-823f-ea95a63a739b__981dbe12-a21b-442d-aaaf-ad9c25bd40d8*%
X29566436Y17975118D03*
D20*
%TO.P,,1c03159e-ebe9-44e8-9dca-3af2471026cf__5237503d-4662-b83a-7859-31969858b9c0*%
X10152103Y-9790500D03*
%TO.P,,1c03159e-ebe9-44e8-9dca-3af2471026cf__e5e04a27-c5c4-f2e6-5799-708eb3f01464*%
X10152097Y-8240500D03*
D11*
%TO.P,,2a4cb578-e4f7-48d1-8dbd-f38bb71ab72b__0fa4a357-c542-4374-8bb0-f32ead003e2e*%
X38792572Y18668084D03*
D12*
%TO.P,,2a4cb578-e4f7-48d1-8dbd-f38bb71ab72b__5cb1ad7e-1776-49d3-861a-635f3c3bb4b8*%
X37374826Y20085836D03*
D13*
%TO.P,,2a4cb578-e4f7-48d1-8dbd-f38bb71ab72b__7de9ac0a-ec75-48eb-8b57-26b1ef0c8ef1*%
X38170320Y19290339D03*
D14*
%TO.P,,2a4cb578-e4f7-48d1-8dbd-f38bb71ab72b__981dbe12-a21b-442d-aaaf-ad9c25bd40d8*%
X39485536Y17975118D03*
D11*
%TO.P,,2ee85aca-ec18-46e1-87e1-4201dc11b4d7__0fa4a357-c542-4374-8bb0-f32ead003e2e*%
X35486172Y22170684D03*
D12*
%TO.P,,2ee85aca-ec18-46e1-87e1-4201dc11b4d7__5cb1ad7e-1776-49d3-861a-635f3c3bb4b8*%
X34068426Y23588436D03*
D13*
%TO.P,,2ee85aca-ec18-46e1-87e1-4201dc11b4d7__7de9ac0a-ec75-48eb-8b57-26b1ef0c8ef1*%
X34863920Y22792939D03*
D14*
%TO.P,,2ee85aca-ec18-46e1-87e1-4201dc11b4d7__981dbe12-a21b-442d-aaaf-ad9c25bd40d8*%
X36179136Y21477718D03*
D11*
%TO.P,,3082c979-7f44-4b64-af30-89f2cd160c4d__0fa4a357-c542-4374-8bb0-f32ead003e2e*%
X22260772Y15328584D03*
D12*
%TO.P,,3082c979-7f44-4b64-af30-89f2cd160c4d__5cb1ad7e-1776-49d3-861a-635f3c3bb4b8*%
X20843026Y16746336D03*
D13*
%TO.P,,3082c979-7f44-4b64-af30-89f2cd160c4d__7de9ac0a-ec75-48eb-8b57-26b1ef0c8ef1*%
X21638520Y15950839D03*
D14*
%TO.P,,3082c979-7f44-4b64-af30-89f2cd160c4d__981dbe12-a21b-442d-aaaf-ad9c25bd40d8*%
X22953736Y14635618D03*
D11*
%TO.P,,31134256-e603-4a40-a22b-715e98dd04de__0fa4a357-c542-4374-8bb0-f32ead003e2e*%
X32179872Y18668084D03*
D12*
%TO.P,,31134256-e603-4a40-a22b-715e98dd04de__5cb1ad7e-1776-49d3-861a-635f3c3bb4b8*%
X30762126Y20085836D03*
D13*
%TO.P,,31134256-e603-4a40-a22b-715e98dd04de__7de9ac0a-ec75-48eb-8b57-26b1ef0c8ef1*%
X31557620Y19290339D03*
D14*
%TO.P,,31134256-e603-4a40-a22b-715e98dd04de__981dbe12-a21b-442d-aaaf-ad9c25bd40d8*%
X32872836Y17975118D03*
D11*
%TO.P,,35982293-d370-4c27-8d7a-5a258b837d39__0fa4a357-c542-4374-8bb0-f32ead003e2e*%
X22260772Y22170684D03*
D12*
%TO.P,,35982293-d370-4c27-8d7a-5a258b837d39__5cb1ad7e-1776-49d3-861a-635f3c3bb4b8*%
X20843026Y23588436D03*
D13*
%TO.P,,35982293-d370-4c27-8d7a-5a258b837d39__7de9ac0a-ec75-48eb-8b57-26b1ef0c8ef1*%
X21638520Y22792939D03*
D14*
%TO.P,,35982293-d370-4c27-8d7a-5a258b837d39__981dbe12-a21b-442d-aaaf-ad9c25bd40d8*%
X22953736Y21477718D03*
D11*
%TO.P,,46c12433-ed3f-4f90-853f-50eb0fcab32c__0fa4a357-c542-4374-8bb0-f32ead003e2e*%
X25567172Y22170684D03*
D12*
%TO.P,,46c12433-ed3f-4f90-853f-50eb0fcab32c__5cb1ad7e-1776-49d3-861a-635f3c3bb4b8*%
X24149426Y23588436D03*
D13*
%TO.P,,46c12433-ed3f-4f90-853f-50eb0fcab32c__7de9ac0a-ec75-48eb-8b57-26b1ef0c8ef1*%
X24944920Y22792939D03*
D14*
%TO.P,,46c12433-ed3f-4f90-853f-50eb0fcab32c__981dbe12-a21b-442d-aaaf-ad9c25bd40d8*%
X26260136Y21477718D03*
D11*
%TO.P,,5bcdd88f-6ced-44d0-af98-2dbceb422e04__0fa4a357-c542-4374-8bb0-f32ead003e2e*%
X25567172Y15328584D03*
D12*
%TO.P,,5bcdd88f-6ced-44d0-af98-2dbceb422e04__5cb1ad7e-1776-49d3-861a-635f3c3bb4b8*%
X24149426Y16746336D03*
D13*
%TO.P,,5bcdd88f-6ced-44d0-af98-2dbceb422e04__7de9ac0a-ec75-48eb-8b57-26b1ef0c8ef1*%
X24944920Y15950839D03*
D14*
%TO.P,,5bcdd88f-6ced-44d0-af98-2dbceb422e04__981dbe12-a21b-442d-aaaf-ad9c25bd40d8*%
X26260136Y14635618D03*
D11*
%TO.P,,666c0612-c03c-43b5-a8ac-8f9ae0bc8bc2__0fa4a357-c542-4374-8bb0-f32ead003e2e*%
X15648074Y22170686D03*
D12*
%TO.P,,666c0612-c03c-43b5-a8ac-8f9ae0bc8bc2__5cb1ad7e-1776-49d3-861a-635f3c3bb4b8*%
X14230321Y23588431D03*
D13*
%TO.P,,666c0612-c03c-43b5-a8ac-8f9ae0bc8bc2__7de9ac0a-ec75-48eb-8b57-26b1ef0c8ef1*%
X15025819Y22792938D03*
D14*
%TO.P,,666c0612-c03c-43b5-a8ac-8f9ae0bc8bc2__981dbe12-a21b-442d-aaaf-ad9c25bd40d8*%
X16341041Y21477723D03*
D21*
%TO.P,,6bb5b840-847d-48eb-8cc3-ad84b5adc210__1216187b-802c-4d88-b628-cd4cb8afd5f0*%
X28140200Y-24259600D03*
%TO.P,,6bb5b840-847d-48eb-8cc3-ad84b5adc210__2309d7ac-3778-47d2-81fb-4cf827d81296*%
X28140200Y-20079600D03*
%TO.P,,6bb5b840-847d-48eb-8cc3-ad84b5adc210__3bc7a76d-a493-4f31-b6bc-75d950d01dbf*%
X36780200Y-24259600D03*
%TO.P,,6bb5b840-847d-48eb-8cc3-ad84b5adc210__cfdd2419-59b5-4493-b58b-0acbfc5abfb0*%
X36780200Y-20079600D03*
D22*
%TO.P,,6bb5b840-847d-48eb-8cc3-ad84b5adc210__0fbd662f-ae51-0419-2e33-15e71cff3421*%
X30710200Y-19504600D03*
%TO.P,,6bb5b840-847d-48eb-8cc3-ad84b5adc210__119cc761-1177-2d49-8e25-3c4fca25cb6d*%
X29110200Y-19504600D03*
%TO.P,,6bb5b840-847d-48eb-8cc3-ad84b5adc210__18e52059-167f-2fb0-8314-96790dc40cf9*%
X29910200Y-19504600D03*
%TO.P,,6bb5b840-847d-48eb-8cc3-ad84b5adc210__261e5ed6-ce7a-c48a-b976-35af13d878ec*%
X35810200Y-19504600D03*
%TO.P,,6bb5b840-847d-48eb-8cc3-ad84b5adc210__40587bd4-c2e0-4d51-87c3-fab1730df282*%
X35010200Y-19504600D03*
%TO.P,,6bb5b840-847d-48eb-8cc3-ad84b5adc210__51385116-9843-6810-4c6f-1d8b599bd516*%
X31710200Y-19504600D03*
%TO.P,,6bb5b840-847d-48eb-8cc3-ad84b5adc210__54964fad-fa6b-8415-e03f-a90865ce5965*%
X35510200Y-19504600D03*
%TO.P,,6bb5b840-847d-48eb-8cc3-ad84b5adc210__56d71544-2507-5a8d-0b85-77e91e9ca5d3*%
X29410200Y-19504600D03*
%TO.P,,6bb5b840-847d-48eb-8cc3-ad84b5adc210__56ef7a14-6f12-7a59-4d96-19948433a1dd*%
X32710200Y-19504600D03*
%TO.P,,6bb5b840-847d-48eb-8cc3-ad84b5adc210__5d99f3fc-fcf9-29cd-fdd6-2935bf75d6bb*%
X31210200Y-19504600D03*
%TO.P,,6bb5b840-847d-48eb-8cc3-ad84b5adc210__9237a8fb-9a98-492d-46aa-4b03dc4f25c0*%
X30210200Y-19504600D03*
%TO.P,,6bb5b840-847d-48eb-8cc3-ad84b5adc210__92d5adb8-8135-29e6-4a39-0b02300ed313*%
X33210200Y-19504600D03*
%TO.P,,6bb5b840-847d-48eb-8cc3-ad84b5adc210__a2317b95-da49-48fb-a6a2-45bf9524fe17*%
X34710200Y-19504600D03*
%TO.P,,6bb5b840-847d-48eb-8cc3-ad84b5adc210__d9e08c0f-78ab-9bbe-96c2-912900736ec0*%
X32210200Y-19504600D03*
%TO.P,,6bb5b840-847d-48eb-8cc3-ad84b5adc210__e97d8bcc-6699-c11e-7e21-438bfb51945b*%
X33710200Y-19504600D03*
%TO.P,,6bb5b840-847d-48eb-8cc3-ad84b5adc210__ef8b1e21-2f6a-f853-e403-0342c96abb98*%
X34210200Y-19504600D03*
D23*
%TO.P,,6e06f24b-bc7e-4558-abc4-5300702e4049__128029ba-2f2b-bfbd-007b-1a7a195a7e8a*%
X34710197Y-10759597D03*
%TO.P,,6e06f24b-bc7e-4558-abc4-5300702e4049__1e5698f3-eafc-a62d-1ba4-80b68bacdf89*%
X27090203Y-15709605D03*
%TO.P,,6e06f24b-bc7e-4558-abc4-5300702e4049__2b8984b9-87a4-82ab-a940-e4fdfd4283cd*%
X33440197Y-10759598D03*
%TO.P,,6e06f24b-bc7e-4558-abc4-5300702e4049__2f5c0bc0-b66a-4df1-b7d5-0f708c5f524d*%
X30900197Y-10759601D03*
%TO.P,,6e06f24b-bc7e-4558-abc4-5300702e4049__303d8a45-c516-b423-5fcd-079b340beb42*%
X34710203Y-15709597D03*
%TO.P,,6e06f24b-bc7e-4558-abc4-5300702e4049__3e0ab44b-f931-1b85-a661-f9a920d1adbe*%
X35980203Y-15709595D03*
%TO.P,,6e06f24b-bc7e-4558-abc4-5300702e4049__3ec30560-ad79-64c1-931c-db676cbcc830*%
X27090197Y-10759605D03*
%TO.P,,6e06f24b-bc7e-4558-abc4-5300702e4049__58cc0de4-ae1b-143c-bde0-3e62adbe10cb*%
X35980197Y-10759595D03*
%TO.P,,6e06f24b-bc7e-4558-abc4-5300702e4049__8a0654fd-5932-3717-0021-cace24acab6f*%
X32170203Y-15709599D03*
%TO.P,,6e06f24b-bc7e-4558-abc4-5300702e4049__a5805d94-15c8-4c1a-41d9-48b0c3bedc97*%
X28360197Y-10759603D03*
%TO.P,,6e06f24b-bc7e-4558-abc4-5300702e4049__c02cea55-4099-bcd9-a0be-9dfd78a71265*%
X32170197Y-10759599D03*
%TO.P,,6e06f24b-bc7e-4558-abc4-5300702e4049__e185b80c-4b19-4b6e-bd20-7b5fe60f1f8f*%
X33440203Y-15709598D03*
%TO.P,,6e06f24b-bc7e-4558-abc4-5300702e4049__e59d0dba-074b-ba66-ea6d-be2d9e79620a*%
X28360203Y-15709603D03*
%TO.P,,6e06f24b-bc7e-4558-abc4-5300702e4049__ecb46168-d687-d420-b38c-dcbe6d81db63*%
X29630203Y-15709602D03*
%TO.P,,6e06f24b-bc7e-4558-abc4-5300702e4049__f09f29e2-1c9d-1346-4105-2c92f4b8a2e1*%
X29630197Y-10759602D03*
%TO.P,,6e06f24b-bc7e-4558-abc4-5300702e4049__f5ea4c61-89c4-b7cf-e509-6e455f9874c4*%
X30900203Y-15709601D03*
D24*
%TO.P,,73189957-84ad-4f0f-9e99-fd8863321d84__067494cb-4e9e-cb48-1e72-15ce4bf90d3d*%
X20005212Y-25059600D03*
%TO.P,,73189957-84ad-4f0f-9e99-fd8863321d84__17993ab7-03eb-a0a4-3663-439043d69847*%
X22305212Y-25059592D03*
%TO.P,,73189957-84ad-4f0f-9e99-fd8863321d84__53b3baf8-bd94-9ef8-7025-c74057d2be07*%
X17705212Y-25059608D03*
D25*
%TO.P,,73189957-84ad-4f0f-9e99-fd8863321d84__905d5495-5182-0853-8747-c1876cea3d98*%
X20005188Y-18759600D03*
D11*
%TO.P,,7385a0b8-d85e-457d-a10c-d7f158a2a723__0fa4a357-c542-4374-8bb0-f32ead003e2e*%
X32179872Y15328584D03*
D12*
%TO.P,,7385a0b8-d85e-457d-a10c-d7f158a2a723__5cb1ad7e-1776-49d3-861a-635f3c3bb4b8*%
X30762126Y16746336D03*
D13*
%TO.P,,7385a0b8-d85e-457d-a10c-d7f158a2a723__7de9ac0a-ec75-48eb-8b57-26b1ef0c8ef1*%
X31557620Y15950839D03*
D14*
%TO.P,,7385a0b8-d85e-457d-a10c-d7f158a2a723__981dbe12-a21b-442d-aaaf-ad9c25bd40d8*%
X32872836Y14635618D03*
D11*
%TO.P,,7537bedd-5804-43f7-8a97-394b88f1a208__0fa4a357-c542-4374-8bb0-f32ead003e2e*%
X18954472Y18668084D03*
D12*
%TO.P,,7537bedd-5804-43f7-8a97-394b88f1a208__5cb1ad7e-1776-49d3-861a-635f3c3bb4b8*%
X17536726Y20085836D03*
D13*
%TO.P,,7537bedd-5804-43f7-8a97-394b88f1a208__7de9ac0a-ec75-48eb-8b57-26b1ef0c8ef1*%
X18332220Y19290339D03*
D14*
%TO.P,,7537bedd-5804-43f7-8a97-394b88f1a208__981dbe12-a21b-442d-aaaf-ad9c25bd40d8*%
X19647436Y17975118D03*
D11*
%TO.P,,8d9ac8fe-ce4d-479a-902d-1198243a0dea__0fa4a357-c542-4374-8bb0-f32ead003e2e*%
X38792572Y22170684D03*
D12*
%TO.P,,8d9ac8fe-ce4d-479a-902d-1198243a0dea__5cb1ad7e-1776-49d3-861a-635f3c3bb4b8*%
X37374826Y23588436D03*
D13*
%TO.P,,8d9ac8fe-ce4d-479a-902d-1198243a0dea__7de9ac0a-ec75-48eb-8b57-26b1ef0c8ef1*%
X38170320Y22792939D03*
D14*
%TO.P,,8d9ac8fe-ce4d-479a-902d-1198243a0dea__981dbe12-a21b-442d-aaaf-ad9c25bd40d8*%
X39485536Y21477718D03*
D26*
%TO.P,,9f9835cb-3a2b-4c29-b448-ce1f5a3f318a__1f444c1a-32fe-5a3c-09a7-fc4d154c7d32*%
X12160900Y-17178400D03*
%TO.P,,9f9835cb-3a2b-4c29-b448-ce1f5a3f318a__446ec1b9-a7f3-deee-ac19-ff05bb2fc3c6*%
X12160900Y-14638400D03*
%TO.P,,9f9835cb-3a2b-4c29-b448-ce1f5a3f318a__5254d2fb-99ee-57c2-6783-35105f702ebc*%
X12160900Y-13368400D03*
%TO.P,,9f9835cb-3a2b-4c29-b448-ce1f5a3f318a__52e25491-3991-1208-1e57-e9ed5e84a3f1*%
X7210900Y-14638400D03*
%TO.P,,9f9835cb-3a2b-4c29-b448-ce1f5a3f318a__5ac761a3-15ad-fd89-5e89-0e30ccb31e93*%
X7210900Y-17178400D03*
%TO.P,,9f9835cb-3a2b-4c29-b448-ce1f5a3f318a__787cd935-0a55-34d7-8eae-1aa23a1a9e06*%
X7210900Y-15908400D03*
%TO.P,,9f9835cb-3a2b-4c29-b448-ce1f5a3f318a__80a99845-8ad7-34f5-1f41-2fb805502c34*%
X12160900Y-15908400D03*
%TO.P,,9f9835cb-3a2b-4c29-b448-ce1f5a3f318a__a0fb1efc-d313-3b51-6a95-712133b05d10*%
X7210900Y-13368400D03*
D11*
%TO.P,,a90fd4c5-2337-4e94-a2dc-90f844a98482__0fa4a357-c542-4374-8bb0-f32ead003e2e*%
X15648072Y15328584D03*
D12*
%TO.P,,a90fd4c5-2337-4e94-a2dc-90f844a98482__5cb1ad7e-1776-49d3-861a-635f3c3bb4b8*%
X14230326Y16746336D03*
D13*
%TO.P,,a90fd4c5-2337-4e94-a2dc-90f844a98482__7de9ac0a-ec75-48eb-8b57-26b1ef0c8ef1*%
X15025820Y15950839D03*
D14*
%TO.P,,a90fd4c5-2337-4e94-a2dc-90f844a98482__981dbe12-a21b-442d-aaaf-ad9c25bd40d8*%
X16341036Y14635618D03*
D11*
%TO.P,,c3a3712f-6ab0-40f6-8152-14e9b021fd2c__0fa4a357-c542-4374-8bb0-f32ead003e2e*%
X38792572Y15328584D03*
D12*
%TO.P,,c3a3712f-6ab0-40f6-8152-14e9b021fd2c__5cb1ad7e-1776-49d3-861a-635f3c3bb4b8*%
X37374826Y16746336D03*
D13*
%TO.P,,c3a3712f-6ab0-40f6-8152-14e9b021fd2c__7de9ac0a-ec75-48eb-8b57-26b1ef0c8ef1*%
X38170320Y15950839D03*
D14*
%TO.P,,c3a3712f-6ab0-40f6-8152-14e9b021fd2c__981dbe12-a21b-442d-aaaf-ad9c25bd40d8*%
X39485536Y14635618D03*
D11*
%TO.P,,c3d1b329-431f-46df-8fc8-a8a2c4453a3f__0fa4a357-c542-4374-8bb0-f32ead003e2e*%
X18954472Y15328584D03*
D12*
%TO.P,,c3d1b329-431f-46df-8fc8-a8a2c4453a3f__5cb1ad7e-1776-49d3-861a-635f3c3bb4b8*%
X17536726Y16746336D03*
D13*
%TO.P,,c3d1b329-431f-46df-8fc8-a8a2c4453a3f__7de9ac0a-ec75-48eb-8b57-26b1ef0c8ef1*%
X18332220Y15950839D03*
D14*
%TO.P,,c3d1b329-431f-46df-8fc8-a8a2c4453a3f__981dbe12-a21b-442d-aaaf-ad9c25bd40d8*%
X19647436Y14635618D03*
D11*
%TO.P,,c61b1e45-333c-45b2-9102-ef1ae8315382__0fa4a357-c542-4374-8bb0-f32ead003e2e*%
X35486172Y18668084D03*
D12*
%TO.P,,c61b1e45-333c-45b2-9102-ef1ae8315382__5cb1ad7e-1776-49d3-861a-635f3c3bb4b8*%
X34068426Y20085836D03*
D13*
%TO.P,,c61b1e45-333c-45b2-9102-ef1ae8315382__7de9ac0a-ec75-48eb-8b57-26b1ef0c8ef1*%
X34863920Y19290339D03*
D14*
%TO.P,,c61b1e45-333c-45b2-9102-ef1ae8315382__981dbe12-a21b-442d-aaaf-ad9c25bd40d8*%
X36179136Y17975118D03*
D27*
%TO.P,,cea3997b-c36c-4b3a-93cf-74036454cde3__5237503d-4662-b83a-7859-31969858b9c0*%
X5155002Y-15730500D03*
%TO.P,,cea3997b-c36c-4b3a-93cf-74036454cde3__e5e04a27-c5c4-f2e6-5799-708eb3f01464*%
X5154998Y-14770500D03*
D11*
%TO.P,,d31d6c99-b78d-4475-aa6b-9479e2418e4f__0fa4a357-c542-4374-8bb0-f32ead003e2e*%
X32179872Y22170684D03*
D12*
%TO.P,,d31d6c99-b78d-4475-aa6b-9479e2418e4f__5cb1ad7e-1776-49d3-861a-635f3c3bb4b8*%
X30762126Y23588436D03*
D13*
%TO.P,,d31d6c99-b78d-4475-aa6b-9479e2418e4f__7de9ac0a-ec75-48eb-8b57-26b1ef0c8ef1*%
X31557620Y22792939D03*
D14*
%TO.P,,d31d6c99-b78d-4475-aa6b-9479e2418e4f__981dbe12-a21b-442d-aaaf-ad9c25bd40d8*%
X32872836Y21477718D03*
D11*
%TO.P,,da7f3122-6452-4eef-a6ee-a64e913f2dd1__0fa4a357-c542-4374-8bb0-f32ead003e2e*%
X15648072Y18668084D03*
D12*
%TO.P,,da7f3122-6452-4eef-a6ee-a64e913f2dd1__5cb1ad7e-1776-49d3-861a-635f3c3bb4b8*%
X14230326Y20085836D03*
D13*
%TO.P,,da7f3122-6452-4eef-a6ee-a64e913f2dd1__7de9ac0a-ec75-48eb-8b57-26b1ef0c8ef1*%
X15025820Y19290339D03*
D14*
%TO.P,,da7f3122-6452-4eef-a6ee-a64e913f2dd1__981dbe12-a21b-442d-aaaf-ad9c25bd40d8*%
X16341036Y17975118D03*
D11*
%TO.P,,e08f936b-0ceb-44c0-afa2-7d7ae7423896__0fa4a357-c542-4374-8bb0-f32ead003e2e*%
X35486172Y15328584D03*
D12*
%TO.P,,e08f936b-0ceb-44c0-afa2-7d7ae7423896__5cb1ad7e-1776-49d3-861a-635f3c3bb4b8*%
X34068426Y16746336D03*
D13*
%TO.P,,e08f936b-0ceb-44c0-afa2-7d7ae7423896__7de9ac0a-ec75-48eb-8b57-26b1ef0c8ef1*%
X34863920Y15950839D03*
D14*
%TO.P,,e08f936b-0ceb-44c0-afa2-7d7ae7423896__981dbe12-a21b-442d-aaaf-ad9c25bd40d8*%
X36179136Y14635618D03*
D11*
%TO.P,,e18eb649-3410-437a-af84-3ff83fdc8473__0fa4a357-c542-4374-8bb0-f32ead003e2e*%
X28873472Y15328584D03*
D12*
%TO.P,,e18eb649-3410-437a-af84-3ff83fdc8473__5cb1ad7e-1776-49d3-861a-635f3c3bb4b8*%
X27455726Y16746336D03*
D13*
%TO.P,,e18eb649-3410-437a-af84-3ff83fdc8473__7de9ac0a-ec75-48eb-8b57-26b1ef0c8ef1*%
X28251220Y15950839D03*
D14*
%TO.P,,e18eb649-3410-437a-af84-3ff83fdc8473__981dbe12-a21b-442d-aaaf-ad9c25bd40d8*%
X29566436Y14635618D03*
D28*
%TO.P,,e979f8a9-a656-411d-a6fd-075acc37644b__5ebc4d7a-12de-5f16-abaf-619d6821908c*%
X8842200Y-9778802D03*
%TO.P,,e979f8a9-a656-411d-a6fd-075acc37644b__eff576ab-1078-7d73-a880-8aa6711cfd28*%
X7267200Y-9778798D03*
D11*
%TO.P,,f8bd427a-45b1-49e0-a251-4b555adc19c5__0fa4a357-c542-4374-8bb0-f32ead003e2e*%
X18954472Y22170684D03*
D12*
%TO.P,,f8bd427a-45b1-49e0-a251-4b555adc19c5__5cb1ad7e-1776-49d3-861a-635f3c3bb4b8*%
X17536726Y23588436D03*
D13*
%TO.P,,f8bd427a-45b1-49e0-a251-4b555adc19c5__7de9ac0a-ec75-48eb-8b57-26b1ef0c8ef1*%
X18332220Y22792939D03*
D14*
%TO.P,,f8bd427a-45b1-49e0-a251-4b555adc19c5__981dbe12-a21b-442d-aaaf-ad9c25bd40d8*%
X19647436Y21477718D03*
%TO.P,,3a90580a-6ac3-44c7-8cf9-fbec6780621c__981dbe12-a21b-442d-aaaf-ad9c25bd40d8*%
X39485536Y4614618D03*
D13*
%TO.P,,3a90580a-6ac3-44c7-8cf9-fbec6780621c__7de9ac0a-ec75-48eb-8b57-26b1ef0c8ef1*%
X38170320Y5929839D03*
D12*
%TO.P,,3a90580a-6ac3-44c7-8cf9-fbec6780621c__5cb1ad7e-1776-49d3-861a-635f3c3bb4b8*%
X37374826Y6725336D03*
D11*
%TO.P,,3a90580a-6ac3-44c7-8cf9-fbec6780621c__0fa4a357-c542-4374-8bb0-f32ead003e2e*%
X38792572Y5307584D03*
D14*
%TO.P,,74203f47-ee6f-4cc8-b061-d4cd4973a0ca__981dbe12-a21b-442d-aaaf-ad9c25bd40d8*%
X36179136Y4614618D03*
D13*
%TO.P,,74203f47-ee6f-4cc8-b061-d4cd4973a0ca__7de9ac0a-ec75-48eb-8b57-26b1ef0c8ef1*%
X34863920Y5929839D03*
D12*
%TO.P,,74203f47-ee6f-4cc8-b061-d4cd4973a0ca__5cb1ad7e-1776-49d3-861a-635f3c3bb4b8*%
X34068426Y6725336D03*
D11*
%TO.P,,74203f47-ee6f-4cc8-b061-d4cd4973a0ca__0fa4a357-c542-4374-8bb0-f32ead003e2e*%
X35486172Y5307584D03*
D14*
%TO.P,,7939a4b2-f6ee-4c54-bff7-b6f481ad9fc6__981dbe12-a21b-442d-aaaf-ad9c25bd40d8*%
X32872836Y4614618D03*
D13*
%TO.P,,7939a4b2-f6ee-4c54-bff7-b6f481ad9fc6__7de9ac0a-ec75-48eb-8b57-26b1ef0c8ef1*%
X31557620Y5929839D03*
D12*
%TO.P,,7939a4b2-f6ee-4c54-bff7-b6f481ad9fc6__5cb1ad7e-1776-49d3-861a-635f3c3bb4b8*%
X30762126Y6725336D03*
D11*
%TO.P,,7939a4b2-f6ee-4c54-bff7-b6f481ad9fc6__0fa4a357-c542-4374-8bb0-f32ead003e2e*%
X32179872Y5307584D03*
D14*
%TO.P,,774b0c87-579e-41dc-8ad2-0c6178745048__981dbe12-a21b-442d-aaaf-ad9c25bd40d8*%
X29566436Y4614618D03*
D13*
%TO.P,,774b0c87-579e-41dc-8ad2-0c6178745048__7de9ac0a-ec75-48eb-8b57-26b1ef0c8ef1*%
X28251220Y5929839D03*
D12*
%TO.P,,774b0c87-579e-41dc-8ad2-0c6178745048__5cb1ad7e-1776-49d3-861a-635f3c3bb4b8*%
X27455726Y6725336D03*
D11*
%TO.P,,774b0c87-579e-41dc-8ad2-0c6178745048__0fa4a357-c542-4374-8bb0-f32ead003e2e*%
X28873472Y5307584D03*
D14*
%TO.P,,f4e237a8-265d-4f25-8b63-3a57e9a6f202__981dbe12-a21b-442d-aaaf-ad9c25bd40d8*%
X26260336Y4614618D03*
D13*
%TO.P,,f4e237a8-265d-4f25-8b63-3a57e9a6f202__7de9ac0a-ec75-48eb-8b57-26b1ef0c8ef1*%
X24945120Y5929839D03*
D12*
%TO.P,,f4e237a8-265d-4f25-8b63-3a57e9a6f202__5cb1ad7e-1776-49d3-861a-635f3c3bb4b8*%
X24149626Y6725336D03*
D11*
%TO.P,,f4e237a8-265d-4f25-8b63-3a57e9a6f202__0fa4a357-c542-4374-8bb0-f32ead003e2e*%
X25567372Y5307584D03*
D14*
%TO.P,,98817007-42bf-418c-b308-e7ad0fb3db4d__981dbe12-a21b-442d-aaaf-ad9c25bd40d8*%
X22953736Y4614618D03*
D13*
%TO.P,,98817007-42bf-418c-b308-e7ad0fb3db4d__7de9ac0a-ec75-48eb-8b57-26b1ef0c8ef1*%
X21638520Y5929839D03*
D12*
%TO.P,,98817007-42bf-418c-b308-e7ad0fb3db4d__5cb1ad7e-1776-49d3-861a-635f3c3bb4b8*%
X20843026Y6725336D03*
D11*
%TO.P,,98817007-42bf-418c-b308-e7ad0fb3db4d__0fa4a357-c542-4374-8bb0-f32ead003e2e*%
X22260772Y5307584D03*
D14*
%TO.P,,cf5c5abf-44eb-4d21-bd4d-d02fc2f15bc0__981dbe12-a21b-442d-aaaf-ad9c25bd40d8*%
X19647436Y4614618D03*
D13*
%TO.P,,cf5c5abf-44eb-4d21-bd4d-d02fc2f15bc0__7de9ac0a-ec75-48eb-8b57-26b1ef0c8ef1*%
X18332220Y5929839D03*
D12*
%TO.P,,cf5c5abf-44eb-4d21-bd4d-d02fc2f15bc0__5cb1ad7e-1776-49d3-861a-635f3c3bb4b8*%
X17536726Y6725336D03*
D11*
%TO.P,,cf5c5abf-44eb-4d21-bd4d-d02fc2f15bc0__0fa4a357-c542-4374-8bb0-f32ead003e2e*%
X18954472Y5307584D03*
D14*
%TO.P,,b9d976ab-60f3-454a-9ec3-2033a8944ca8__981dbe12-a21b-442d-aaaf-ad9c25bd40d8*%
X16341136Y4614618D03*
D13*
%TO.P,,b9d976ab-60f3-454a-9ec3-2033a8944ca8__7de9ac0a-ec75-48eb-8b57-26b1ef0c8ef1*%
X15025920Y5929839D03*
D12*
%TO.P,,b9d976ab-60f3-454a-9ec3-2033a8944ca8__5cb1ad7e-1776-49d3-861a-635f3c3bb4b8*%
X14230426Y6725336D03*
D11*
%TO.P,,b9d976ab-60f3-454a-9ec3-2033a8944ca8__0fa4a357-c542-4374-8bb0-f32ead003e2e*%
X15648172Y5307584D03*
D14*
%TO.P,,8ee8a7e0-ceec-485e-930a-e66a7b2e4f6b__981dbe12-a21b-442d-aaaf-ad9c25bd40d8*%
X39485536Y7982518D03*
D13*
%TO.P,,8ee8a7e0-ceec-485e-930a-e66a7b2e4f6b__7de9ac0a-ec75-48eb-8b57-26b1ef0c8ef1*%
X38170320Y9297739D03*
D12*
%TO.P,,8ee8a7e0-ceec-485e-930a-e66a7b2e4f6b__5cb1ad7e-1776-49d3-861a-635f3c3bb4b8*%
X37374826Y10093236D03*
D11*
%TO.P,,8ee8a7e0-ceec-485e-930a-e66a7b2e4f6b__0fa4a357-c542-4374-8bb0-f32ead003e2e*%
X38792572Y8675484D03*
D14*
%TO.P,,f8f673ab-ce25-4ea8-844c-7f45d881b024__981dbe12-a21b-442d-aaaf-ad9c25bd40d8*%
X36179136Y7982518D03*
D13*
%TO.P,,f8f673ab-ce25-4ea8-844c-7f45d881b024__7de9ac0a-ec75-48eb-8b57-26b1ef0c8ef1*%
X34863920Y9297739D03*
D12*
%TO.P,,f8f673ab-ce25-4ea8-844c-7f45d881b024__5cb1ad7e-1776-49d3-861a-635f3c3bb4b8*%
X34068426Y10093236D03*
D11*
%TO.P,,f8f673ab-ce25-4ea8-844c-7f45d881b024__0fa4a357-c542-4374-8bb0-f32ead003e2e*%
X35486172Y8675484D03*
D14*
%TO.P,,68dbf674-a94a-4b49-a94b-46b45f9f1445__981dbe12-a21b-442d-aaaf-ad9c25bd40d8*%
X32872836Y7982518D03*
D13*
%TO.P,,68dbf674-a94a-4b49-a94b-46b45f9f1445__7de9ac0a-ec75-48eb-8b57-26b1ef0c8ef1*%
X31557620Y9297739D03*
D12*
%TO.P,,68dbf674-a94a-4b49-a94b-46b45f9f1445__5cb1ad7e-1776-49d3-861a-635f3c3bb4b8*%
X30762126Y10093236D03*
D11*
%TO.P,,68dbf674-a94a-4b49-a94b-46b45f9f1445__0fa4a357-c542-4374-8bb0-f32ead003e2e*%
X32179872Y8675484D03*
D14*
%TO.P,,684c2c78-e1ba-44ff-8f6b-1bbacb5065ea__981dbe12-a21b-442d-aaaf-ad9c25bd40d8*%
X29566436Y7982518D03*
D13*
%TO.P,,684c2c78-e1ba-44ff-8f6b-1bbacb5065ea__7de9ac0a-ec75-48eb-8b57-26b1ef0c8ef1*%
X28251220Y9297739D03*
D12*
%TO.P,,684c2c78-e1ba-44ff-8f6b-1bbacb5065ea__5cb1ad7e-1776-49d3-861a-635f3c3bb4b8*%
X27455726Y10093236D03*
D11*
%TO.P,,684c2c78-e1ba-44ff-8f6b-1bbacb5065ea__0fa4a357-c542-4374-8bb0-f32ead003e2e*%
X28873472Y8675484D03*
D14*
%TO.P,,53053a68-731c-4fe9-918d-a1641d9ac18b__981dbe12-a21b-442d-aaaf-ad9c25bd40d8*%
X26260336Y7982518D03*
D13*
%TO.P,,53053a68-731c-4fe9-918d-a1641d9ac18b__7de9ac0a-ec75-48eb-8b57-26b1ef0c8ef1*%
X24945120Y9297739D03*
D12*
%TO.P,,53053a68-731c-4fe9-918d-a1641d9ac18b__5cb1ad7e-1776-49d3-861a-635f3c3bb4b8*%
X24149626Y10093236D03*
D11*
%TO.P,,53053a68-731c-4fe9-918d-a1641d9ac18b__0fa4a357-c542-4374-8bb0-f32ead003e2e*%
X25567372Y8675484D03*
D14*
%TO.P,,a347d1f2-85a2-48aa-8dfb-604ecb3e913c__981dbe12-a21b-442d-aaaf-ad9c25bd40d8*%
X22953736Y7982518D03*
D13*
%TO.P,,a347d1f2-85a2-48aa-8dfb-604ecb3e913c__7de9ac0a-ec75-48eb-8b57-26b1ef0c8ef1*%
X21638520Y9297739D03*
D12*
%TO.P,,a347d1f2-85a2-48aa-8dfb-604ecb3e913c__5cb1ad7e-1776-49d3-861a-635f3c3bb4b8*%
X20843026Y10093236D03*
D11*
%TO.P,,a347d1f2-85a2-48aa-8dfb-604ecb3e913c__0fa4a357-c542-4374-8bb0-f32ead003e2e*%
X22260772Y8675484D03*
D14*
%TO.P,,4016e6a1-2c9d-4a48-bc2c-3726acbcd899__981dbe12-a21b-442d-aaaf-ad9c25bd40d8*%
X19647536Y7982518D03*
D13*
%TO.P,,4016e6a1-2c9d-4a48-bc2c-3726acbcd899__7de9ac0a-ec75-48eb-8b57-26b1ef0c8ef1*%
X18332320Y9297739D03*
D12*
%TO.P,,4016e6a1-2c9d-4a48-bc2c-3726acbcd899__5cb1ad7e-1776-49d3-861a-635f3c3bb4b8*%
X17536826Y10093236D03*
D11*
%TO.P,,4016e6a1-2c9d-4a48-bc2c-3726acbcd899__0fa4a357-c542-4374-8bb0-f32ead003e2e*%
X18954572Y8675484D03*
D14*
%TO.P,,be4e3b67-2292-49a3-989d-f4e0c01e507b__981dbe12-a21b-442d-aaaf-ad9c25bd40d8*%
X16341136Y7982518D03*
D13*
%TO.P,,be4e3b67-2292-49a3-989d-f4e0c01e507b__7de9ac0a-ec75-48eb-8b57-26b1ef0c8ef1*%
X15025920Y9297739D03*
D12*
%TO.P,,be4e3b67-2292-49a3-989d-f4e0c01e507b__5cb1ad7e-1776-49d3-861a-635f3c3bb4b8*%
X14230426Y10093236D03*
D11*
%TO.P,,be4e3b67-2292-49a3-989d-f4e0c01e507b__0fa4a357-c542-4374-8bb0-f32ead003e2e*%
X15648172Y8675484D03*
D14*
%TO.P,,35efa007-ad06-47b6-856b-a2c69b3c478d__981dbe12-a21b-442d-aaaf-ad9c25bd40d8*%
X39485736Y11315218D03*
D13*
%TO.P,,35efa007-ad06-47b6-856b-a2c69b3c478d__7de9ac0a-ec75-48eb-8b57-26b1ef0c8ef1*%
X38170520Y12630439D03*
D12*
%TO.P,,35efa007-ad06-47b6-856b-a2c69b3c478d__5cb1ad7e-1776-49d3-861a-635f3c3bb4b8*%
X37375026Y13425936D03*
D11*
%TO.P,,35efa007-ad06-47b6-856b-a2c69b3c478d__0fa4a357-c542-4374-8bb0-f32ead003e2e*%
X38792772Y12008184D03*
D14*
%TO.P,,d861e34e-6f62-44fc-8051-d302a6ef0278__981dbe12-a21b-442d-aaaf-ad9c25bd40d8*%
X36179136Y11315218D03*
D13*
%TO.P,,d861e34e-6f62-44fc-8051-d302a6ef0278__7de9ac0a-ec75-48eb-8b57-26b1ef0c8ef1*%
X34863920Y12630439D03*
D12*
%TO.P,,d861e34e-6f62-44fc-8051-d302a6ef0278__5cb1ad7e-1776-49d3-861a-635f3c3bb4b8*%
X34068426Y13425936D03*
D11*
%TO.P,,d861e34e-6f62-44fc-8051-d302a6ef0278__0fa4a357-c542-4374-8bb0-f32ead003e2e*%
X35486172Y12008184D03*
D14*
%TO.P,,af597e20-16b3-4711-9342-6d5f5e71d83b__981dbe12-a21b-442d-aaaf-ad9c25bd40d8*%
X32872836Y11315218D03*
D13*
%TO.P,,af597e20-16b3-4711-9342-6d5f5e71d83b__7de9ac0a-ec75-48eb-8b57-26b1ef0c8ef1*%
X31557620Y12630439D03*
D12*
%TO.P,,af597e20-16b3-4711-9342-6d5f5e71d83b__5cb1ad7e-1776-49d3-861a-635f3c3bb4b8*%
X30762126Y13425936D03*
D11*
%TO.P,,af597e20-16b3-4711-9342-6d5f5e71d83b__0fa4a357-c542-4374-8bb0-f32ead003e2e*%
X32179872Y12008184D03*
D14*
%TO.P,,b4be45d7-264d-4aa7-8daf-76f5d432042d__981dbe12-a21b-442d-aaaf-ad9c25bd40d8*%
X29566436Y11315218D03*
D13*
%TO.P,,b4be45d7-264d-4aa7-8daf-76f5d432042d__7de9ac0a-ec75-48eb-8b57-26b1ef0c8ef1*%
X28251220Y12630439D03*
D12*
%TO.P,,b4be45d7-264d-4aa7-8daf-76f5d432042d__5cb1ad7e-1776-49d3-861a-635f3c3bb4b8*%
X27455726Y13425936D03*
D11*
%TO.P,,b4be45d7-264d-4aa7-8daf-76f5d432042d__0fa4a357-c542-4374-8bb0-f32ead003e2e*%
X28873472Y12008184D03*
D14*
%TO.P,,9d6be8c1-b124-4d31-b07d-53b53052f900__981dbe12-a21b-442d-aaaf-ad9c25bd40d8*%
X26260336Y11315218D03*
D13*
%TO.P,,9d6be8c1-b124-4d31-b07d-53b53052f900__7de9ac0a-ec75-48eb-8b57-26b1ef0c8ef1*%
X24945120Y12630439D03*
D12*
%TO.P,,9d6be8c1-b124-4d31-b07d-53b53052f900__5cb1ad7e-1776-49d3-861a-635f3c3bb4b8*%
X24149626Y13425936D03*
D11*
%TO.P,,9d6be8c1-b124-4d31-b07d-53b53052f900__0fa4a357-c542-4374-8bb0-f32ead003e2e*%
X25567372Y12008184D03*
D14*
%TO.P,,274abd13-8ab9-43f3-9976-372c23408cf2__981dbe12-a21b-442d-aaaf-ad9c25bd40d8*%
X22953736Y11315218D03*
D13*
%TO.P,,274abd13-8ab9-43f3-9976-372c23408cf2__7de9ac0a-ec75-48eb-8b57-26b1ef0c8ef1*%
X21638520Y12630439D03*
D12*
%TO.P,,274abd13-8ab9-43f3-9976-372c23408cf2__5cb1ad7e-1776-49d3-861a-635f3c3bb4b8*%
X20843026Y13425936D03*
D11*
%TO.P,,274abd13-8ab9-43f3-9976-372c23408cf2__0fa4a357-c542-4374-8bb0-f32ead003e2e*%
X22260772Y12008184D03*
D14*
%TO.P,,a73d0856-0d2d-401a-a170-bbbca46570df__981dbe12-a21b-442d-aaaf-ad9c25bd40d8*%
X19647536Y11315218D03*
D13*
%TO.P,,a73d0856-0d2d-401a-a170-bbbca46570df__7de9ac0a-ec75-48eb-8b57-26b1ef0c8ef1*%
X18332320Y12630439D03*
D12*
%TO.P,,a73d0856-0d2d-401a-a170-bbbca46570df__5cb1ad7e-1776-49d3-861a-635f3c3bb4b8*%
X17536826Y13425936D03*
D11*
%TO.P,,a73d0856-0d2d-401a-a170-bbbca46570df__0fa4a357-c542-4374-8bb0-f32ead003e2e*%
X18954572Y12008184D03*
D14*
%TO.P,,7ab56173-cb5f-434f-8e63-a7f6104af3af__981dbe12-a21b-442d-aaaf-ad9c25bd40d8*%
X16341136Y11315218D03*
D13*
%TO.P,,7ab56173-cb5f-434f-8e63-a7f6104af3af__7de9ac0a-ec75-48eb-8b57-26b1ef0c8ef1*%
X15025920Y12630439D03*
D12*
%TO.P,,7ab56173-cb5f-434f-8e63-a7f6104af3af__5cb1ad7e-1776-49d3-861a-635f3c3bb4b8*%
X14230426Y13425936D03*
D11*
%TO.P,,7ab56173-cb5f-434f-8e63-a7f6104af3af__0fa4a357-c542-4374-8bb0-f32ead003e2e*%
X15648172Y12008184D03*
D16*
%TO.P,,b7470a86-e053-4fde-bf33-fa52586dc660*%
%TO.N,Net 32*%
X31710200Y-8759600D03*
%TO.P,,ca01ff70-92dc-4bc6-842a-20e3f26d9989*%
%TO.N,Net 38*%
X33440200Y-14201200D03*
%TO.P,,3fe7f614-2efa-4c99-8997-b36e6bd95d7b*%
X30826000Y-14201200D03*
%TO.P,,c1dc7ce5-b123-4e1e-be23-f018513b3e8c*%
X25690200Y-15305200D03*
%TO.P,,5da64d3f-58a2-4b44-ae71-0fe68e9d8270*%
%TO.N,GND*%
X11178100Y-9778500D03*
%TO.P,,f885c2df-4aa6-42fb-a5b0-7606f634b1b4*%
X30210200Y-17163500D03*
%TO.P,,7e97efc4-a41e-40c1-951d-58ccfa3d9723*%
X10152100Y-6897900D03*
%TO.P,,75500b9e-b52c-41eb-a26e-957cf6b05840*%
X33210200Y-12303500D03*
%TO.P,,395d3ddf-bbbd-465e-bcac-f7260009df9a*%
X35010200Y-13201200D03*
%TO.P,,485b82bc-e816-4b7e-a66f-d1d96d4968ef*%
X28948700Y-20759600D03*
%TO.P,,418ddb3b-4d2a-45d5-b0bd-819437d6a7ef*%
%TO.N,Net 35*%
X27090200Y-18263500D03*
%TO.P,,3bb7479d-d302-4492-b395-c17c9d009d32*%
%TO.N,Net 4*%
X13932000Y-16366300D03*
%TO.P,,edb0ee41-52eb-4894-b3fb-071c736b081d*%
X13931900Y-13863100D03*
%TO.P,,d97d1f4a-be8c-40da-a383-3aee5ddfa777*%
%TO.N,Net 33*%
X32210200Y-12759600D03*
%TO.P,,0c926be7-df7e-4b1b-ac65-cfbe8d8f0457*%
%TO.N,Net (IC1 - VOUT)*%
X40516300Y21477700D03*
%TO.P,,67c3a54d-62dd-42d5-bf03-ca80c369d560*%
X39485500Y20479500D03*
%TO.P,,a5f5784f-8955-4350-bf5e-3118ffbd2859*%
X11543000Y17273500D03*
%TO.P,,aba9440a-b4c2-483d-9d26-a87860df7380*%
X11543000Y15950800D03*
%TO.P,,b494931b-c51a-41b5-8ffd-f54f4069088c*%
%TO.N,Net 34*%
X32170200Y-13651000D03*
%TO.P,,234a51137695998c8cb9b92a49ea6836.via2.5*%
%TO.N,GND*%
X32200000Y3010000D03*
%TO.P,,9cea5f23-0843-451a-8816-9659297572ad*%
%TO.N,Net (IC1 - VOUT)*%
X40516500Y14635600D03*
%TO.P,,17304521-cf86-455d-ab16-7e2f142ae1c3*%
X39201100Y13425900D03*
%TO.P,,0899aad5-c559-41b1-8c46-3e64a83eda6a*%
X11543200Y10728800D03*
%TO.P,,9b0bcc0c-2a5c-4507-a198-35de2833b764*%
X11543200Y9297800D03*
%TO.P,,58a96bdd-b287-4bd6-b5e9-4f48f6477546*%
X40483900Y7982700D03*
%TO.P,,c6bf1c2a-3cdf-4763-a6c0-778fbcf7d681*%
X39359500Y6725300D03*
%TO.P,,3c0b369a-7cc4-4933-9d85-1cc51d666418*%
%TO.N,Net 5*%
X17536700Y22411300D03*
%TO.P,,37d62f74-f594-4be3-85f6-96ee632b8d1f*%
X16663800Y23356400D03*
%TO.P,,beb493e2-97ff-4dc4-93cc-989c45fc24bc*%
%TO.N,Net 6*%
X20014600Y22170700D03*
%TO.P,,05b42fe1-51e4-4944-bb2e-8919f8270d26*%
X19647600Y23284300D03*
%TO.P,,234a51137695998c8cb9b92a49ea6836.via.island.4*%
%TO.N,GND*%
X32418600Y20534200D03*
%TO.P,,234a51137695998c8cb9b92a49ea6836.via.island.3*%
X22490500Y7115400D03*
%TO.P,,234a51137695998c8cb9b92a49ea6836.via.island.2*%
X32416700Y13785400D03*
%TO.P,,234a51137695998c8cb9b92a49ea6836.via.island.1*%
X32912000Y-21720000D03*
%TO.P,,234a51137695998c8cb9b92a49ea6836.via.island.0*%
X25960300Y-17587100D03*
%TD*%
D29*
%TO.N,Net (P1)*%
X1934235Y18021871D02*
X344229Y19611865D01*
X-195762Y17121863D02*
X-195962Y17122063D01*
X1934235Y18021871D02*
X1934358Y-15408529D01*
X2644234Y18321873D02*
X2644034Y18322073D01*
X-195762Y17121863D02*
X-555763Y17481862D01*
X3688359Y-15659123D02*
X3005959Y-15659125D01*
X-36645765Y18021729D02*
X-36645635Y-17378271D01*
X-34515638Y-16478263D02*
X-34515838Y-16478063D01*
X-36645765Y18021729D02*
X-35055771Y19611735D01*
X-34515762Y17121737D02*
X-34515962Y17121937D01*
X1224236Y17721868D02*
X1224357Y-15096832D01*
X344371Y-18968135D02*
X1224368Y-18088132D01*
X-35225637Y-16778266D02*
X-34455634Y-17548263D01*
X-1119041Y-15754640D02*
X-1119041Y-15790640D01*
X1224236Y17721868D02*
X44232Y18901864D01*
X44368Y-18258136D02*
X514367Y-17788134D01*
X-35225637Y-16778266D02*
X-35225837Y-16778066D01*
X-255766Y18191863D02*
X-34455766Y18191737D01*
X44232Y18901864D02*
X-34755768Y18901736D01*
X644373Y-19678134D02*
X-35355627Y-19678266D01*
X3244356Y-14878124D02*
X3004555Y-14638325D01*
X-35225763Y17421734D02*
X-34455766Y18191737D01*
X-37355766Y18321727D02*
X-37355634Y-17678273D01*
X-35225763Y17421734D02*
X-35225637Y-16778266D01*
X-35355627Y-19678266D02*
X-37355634Y-17678273D01*
X-35935764Y17721732D02*
X-35935964Y17721932D01*
X644373Y-19678134D02*
X1934369Y-18388129D01*
X-34515638Y-16478263D02*
X-34155637Y-16838262D01*
X-37355634Y-17678273D02*
X-37355634Y-17678273D01*
X-35055629Y-18968265D02*
X-35055829Y-18968065D01*
X-1355637Y-16838141D02*
X-883839Y-16366339D01*
X2644354Y-14278127D02*
X3244356Y-14878124D01*
X-35935764Y17721732D02*
X-35935636Y-17078268D01*
X-35225763Y17421734D02*
X-35225963Y17421934D01*
X-648934Y-17548139D02*
X-34455634Y-17548263D01*
X-648934Y-17548139D02*
X-195636Y-17094837D01*
X1934369Y-18388129D02*
X1934358Y-15408529D01*
X-883839Y-16366339D02*
X-883840Y-16025739D01*
X3004455Y-14638325D02*
X3004455Y-14622125D01*
X514237Y17421866D02*
X514356Y-14816334D01*
X-555763Y17481862D02*
X-34155763Y17481738D01*
X-35355773Y20321734D02*
X-35355973Y20321934D01*
X-195762Y17121863D02*
X-195646Y-14463137D01*
X514237Y17421866D02*
X514037Y17422066D01*
X344371Y-18968135D02*
X-35055629Y-18968265D01*
X-35355627Y-19678266D02*
X-35355827Y-19678066D01*
X-1119041Y-15790640D02*
X-1090241Y-15819440D01*
X1224368Y-18088232D02*
X1224357Y-15096832D01*
X3005959Y-15659125D02*
X3005959Y-15639725D01*
X2644234Y18321873D02*
X644227Y20321866D01*
X1934235Y18021871D02*
X1934035Y18022071D01*
X3244356Y-14878124D02*
X3688356Y-14878123D01*
X644227Y20321866D02*
X-35355773Y20321734D01*
X2644354Y-14278127D02*
X2644234Y18321873D01*
X514367Y-17788134D02*
X514356Y-14816334D01*
X-34755632Y-18258264D02*
X-34755832Y-18258064D01*
X1224236Y17721868D02*
X1224036Y17722068D01*
X-34755632Y-18258264D02*
X-35935636Y-17078268D01*
X-36645765Y18021729D02*
X-36645965Y18021929D01*
X-34515762Y17121737D02*
X-34155763Y17481738D01*
X44368Y-18258136D02*
X-34755632Y-18258264D01*
X514237Y17421866D02*
X-255766Y18191863D01*
X-1355637Y-16838141D02*
X-34155637Y-16838262D01*
X-883840Y-16025839D02*
X-1090241Y-15819440D01*
X344229Y19611865D02*
X-35055771Y19611735D01*
X-34515762Y17121737D02*
X-34515638Y-16478263D01*
X-35935764Y17721732D02*
X-34755768Y18901736D01*
X-35355773Y20321734D02*
X-37355766Y18321727D01*
X-195646Y-14463137D02*
X-195636Y-17094837D01*
X-35055629Y-18968265D02*
X-36645635Y-17378271D01*
D30*
%TO.N,Net 32*%
X33440200Y-10759600D02*
X33440200Y-10489600D01*
X33440200Y-10489600D02*
X31710200Y-8759600D01*
X31710200Y-8759600D02*
X31710400Y-8759400D01*
%TO.N,Net 38*%
X33440200Y-15709600D02*
X33440200Y-14201200D01*
X26794200Y-14201200D02*
X25690200Y-15305200D01*
X30826000Y-14201200D02*
X26794200Y-14201200D01*
X25690200Y-15305300D02*
X25690400Y-15305100D01*
%TO.N,Net 30*%
X31533300Y-17124800D02*
X31533300Y-13651000D01*
X31533300Y-13651000D02*
X30943700Y-13651000D01*
X29596300Y-12303500D02*
X29596300Y-10793500D01*
X30943700Y-13651000D02*
X29596300Y-12303600D01*
X32710200Y-18301800D02*
X31533200Y-17124800D01*
X29596400Y-10793400D02*
X29630200Y-10759600D01*
X32710200Y-19504600D02*
X32710200Y-18301800D01*
D31*
%TO.N,GND*%
X32872900Y17975100D02*
X36179100Y17975100D01*
X10152099Y-9790500D02*
X10152101Y-10410500D01*
X15856400Y14151000D02*
X16341000Y14635600D01*
X19647500Y14635600D02*
X22953700Y14635600D01*
X10140300Y-9778700D02*
X10152100Y-9790500D01*
X26260100Y14635600D02*
X29566400Y14635600D01*
X8842202Y-10688100D02*
X8842198Y-9778700D01*
X32872900Y14635600D02*
X36179100Y14635600D01*
X16341000Y17975100D02*
X13265800Y17975100D01*
X36179100Y14635600D02*
X39485500Y14635600D01*
X19647500Y17975100D02*
X22953700Y17975100D01*
X22953700Y14635600D02*
X26260100Y14635600D01*
X26260100Y21477700D02*
X29566400Y21477700D01*
X41122300Y19840900D02*
X41122300Y19611900D01*
X8842200Y-9778700D02*
X8842000Y-9778500D01*
X7210900Y-17178402D02*
X8248300Y-17178398D01*
X11543000Y14150900D02*
X15856400Y14150900D01*
X32872900Y17975100D02*
X32873100Y17975300D01*
X22953700Y21477700D02*
X26260100Y21477700D01*
X9178604Y-16248200D02*
X9178596Y-14278200D01*
X29566400Y14635600D02*
X32872800Y14635600D01*
X32872900Y21477700D02*
X36179100Y21477700D01*
X10822400Y15950900D02*
X10822400Y14871500D01*
X29566500Y17975100D02*
X32872900Y17975100D01*
X10822400Y14871500D02*
X11543000Y14150900D01*
X8268798Y-13368402D02*
X9178602Y-14278198D01*
X36179100Y21477700D02*
X39485500Y21477700D01*
X26260100Y17975100D02*
X26260300Y17975300D01*
X39485500Y21477700D02*
X41122300Y19840900D01*
X19647500Y21477700D02*
X22953700Y21477700D01*
X7210900Y-13368402D02*
X8268900Y-13368398D01*
X29566400Y21477700D02*
X32872800Y21477700D01*
X8248402Y-17178402D02*
X9178598Y-16248198D01*
X16341000Y21477700D02*
X19647400Y21477700D01*
X41122300Y19611900D02*
X39485500Y17975100D01*
X7210904Y-13368500D02*
X7210896Y-11410100D01*
X12846600Y17975100D02*
X10822400Y15950900D01*
X13265800Y17975100D02*
X12846600Y17975100D01*
X7210803Y-11410103D02*
X8842197Y-9778697D01*
X26260100Y17975100D02*
X29566400Y17975100D01*
X11178100Y-9778500D02*
X10164100Y-9778500D01*
X16341000Y17975100D02*
X19647400Y17975100D01*
X9178601Y-11024599D02*
X8842199Y-10688201D01*
X9178700Y-11036100D02*
X9178700Y-11024700D01*
X16341000Y14635600D02*
X19647400Y14635600D01*
X19647400Y21477700D02*
X19647600Y21477900D01*
X10152099Y-10410499D02*
X9526501Y-11036101D01*
X39485500Y17975100D02*
X36179100Y17975100D01*
X7211000Y-17178400D02*
X7267200Y-17178400D01*
X22953700Y17975100D02*
X26260100Y17975100D01*
X10164100Y-9778500D02*
X10152100Y-9790500D01*
X9526500Y-11036099D02*
X9178700Y-11036101D01*
X29110200Y-19504600D02*
X29110200Y-18263600D01*
X29110200Y-18263500D02*
X30210200Y-17163500D01*
X-40911800Y-11068300D02*
X-40911800Y-9587700D01*
X-40911800Y-9587600D02*
X-42284200Y-8215200D01*
X-42284200Y-8215200D02*
X-42284200Y21669400D01*
X-42284200Y21669400D02*
X-37355800Y26597800D01*
X-37355700Y26597800D02*
X6531900Y26597800D01*
X6531900Y26597800D02*
X10152100Y22977600D01*
X10152100Y22977600D02*
X10152100Y-6897800D01*
D30*
X32170200Y-10759600D02*
X32170200Y-11263400D01*
X32170200Y-11263500D02*
X33210200Y-12303500D01*
D31*
X35010200Y-13201200D02*
X35265200Y-13201200D01*
X35265200Y-13201200D02*
X35980200Y-12486200D01*
X35980200Y-12486200D02*
X35980200Y-10759600D01*
X17705200Y-25059600D02*
X18926200Y-26280600D01*
D30*
X18926300Y-26280600D02*
X30756300Y-26280600D01*
X35810200Y-21226600D02*
X35810200Y-19504600D01*
X30756200Y-26280700D02*
X35810200Y-21226700D01*
X28948600Y-19966200D02*
X29410200Y-19504600D01*
X28948700Y-20759600D02*
X28948700Y-19966200D01*
%TO.N,Net 29*%
X33210200Y-17414500D02*
X32771200Y-16975500D01*
X32771200Y-13269300D02*
X31982600Y-13269300D01*
X33210200Y-19504600D02*
X33210200Y-17414400D01*
X30826000Y-10833800D02*
X30900200Y-10759600D01*
X31982600Y-13269300D02*
X30826000Y-12112700D01*
X30826000Y-12112700D02*
X30826000Y-10833700D01*
X32771200Y-16975400D02*
X32771200Y-13269200D01*
%TO.N,Net 35*%
X20005100Y-18759600D02*
X26594100Y-18759600D01*
X26594100Y-18759700D02*
X27090300Y-18263500D01*
D31*
%TO.N,Net (R5 - P1)*%
X5777900Y-8872300D02*
X5777900Y-8709300D01*
X7211100Y-8273500D02*
X7210900Y-8273300D01*
X5777901Y-9308100D02*
X5777899Y-8872300D01*
X7267200Y-9778798D02*
X6248600Y-9778802D01*
X6213700Y-8273502D02*
X7210700Y-8273498D01*
X7211100Y-9722700D02*
X7267300Y-9778900D01*
X5777901Y-8709301D02*
X6213699Y-8273499D01*
X7210700Y-8273500D02*
X7210900Y-8273300D01*
X6248601Y-9778799D02*
X5777799Y-9308001D01*
D30*
%TO.N,Net 31*%
X34952200Y-19446600D02*
X35010200Y-19504600D01*
X35980200Y-15709600D02*
X35980200Y-17439000D01*
X35980200Y-17438900D02*
X34952200Y-18466900D01*
X34952200Y-18466900D02*
X34952200Y-19446700D01*
X24913400Y-25059600D02*
X27767600Y-22205400D01*
X22305200Y-25059600D02*
X24913400Y-25059600D01*
X28948700Y-22205300D02*
X29927300Y-21226700D01*
X27767600Y-22205300D02*
X28948800Y-22205300D01*
X29927400Y-19521800D02*
X29910200Y-19504600D01*
X29927300Y-21226700D02*
X29927300Y-19521700D01*
D31*
%TO.N,Net 4*%
X12895100Y-24424700D02*
X12895100Y-24259700D01*
X12161300Y-13368200D02*
X13437100Y-13368200D01*
X14659800Y-22495000D02*
X14659800Y-17094200D01*
X13437100Y-13368300D02*
X13931900Y-13863100D01*
X12895100Y-24259600D02*
X14659700Y-22495000D01*
X14659800Y-17094100D02*
X13932000Y-16366300D01*
X-40911800Y-22916600D02*
X-39403600Y-24424800D01*
X-39403700Y-24424700D02*
X12895100Y-24424700D01*
X-40911800Y-18688300D02*
X-40911800Y-22916500D01*
%TO.N,Net 1*%
X-40911800Y-13608300D02*
X-40911800Y-14111500D01*
X-40911800Y-14111500D02*
X-39595800Y-15427500D01*
X-39595800Y-23700100D02*
X-39403600Y-23892300D01*
X13931900Y-17870200D02*
X13240300Y-17178500D01*
X-39403600Y-23892300D02*
X12534800Y-23892300D01*
X-39595900Y-15427500D02*
X-39595900Y-23700100D01*
X12160900Y-17178400D02*
X12161100Y-17178200D01*
X13240300Y-17178400D02*
X12161300Y-17178400D01*
X13932000Y-18088200D02*
X13932000Y-17870200D01*
X12161300Y-17178400D02*
X12161100Y-17178200D01*
X13932000Y-18088200D02*
X13932000Y-22495000D01*
X12534700Y-23892300D02*
X13932000Y-22495000D01*
D30*
%TO.N,Net 33*%
X34710200Y-10759600D02*
X34710200Y-11489600D01*
X33440200Y-12759600D02*
X32210200Y-12759600D01*
X34710200Y-11489600D02*
X33440200Y-12759600D01*
D31*
%TO.N,Net (IC1 - VOUT)*%
X38170300Y22792900D02*
X39201100Y22792900D01*
X18332300Y22792900D02*
X21638500Y22792900D01*
X15025800Y22792900D02*
X18332200Y22792900D01*
X38170300Y19290300D02*
X34863900Y19290300D01*
X39359500Y20479500D02*
X38170300Y19290300D01*
X11543000Y15489100D02*
X12160600Y14871500D01*
X31557700Y22792900D02*
X34863900Y22792900D01*
X11543000Y15950800D02*
X11543000Y15489200D01*
X13366400Y19096900D02*
X11543000Y17273500D01*
X28251200Y15950800D02*
X31557600Y15950800D01*
%TO.N,Net 4*%
X12160893Y-9308000D02*
X12160907Y-13368400D01*
%TO.N,Net (IC1 - VOUT)*%
X34863900Y15950800D02*
X38170300Y15950800D01*
%TO.N,Net 4*%
X10119100Y-8273500D02*
X10152100Y-8240500D01*
%TO.N,Net (IC1 - VOUT)*%
X28251200Y22792900D02*
X31557600Y22792900D01*
X21638500Y19290300D02*
X18332300Y19290300D01*
X18332200Y22792900D02*
X18332400Y22793100D01*
X28251300Y19290300D02*
X24945000Y19290300D01*
X40516300Y21477700D02*
X40516500Y21477900D01*
X13946500Y14871500D02*
X15025900Y15950900D01*
X15025800Y15950800D02*
X18332200Y15950800D01*
X31557600Y19290300D02*
X28251200Y19290300D01*
X39201100Y22792900D02*
X40516300Y21477700D01*
%TO.N,Net 4*%
X8865500Y-8269100D02*
X8861100Y-8273500D01*
%TO.N,Net (IC1 - VOUT)*%
X18332300Y15950800D02*
X21638500Y15950800D01*
X11543000Y17273500D02*
X11543200Y17273700D01*
X24945000Y22792900D02*
X28251300Y22792900D01*
%TO.N,Net 4*%
X10152100Y-8240502D02*
X11093500Y-8240498D01*
%TO.N,Net (IC1 - VOUT)*%
X24945000Y15950800D02*
X28251300Y15950800D01*
%TO.N,Net 4*%
X8861100Y-8273502D02*
X10119100Y-8273498D01*
X12160900Y-13368400D02*
X12160700Y-13368200D01*
%TO.N,Net (IC1 - VOUT)*%
X21638500Y15950800D02*
X24944900Y15950800D01*
X24944900Y19290300D02*
X21638500Y19290300D01*
X18332200Y19290300D02*
X15025800Y19290300D01*
X12160700Y14871500D02*
X13946500Y14871500D01*
X15025800Y19290300D02*
X13366400Y19290300D01*
X34863900Y22792900D02*
X38170300Y22792900D01*
%TO.N,Net 4*%
X11093398Y-8240502D02*
X12160902Y-9307998D01*
%TO.N,Net (IC1 - VOUT)*%
X31557700Y15950800D02*
X34863900Y15950800D01*
X34863900Y19290300D02*
X31557700Y19290300D01*
X21638500Y22792900D02*
X24944900Y22792900D01*
X39485500Y20479500D02*
X39359500Y20479500D01*
X13366400Y19290300D02*
X13366400Y19096900D01*
%TO.N,Net 3*%
X12160900Y-15908400D02*
X14284500Y-15908400D01*
X-40911700Y-16175900D02*
X-42284100Y-17548300D01*
X-40911800Y-16148300D02*
X-40911800Y-16175900D01*
X-42284100Y-17548300D02*
X-42284100Y-22154900D01*
X-42284200Y-22154900D02*
X-39403600Y-25035500D01*
X13240300Y-25035400D02*
X15644100Y-22631600D01*
X15554500Y-22542100D02*
X15644100Y-22631700D01*
X-39403600Y-25035400D02*
X13240200Y-25035400D01*
X15554600Y-17178500D02*
X15554600Y-22542100D01*
X14284500Y-15908300D02*
X15554500Y-17178400D01*
X12160900Y-15908400D02*
X12161100Y-15908200D01*
%TO.N,Net (P1)*%
X5047200Y-14878300D02*
X5155000Y-14770500D01*
X5083700Y-15659200D02*
X5155100Y-15730500D01*
X7210900Y-14638396D02*
X5287100Y-14638404D01*
X7210900Y-15908397D02*
X5333100Y-15908403D01*
X5333100Y-15908500D02*
X5155100Y-15730500D01*
D29*
X3688300Y-15659203D02*
X5083700Y-15659197D01*
X3688300Y-14878202D02*
X5047300Y-14878198D01*
D31*
X5287000Y-14638500D02*
X5155000Y-14770500D01*
D30*
%TO.N,Net 34*%
X32170200Y-15709600D02*
X32170200Y-13651000D01*
X32170200Y-13651000D02*
X32170400Y-13650800D01*
D31*
%TO.N,GND*%
X39485500Y14635600D02*
X39605100Y14635600D01*
X39605100Y14635600D02*
X41122300Y13118400D01*
X41122300Y13118400D02*
X41122300Y12951800D01*
X41122300Y12951800D02*
X39485700Y11315200D01*
%TO.N,Net (IC1 - VOUT)*%
X38170300Y15950800D02*
X39605100Y15951000D01*
X39605100Y15951000D02*
X39605100Y15547000D01*
X39605100Y15547000D02*
X40516500Y14635600D01*
X39201100Y13425900D02*
X38966100Y13425900D01*
X38966000Y13425900D02*
X38170600Y12630500D01*
X38170500Y12630400D02*
X34863900Y12630400D01*
X34863900Y12630400D02*
X31557700Y12630400D01*
X31557600Y12630400D02*
X28251200Y12630400D01*
X28251200Y12630400D02*
X24945200Y12630400D01*
X24945100Y12630400D02*
X21638500Y12630400D01*
X21638500Y12630400D02*
X18332300Y12630400D01*
X18332300Y12630400D02*
X15025900Y12630400D01*
%TO.N,GND*%
X16341100Y11315200D02*
X19647500Y11315200D01*
X19647500Y11315200D02*
X22953700Y11315200D01*
X22953700Y11315200D02*
X26260300Y11315200D01*
X26260400Y11315200D02*
X29566400Y11315200D01*
X29566400Y11315200D02*
X32872800Y11315200D01*
X32872900Y11315200D02*
X36179100Y11315200D01*
X36179100Y11315200D02*
X39485700Y11315200D01*
X39485700Y11315200D02*
X39485900Y11315400D01*
X16341200Y11315200D02*
X12846600Y11315400D01*
X12846600Y11315400D02*
X12840000Y11315400D01*
X12840000Y11315400D02*
X10822400Y9297800D01*
X10822400Y9297700D02*
X10822400Y8675500D01*
X10822400Y8675500D02*
X10850200Y8675500D01*
X10850200Y8675500D02*
X11543200Y7982500D01*
X11543200Y7982500D02*
X16341200Y7982500D01*
%TO.N,Net (IC1 - VOUT)*%
X15025900Y12630400D02*
X13444900Y12630400D01*
X13444800Y12630400D02*
X11543200Y10728800D01*
X11543200Y9297800D02*
X11543200Y9292800D01*
X11543200Y9292900D02*
X12160600Y8675500D01*
X12160600Y8675500D02*
X14230400Y8675500D01*
X14230500Y8675500D02*
X14403700Y8675500D01*
X14403700Y8675500D02*
X15025900Y9297700D01*
X15025900Y9297700D02*
X18332300Y9297700D01*
X18332300Y9297700D02*
X21638500Y9297700D01*
X21638500Y9297700D02*
X24945100Y9297700D01*
X24945200Y9297700D02*
X28251200Y9297700D01*
X28251200Y9297700D02*
X31557600Y9297700D01*
X31557700Y9297700D02*
X34863900Y9297700D01*
X34863900Y9297700D02*
X38170300Y9297700D01*
%TO.N,GND*%
X16341100Y7982500D02*
X19647500Y7982500D01*
X19647500Y7982500D02*
X22953700Y7982500D01*
X26260300Y7982500D02*
X22953700Y7982500D01*
X22953700Y7982500D02*
X22953900Y7982700D01*
X26260400Y7982500D02*
X29566400Y7982500D01*
X29566400Y7982500D02*
X32872800Y7982500D01*
X32872900Y7982500D02*
X36179100Y7982500D01*
X36179100Y7982500D02*
X39485500Y7982500D01*
X39485500Y7982600D02*
X39485500Y7963800D01*
X39485500Y7963800D02*
X41122300Y6327000D01*
X41122300Y6327000D02*
X41122300Y6251400D01*
X41122300Y6251400D02*
X39485500Y4614600D01*
%TO.N,Net (IC1 - VOUT)*%
X38170300Y9297700D02*
X39168900Y9297700D01*
X39168900Y9297700D02*
X40483900Y7982700D01*
X39359500Y6725300D02*
X38965900Y6725300D01*
X38965800Y6725300D02*
X38170400Y5929900D01*
X38170300Y5929800D02*
X34863900Y5929800D01*
X34863900Y5929800D02*
X31557700Y5929800D01*
X31557600Y5929800D02*
X28251200Y5929800D01*
X28251200Y5929800D02*
X24945200Y5929800D01*
X24945100Y5929800D02*
X21638500Y5929800D01*
X21638500Y5929800D02*
X18332300Y5929800D01*
X18332300Y5929800D02*
X15025900Y5929800D01*
%TO.N,GND*%
X16341100Y4614600D02*
X19647400Y4614600D01*
X19647500Y4614600D02*
X22953700Y4614600D01*
X22953700Y4614600D02*
X26260300Y4614600D01*
X26260400Y4614600D02*
X29566400Y4614600D01*
X29566400Y4614600D02*
X32872800Y4614600D01*
X32872900Y4614600D02*
X36179100Y4614600D01*
X36179100Y4614600D02*
X39485500Y4614600D01*
X39485500Y4614600D02*
X39485700Y4614800D01*
%TO.N,Net 5*%
X15648100Y22170700D02*
X17296100Y22170700D01*
X17296100Y22170700D02*
X17536700Y22411300D01*
X16663800Y23356400D02*
X16809200Y23356400D01*
X16809300Y23356400D02*
X17296100Y23843200D01*
X17536700Y23588400D02*
X16895900Y23588400D01*
X16895800Y23588400D02*
X16663800Y23356400D01*
%TO.N,Net 6*%
X18954500Y22170700D02*
X20014700Y22170700D01*
X19647600Y23284300D02*
X20538800Y23284300D01*
X20538900Y23284300D02*
X20843100Y23588500D01*
%TD*%
%TA.AperFunction,Conductor*%
%TO.N,GND*%
G36*
X29038000Y-19243000D02*
G01*
X28936000Y-19067000D01*
X28753000Y-18884000D01*
X28526000Y-18753000D01*
X28527000Y-18753000D01*
X28268000Y-18684000D01*
X27923000Y-18684000D01*
X27833000Y-18565000D01*
X27888000Y-18373000D01*
X27888000Y-18158000D01*
X27833000Y-17958000D01*
X27831000Y-17953000D01*
X27729000Y-17775000D01*
X27581000Y-17626000D01*
X27580000Y-17625000D01*
X27393000Y-17518000D01*
X27122000Y-17447000D01*
X27156000Y-17185000D01*
X30891000Y-17185000D01*
X30974000Y-17252000D01*
X30995000Y-17353000D01*
X31001000Y-17367000D01*
X31003000Y-17373000D01*
X31006000Y-17378000D01*
X31066000Y-17457000D01*
X31068000Y-17460000D01*
X31125000Y-17544000D01*
X31127000Y-17547000D01*
X31166000Y-17571000D01*
X31178000Y-17581000D01*
X31842000Y-18245000D01*
X31765000Y-18430000D01*
X29260000Y-18430000D01*
X29260000Y-19183000D01*
X29038000Y-19243000D01*
G37*
%TD.AperFunction*%
%TA.AperFunction,Conductor*%
G36*
X19500000Y13257000D02*
G01*
X19011000Y13257000D01*
X18956000Y13280000D01*
X17555000Y14681000D01*
X17245000Y14371000D01*
X17060000Y14448000D01*
X17060000Y15236000D01*
X17148000Y15324000D01*
X17654000Y15324000D01*
X17709000Y15301000D01*
X18813000Y14197000D01*
X19917000Y15301000D01*
X19972000Y15324000D01*
X20961000Y15324000D01*
X21016000Y15301000D01*
X21465000Y14852000D01*
X22118000Y14196000D01*
X23223000Y15301000D01*
X23278000Y15324000D01*
X24267000Y15324000D01*
X24322000Y15301000D01*
X25426000Y14197000D01*
X26528000Y15301000D01*
X26583000Y15324000D01*
X27573000Y15324000D01*
X27628000Y15301000D01*
X28732000Y14197000D01*
X29836000Y15301000D01*
X29891000Y15324000D01*
X30880000Y15324000D01*
X30935000Y15301000D01*
X31487000Y14749000D01*
X32037000Y14196000D01*
X33142000Y15301000D01*
X33197000Y15324000D01*
X34186000Y15324000D01*
X34241000Y15301000D01*
X35345000Y14197000D01*
X35421000Y14273000D01*
X36447000Y15301000D01*
X36502000Y15324000D01*
X37492000Y15324000D01*
X37547000Y15301000D01*
X38686000Y14163000D01*
X38686000Y14039000D01*
X38562000Y13915000D01*
X38561000Y13913000D01*
X38558000Y13909000D01*
X38547000Y13894000D01*
X38425000Y13773000D01*
X38301000Y13773000D01*
X37393000Y14681000D01*
X36120000Y13408000D01*
X36120000Y13345000D01*
X36032000Y13257000D01*
X35542000Y13257000D01*
X35487000Y13280000D01*
X34086000Y14681000D01*
X32813000Y13408000D01*
X32813000Y13345000D01*
X32725000Y13257000D01*
X32236000Y13257000D01*
X32181000Y13280000D01*
X30780000Y14681000D01*
X29507000Y13408000D01*
X29507000Y13345000D01*
X29419000Y13257000D01*
X28930000Y13257000D01*
X28875000Y13280000D01*
X28711000Y13444000D01*
X27472000Y14681000D01*
X26201000Y13408000D01*
X26201000Y13345000D01*
X26113000Y13257000D01*
X25624000Y13257000D01*
X25569000Y13280000D01*
X25405000Y13444000D01*
X24166000Y14681000D01*
X22895000Y13408000D01*
X22895000Y13345000D01*
X22807000Y13257000D01*
X22317000Y13257000D01*
X22262000Y13280000D01*
X20861000Y14681000D01*
X19588000Y13408000D01*
X19588000Y13345000D01*
X19500000Y13257000D01*
G37*
%TD.AperFunction*%
%TA.AperFunction,Conductor*%
G36*
X19500000Y6557000D02*
G01*
X19010000Y6557000D01*
X18955000Y6580000D01*
X18403000Y7132000D01*
X17554000Y7980000D01*
X17245000Y7671000D01*
X17060000Y7748000D01*
X17060000Y8583000D01*
X17148000Y8671000D01*
X17654000Y8671000D01*
X17709000Y8648000D01*
X18813000Y7544000D01*
X19917000Y8648000D01*
X19972000Y8671000D01*
X20962000Y8671000D01*
X21017000Y8648000D01*
X21378000Y8286000D01*
X22118000Y7543000D01*
X23223000Y8648000D01*
X23278000Y8671000D01*
X24267000Y8671000D01*
X24322000Y8648000D01*
X25426000Y7544000D01*
X26530000Y8648000D01*
X26585000Y8671000D01*
X27573000Y8671000D01*
X27628000Y8648000D01*
X28732000Y7544000D01*
X29836000Y8648000D01*
X29891000Y8671000D01*
X30881000Y8671000D01*
X30936000Y8648000D01*
X31297000Y8286000D01*
X32037000Y7543000D01*
X33142000Y8648000D01*
X33197000Y8671000D01*
X34186000Y8671000D01*
X34241000Y8648000D01*
X35345000Y7544000D01*
X36447000Y8648000D01*
X36502000Y8671000D01*
X37492000Y8671000D01*
X37547000Y8648000D01*
X38651000Y7544000D01*
X39281000Y8174000D01*
X39405000Y8174000D01*
X39666000Y7914000D01*
X39685000Y7881000D01*
X39763000Y7598000D01*
X39639000Y7475000D01*
X39465000Y7523000D01*
X39254000Y7523000D01*
X39049000Y7466000D01*
X38797000Y7321000D01*
X38734000Y7404000D01*
X38722000Y7310000D01*
X38651000Y7268000D01*
X38645000Y7264000D01*
X38603000Y7244000D01*
X38602000Y7243000D01*
X38579000Y7221000D01*
X38567000Y7211000D01*
X38558000Y7205000D01*
X38553000Y7201000D01*
X38426000Y7072000D01*
X38301000Y7072000D01*
X37393000Y7980000D01*
X36120000Y6709000D01*
X36120000Y6645000D01*
X36032000Y6557000D01*
X35542000Y6557000D01*
X35487000Y6580000D01*
X34935000Y7132000D01*
X34086000Y7980000D01*
X32813000Y6708000D01*
X32813000Y6645000D01*
X32725000Y6557000D01*
X32236000Y6557000D01*
X32181000Y6580000D01*
X32017000Y6743000D01*
X30780000Y7980000D01*
X29507000Y6709000D01*
X29507000Y6645000D01*
X29419000Y6557000D01*
X28929000Y6557000D01*
X28874000Y6580000D01*
X28322000Y7132000D01*
X27473000Y7980000D01*
X26201000Y6708000D01*
X26201000Y6645000D01*
X26113000Y6557000D01*
X25623000Y6557000D01*
X25568000Y6580000D01*
X25016000Y7132000D01*
X24167000Y7980000D01*
X22895000Y6708000D01*
X22895000Y6645000D01*
X22807000Y6557000D01*
X22316000Y6557000D01*
X22261000Y6580000D01*
X20861000Y7980000D01*
X19588000Y6709000D01*
X19588000Y6645000D01*
X19500000Y6557000D01*
G37*
%TD.AperFunction*%
%TA.AperFunction,Conductor*%
G36*
X19500000Y19917000D02*
G01*
X19010000Y19917000D01*
X18955000Y19940000D01*
X18792000Y20104000D01*
X17553000Y21341000D01*
X17246000Y21032000D01*
X17060000Y21109000D01*
X17060000Y21456000D01*
X17148000Y21544000D01*
X17316000Y21544000D01*
X17363000Y21542000D01*
X17466000Y21572000D01*
X17500000Y21514000D01*
X17542000Y21614000D01*
X17640000Y21614000D01*
X17844000Y21668000D01*
X17849000Y21670000D01*
X18005000Y21760000D01*
X18106000Y21747000D01*
X18813000Y21039000D01*
X19295000Y21521000D01*
X19350000Y21544000D01*
X19485000Y21544000D01*
X19523000Y21534000D01*
X19702000Y21430000D01*
X19909000Y21373000D01*
X20120000Y21373000D01*
X20326000Y21430000D01*
X20325000Y21430000D01*
X20503000Y21532000D01*
X20652000Y21680000D01*
X20653000Y21681000D01*
X20760000Y21868000D01*
X20826000Y22120000D01*
X20994000Y22166000D01*
X21491000Y21668000D01*
X22118000Y21038000D01*
X23223000Y22143000D01*
X23278000Y22166000D01*
X24267000Y22166000D01*
X24322000Y22143000D01*
X25426000Y21039000D01*
X26528000Y22143000D01*
X26583000Y22166000D01*
X27573000Y22166000D01*
X27628000Y22143000D01*
X28732000Y21039000D01*
X29836000Y22143000D01*
X29891000Y22166000D01*
X30880000Y22166000D01*
X30935000Y22143000D01*
X31410000Y21668000D01*
X32037000Y21038000D01*
X33142000Y22143000D01*
X33197000Y22166000D01*
X34186000Y22166000D01*
X34241000Y22143000D01*
X35345000Y21039000D01*
X36447000Y22143000D01*
X36502000Y22166000D01*
X37492000Y22166000D01*
X37547000Y22143000D01*
X38651000Y21039000D01*
X38714000Y21039000D01*
X38801000Y20890000D01*
X38744000Y20790000D01*
X38742000Y20786000D01*
X38735000Y20758000D01*
X38715000Y20723000D01*
X38425000Y20433000D01*
X38301000Y20433000D01*
X37393000Y21341000D01*
X36120000Y20068000D01*
X36120000Y20005000D01*
X36032000Y19917000D01*
X35542000Y19917000D01*
X35487000Y19940000D01*
X34086000Y21341000D01*
X32813000Y20068000D01*
X32813000Y20005000D01*
X32725000Y19917000D01*
X32236000Y19917000D01*
X32181000Y19940000D01*
X30780000Y21341000D01*
X29507000Y20068000D01*
X29507000Y20005000D01*
X29419000Y19917000D01*
X28929000Y19917000D01*
X28874000Y19940000D01*
X28711000Y20104000D01*
X27472000Y21341000D01*
X26201000Y20068000D01*
X26201000Y20005000D01*
X26113000Y19917000D01*
X25623000Y19917000D01*
X25568000Y19940000D01*
X24167000Y21341000D01*
X22894000Y20068000D01*
X22894000Y20005000D01*
X22806000Y19917000D01*
X22316000Y19917000D01*
X22261000Y19940000D01*
X22098000Y20104000D01*
X20861000Y21341000D01*
X19588000Y20068000D01*
X19588000Y20005000D01*
X19500000Y19917000D01*
G37*
%TD.AperFunction*%
%TA.AperFunction,Conductor*%
G36*
X36168000Y-18884000D02*
G01*
X35984000Y-19068000D01*
X35882000Y-19244000D01*
X35660000Y-19184000D01*
X35660000Y-18604000D01*
X35683000Y-18549000D01*
X36354000Y-17878000D01*
X36364000Y-17870000D01*
X36411000Y-17836000D01*
X36413000Y-17834000D01*
X36460000Y-17754000D01*
X36462000Y-17750000D01*
X36523000Y-17660000D01*
X36524000Y-17654000D01*
X36530000Y-17635000D01*
X36544000Y-17547000D01*
X36544000Y-17546000D01*
X36564000Y-17429000D01*
X36557000Y-17395000D01*
X36555000Y-17379000D01*
X36555000Y-17273000D01*
X36643000Y-17185000D01*
X36780000Y-17185000D01*
X36780000Y-14235000D01*
X34326000Y-14235000D01*
X34238000Y-14147000D01*
X34238000Y-14097000D01*
X34181000Y-13887000D01*
X34080000Y-13714000D01*
X34079000Y-13713000D01*
X33931000Y-13564000D01*
X33930000Y-13563000D01*
X33715000Y-13439000D01*
X33707000Y-13275000D01*
X33788000Y-13218000D01*
X33789000Y-13217000D01*
X33860000Y-13167000D01*
X33882000Y-13134000D01*
X33892000Y-13121000D01*
X34755000Y-12258000D01*
X34810000Y-12235000D01*
X35510000Y-12235000D01*
X35510000Y-9285000D01*
X33080000Y-9285000D01*
X33025000Y-9262000D01*
X32531000Y-8768000D01*
X32508000Y-8713000D01*
X32508000Y-8654000D01*
X32451000Y-8447000D01*
X32348000Y-8270000D01*
X32204000Y-8126000D01*
X32202000Y-8125000D01*
X32021000Y-8017000D01*
X32020000Y-8017000D01*
X31815000Y-7962000D01*
X31604000Y-7962000D01*
X31399000Y-8016000D01*
X31220000Y-8123000D01*
X31218000Y-8125000D01*
X31073000Y-8269000D01*
X31072000Y-8270000D01*
X30968000Y-8452000D01*
X30967000Y-8455000D01*
X30913000Y-8657000D01*
X30913000Y-8862000D01*
X30967000Y-9064000D01*
X31009000Y-9127000D01*
X30924000Y-9285000D01*
X26290000Y-9285000D01*
X26290000Y-12235000D01*
X28924000Y-12235000D01*
X29006000Y-12300000D01*
X29042000Y-12455000D01*
X29043000Y-12457000D01*
X29058000Y-12531000D01*
X29063000Y-12542000D01*
X29067000Y-12555000D01*
X29067000Y-12556000D01*
X29145000Y-12660000D01*
X29148000Y-12663000D01*
X29186000Y-12721000D01*
X29190000Y-12724000D01*
X29222000Y-12745000D01*
X29235000Y-12755000D01*
X29921000Y-13441000D01*
X29844000Y-13626000D01*
X26839000Y-13626000D01*
X26827000Y-13625000D01*
X26773000Y-13616000D01*
X26771000Y-13617000D01*
X26648000Y-13645000D01*
X26647000Y-13646000D01*
X26563000Y-13664000D01*
X26555000Y-13667000D01*
X26544000Y-13671000D01*
X26447000Y-13742000D01*
X26445000Y-13744000D01*
X26374000Y-13794000D01*
X26352000Y-13827000D01*
X26342000Y-13840000D01*
X25697000Y-14485000D01*
X25642000Y-14508000D01*
X25587000Y-14508000D01*
X25383000Y-14562000D01*
X25381000Y-14563000D01*
X25199000Y-14669000D01*
X25054000Y-14814000D01*
X24948000Y-14996000D01*
X24946000Y-15001000D01*
X24893000Y-15202000D01*
X24893000Y-15411000D01*
X24945000Y-15608000D01*
X25052000Y-15795000D01*
X25053000Y-15796000D01*
X25202000Y-15944000D01*
X25203000Y-15945000D01*
X25376000Y-16046000D01*
X25586000Y-16103000D01*
X25794000Y-16103000D01*
X26001000Y-16046000D01*
X26000000Y-16046000D01*
X26140000Y-15966000D01*
X26290000Y-16053000D01*
X26290000Y-17185000D01*
X27029000Y-17185000D01*
X27063000Y-17446000D01*
X26783000Y-17520000D01*
X26781000Y-17521000D01*
X26599000Y-17627000D01*
X26452000Y-17774000D01*
X26347000Y-17958000D01*
X26303000Y-18123000D01*
X26222000Y-18185000D01*
X22493000Y-18185000D01*
X22405000Y-18097000D01*
X22405000Y-17260000D01*
X17605000Y-17260000D01*
X17605000Y-20260000D01*
X22405000Y-20260000D01*
X22405000Y-19423000D01*
X22493000Y-19335000D01*
X26550000Y-19335000D01*
X26562000Y-19336000D01*
X26616000Y-19345000D01*
X26738000Y-19316000D01*
X26740000Y-19315000D01*
X26826000Y-19297000D01*
X26832000Y-19295000D01*
X26842000Y-19292000D01*
X26844000Y-19291000D01*
X26936000Y-19221000D01*
X26940000Y-19218000D01*
X27052000Y-19144000D01*
X27221000Y-19265000D01*
X27144000Y-19550000D01*
X27144000Y-20609000D01*
X27213000Y-20866000D01*
X27346000Y-21093000D01*
X27527000Y-21274000D01*
X27776000Y-21420000D01*
X27745000Y-21621000D01*
X27632000Y-21647000D01*
X27630000Y-21648000D01*
X27542000Y-21666000D01*
X27534000Y-21670000D01*
X27514000Y-21677000D01*
X27508000Y-21678000D01*
X27423000Y-21746000D01*
X27349000Y-21795000D01*
X27346000Y-21799000D01*
X27322000Y-21836000D01*
X27312000Y-21849000D01*
X24698000Y-24462000D01*
X24643000Y-24485000D01*
X23643000Y-24485000D01*
X23555000Y-24397000D01*
X23555000Y-23560000D01*
X18755000Y-23560000D01*
X18755000Y-26652000D01*
X18667000Y-26740000D01*
X17148000Y-26740000D01*
X17060000Y-26652000D01*
X17060000Y5215000D01*
X17148000Y5303000D01*
X17654000Y5303000D01*
X17709000Y5280000D01*
X18813000Y4176000D01*
X19917000Y5280000D01*
X19972000Y5303000D01*
X20962000Y5303000D01*
X21017000Y5280000D01*
X21378000Y4918000D01*
X22118000Y4175000D01*
X23223000Y5280000D01*
X23278000Y5303000D01*
X24267000Y5303000D01*
X24322000Y5280000D01*
X25426000Y4176000D01*
X26530000Y5280000D01*
X26585000Y5303000D01*
X27573000Y5303000D01*
X27628000Y5280000D01*
X28732000Y4176000D01*
X29836000Y5280000D01*
X29891000Y5303000D01*
X30881000Y5303000D01*
X30936000Y5280000D01*
X31297000Y4918000D01*
X32037000Y4175000D01*
X33142000Y5280000D01*
X33197000Y5303000D01*
X34186000Y5303000D01*
X34241000Y5280000D01*
X35345000Y4176000D01*
X36447000Y5280000D01*
X36502000Y5303000D01*
X37492000Y5303000D01*
X37547000Y5280000D01*
X38651000Y4176000D01*
X39924000Y5449000D01*
X39578000Y5795000D01*
X39597000Y5942000D01*
X39849000Y6087000D01*
X39996000Y6234000D01*
X40102000Y6416000D01*
X40104000Y6421000D01*
X40157000Y6622000D01*
X40157000Y6831000D01*
X40084000Y7111000D01*
X40208000Y7233000D01*
X40377000Y7185000D01*
X40588000Y7185000D01*
X40795000Y7242000D01*
X40794000Y7242000D01*
X40974000Y7345000D01*
X41122000Y7493000D01*
X41226000Y7673000D01*
X41229000Y7679000D01*
X41281000Y7877000D01*
X41281000Y8086000D01*
X41227000Y8291000D01*
X41226000Y8292000D01*
X41122000Y8472000D01*
X40975000Y8620000D01*
X40974000Y8621000D01*
X40787000Y8728000D01*
X40590000Y8780000D01*
X40555000Y8800000D01*
X39612000Y9742000D01*
X39609000Y9745000D01*
X39566000Y9792000D01*
X39511000Y9823000D01*
X39502000Y9828000D01*
X39453000Y9864000D01*
X39454000Y9864000D01*
X39422000Y9874000D01*
X39409000Y9880000D01*
X39388000Y9891000D01*
X39337000Y9902000D01*
X39330000Y9904000D01*
X39274000Y9921000D01*
X39240000Y9922000D01*
X39231000Y9923000D01*
X39222000Y9925000D01*
X39222000Y9924000D01*
X39214000Y9925000D01*
X39127000Y9925000D01*
X39086000Y9926000D01*
X39077000Y9925000D01*
X38848000Y9925000D01*
X38793000Y9948000D01*
X38241000Y10501000D01*
X37393000Y11348000D01*
X36120000Y10077000D01*
X36120000Y10013000D01*
X36032000Y9925000D01*
X35542000Y9925000D01*
X35487000Y9948000D01*
X34913000Y10523000D01*
X34910000Y10524000D01*
X34086000Y11348000D01*
X32813000Y10076000D01*
X32813000Y10013000D01*
X32725000Y9925000D01*
X32235000Y9925000D01*
X32180000Y9948000D01*
X30780000Y11348000D01*
X29507000Y10077000D01*
X29507000Y10013000D01*
X29419000Y9925000D01*
X28929000Y9925000D01*
X28874000Y9948000D01*
X28300000Y10523000D01*
X28297000Y10524000D01*
X27473000Y11348000D01*
X26201000Y10076000D01*
X26201000Y10013000D01*
X26113000Y9925000D01*
X25623000Y9925000D01*
X25568000Y9948000D01*
X24994000Y10523000D01*
X24991000Y10524000D01*
X24167000Y11348000D01*
X22895000Y10076000D01*
X22895000Y10013000D01*
X22807000Y9925000D01*
X22316000Y9925000D01*
X22261000Y9948000D01*
X21660000Y10550000D01*
X21658000Y10551000D01*
X20861000Y11348000D01*
X19588000Y10077000D01*
X19588000Y10013000D01*
X19500000Y9925000D01*
X19010000Y9925000D01*
X18955000Y9948000D01*
X18403000Y10501000D01*
X17555000Y11348000D01*
X17245000Y11039000D01*
X17060000Y11116000D01*
X17060000Y11915000D01*
X17148000Y12003000D01*
X17655000Y12003000D01*
X17710000Y11980000D01*
X18813000Y10877000D01*
X19916000Y11980000D01*
X19971000Y12003000D01*
X20961000Y12003000D01*
X21016000Y11980000D01*
X21590000Y11405000D01*
X21593000Y11404000D01*
X22118000Y10876000D01*
X23222000Y11980000D01*
X23277000Y12003000D01*
X24268000Y12003000D01*
X24323000Y11980000D01*
X24896000Y11405000D01*
X24899000Y11404000D01*
X25426000Y10877000D01*
X26529000Y11980000D01*
X26584000Y12003000D01*
X27574000Y12003000D01*
X27629000Y11980000D01*
X28732000Y10877000D01*
X29835000Y11980000D01*
X29890000Y12003000D01*
X30880000Y12003000D01*
X30935000Y11980000D01*
X31509000Y11405000D01*
X31512000Y11404000D01*
X32037000Y10876000D01*
X33141000Y11980000D01*
X33196000Y12003000D01*
X34187000Y12003000D01*
X34242000Y11980000D01*
X34815000Y11405000D01*
X34818000Y11404000D01*
X35345000Y10877000D01*
X36447000Y11980000D01*
X36502000Y12003000D01*
X37493000Y12003000D01*
X37548000Y11980000D01*
X38122000Y11405000D01*
X38125000Y11404000D01*
X38650000Y10876000D01*
X39925000Y12151000D01*
X39519000Y12554000D01*
X39539000Y12702000D01*
X39688000Y12786000D01*
X39691000Y12788000D01*
X39839000Y12936000D01*
X39942000Y13116000D01*
X39999000Y13322000D01*
X39999000Y13530000D01*
X39940000Y13744000D01*
X39904000Y13839000D01*
X40067000Y13975000D01*
X40207000Y13892000D01*
X40412000Y13838000D01*
X40621000Y13838000D01*
X40826000Y13892000D01*
X41005000Y13999000D01*
X41008000Y14001000D01*
X41153000Y14143000D01*
X41259000Y14328000D01*
X41314000Y14532000D01*
X41314000Y14738000D01*
X41259000Y14943000D01*
X41155000Y15125000D01*
X41006000Y15274000D01*
X40824000Y15378000D01*
X40825000Y15378000D01*
X40622000Y15432000D01*
X40588000Y15452000D01*
X40255000Y15784000D01*
X40232000Y15839000D01*
X40232000Y15896000D01*
X40234000Y15911000D01*
X40238000Y15932000D01*
X40233000Y15976000D01*
X40232000Y15984000D01*
X40231000Y15995000D01*
X40227000Y16020000D01*
X40226000Y16023000D01*
X40212000Y16128000D01*
X40210000Y16137000D01*
X40169000Y16222000D01*
X40168000Y16224000D01*
X40134000Y16298000D01*
X40127000Y16308000D01*
X40123000Y16315000D01*
X40066000Y16374000D01*
X40064000Y16376000D01*
X40001000Y16446000D01*
X39999000Y16447000D01*
X39990000Y16453000D01*
X39986000Y16456000D01*
X39891000Y16507000D01*
X39890000Y16508000D01*
X39826000Y16544000D01*
X39819000Y16546000D01*
X39811000Y16550000D01*
X39627000Y16584000D01*
X39624000Y16584000D01*
X39580000Y16579000D01*
X39571000Y16578000D01*
X38848000Y16578000D01*
X38793000Y16601000D01*
X37393000Y18001000D01*
X36120000Y16730000D01*
X36120000Y16666000D01*
X36032000Y16578000D01*
X35542000Y16578000D01*
X35487000Y16601000D01*
X34935000Y17153000D01*
X34086000Y18001000D01*
X32813000Y16729000D01*
X32813000Y16666000D01*
X32725000Y16578000D01*
X32236000Y16578000D01*
X32181000Y16601000D01*
X32017000Y16764000D01*
X30780000Y18001000D01*
X29507000Y16730000D01*
X29507000Y16666000D01*
X29419000Y16578000D01*
X28929000Y16578000D01*
X28874000Y16601000D01*
X28322000Y17153000D01*
X27473000Y18001000D01*
X26201000Y16729000D01*
X26201000Y16666000D01*
X26113000Y16578000D01*
X25623000Y16578000D01*
X25568000Y16601000D01*
X25016000Y17153000D01*
X24167000Y18001000D01*
X22894000Y16729000D01*
X22894000Y16666000D01*
X22806000Y16578000D01*
X22316000Y16578000D01*
X22261000Y16601000D01*
X20861000Y18001000D01*
X19588000Y16730000D01*
X19588000Y16666000D01*
X19500000Y16578000D01*
X19010000Y16578000D01*
X18955000Y16601000D01*
X18403000Y17153000D01*
X17554000Y18001000D01*
X17245000Y17692000D01*
X17060000Y17769000D01*
X17060000Y18575000D01*
X17148000Y18663000D01*
X17655000Y18663000D01*
X17710000Y18640000D01*
X18813000Y17537000D01*
X19916000Y18640000D01*
X19971000Y18663000D01*
X20961000Y18663000D01*
X21016000Y18640000D01*
X21590000Y18065000D01*
X21593000Y18064000D01*
X22118000Y17536000D01*
X23222000Y18640000D01*
X23277000Y18663000D01*
X24268000Y18663000D01*
X24323000Y18640000D01*
X24896000Y18065000D01*
X24899000Y18064000D01*
X25426000Y17537000D01*
X26528000Y18640000D01*
X26583000Y18663000D01*
X27574000Y18663000D01*
X27629000Y18640000D01*
X28732000Y17537000D01*
X29835000Y18640000D01*
X29890000Y18663000D01*
X30880000Y18663000D01*
X30935000Y18640000D01*
X31509000Y18065000D01*
X31512000Y18064000D01*
X32037000Y17536000D01*
X33141000Y18640000D01*
X33196000Y18663000D01*
X34187000Y18663000D01*
X34242000Y18640000D01*
X34815000Y18065000D01*
X34818000Y18064000D01*
X35345000Y17537000D01*
X36447000Y18640000D01*
X36502000Y18663000D01*
X37493000Y18663000D01*
X37548000Y18640000D01*
X38651000Y17537000D01*
X39925000Y18811000D01*
X39312000Y19421000D01*
X39312000Y19545000D01*
X39426000Y19659000D01*
X39481000Y19682000D01*
X39588000Y19682000D01*
X39794000Y19737000D01*
X39793000Y19737000D01*
X39975000Y19841000D01*
X40124000Y19990000D01*
X40228000Y20172000D01*
X40283000Y20377000D01*
X40283000Y20592000D01*
X40371000Y20680000D01*
X40620000Y20680000D01*
X40827000Y20737000D01*
X40826000Y20737000D01*
X41006000Y20840000D01*
X41154000Y20988000D01*
X41257000Y21168000D01*
X41314000Y21372000D01*
X41314000Y21581000D01*
X41257000Y21792000D01*
X41156000Y21965000D01*
X41155000Y21966000D01*
X41007000Y22115000D01*
X41006000Y22116000D01*
X40819000Y22223000D01*
X40622000Y22275000D01*
X40587000Y22295000D01*
X39644000Y23237000D01*
X39641000Y23240000D01*
X39598000Y23287000D01*
X39543000Y23318000D01*
X39534000Y23323000D01*
X39485000Y23359000D01*
X39486000Y23359000D01*
X39454000Y23369000D01*
X39441000Y23375000D01*
X39420000Y23386000D01*
X39369000Y23397000D01*
X39362000Y23399000D01*
X39306000Y23416000D01*
X39272000Y23417000D01*
X39263000Y23418000D01*
X39254000Y23420000D01*
X39254000Y23419000D01*
X39246000Y23420000D01*
X39159000Y23420000D01*
X39118000Y23421000D01*
X39109000Y23420000D01*
X38848000Y23420000D01*
X38793000Y23443000D01*
X37393000Y24843000D01*
X36120000Y23572000D01*
X36120000Y23508000D01*
X36032000Y23420000D01*
X35542000Y23420000D01*
X35487000Y23443000D01*
X34935000Y23995000D01*
X34086000Y24843000D01*
X32813000Y23571000D01*
X32813000Y23508000D01*
X32725000Y23420000D01*
X32236000Y23420000D01*
X32181000Y23443000D01*
X32017000Y23606000D01*
X30780000Y24843000D01*
X29507000Y23572000D01*
X29507000Y23508000D01*
X29419000Y23420000D01*
X28929000Y23420000D01*
X28874000Y23443000D01*
X28322000Y23995000D01*
X27473000Y24843000D01*
X26201000Y23571000D01*
X26201000Y23508000D01*
X26113000Y23420000D01*
X25623000Y23420000D01*
X25568000Y23443000D01*
X25016000Y23995000D01*
X24167000Y24843000D01*
X22894000Y23571000D01*
X22894000Y23508000D01*
X22806000Y23420000D01*
X22316000Y23420000D01*
X22261000Y23443000D01*
X20861000Y24843000D01*
X20057000Y24040000D01*
X19979000Y24020000D01*
X19753000Y24082000D01*
X19542000Y24082000D01*
X19335000Y24025000D01*
X19158000Y23922000D01*
X19012000Y23776000D01*
X18930000Y23634000D01*
X18783000Y23615000D01*
X18403000Y23995000D01*
X17554000Y24843000D01*
X17200000Y24489000D01*
X17145000Y24466000D01*
X14657000Y24466000D01*
X14602000Y24489000D01*
X14248000Y24843000D01*
X13894000Y24489000D01*
X13839000Y24466000D01*
X-42356000Y24466000D01*
X-42446000Y24589000D01*
X-42396000Y24744000D01*
X-42396000Y24746000D01*
X-42386000Y24773000D01*
X-42389000Y24777000D01*
X-42330000Y24924000D01*
X-42329000Y24926000D01*
X-42293000Y25010000D01*
X-42292000Y25012000D01*
X-42246000Y25108000D01*
X-42209000Y25182000D01*
X-42208000Y25185000D01*
X-42155000Y25278000D01*
X-42154000Y25280000D01*
X-42111000Y25352000D01*
X-42110000Y25354000D01*
X-42061000Y25431000D01*
X-42059000Y25433000D01*
X-42006000Y25510000D01*
X-42004000Y25512000D01*
X-41941000Y25598000D01*
X-41939000Y25601000D01*
X-41887000Y25665000D01*
X-41886000Y25666000D01*
X-41818000Y25748000D01*
X-41816000Y25750000D01*
X-41762000Y25809000D01*
X-41761000Y25810000D01*
X-41699000Y25875000D01*
X-41697000Y25877000D01*
X-41620000Y25951000D01*
X-41619000Y25952000D01*
X-41560000Y26006000D01*
X-41558000Y26008000D01*
X-41476000Y26076000D01*
X-41475000Y26077000D01*
X-41411000Y26129000D01*
X-41408000Y26131000D01*
X-41323000Y26193000D01*
X-41322000Y26195000D01*
X-41244000Y26249000D01*
X-41241000Y26250000D01*
X-41172000Y26295000D01*
X-41170000Y26296000D01*
X-41090000Y26344000D01*
X-41088000Y26345000D01*
X-40995000Y26398000D01*
X-40992000Y26399000D01*
X-40919000Y26436000D01*
X-40918000Y26436000D01*
X-40821000Y26482000D01*
X-40819000Y26483000D01*
X-40737000Y26519000D01*
X-40735000Y26520000D01*
X-40587000Y26579000D01*
X-40584000Y26577000D01*
X-40561000Y26585000D01*
X-40558000Y26585000D01*
X-40465000Y26615000D01*
X-40463000Y26616000D01*
X-40380000Y26640000D01*
X-40377000Y26641000D01*
X-40293000Y26662000D01*
X-40290000Y26662000D01*
X-40184000Y26685000D01*
X-40183000Y26685000D01*
X-40106000Y26700000D01*
X-40103000Y26700000D01*
X-39998000Y26716000D01*
X-39996000Y26716000D01*
X-39917000Y26725000D01*
X-39914000Y26725000D01*
X-39819000Y26733000D01*
X-39817000Y26733000D01*
X-39711000Y26738000D01*
X-39709000Y26738000D01*
X-39614000Y26740000D01*
X39614000Y26740000D01*
X39709000Y26738000D01*
X39711000Y26738000D01*
X39817000Y26733000D01*
X39819000Y26733000D01*
X39914000Y26725000D01*
X39917000Y26725000D01*
X39996000Y26716000D01*
X39998000Y26716000D01*
X40103000Y26700000D01*
X40106000Y26700000D01*
X40183000Y26685000D01*
X40184000Y26685000D01*
X40290000Y26662000D01*
X40293000Y26662000D01*
X40377000Y26641000D01*
X40380000Y26640000D01*
X40463000Y26616000D01*
X40465000Y26615000D01*
X40558000Y26585000D01*
X40561000Y26585000D01*
X40584000Y26577000D01*
X40587000Y26579000D01*
X40735000Y26520000D01*
X40737000Y26519000D01*
X40819000Y26483000D01*
X40821000Y26482000D01*
X40918000Y26436000D01*
X40919000Y26436000D01*
X40992000Y26399000D01*
X40995000Y26398000D01*
X41088000Y26345000D01*
X41090000Y26344000D01*
X41170000Y26296000D01*
X41172000Y26295000D01*
X41241000Y26250000D01*
X41244000Y26249000D01*
X41322000Y26195000D01*
X41323000Y26193000D01*
X41408000Y26131000D01*
X41411000Y26129000D01*
X41475000Y26077000D01*
X41476000Y26076000D01*
X41558000Y26008000D01*
X41560000Y26006000D01*
X41619000Y25952000D01*
X41620000Y25951000D01*
X41697000Y25877000D01*
X41699000Y25875000D01*
X41761000Y25810000D01*
X41762000Y25809000D01*
X41816000Y25750000D01*
X41818000Y25748000D01*
X41886000Y25666000D01*
X41887000Y25665000D01*
X41939000Y25601000D01*
X41941000Y25598000D01*
X42004000Y25512000D01*
X42006000Y25510000D01*
X42059000Y25433000D01*
X42061000Y25431000D01*
X42110000Y25354000D01*
X42111000Y25352000D01*
X42154000Y25280000D01*
X42155000Y25278000D01*
X42208000Y25185000D01*
X42209000Y25182000D01*
X42246000Y25108000D01*
X42292000Y25012000D01*
X42293000Y25010000D01*
X42329000Y24926000D01*
X42330000Y24924000D01*
X42389000Y24777000D01*
X42386000Y24773000D01*
X42396000Y24746000D01*
X42396000Y24744000D01*
X42425000Y24655000D01*
X42426000Y24653000D01*
X42452000Y24563000D01*
X42453000Y24559000D01*
X42475000Y24470000D01*
X42476000Y24468000D01*
X42495000Y24376000D01*
X42495000Y24374000D01*
X42510000Y24296000D01*
X42510000Y24293000D01*
X42526000Y24188000D01*
X42526000Y24186000D01*
X42535000Y24107000D01*
X42535000Y24104000D01*
X42544000Y23997000D01*
X42544000Y23995000D01*
X42548000Y23901000D01*
X42548000Y23899000D01*
X42550000Y23804000D01*
X42550000Y-23813000D01*
X42548000Y-23899000D01*
X42548000Y-23901000D01*
X42543000Y-24007000D01*
X42543000Y-24009000D01*
X42535000Y-24104000D01*
X42535000Y-24107000D01*
X42526000Y-24186000D01*
X42526000Y-24188000D01*
X42510000Y-24293000D01*
X42510000Y-24296000D01*
X42493000Y-24385000D01*
X42493000Y-24388000D01*
X42472000Y-24481000D01*
X42472000Y-24483000D01*
X42449000Y-24575000D01*
X42448000Y-24578000D01*
X42425000Y-24654000D01*
X42425000Y-24655000D01*
X42392000Y-24756000D01*
X42392000Y-24759000D01*
X42387000Y-24774000D01*
X42389000Y-24777000D01*
X42330000Y-24924000D01*
X42329000Y-24926000D01*
X42293000Y-25010000D01*
X42292000Y-25012000D01*
X42246000Y-25108000D01*
X42209000Y-25182000D01*
X42208000Y-25185000D01*
X42155000Y-25278000D01*
X42154000Y-25280000D01*
X42106000Y-25360000D01*
X42105000Y-25362000D01*
X42061000Y-25431000D01*
X42059000Y-25433000D01*
X41999000Y-25521000D01*
X41997000Y-25523000D01*
X41941000Y-25599000D01*
X41939000Y-25601000D01*
X41887000Y-25665000D01*
X41886000Y-25666000D01*
X41818000Y-25748000D01*
X41816000Y-25750000D01*
X41762000Y-25809000D01*
X41761000Y-25810000D01*
X41699000Y-25875000D01*
X41697000Y-25877000D01*
X41620000Y-25951000D01*
X41619000Y-25952000D01*
X41560000Y-26006000D01*
X41558000Y-26008000D01*
X41476000Y-26076000D01*
X41475000Y-26077000D01*
X41411000Y-26129000D01*
X41408000Y-26131000D01*
X41322000Y-26194000D01*
X41320000Y-26196000D01*
X41243000Y-26249000D01*
X41241000Y-26251000D01*
X41164000Y-26300000D01*
X41162000Y-26301000D01*
X41090000Y-26344000D01*
X41088000Y-26345000D01*
X40995000Y-26398000D01*
X40992000Y-26399000D01*
X40918000Y-26436000D01*
X40822000Y-26482000D01*
X40820000Y-26483000D01*
X40736000Y-26519000D01*
X40734000Y-26520000D01*
X40587000Y-26579000D01*
X40583000Y-26576000D01*
X40556000Y-26586000D01*
X40554000Y-26586000D01*
X40465000Y-26615000D01*
X40463000Y-26616000D01*
X40380000Y-26640000D01*
X40377000Y-26641000D01*
X40293000Y-26662000D01*
X40291000Y-26662000D01*
X40187000Y-26685000D01*
X40184000Y-26685000D01*
X40106000Y-26700000D01*
X40103000Y-26700000D01*
X39998000Y-26716000D01*
X39996000Y-26716000D01*
X39917000Y-26725000D01*
X39914000Y-26725000D01*
X39819000Y-26733000D01*
X39817000Y-26733000D01*
X39711000Y-26738000D01*
X39709000Y-26738000D01*
X39614000Y-26740000D01*
X23643000Y-26740000D01*
X23555000Y-26652000D01*
X23555000Y-25723000D01*
X23643000Y-25635000D01*
X24876000Y-25635000D01*
X24888000Y-25636000D01*
X24935000Y-25644000D01*
X24937000Y-25643000D01*
X25035000Y-25621000D01*
X25036000Y-25620000D01*
X25140000Y-25598000D01*
X25152000Y-25593000D01*
X25164000Y-25589000D01*
X25165000Y-25589000D01*
X25260000Y-25517000D01*
X25264000Y-25514000D01*
X25331000Y-25470000D01*
X25334000Y-25466000D01*
X25355000Y-25434000D01*
X25365000Y-25421000D01*
X26959000Y-23826000D01*
X27144000Y-23903000D01*
X27144000Y-24789000D01*
X27213000Y-25046000D01*
X27346000Y-25273000D01*
X27527000Y-25454000D01*
X27755000Y-25587000D01*
X28010000Y-25655000D01*
X28272000Y-25655000D01*
X28525000Y-25590000D01*
X28524000Y-25590000D01*
X28750000Y-25456000D01*
X28755000Y-25453000D01*
X28936000Y-25272000D01*
X29067000Y-25045000D01*
X29136000Y-24788000D01*
X29136000Y-23731000D01*
X29135732Y-23730000D01*
X35784000Y-23730000D01*
X35784000Y-24789000D01*
X35853000Y-25046000D01*
X35986000Y-25273000D01*
X36167000Y-25454000D01*
X36395000Y-25587000D01*
X36650000Y-25655000D01*
X36912000Y-25655000D01*
X37165000Y-25590000D01*
X37164000Y-25590000D01*
X37390000Y-25456000D01*
X37396000Y-25453000D01*
X37576000Y-25272000D01*
X37707000Y-25045000D01*
X37776000Y-24788000D01*
X37776000Y-23731000D01*
X37707000Y-23474000D01*
X37576000Y-23247000D01*
X37393000Y-23064000D01*
X37166000Y-22933000D01*
X37167000Y-22933000D01*
X36908000Y-22864000D01*
X36652000Y-22864000D01*
X36395000Y-22933000D01*
X36168000Y-23064000D01*
X35986000Y-23246000D01*
X35853000Y-23473000D01*
X35784000Y-23730000D01*
X29135732Y-23730000D01*
X29067000Y-23474000D01*
X28936000Y-23247000D01*
X28753000Y-23064000D01*
X28750000Y-23062000D01*
X28646000Y-23003000D01*
X28706000Y-22780000D01*
X28905000Y-22780000D01*
X28917000Y-22781000D01*
X28970000Y-22790000D01*
X28972000Y-22789000D01*
X29095000Y-22761000D01*
X29096000Y-22760000D01*
X29180000Y-22742000D01*
X29188000Y-22739000D01*
X29199000Y-22735000D01*
X29296000Y-22664000D01*
X29298000Y-22662000D01*
X29369000Y-22612000D01*
X29391000Y-22579000D01*
X29401000Y-22566000D01*
X30302000Y-21665000D01*
X30311000Y-21657000D01*
X30356000Y-21625000D01*
X30357000Y-21624000D01*
X30401000Y-21550000D01*
X30404000Y-21546000D01*
X30470000Y-21448000D01*
X30471000Y-21439000D01*
X30476000Y-21425000D01*
X30493000Y-21322000D01*
X30511000Y-21217000D01*
X30504000Y-21181000D01*
X30502000Y-21166000D01*
X30502000Y-20668000D01*
X30590000Y-20580000D01*
X34412000Y-20580000D01*
X34500000Y-20668000D01*
X34500000Y-21430000D01*
X36200000Y-21430000D01*
X36240000Y-21390000D01*
X36341000Y-21377000D01*
X36397000Y-21409000D01*
X36649000Y-21475000D01*
X36912000Y-21475000D01*
X37165000Y-21410000D01*
X37164000Y-21410000D01*
X37390000Y-21276000D01*
X37396000Y-21273000D01*
X37576000Y-21092000D01*
X37707000Y-20865000D01*
X37776000Y-20608000D01*
X37776000Y-19551000D01*
X37707000Y-19294000D01*
X37576000Y-19067000D01*
X37393000Y-18884000D01*
X37166000Y-18753000D01*
X37167000Y-18753000D01*
X36908000Y-18684000D01*
X36652000Y-18684000D01*
X36395000Y-18753000D01*
X36168000Y-18884000D01*
G37*
%TD.AperFunction*%
%TD*%
M02*
