%TF.GenerationSoftware,Flux,Pcbnew,7.0.11-7.0.11~ubuntu20.04.1*%
%TF.CreationDate,2024-08-15T15:07:56+00:00*%
%TF.ProjectId,input,696e7075-742e-46b6-9963-61645f706362,rev?*%
%TF.SameCoordinates,Original*%
%TF.FileFunction,Soldermask,Bot*%
%TF.FilePolarity,Negative*%
%FSLAX46Y46*%
G04 Gerber Fmt 4.6, Leading zero omitted, Abs format (unit mm)*
G04 Filename: businesscardpcb*
G04 Build it with Flux! Visit our site at: https://www.flux.ai (PCBNEW 7.0.11-7.0.11~ubuntu20.04.1) date 2024-08-15 15:07:56*
%MOMM*%
%LPD*%
G01*
G04 APERTURE LIST*
G04 APERTURE END LIST*
%TO.C,*%
G36*
X-14940100Y-7684100D02*
G01*
X-15090100Y-7684100D01*
X-15090100Y-7534100D01*
X-14940100Y-7534100D01*
X-14940100Y-7684100D01*
G37*
G36*
X-40061800Y-17838300D02*
G01*
X-40061800Y-19538300D01*
X-41761800Y-19538300D01*
X-41761800Y-18700571D01*
X-41411649Y-18700571D01*
X-41410445Y-18725082D01*
X-41408040Y-18749505D01*
X-41404439Y-18773781D01*
X-41399651Y-18797851D01*
X-41393688Y-18821656D01*
X-41386564Y-18845141D01*
X-41378296Y-18868248D01*
X-41368905Y-18890921D01*
X-41358412Y-18913106D01*
X-41346843Y-18934749D01*
X-41334227Y-18955799D01*
X-41320592Y-18976204D01*
X-41305973Y-18995916D01*
X-41290404Y-19014886D01*
X-41273924Y-19033070D01*
X-41256570Y-19050424D01*
X-41238386Y-19066904D01*
X-41219416Y-19082473D01*
X-41199704Y-19097092D01*
X-41179299Y-19110727D01*
X-41158249Y-19123343D01*
X-41136606Y-19134912D01*
X-41114421Y-19145405D01*
X-41091748Y-19154796D01*
X-41068641Y-19163064D01*
X-41045156Y-19170188D01*
X-41021351Y-19176151D01*
X-40997281Y-19180939D01*
X-40973005Y-19184540D01*
X-40948582Y-19186945D01*
X-40924071Y-19188149D01*
X-40899529Y-19188149D01*
X-40875018Y-19186945D01*
X-40850595Y-19184540D01*
X-40826319Y-19180939D01*
X-40802249Y-19176151D01*
X-40778444Y-19170188D01*
X-40754959Y-19163064D01*
X-40731852Y-19154796D01*
X-40709179Y-19145405D01*
X-40686994Y-19134912D01*
X-40665351Y-19123343D01*
X-40644301Y-19110727D01*
X-40623896Y-19097092D01*
X-40604184Y-19082473D01*
X-40585214Y-19066904D01*
X-40567030Y-19050424D01*
X-40549676Y-19033070D01*
X-40533196Y-19014886D01*
X-40517627Y-18995916D01*
X-40503008Y-18976204D01*
X-40489373Y-18955799D01*
X-40476757Y-18934749D01*
X-40465188Y-18913106D01*
X-40454695Y-18890921D01*
X-40445304Y-18868248D01*
X-40437036Y-18845141D01*
X-40429912Y-18821656D01*
X-40423949Y-18797851D01*
X-40419161Y-18773781D01*
X-40415560Y-18749505D01*
X-40413155Y-18725082D01*
X-40411951Y-18700571D01*
X-40411951Y-18676029D01*
X-40413155Y-18651518D01*
X-40415560Y-18627095D01*
X-40419161Y-18602819D01*
X-40423949Y-18578749D01*
X-40429912Y-18554944D01*
X-40437036Y-18531459D01*
X-40445304Y-18508352D01*
X-40454695Y-18485679D01*
X-40458533Y-18477563D01*
X-40465188Y-18463494D01*
X-40476757Y-18441851D01*
X-40489373Y-18420801D01*
X-40503008Y-18400396D01*
X-40517627Y-18380684D01*
X-40533196Y-18361714D01*
X-40549676Y-18343530D01*
X-40567030Y-18326176D01*
X-40585214Y-18309696D01*
X-40604184Y-18294127D01*
X-40623896Y-18279508D01*
X-40644301Y-18265873D01*
X-40665351Y-18253257D01*
X-40686994Y-18241688D01*
X-40709179Y-18231195D01*
X-40731852Y-18221804D01*
X-40754959Y-18213536D01*
X-40778444Y-18206412D01*
X-40802249Y-18200449D01*
X-40826319Y-18195661D01*
X-40850595Y-18192060D01*
X-40875018Y-18189655D01*
X-40899529Y-18188451D01*
X-40924071Y-18188451D01*
X-40948582Y-18189655D01*
X-40973005Y-18192060D01*
X-40997281Y-18195661D01*
X-41021351Y-18200449D01*
X-41045156Y-18206412D01*
X-41068641Y-18213536D01*
X-41091748Y-18221804D01*
X-41114421Y-18231195D01*
X-41136606Y-18241688D01*
X-41158249Y-18253257D01*
X-41179299Y-18265873D01*
X-41199704Y-18279508D01*
X-41219416Y-18294127D01*
X-41238386Y-18309696D01*
X-41256570Y-18326176D01*
X-41273924Y-18343530D01*
X-41290404Y-18361714D01*
X-41305973Y-18380684D01*
X-41320592Y-18400396D01*
X-41334227Y-18420801D01*
X-41346843Y-18441851D01*
X-41358412Y-18463494D01*
X-41368905Y-18485679D01*
X-41378296Y-18508352D01*
X-41386564Y-18531459D01*
X-41393688Y-18554944D01*
X-41399651Y-18578749D01*
X-41404439Y-18602819D01*
X-41408040Y-18627095D01*
X-41410445Y-18651518D01*
X-41411649Y-18676029D01*
X-41411649Y-18700571D01*
X-41761800Y-18700571D01*
X-41761800Y-17838300D01*
X-40061800Y-17838300D01*
G37*
G36*
X-40849250Y-10220603D02*
G01*
X-40807731Y-10224692D01*
X-40766462Y-10230814D01*
X-40725544Y-10238953D01*
X-40685074Y-10249090D01*
X-40645150Y-10261201D01*
X-40605869Y-10275256D01*
X-40567325Y-10291222D01*
X-40529610Y-10309059D01*
X-40492816Y-10328726D01*
X-40457032Y-10350174D01*
X-40422343Y-10373353D01*
X-40388833Y-10398206D01*
X-40356583Y-10424672D01*
X-40325670Y-10452690D01*
X-40296170Y-10482191D01*
X-40268152Y-10513103D01*
X-40241685Y-10545353D01*
X-40216833Y-10578863D01*
X-40193654Y-10613552D01*
X-40172206Y-10649337D01*
X-40152539Y-10686130D01*
X-40134701Y-10723845D01*
X-40118736Y-10762389D01*
X-40104681Y-10801671D01*
X-40092570Y-10841594D01*
X-40082433Y-10882064D01*
X-40074294Y-10922982D01*
X-40068172Y-10964251D01*
X-40064083Y-11005770D01*
X-40062036Y-11047440D01*
X-40062036Y-11089160D01*
X-40064083Y-11130830D01*
X-40068172Y-11172349D01*
X-40074294Y-11213618D01*
X-40082433Y-11254536D01*
X-40092570Y-11295006D01*
X-40104681Y-11334929D01*
X-40118736Y-11374211D01*
X-40134701Y-11412755D01*
X-40152539Y-11450470D01*
X-40172206Y-11487263D01*
X-40193654Y-11523048D01*
X-40216833Y-11557737D01*
X-40241685Y-11591247D01*
X-40268152Y-11623497D01*
X-40296170Y-11654409D01*
X-40325670Y-11683910D01*
X-40356583Y-11711928D01*
X-40388833Y-11738394D01*
X-40422343Y-11763247D01*
X-40457032Y-11786426D01*
X-40492816Y-11807874D01*
X-40529610Y-11827541D01*
X-40567325Y-11845378D01*
X-40605869Y-11861344D01*
X-40645150Y-11875399D01*
X-40685074Y-11887510D01*
X-40725544Y-11897647D01*
X-40766462Y-11905786D01*
X-40807731Y-11911908D01*
X-40849250Y-11915997D01*
X-40890920Y-11918044D01*
X-40932640Y-11918044D01*
X-40974310Y-11915997D01*
X-41015829Y-11911908D01*
X-41057097Y-11905786D01*
X-41098016Y-11897647D01*
X-41138486Y-11887510D01*
X-41178409Y-11875399D01*
X-41217691Y-11861344D01*
X-41256235Y-11845378D01*
X-41293949Y-11827541D01*
X-41330743Y-11807874D01*
X-41366528Y-11786426D01*
X-41401217Y-11763247D01*
X-41434727Y-11738394D01*
X-41466977Y-11711928D01*
X-41497889Y-11683910D01*
X-41527390Y-11654409D01*
X-41555407Y-11623497D01*
X-41581874Y-11591247D01*
X-41606727Y-11557737D01*
X-41629905Y-11523048D01*
X-41651354Y-11487263D01*
X-41671020Y-11450470D01*
X-41688858Y-11412755D01*
X-41704824Y-11374211D01*
X-41718879Y-11334929D01*
X-41730989Y-11295006D01*
X-41741127Y-11254536D01*
X-41749266Y-11213618D01*
X-41755387Y-11172349D01*
X-41759477Y-11130830D01*
X-41761524Y-11089160D01*
X-41761524Y-11080571D01*
X-41411629Y-11080571D01*
X-41410425Y-11105082D01*
X-41408020Y-11129505D01*
X-41404419Y-11153781D01*
X-41399631Y-11177851D01*
X-41393668Y-11201656D01*
X-41386544Y-11225141D01*
X-41378276Y-11248248D01*
X-41368885Y-11270921D01*
X-41358392Y-11293106D01*
X-41346823Y-11314749D01*
X-41334207Y-11335799D01*
X-41320572Y-11356204D01*
X-41305953Y-11375916D01*
X-41290384Y-11394886D01*
X-41273903Y-11413070D01*
X-41256550Y-11430424D01*
X-41238366Y-11446904D01*
X-41219396Y-11462473D01*
X-41199684Y-11477092D01*
X-41179279Y-11490727D01*
X-41158229Y-11503343D01*
X-41136585Y-11514912D01*
X-41114400Y-11525405D01*
X-41091727Y-11534796D01*
X-41068621Y-11543064D01*
X-41045136Y-11550188D01*
X-41021330Y-11556151D01*
X-40997261Y-11560939D01*
X-40972985Y-11564540D01*
X-40948562Y-11566945D01*
X-40924050Y-11568149D01*
X-40899509Y-11568149D01*
X-40874997Y-11566945D01*
X-40850574Y-11564540D01*
X-40826299Y-11560939D01*
X-40802229Y-11556151D01*
X-40778423Y-11550188D01*
X-40754939Y-11543064D01*
X-40731832Y-11534796D01*
X-40709159Y-11525405D01*
X-40686974Y-11514912D01*
X-40665331Y-11503343D01*
X-40644281Y-11490727D01*
X-40623876Y-11477092D01*
X-40604164Y-11462473D01*
X-40585193Y-11446904D01*
X-40567010Y-11430424D01*
X-40549656Y-11413070D01*
X-40533175Y-11394886D01*
X-40517607Y-11375916D01*
X-40502987Y-11356204D01*
X-40489353Y-11335799D01*
X-40476736Y-11314749D01*
X-40465168Y-11293106D01*
X-40454675Y-11270921D01*
X-40445283Y-11248248D01*
X-40437016Y-11225141D01*
X-40429892Y-11201656D01*
X-40423929Y-11177851D01*
X-40419141Y-11153781D01*
X-40415540Y-11129505D01*
X-40413135Y-11105082D01*
X-40411930Y-11080571D01*
X-40411930Y-11056029D01*
X-40413135Y-11031518D01*
X-40415540Y-11007095D01*
X-40419141Y-10982819D01*
X-40423929Y-10958749D01*
X-40429892Y-10934944D01*
X-40437016Y-10911459D01*
X-40445283Y-10888352D01*
X-40454675Y-10865679D01*
X-40465168Y-10843494D01*
X-40476736Y-10821851D01*
X-40489353Y-10800801D01*
X-40502987Y-10780396D01*
X-40517607Y-10760684D01*
X-40533175Y-10741714D01*
X-40549656Y-10723530D01*
X-40567010Y-10706176D01*
X-40585193Y-10689696D01*
X-40604164Y-10674127D01*
X-40623876Y-10659508D01*
X-40644281Y-10645873D01*
X-40665331Y-10633257D01*
X-40686974Y-10621688D01*
X-40709159Y-10611195D01*
X-40731832Y-10601804D01*
X-40754939Y-10593536D01*
X-40778423Y-10586412D01*
X-40802229Y-10580449D01*
X-40826299Y-10575661D01*
X-40850574Y-10572060D01*
X-40874997Y-10569655D01*
X-40899509Y-10568451D01*
X-40924050Y-10568451D01*
X-40948562Y-10569655D01*
X-40972985Y-10572060D01*
X-40997261Y-10575661D01*
X-41021330Y-10580449D01*
X-41045136Y-10586412D01*
X-41068621Y-10593536D01*
X-41091727Y-10601804D01*
X-41114400Y-10611195D01*
X-41136585Y-10621688D01*
X-41158229Y-10633257D01*
X-41179279Y-10645873D01*
X-41199684Y-10659508D01*
X-41219396Y-10674127D01*
X-41238366Y-10689696D01*
X-41256550Y-10706176D01*
X-41273903Y-10723530D01*
X-41290384Y-10741714D01*
X-41305953Y-10760684D01*
X-41320572Y-10780396D01*
X-41334207Y-10800801D01*
X-41346823Y-10821851D01*
X-41358392Y-10843494D01*
X-41368885Y-10865679D01*
X-41378276Y-10888352D01*
X-41386544Y-10911459D01*
X-41393668Y-10934944D01*
X-41399631Y-10958749D01*
X-41404419Y-10982819D01*
X-41408020Y-11007095D01*
X-41410425Y-11031518D01*
X-41411629Y-11056029D01*
X-41411629Y-11080571D01*
X-41761524Y-11080571D01*
X-41761524Y-11047440D01*
X-41759477Y-11005770D01*
X-41755387Y-10964251D01*
X-41749266Y-10922982D01*
X-41741127Y-10882064D01*
X-41730989Y-10841594D01*
X-41718879Y-10801671D01*
X-41704824Y-10762389D01*
X-41688858Y-10723845D01*
X-41671020Y-10686130D01*
X-41651354Y-10649337D01*
X-41629905Y-10613552D01*
X-41606727Y-10578863D01*
X-41581874Y-10545353D01*
X-41555407Y-10513103D01*
X-41527390Y-10482191D01*
X-41497889Y-10452690D01*
X-41466977Y-10424672D01*
X-41434727Y-10398206D01*
X-41401217Y-10373353D01*
X-41366528Y-10350174D01*
X-41330743Y-10328726D01*
X-41293949Y-10309059D01*
X-41256235Y-10291222D01*
X-41217691Y-10275256D01*
X-41178409Y-10261201D01*
X-41138486Y-10249090D01*
X-41098016Y-10238953D01*
X-41057097Y-10230814D01*
X-41015829Y-10224692D01*
X-40974310Y-10220603D01*
X-40932640Y-10218556D01*
X-40890920Y-10218556D01*
X-40849250Y-10220603D01*
G37*
G36*
X-40849263Y-15300603D02*
G01*
X-40807744Y-15304692D01*
X-40766476Y-15310814D01*
X-40725557Y-15318953D01*
X-40685087Y-15329090D01*
X-40645164Y-15341201D01*
X-40605882Y-15355256D01*
X-40567338Y-15371222D01*
X-40529624Y-15389059D01*
X-40492830Y-15408726D01*
X-40457045Y-15430174D01*
X-40422356Y-15453353D01*
X-40388846Y-15478206D01*
X-40356596Y-15504672D01*
X-40325684Y-15532690D01*
X-40296183Y-15562191D01*
X-40268166Y-15593103D01*
X-40241699Y-15625353D01*
X-40216846Y-15658863D01*
X-40193668Y-15693552D01*
X-40172219Y-15729337D01*
X-40152553Y-15766130D01*
X-40134715Y-15803845D01*
X-40118749Y-15842389D01*
X-40104694Y-15881671D01*
X-40092584Y-15921594D01*
X-40082446Y-15962064D01*
X-40074307Y-16002982D01*
X-40068186Y-16044251D01*
X-40064096Y-16085770D01*
X-40062049Y-16127440D01*
X-40062049Y-16169160D01*
X-40064096Y-16210830D01*
X-40068186Y-16252349D01*
X-40074307Y-16293618D01*
X-40082446Y-16334536D01*
X-40092584Y-16375006D01*
X-40104694Y-16414929D01*
X-40118749Y-16454211D01*
X-40134715Y-16492755D01*
X-40152553Y-16530470D01*
X-40172219Y-16567263D01*
X-40193668Y-16603048D01*
X-40216846Y-16637737D01*
X-40241699Y-16671247D01*
X-40268166Y-16703497D01*
X-40296183Y-16734409D01*
X-40325684Y-16763910D01*
X-40356596Y-16791928D01*
X-40388846Y-16818394D01*
X-40422356Y-16843247D01*
X-40457045Y-16866426D01*
X-40492830Y-16887874D01*
X-40529624Y-16907541D01*
X-40567338Y-16925378D01*
X-40605882Y-16941344D01*
X-40645164Y-16955399D01*
X-40685087Y-16967510D01*
X-40725557Y-16977647D01*
X-40766476Y-16985786D01*
X-40807744Y-16991908D01*
X-40849263Y-16995997D01*
X-40890933Y-16998044D01*
X-40932653Y-16998044D01*
X-40974323Y-16995997D01*
X-41015842Y-16991908D01*
X-41057111Y-16985786D01*
X-41098029Y-16977647D01*
X-41138499Y-16967510D01*
X-41178423Y-16955399D01*
X-41217704Y-16941344D01*
X-41256248Y-16925378D01*
X-41293963Y-16907541D01*
X-41330757Y-16887874D01*
X-41366541Y-16866426D01*
X-41401230Y-16843247D01*
X-41434740Y-16818394D01*
X-41466990Y-16791928D01*
X-41497903Y-16763910D01*
X-41527403Y-16734409D01*
X-41555421Y-16703497D01*
X-41581888Y-16671247D01*
X-41606740Y-16637737D01*
X-41629919Y-16603048D01*
X-41651367Y-16567263D01*
X-41671034Y-16530470D01*
X-41688872Y-16492755D01*
X-41704837Y-16454211D01*
X-41718892Y-16414929D01*
X-41731003Y-16375006D01*
X-41741140Y-16334536D01*
X-41749279Y-16293618D01*
X-41755401Y-16252349D01*
X-41759490Y-16210830D01*
X-41761537Y-16169160D01*
X-41761537Y-16160571D01*
X-41411643Y-16160571D01*
X-41410438Y-16185082D01*
X-41408033Y-16209505D01*
X-41404432Y-16233781D01*
X-41399644Y-16257851D01*
X-41393681Y-16281656D01*
X-41386557Y-16305141D01*
X-41378290Y-16328248D01*
X-41368898Y-16350921D01*
X-41358405Y-16373106D01*
X-41346837Y-16394749D01*
X-41334220Y-16415799D01*
X-41320586Y-16436204D01*
X-41305966Y-16455916D01*
X-41290398Y-16474886D01*
X-41273917Y-16493070D01*
X-41256564Y-16510424D01*
X-41238380Y-16526904D01*
X-41219409Y-16542473D01*
X-41199697Y-16557092D01*
X-41179292Y-16570727D01*
X-41158242Y-16583343D01*
X-41136599Y-16594912D01*
X-41114414Y-16605405D01*
X-41091741Y-16614796D01*
X-41068634Y-16623064D01*
X-41045150Y-16630188D01*
X-41021344Y-16636151D01*
X-40997274Y-16640939D01*
X-40972999Y-16644540D01*
X-40948576Y-16646945D01*
X-40924064Y-16648149D01*
X-40899523Y-16648149D01*
X-40875011Y-16646945D01*
X-40850588Y-16644540D01*
X-40826312Y-16640939D01*
X-40802243Y-16636151D01*
X-40778437Y-16630188D01*
X-40754952Y-16623064D01*
X-40731846Y-16614796D01*
X-40709173Y-16605405D01*
X-40686988Y-16594912D01*
X-40665344Y-16583343D01*
X-40644294Y-16570727D01*
X-40623889Y-16557092D01*
X-40604177Y-16542473D01*
X-40585207Y-16526904D01*
X-40567023Y-16510424D01*
X-40549670Y-16493070D01*
X-40533189Y-16474886D01*
X-40517620Y-16455916D01*
X-40503001Y-16436204D01*
X-40489366Y-16415799D01*
X-40476750Y-16394749D01*
X-40465181Y-16373106D01*
X-40454688Y-16350921D01*
X-40445297Y-16328248D01*
X-40437029Y-16305141D01*
X-40429905Y-16281656D01*
X-40423942Y-16257851D01*
X-40419154Y-16233781D01*
X-40415553Y-16209505D01*
X-40413148Y-16185082D01*
X-40411944Y-16160571D01*
X-40411944Y-16136029D01*
X-40413148Y-16111518D01*
X-40415553Y-16087095D01*
X-40419154Y-16062819D01*
X-40423942Y-16038749D01*
X-40429905Y-16014944D01*
X-40437029Y-15991459D01*
X-40445297Y-15968352D01*
X-40454688Y-15945679D01*
X-40465181Y-15923494D01*
X-40476750Y-15901851D01*
X-40489366Y-15880801D01*
X-40503001Y-15860396D01*
X-40517620Y-15840684D01*
X-40533189Y-15821714D01*
X-40549670Y-15803530D01*
X-40567023Y-15786176D01*
X-40585207Y-15769696D01*
X-40604177Y-15754127D01*
X-40623889Y-15739508D01*
X-40644294Y-15725873D01*
X-40665344Y-15713257D01*
X-40686988Y-15701688D01*
X-40709173Y-15691195D01*
X-40731846Y-15681804D01*
X-40754952Y-15673536D01*
X-40778437Y-15666412D01*
X-40802243Y-15660449D01*
X-40826312Y-15655661D01*
X-40850588Y-15652060D01*
X-40875011Y-15649655D01*
X-40899523Y-15648451D01*
X-40924064Y-15648451D01*
X-40948576Y-15649655D01*
X-40972999Y-15652060D01*
X-40997274Y-15655661D01*
X-41021344Y-15660449D01*
X-41045150Y-15666412D01*
X-41068634Y-15673536D01*
X-41091741Y-15681804D01*
X-41114414Y-15691195D01*
X-41136599Y-15701688D01*
X-41158242Y-15713257D01*
X-41179292Y-15725873D01*
X-41199697Y-15739508D01*
X-41219409Y-15754127D01*
X-41238380Y-15769696D01*
X-41256564Y-15786176D01*
X-41273917Y-15803530D01*
X-41290398Y-15821714D01*
X-41305966Y-15840684D01*
X-41320586Y-15860396D01*
X-41334220Y-15880801D01*
X-41346837Y-15901851D01*
X-41358405Y-15923494D01*
X-41368898Y-15945679D01*
X-41378290Y-15968352D01*
X-41386557Y-15991459D01*
X-41393681Y-16014944D01*
X-41399644Y-16038749D01*
X-41404432Y-16062819D01*
X-41408033Y-16087095D01*
X-41410438Y-16111518D01*
X-41411643Y-16136029D01*
X-41411643Y-16160571D01*
X-41761537Y-16160571D01*
X-41761537Y-16127440D01*
X-41759490Y-16085770D01*
X-41755401Y-16044251D01*
X-41749279Y-16002982D01*
X-41741140Y-15962064D01*
X-41731003Y-15921594D01*
X-41718892Y-15881671D01*
X-41704837Y-15842389D01*
X-41688872Y-15803845D01*
X-41671034Y-15766130D01*
X-41651367Y-15729337D01*
X-41629919Y-15693552D01*
X-41606740Y-15658863D01*
X-41581888Y-15625353D01*
X-41555421Y-15593103D01*
X-41527403Y-15562191D01*
X-41497903Y-15532690D01*
X-41466990Y-15504672D01*
X-41434740Y-15478206D01*
X-41401230Y-15453353D01*
X-41366541Y-15430174D01*
X-41330757Y-15408726D01*
X-41293963Y-15389059D01*
X-41256248Y-15371222D01*
X-41217704Y-15355256D01*
X-41178423Y-15341201D01*
X-41138499Y-15329090D01*
X-41098029Y-15318953D01*
X-41057111Y-15310814D01*
X-41015842Y-15304692D01*
X-40974323Y-15300603D01*
X-40932653Y-15298556D01*
X-40890933Y-15298556D01*
X-40849263Y-15300603D01*
G37*
G36*
X-40849257Y-12760603D02*
G01*
X-40807737Y-12764692D01*
X-40766469Y-12770814D01*
X-40725550Y-12778953D01*
X-40685081Y-12789090D01*
X-40645157Y-12801201D01*
X-40605876Y-12815256D01*
X-40567331Y-12831222D01*
X-40529617Y-12849059D01*
X-40492823Y-12868726D01*
X-40457039Y-12890174D01*
X-40422350Y-12913353D01*
X-40388840Y-12938206D01*
X-40356590Y-12964672D01*
X-40325677Y-12992690D01*
X-40296176Y-13022191D01*
X-40268159Y-13053103D01*
X-40241692Y-13085353D01*
X-40216839Y-13118863D01*
X-40193661Y-13153552D01*
X-40172213Y-13189337D01*
X-40152546Y-13226130D01*
X-40134708Y-13263845D01*
X-40118743Y-13302389D01*
X-40104688Y-13341671D01*
X-40092577Y-13381594D01*
X-40082440Y-13422064D01*
X-40074301Y-13462982D01*
X-40068179Y-13504251D01*
X-40064090Y-13545770D01*
X-40062043Y-13587440D01*
X-40062043Y-13629160D01*
X-40064090Y-13670830D01*
X-40068179Y-13712349D01*
X-40074301Y-13753618D01*
X-40082440Y-13794536D01*
X-40092577Y-13835006D01*
X-40104688Y-13874929D01*
X-40118743Y-13914211D01*
X-40134708Y-13952755D01*
X-40152546Y-13990470D01*
X-40172213Y-14027263D01*
X-40193661Y-14063048D01*
X-40216839Y-14097737D01*
X-40241692Y-14131247D01*
X-40268159Y-14163497D01*
X-40296176Y-14194409D01*
X-40325677Y-14223910D01*
X-40356590Y-14251928D01*
X-40388840Y-14278394D01*
X-40422350Y-14303247D01*
X-40457039Y-14326426D01*
X-40492823Y-14347874D01*
X-40529617Y-14367541D01*
X-40567331Y-14385378D01*
X-40605876Y-14401344D01*
X-40645157Y-14415399D01*
X-40685081Y-14427510D01*
X-40725550Y-14437647D01*
X-40766469Y-14445786D01*
X-40807737Y-14451908D01*
X-40849257Y-14455997D01*
X-40890926Y-14458044D01*
X-40932647Y-14458044D01*
X-40974316Y-14455997D01*
X-41015836Y-14451908D01*
X-41057104Y-14445786D01*
X-41098023Y-14437647D01*
X-41138492Y-14427510D01*
X-41178416Y-14415399D01*
X-41217697Y-14401344D01*
X-41256242Y-14385378D01*
X-41293956Y-14367541D01*
X-41330750Y-14347874D01*
X-41366534Y-14326426D01*
X-41401223Y-14303247D01*
X-41434733Y-14278394D01*
X-41466983Y-14251928D01*
X-41497896Y-14223910D01*
X-41527397Y-14194409D01*
X-41555414Y-14163497D01*
X-41581881Y-14131247D01*
X-41606734Y-14097737D01*
X-41629912Y-14063048D01*
X-41651360Y-14027263D01*
X-41671027Y-13990470D01*
X-41688865Y-13952755D01*
X-41704830Y-13914211D01*
X-41718885Y-13874929D01*
X-41730996Y-13835006D01*
X-41741133Y-13794536D01*
X-41749273Y-13753618D01*
X-41755394Y-13712349D01*
X-41759483Y-13670830D01*
X-41761531Y-13629160D01*
X-41761531Y-13620571D01*
X-41411636Y-13620571D01*
X-41410432Y-13645082D01*
X-41408026Y-13669505D01*
X-41404425Y-13693781D01*
X-41399638Y-13717851D01*
X-41393675Y-13741656D01*
X-41386551Y-13765141D01*
X-41378283Y-13788248D01*
X-41368891Y-13810921D01*
X-41358399Y-13833106D01*
X-41346830Y-13854749D01*
X-41334213Y-13875799D01*
X-41320579Y-13896204D01*
X-41305960Y-13915916D01*
X-41290391Y-13934886D01*
X-41273910Y-13953070D01*
X-41256557Y-13970424D01*
X-41238373Y-13986904D01*
X-41219402Y-14002473D01*
X-41199691Y-14017092D01*
X-41179285Y-14030727D01*
X-41158236Y-14043343D01*
X-41136592Y-14054912D01*
X-41114407Y-14065405D01*
X-41091734Y-14074796D01*
X-41068627Y-14083064D01*
X-41045143Y-14090188D01*
X-41021337Y-14096151D01*
X-40997267Y-14100939D01*
X-40972992Y-14104540D01*
X-40948569Y-14106945D01*
X-40924057Y-14108149D01*
X-40899516Y-14108149D01*
X-40875004Y-14106945D01*
X-40850581Y-14104540D01*
X-40826306Y-14100939D01*
X-40802236Y-14096151D01*
X-40778430Y-14090188D01*
X-40754946Y-14083064D01*
X-40731839Y-14074796D01*
X-40709166Y-14065405D01*
X-40686981Y-14054912D01*
X-40665337Y-14043343D01*
X-40644288Y-14030727D01*
X-40623882Y-14017092D01*
X-40604171Y-14002473D01*
X-40585200Y-13986904D01*
X-40567016Y-13970424D01*
X-40549663Y-13953070D01*
X-40533182Y-13934886D01*
X-40517613Y-13915916D01*
X-40502994Y-13896204D01*
X-40489360Y-13875799D01*
X-40476743Y-13854749D01*
X-40465174Y-13833106D01*
X-40454682Y-13810921D01*
X-40445290Y-13788248D01*
X-40437022Y-13765141D01*
X-40429898Y-13741656D01*
X-40423935Y-13717851D01*
X-40419148Y-13693781D01*
X-40415547Y-13669505D01*
X-40413141Y-13645082D01*
X-40411937Y-13620571D01*
X-40411937Y-13596029D01*
X-40413141Y-13571518D01*
X-40415547Y-13547095D01*
X-40419148Y-13522819D01*
X-40423935Y-13498749D01*
X-40429898Y-13474944D01*
X-40437022Y-13451459D01*
X-40445290Y-13428352D01*
X-40454682Y-13405679D01*
X-40465174Y-13383494D01*
X-40476743Y-13361851D01*
X-40489360Y-13340801D01*
X-40502994Y-13320396D01*
X-40517613Y-13300684D01*
X-40533182Y-13281714D01*
X-40549663Y-13263530D01*
X-40567016Y-13246176D01*
X-40585200Y-13229696D01*
X-40604171Y-13214127D01*
X-40623882Y-13199508D01*
X-40644288Y-13185873D01*
X-40665337Y-13173257D01*
X-40686981Y-13161688D01*
X-40709166Y-13151195D01*
X-40731839Y-13141804D01*
X-40754946Y-13133536D01*
X-40778430Y-13126412D01*
X-40802236Y-13120449D01*
X-40826306Y-13115661D01*
X-40850581Y-13112060D01*
X-40875004Y-13109655D01*
X-40899516Y-13108451D01*
X-40924057Y-13108451D01*
X-40948569Y-13109655D01*
X-40972992Y-13112060D01*
X-40997267Y-13115661D01*
X-41021337Y-13120449D01*
X-41045143Y-13126412D01*
X-41068627Y-13133536D01*
X-41091734Y-13141804D01*
X-41114407Y-13151195D01*
X-41136592Y-13161688D01*
X-41158236Y-13173257D01*
X-41179285Y-13185873D01*
X-41199691Y-13199508D01*
X-41219402Y-13214127D01*
X-41238373Y-13229696D01*
X-41256557Y-13246176D01*
X-41273910Y-13263530D01*
X-41290391Y-13281714D01*
X-41305960Y-13300684D01*
X-41320579Y-13320396D01*
X-41334213Y-13340801D01*
X-41346830Y-13361851D01*
X-41358399Y-13383494D01*
X-41368891Y-13405679D01*
X-41378283Y-13428352D01*
X-41386551Y-13451459D01*
X-41393675Y-13474944D01*
X-41399638Y-13498749D01*
X-41404425Y-13522819D01*
X-41408026Y-13547095D01*
X-41410432Y-13571518D01*
X-41411636Y-13596029D01*
X-41411636Y-13620571D01*
X-41761531Y-13620571D01*
X-41761531Y-13587440D01*
X-41759483Y-13545770D01*
X-41755394Y-13504251D01*
X-41749273Y-13462982D01*
X-41741133Y-13422064D01*
X-41730996Y-13381594D01*
X-41718885Y-13341671D01*
X-41704830Y-13302389D01*
X-41688865Y-13263845D01*
X-41671027Y-13226130D01*
X-41651360Y-13189337D01*
X-41629912Y-13153552D01*
X-41606734Y-13118863D01*
X-41581881Y-13085353D01*
X-41555414Y-13053103D01*
X-41527397Y-13022191D01*
X-41497896Y-12992690D01*
X-41466983Y-12964672D01*
X-41434733Y-12938206D01*
X-41401223Y-12913353D01*
X-41366534Y-12890174D01*
X-41330750Y-12868726D01*
X-41293956Y-12849059D01*
X-41256242Y-12831222D01*
X-41217697Y-12815256D01*
X-41178416Y-12801201D01*
X-41138492Y-12789090D01*
X-41098023Y-12778953D01*
X-41057104Y-12770814D01*
X-41015836Y-12764692D01*
X-40974316Y-12760603D01*
X-40932647Y-12758556D01*
X-40890926Y-12758556D01*
X-40849257Y-12760603D01*
G37*
G36*
X38285882Y-20605255D02*
G01*
X38310305Y-20607660D01*
X38334581Y-20611261D01*
X38358651Y-20616049D01*
X38382456Y-20622012D01*
X38405941Y-20629136D01*
X38429048Y-20637404D01*
X38451721Y-20646795D01*
X38473906Y-20657288D01*
X38495549Y-20668857D01*
X38516599Y-20681473D01*
X38537004Y-20695108D01*
X38556716Y-20709727D01*
X38575686Y-20725296D01*
X38593870Y-20741776D01*
X38611224Y-20759130D01*
X38627704Y-20777314D01*
X38643273Y-20796284D01*
X38657892Y-20815996D01*
X38671527Y-20836401D01*
X38684143Y-20857451D01*
X38695712Y-20879094D01*
X38706205Y-20901279D01*
X38715596Y-20923952D01*
X38723864Y-20947059D01*
X38730988Y-20970544D01*
X38736951Y-20994349D01*
X38741739Y-21018419D01*
X38745340Y-21042695D01*
X38747745Y-21067118D01*
X38748949Y-21091629D01*
X38748949Y-21916171D01*
X38747745Y-21940682D01*
X38745340Y-21965105D01*
X38741739Y-21989381D01*
X38736951Y-22013451D01*
X38730988Y-22037256D01*
X38723864Y-22060741D01*
X38715596Y-22083848D01*
X38706205Y-22106521D01*
X38695712Y-22128706D01*
X38684143Y-22150349D01*
X38671527Y-22171399D01*
X38657892Y-22191804D01*
X38643273Y-22211516D01*
X38627704Y-22230486D01*
X38611224Y-22248670D01*
X38593870Y-22266024D01*
X38575686Y-22282504D01*
X38556716Y-22298073D01*
X38537004Y-22312692D01*
X38516599Y-22326327D01*
X38495549Y-22338943D01*
X38473906Y-22350512D01*
X38451721Y-22361005D01*
X38429048Y-22370396D01*
X38405941Y-22378664D01*
X38382456Y-22385788D01*
X38358651Y-22391751D01*
X38334581Y-22396539D01*
X38310305Y-22400140D01*
X38285882Y-22402545D01*
X38261371Y-22403749D01*
X38236829Y-22403749D01*
X38212318Y-22402545D01*
X38187895Y-22400140D01*
X38163619Y-22396539D01*
X38139549Y-22391751D01*
X38115744Y-22385788D01*
X38092259Y-22378664D01*
X38069152Y-22370396D01*
X38046479Y-22361005D01*
X38024294Y-22350512D01*
X38002651Y-22338943D01*
X37981601Y-22326327D01*
X37961196Y-22312692D01*
X37941484Y-22298073D01*
X37922514Y-22282504D01*
X37904330Y-22266024D01*
X37886976Y-22248670D01*
X37870496Y-22230486D01*
X37854927Y-22211516D01*
X37840308Y-22191804D01*
X37826673Y-22171399D01*
X37814057Y-22150349D01*
X37802488Y-22128706D01*
X37791995Y-22106521D01*
X37782604Y-22083848D01*
X37774336Y-22060741D01*
X37767212Y-22037256D01*
X37761249Y-22013451D01*
X37756461Y-21989381D01*
X37752860Y-21965105D01*
X37750455Y-21940682D01*
X37749251Y-21916171D01*
X37749251Y-21911262D01*
X37949190Y-21911262D01*
X37949913Y-21925969D01*
X37951356Y-21940623D01*
X37953517Y-21955189D01*
X37956389Y-21969630D01*
X37959967Y-21983914D01*
X37964242Y-21998005D01*
X37969202Y-22011869D01*
X37974837Y-22025472D01*
X37981133Y-22038783D01*
X37988074Y-22051769D01*
X37995644Y-22064399D01*
X38003825Y-22076642D01*
X38012596Y-22088469D01*
X38021937Y-22099852D01*
X38031826Y-22110762D01*
X38042238Y-22121174D01*
X38053148Y-22131063D01*
X38064531Y-22140404D01*
X38076358Y-22149175D01*
X38088601Y-22157356D01*
X38101231Y-22164926D01*
X38114217Y-22171867D01*
X38127528Y-22178163D01*
X38141131Y-22183798D01*
X38154995Y-22188758D01*
X38169086Y-22193033D01*
X38183370Y-22196611D01*
X38197811Y-22199483D01*
X38212377Y-22201644D01*
X38227031Y-22203087D01*
X38241738Y-22203810D01*
X38256462Y-22203810D01*
X38271169Y-22203087D01*
X38285823Y-22201644D01*
X38300389Y-22199483D01*
X38314830Y-22196611D01*
X38329114Y-22193033D01*
X38343205Y-22188758D01*
X38357069Y-22183798D01*
X38370672Y-22178163D01*
X38383983Y-22171867D01*
X38396969Y-22164926D01*
X38409599Y-22157356D01*
X38421842Y-22149175D01*
X38433669Y-22140404D01*
X38445052Y-22131063D01*
X38455962Y-22121174D01*
X38466374Y-22110762D01*
X38476263Y-22099852D01*
X38485604Y-22088469D01*
X38494375Y-22076642D01*
X38502556Y-22064399D01*
X38510126Y-22051769D01*
X38517067Y-22038783D01*
X38523363Y-22025472D01*
X38528998Y-22011869D01*
X38533958Y-21998005D01*
X38538233Y-21983914D01*
X38541811Y-21969630D01*
X38544683Y-21955189D01*
X38546844Y-21940623D01*
X38548287Y-21925969D01*
X38549010Y-21911262D01*
X38549010Y-21096538D01*
X38548287Y-21081831D01*
X38546844Y-21067177D01*
X38544683Y-21052611D01*
X38541811Y-21038170D01*
X38538233Y-21023886D01*
X38533958Y-21009795D01*
X38528998Y-20995931D01*
X38523363Y-20982328D01*
X38517067Y-20969017D01*
X38510126Y-20956031D01*
X38502556Y-20943401D01*
X38494375Y-20931158D01*
X38485604Y-20919331D01*
X38476263Y-20907948D01*
X38466374Y-20897038D01*
X38455962Y-20886626D01*
X38445052Y-20876737D01*
X38433669Y-20867396D01*
X38421842Y-20858625D01*
X38409599Y-20850444D01*
X38396969Y-20842874D01*
X38383983Y-20835933D01*
X38370672Y-20829637D01*
X38357069Y-20824002D01*
X38343205Y-20819042D01*
X38329114Y-20814767D01*
X38314830Y-20811189D01*
X38300389Y-20808317D01*
X38285823Y-20806156D01*
X38271169Y-20804713D01*
X38256462Y-20803990D01*
X38241738Y-20803990D01*
X38227031Y-20804713D01*
X38212377Y-20806156D01*
X38197811Y-20808317D01*
X38183370Y-20811189D01*
X38169086Y-20814767D01*
X38154995Y-20819042D01*
X38141131Y-20824002D01*
X38127528Y-20829637D01*
X38114217Y-20835933D01*
X38101231Y-20842874D01*
X38088601Y-20850444D01*
X38076358Y-20858625D01*
X38064531Y-20867396D01*
X38053148Y-20876737D01*
X38042238Y-20886626D01*
X38031826Y-20897038D01*
X38021937Y-20907948D01*
X38012596Y-20919331D01*
X38003825Y-20931158D01*
X37995644Y-20943401D01*
X37988074Y-20956031D01*
X37981133Y-20969017D01*
X37974837Y-20982328D01*
X37969202Y-20995931D01*
X37964242Y-21009795D01*
X37959967Y-21023886D01*
X37956389Y-21038170D01*
X37953517Y-21052611D01*
X37951356Y-21067177D01*
X37949913Y-21081831D01*
X37949190Y-21096538D01*
X37949190Y-21896538D01*
X37949190Y-21911262D01*
X37749251Y-21911262D01*
X37749251Y-21891629D01*
X37749251Y-21091629D01*
X37750455Y-21067118D01*
X37752860Y-21042695D01*
X37756461Y-21018419D01*
X37761249Y-20994349D01*
X37767212Y-20970544D01*
X37774336Y-20947059D01*
X37782604Y-20923952D01*
X37791995Y-20901279D01*
X37802488Y-20879094D01*
X37814057Y-20857451D01*
X37826673Y-20836401D01*
X37840308Y-20815996D01*
X37854927Y-20796284D01*
X37870496Y-20777314D01*
X37886976Y-20759130D01*
X37904330Y-20741776D01*
X37922514Y-20725296D01*
X37941484Y-20709727D01*
X37961196Y-20695108D01*
X37981601Y-20681473D01*
X38002651Y-20668857D01*
X38024294Y-20657288D01*
X38046479Y-20646795D01*
X38069152Y-20637404D01*
X38092259Y-20629136D01*
X38115744Y-20622012D01*
X38139549Y-20616049D01*
X38163619Y-20611261D01*
X38187895Y-20607660D01*
X38212318Y-20605255D01*
X38236829Y-20604051D01*
X38261371Y-20604051D01*
X38285882Y-20605255D01*
G37*
G36*
X38285882Y-24785255D02*
G01*
X38310305Y-24787660D01*
X38334581Y-24791261D01*
X38358651Y-24796049D01*
X38382456Y-24802012D01*
X38405941Y-24809136D01*
X38429048Y-24817404D01*
X38451721Y-24826795D01*
X38473906Y-24837288D01*
X38495549Y-24848857D01*
X38516599Y-24861473D01*
X38537004Y-24875108D01*
X38556716Y-24889727D01*
X38575686Y-24905296D01*
X38593870Y-24921776D01*
X38611224Y-24939130D01*
X38627704Y-24957314D01*
X38643273Y-24976284D01*
X38657892Y-24995996D01*
X38671527Y-25016401D01*
X38684143Y-25037451D01*
X38695712Y-25059094D01*
X38706205Y-25081279D01*
X38715596Y-25103952D01*
X38723864Y-25127059D01*
X38730988Y-25150544D01*
X38736951Y-25174349D01*
X38741739Y-25198419D01*
X38745340Y-25222695D01*
X38747745Y-25247118D01*
X38748949Y-25271629D01*
X38748949Y-26096171D01*
X38747745Y-26120682D01*
X38745340Y-26145105D01*
X38741739Y-26169381D01*
X38736951Y-26193451D01*
X38730988Y-26217256D01*
X38723864Y-26240741D01*
X38715596Y-26263848D01*
X38706205Y-26286521D01*
X38695712Y-26308706D01*
X38684143Y-26330349D01*
X38671527Y-26351399D01*
X38657892Y-26371804D01*
X38643273Y-26391516D01*
X38627704Y-26410486D01*
X38611224Y-26428670D01*
X38593870Y-26446024D01*
X38575686Y-26462504D01*
X38556716Y-26478073D01*
X38537004Y-26492692D01*
X38516599Y-26506327D01*
X38495549Y-26518943D01*
X38473906Y-26530512D01*
X38451721Y-26541005D01*
X38429048Y-26550396D01*
X38405941Y-26558664D01*
X38382456Y-26565788D01*
X38358651Y-26571751D01*
X38334581Y-26576539D01*
X38310305Y-26580140D01*
X38285882Y-26582545D01*
X38261371Y-26583749D01*
X38236829Y-26583749D01*
X38212318Y-26582545D01*
X38187895Y-26580140D01*
X38163619Y-26576539D01*
X38139549Y-26571751D01*
X38115744Y-26565788D01*
X38092259Y-26558664D01*
X38069152Y-26550396D01*
X38046479Y-26541005D01*
X38024294Y-26530512D01*
X38002651Y-26518943D01*
X37981601Y-26506327D01*
X37961196Y-26492692D01*
X37941484Y-26478073D01*
X37922514Y-26462504D01*
X37904330Y-26446024D01*
X37886976Y-26428670D01*
X37870496Y-26410486D01*
X37854927Y-26391516D01*
X37840308Y-26371804D01*
X37826673Y-26351399D01*
X37814057Y-26330349D01*
X37802488Y-26308706D01*
X37791995Y-26286521D01*
X37782604Y-26263848D01*
X37774336Y-26240741D01*
X37767212Y-26217256D01*
X37761249Y-26193451D01*
X37756461Y-26169381D01*
X37752860Y-26145105D01*
X37750455Y-26120682D01*
X37749251Y-26096171D01*
X37749251Y-26091262D01*
X37949190Y-26091262D01*
X37949913Y-26105969D01*
X37951356Y-26120623D01*
X37953517Y-26135189D01*
X37956389Y-26149630D01*
X37959967Y-26163914D01*
X37964242Y-26178005D01*
X37969202Y-26191869D01*
X37974837Y-26205472D01*
X37981133Y-26218783D01*
X37988074Y-26231769D01*
X37995644Y-26244399D01*
X38003825Y-26256642D01*
X38012596Y-26268469D01*
X38021937Y-26279852D01*
X38031826Y-26290762D01*
X38042238Y-26301174D01*
X38053148Y-26311063D01*
X38064531Y-26320404D01*
X38076358Y-26329175D01*
X38088601Y-26337356D01*
X38101231Y-26344926D01*
X38114217Y-26351867D01*
X38127528Y-26358163D01*
X38141131Y-26363798D01*
X38154995Y-26368758D01*
X38169086Y-26373033D01*
X38183370Y-26376611D01*
X38197811Y-26379483D01*
X38212377Y-26381644D01*
X38227031Y-26383087D01*
X38241738Y-26383810D01*
X38256462Y-26383810D01*
X38271169Y-26383087D01*
X38285823Y-26381644D01*
X38300389Y-26379483D01*
X38314830Y-26376611D01*
X38329114Y-26373033D01*
X38343205Y-26368758D01*
X38357069Y-26363798D01*
X38370672Y-26358163D01*
X38383983Y-26351867D01*
X38396969Y-26344926D01*
X38409599Y-26337356D01*
X38421842Y-26329175D01*
X38433669Y-26320404D01*
X38445052Y-26311063D01*
X38455962Y-26301174D01*
X38466374Y-26290762D01*
X38476263Y-26279852D01*
X38485604Y-26268469D01*
X38494375Y-26256642D01*
X38502556Y-26244399D01*
X38510126Y-26231769D01*
X38517067Y-26218783D01*
X38523363Y-26205472D01*
X38528998Y-26191869D01*
X38533958Y-26178005D01*
X38538233Y-26163914D01*
X38541811Y-26149630D01*
X38544683Y-26135189D01*
X38546844Y-26120623D01*
X38548287Y-26105969D01*
X38549010Y-26091262D01*
X38549010Y-25276538D01*
X38548287Y-25261831D01*
X38546844Y-25247177D01*
X38544683Y-25232611D01*
X38541811Y-25218170D01*
X38538233Y-25203886D01*
X38533958Y-25189795D01*
X38528998Y-25175931D01*
X38523363Y-25162328D01*
X38517067Y-25149017D01*
X38510126Y-25136031D01*
X38502556Y-25123401D01*
X38494375Y-25111158D01*
X38485604Y-25099331D01*
X38476263Y-25087948D01*
X38466374Y-25077038D01*
X38455962Y-25066626D01*
X38445052Y-25056737D01*
X38433669Y-25047396D01*
X38421842Y-25038625D01*
X38409599Y-25030444D01*
X38396969Y-25022874D01*
X38383983Y-25015933D01*
X38370672Y-25009637D01*
X38357069Y-25004002D01*
X38343205Y-24999042D01*
X38329114Y-24994767D01*
X38314830Y-24991189D01*
X38300389Y-24988317D01*
X38285823Y-24986156D01*
X38271169Y-24984713D01*
X38256462Y-24983990D01*
X38241738Y-24983990D01*
X38227031Y-24984713D01*
X38212377Y-24986156D01*
X38197811Y-24988317D01*
X38183370Y-24991189D01*
X38169086Y-24994767D01*
X38154995Y-24999042D01*
X38141131Y-25004002D01*
X38127528Y-25009637D01*
X38114217Y-25015933D01*
X38101231Y-25022874D01*
X38088601Y-25030444D01*
X38076358Y-25038625D01*
X38064531Y-25047396D01*
X38053148Y-25056737D01*
X38042238Y-25066626D01*
X38031826Y-25077038D01*
X38021937Y-25087948D01*
X38012596Y-25099331D01*
X38003825Y-25111158D01*
X37995644Y-25123401D01*
X37988074Y-25136031D01*
X37981133Y-25149017D01*
X37974837Y-25162328D01*
X37969202Y-25175931D01*
X37964242Y-25189795D01*
X37959967Y-25203886D01*
X37956389Y-25218170D01*
X37953517Y-25232611D01*
X37951356Y-25247177D01*
X37949913Y-25261831D01*
X37949190Y-25276538D01*
X37949190Y-26076538D01*
X37949190Y-26091262D01*
X37749251Y-26091262D01*
X37749251Y-26071629D01*
X37749251Y-25271629D01*
X37750455Y-25247118D01*
X37752860Y-25222695D01*
X37756461Y-25198419D01*
X37761249Y-25174349D01*
X37767212Y-25150544D01*
X37774336Y-25127059D01*
X37782604Y-25103952D01*
X37791995Y-25081279D01*
X37802488Y-25059094D01*
X37814057Y-25037451D01*
X37826673Y-25016401D01*
X37840308Y-24995996D01*
X37854927Y-24976284D01*
X37870496Y-24957314D01*
X37886976Y-24939130D01*
X37904330Y-24921776D01*
X37922514Y-24905296D01*
X37941484Y-24889727D01*
X37961196Y-24875108D01*
X37981601Y-24861473D01*
X38002651Y-24848857D01*
X38024294Y-24837288D01*
X38046479Y-24826795D01*
X38069152Y-24817404D01*
X38092259Y-24809136D01*
X38115744Y-24802012D01*
X38139549Y-24796049D01*
X38163619Y-24791261D01*
X38187895Y-24787660D01*
X38212318Y-24785255D01*
X38236829Y-24784051D01*
X38261371Y-24784051D01*
X38285882Y-24785255D01*
G37*
G36*
X29645882Y-20605255D02*
G01*
X29670305Y-20607660D01*
X29694581Y-20611261D01*
X29718651Y-20616049D01*
X29742456Y-20622012D01*
X29765941Y-20629136D01*
X29789048Y-20637404D01*
X29811721Y-20646795D01*
X29833906Y-20657288D01*
X29855549Y-20668857D01*
X29876599Y-20681473D01*
X29897004Y-20695108D01*
X29916716Y-20709727D01*
X29935686Y-20725296D01*
X29953870Y-20741776D01*
X29971224Y-20759130D01*
X29987704Y-20777314D01*
X30003273Y-20796284D01*
X30017892Y-20815996D01*
X30031527Y-20836401D01*
X30044143Y-20857451D01*
X30055712Y-20879094D01*
X30066205Y-20901279D01*
X30075596Y-20923952D01*
X30083864Y-20947059D01*
X30090988Y-20970544D01*
X30096951Y-20994349D01*
X30101739Y-21018419D01*
X30105340Y-21042695D01*
X30107745Y-21067118D01*
X30108949Y-21091629D01*
X30108949Y-21916171D01*
X30107745Y-21940682D01*
X30105340Y-21965105D01*
X30101739Y-21989381D01*
X30096951Y-22013451D01*
X30090988Y-22037256D01*
X30083864Y-22060741D01*
X30075596Y-22083848D01*
X30066205Y-22106521D01*
X30055712Y-22128706D01*
X30044143Y-22150349D01*
X30031527Y-22171399D01*
X30017892Y-22191804D01*
X30003273Y-22211516D01*
X29987704Y-22230486D01*
X29971224Y-22248670D01*
X29953870Y-22266024D01*
X29935686Y-22282504D01*
X29916716Y-22298073D01*
X29897004Y-22312692D01*
X29876599Y-22326327D01*
X29855549Y-22338943D01*
X29833906Y-22350512D01*
X29811721Y-22361005D01*
X29789048Y-22370396D01*
X29765941Y-22378664D01*
X29742456Y-22385788D01*
X29718651Y-22391751D01*
X29694581Y-22396539D01*
X29670305Y-22400140D01*
X29645882Y-22402545D01*
X29621371Y-22403749D01*
X29596829Y-22403749D01*
X29572318Y-22402545D01*
X29547895Y-22400140D01*
X29523619Y-22396539D01*
X29499549Y-22391751D01*
X29475744Y-22385788D01*
X29452259Y-22378664D01*
X29429152Y-22370396D01*
X29406479Y-22361005D01*
X29384294Y-22350512D01*
X29362651Y-22338943D01*
X29341601Y-22326327D01*
X29321196Y-22312692D01*
X29301484Y-22298073D01*
X29282514Y-22282504D01*
X29264330Y-22266024D01*
X29246976Y-22248670D01*
X29230496Y-22230486D01*
X29214927Y-22211516D01*
X29200308Y-22191804D01*
X29186673Y-22171399D01*
X29174057Y-22150349D01*
X29162488Y-22128706D01*
X29151995Y-22106521D01*
X29142604Y-22083848D01*
X29134336Y-22060741D01*
X29127212Y-22037256D01*
X29121249Y-22013451D01*
X29116461Y-21989381D01*
X29112860Y-21965105D01*
X29110455Y-21940682D01*
X29109251Y-21916171D01*
X29109251Y-21911262D01*
X29309190Y-21911262D01*
X29309913Y-21925969D01*
X29311356Y-21940623D01*
X29313517Y-21955189D01*
X29316389Y-21969630D01*
X29319967Y-21983914D01*
X29324242Y-21998005D01*
X29329202Y-22011869D01*
X29334837Y-22025472D01*
X29341133Y-22038783D01*
X29348074Y-22051769D01*
X29355644Y-22064399D01*
X29363825Y-22076642D01*
X29372596Y-22088469D01*
X29381937Y-22099852D01*
X29391826Y-22110762D01*
X29402238Y-22121174D01*
X29413148Y-22131063D01*
X29424531Y-22140404D01*
X29436358Y-22149175D01*
X29448601Y-22157356D01*
X29461231Y-22164926D01*
X29474217Y-22171867D01*
X29487528Y-22178163D01*
X29501131Y-22183798D01*
X29514995Y-22188758D01*
X29529086Y-22193033D01*
X29543370Y-22196611D01*
X29557811Y-22199483D01*
X29572377Y-22201644D01*
X29587031Y-22203087D01*
X29601738Y-22203810D01*
X29616462Y-22203810D01*
X29631169Y-22203087D01*
X29645823Y-22201644D01*
X29660389Y-22199483D01*
X29674830Y-22196611D01*
X29689114Y-22193033D01*
X29703205Y-22188758D01*
X29717069Y-22183798D01*
X29730672Y-22178163D01*
X29743983Y-22171867D01*
X29756969Y-22164926D01*
X29769599Y-22157356D01*
X29781842Y-22149175D01*
X29793669Y-22140404D01*
X29805052Y-22131063D01*
X29815962Y-22121174D01*
X29826374Y-22110762D01*
X29836263Y-22099852D01*
X29845604Y-22088469D01*
X29854375Y-22076642D01*
X29862556Y-22064399D01*
X29870126Y-22051769D01*
X29877067Y-22038783D01*
X29883363Y-22025472D01*
X29888998Y-22011869D01*
X29893958Y-21998005D01*
X29898233Y-21983914D01*
X29901811Y-21969630D01*
X29904683Y-21955189D01*
X29906844Y-21940623D01*
X29908287Y-21925969D01*
X29909010Y-21911262D01*
X29909010Y-21096538D01*
X29908287Y-21081831D01*
X29906844Y-21067177D01*
X29904683Y-21052611D01*
X29901811Y-21038170D01*
X29898233Y-21023886D01*
X29893958Y-21009795D01*
X29888998Y-20995931D01*
X29883363Y-20982328D01*
X29877067Y-20969017D01*
X29870126Y-20956031D01*
X29862556Y-20943401D01*
X29854375Y-20931158D01*
X29845604Y-20919331D01*
X29836263Y-20907948D01*
X29826374Y-20897038D01*
X29815962Y-20886626D01*
X29805052Y-20876737D01*
X29793669Y-20867396D01*
X29781842Y-20858625D01*
X29769599Y-20850444D01*
X29756969Y-20842874D01*
X29743983Y-20835933D01*
X29730672Y-20829637D01*
X29717069Y-20824002D01*
X29703205Y-20819042D01*
X29689114Y-20814767D01*
X29674830Y-20811189D01*
X29660389Y-20808317D01*
X29645823Y-20806156D01*
X29631169Y-20804713D01*
X29616462Y-20803990D01*
X29601738Y-20803990D01*
X29587031Y-20804713D01*
X29572377Y-20806156D01*
X29557811Y-20808317D01*
X29543370Y-20811189D01*
X29529086Y-20814767D01*
X29514995Y-20819042D01*
X29501131Y-20824002D01*
X29487528Y-20829637D01*
X29474217Y-20835933D01*
X29461231Y-20842874D01*
X29448601Y-20850444D01*
X29436358Y-20858625D01*
X29424531Y-20867396D01*
X29413148Y-20876737D01*
X29402238Y-20886626D01*
X29391826Y-20897038D01*
X29381937Y-20907948D01*
X29372596Y-20919331D01*
X29363825Y-20931158D01*
X29355644Y-20943401D01*
X29348074Y-20956031D01*
X29341133Y-20969017D01*
X29334837Y-20982328D01*
X29329202Y-20995931D01*
X29324242Y-21009795D01*
X29319967Y-21023886D01*
X29316389Y-21038170D01*
X29313517Y-21052611D01*
X29311356Y-21067177D01*
X29309913Y-21081831D01*
X29309190Y-21096538D01*
X29309190Y-21896538D01*
X29309190Y-21911262D01*
X29109251Y-21911262D01*
X29109251Y-21891629D01*
X29109251Y-21091629D01*
X29110455Y-21067118D01*
X29112860Y-21042695D01*
X29116461Y-21018419D01*
X29121249Y-20994349D01*
X29127212Y-20970544D01*
X29134336Y-20947059D01*
X29142604Y-20923952D01*
X29151995Y-20901279D01*
X29162488Y-20879094D01*
X29174057Y-20857451D01*
X29186673Y-20836401D01*
X29200308Y-20815996D01*
X29214927Y-20796284D01*
X29230496Y-20777314D01*
X29246976Y-20759130D01*
X29264330Y-20741776D01*
X29282514Y-20725296D01*
X29301484Y-20709727D01*
X29321196Y-20695108D01*
X29341601Y-20681473D01*
X29362651Y-20668857D01*
X29384294Y-20657288D01*
X29406479Y-20646795D01*
X29429152Y-20637404D01*
X29452259Y-20629136D01*
X29475744Y-20622012D01*
X29499549Y-20616049D01*
X29523619Y-20611261D01*
X29547895Y-20607660D01*
X29572318Y-20605255D01*
X29596829Y-20604051D01*
X29621371Y-20604051D01*
X29645882Y-20605255D01*
G37*
G36*
X29645882Y-24785255D02*
G01*
X29670305Y-24787660D01*
X29694581Y-24791261D01*
X29718651Y-24796049D01*
X29742456Y-24802012D01*
X29765941Y-24809136D01*
X29789048Y-24817404D01*
X29811721Y-24826795D01*
X29833906Y-24837288D01*
X29855549Y-24848857D01*
X29876599Y-24861473D01*
X29897004Y-24875108D01*
X29916716Y-24889727D01*
X29935686Y-24905296D01*
X29953870Y-24921776D01*
X29971224Y-24939130D01*
X29987704Y-24957314D01*
X30003273Y-24976284D01*
X30017892Y-24995996D01*
X30031527Y-25016401D01*
X30044143Y-25037451D01*
X30055712Y-25059094D01*
X30066205Y-25081279D01*
X30075596Y-25103952D01*
X30083864Y-25127059D01*
X30090988Y-25150544D01*
X30096951Y-25174349D01*
X30101739Y-25198419D01*
X30105340Y-25222695D01*
X30107745Y-25247118D01*
X30108949Y-25271629D01*
X30108949Y-26096171D01*
X30107745Y-26120682D01*
X30105340Y-26145105D01*
X30101739Y-26169381D01*
X30096951Y-26193451D01*
X30090988Y-26217256D01*
X30083864Y-26240741D01*
X30075596Y-26263848D01*
X30066205Y-26286521D01*
X30055712Y-26308706D01*
X30044143Y-26330349D01*
X30031527Y-26351399D01*
X30017892Y-26371804D01*
X30003273Y-26391516D01*
X29987704Y-26410486D01*
X29971224Y-26428670D01*
X29953870Y-26446024D01*
X29935686Y-26462504D01*
X29916716Y-26478073D01*
X29897004Y-26492692D01*
X29876599Y-26506327D01*
X29855549Y-26518943D01*
X29833906Y-26530512D01*
X29811721Y-26541005D01*
X29789048Y-26550396D01*
X29765941Y-26558664D01*
X29742456Y-26565788D01*
X29718651Y-26571751D01*
X29694581Y-26576539D01*
X29670305Y-26580140D01*
X29645882Y-26582545D01*
X29621371Y-26583749D01*
X29596829Y-26583749D01*
X29572318Y-26582545D01*
X29547895Y-26580140D01*
X29523619Y-26576539D01*
X29499549Y-26571751D01*
X29475744Y-26565788D01*
X29452259Y-26558664D01*
X29429152Y-26550396D01*
X29406479Y-26541005D01*
X29384294Y-26530512D01*
X29362651Y-26518943D01*
X29341601Y-26506327D01*
X29321196Y-26492692D01*
X29301484Y-26478073D01*
X29282514Y-26462504D01*
X29264330Y-26446024D01*
X29246976Y-26428670D01*
X29230496Y-26410486D01*
X29214927Y-26391516D01*
X29200308Y-26371804D01*
X29186673Y-26351399D01*
X29174057Y-26330349D01*
X29162488Y-26308706D01*
X29151995Y-26286521D01*
X29142604Y-26263848D01*
X29134336Y-26240741D01*
X29127212Y-26217256D01*
X29121249Y-26193451D01*
X29116461Y-26169381D01*
X29112860Y-26145105D01*
X29110455Y-26120682D01*
X29109251Y-26096171D01*
X29109251Y-26091262D01*
X29309190Y-26091262D01*
X29309913Y-26105969D01*
X29311356Y-26120623D01*
X29313517Y-26135189D01*
X29316389Y-26149630D01*
X29319967Y-26163914D01*
X29324242Y-26178005D01*
X29329202Y-26191869D01*
X29334837Y-26205472D01*
X29341133Y-26218783D01*
X29348074Y-26231769D01*
X29355644Y-26244399D01*
X29363825Y-26256642D01*
X29372596Y-26268469D01*
X29381937Y-26279852D01*
X29391826Y-26290762D01*
X29402238Y-26301174D01*
X29413148Y-26311063D01*
X29424531Y-26320404D01*
X29436358Y-26329175D01*
X29448601Y-26337356D01*
X29461231Y-26344926D01*
X29474217Y-26351867D01*
X29487528Y-26358163D01*
X29501131Y-26363798D01*
X29514995Y-26368758D01*
X29529086Y-26373033D01*
X29543370Y-26376611D01*
X29557811Y-26379483D01*
X29572377Y-26381644D01*
X29587031Y-26383087D01*
X29601738Y-26383810D01*
X29616462Y-26383810D01*
X29631169Y-26383087D01*
X29645823Y-26381644D01*
X29660389Y-26379483D01*
X29674830Y-26376611D01*
X29689114Y-26373033D01*
X29703205Y-26368758D01*
X29717069Y-26363798D01*
X29730672Y-26358163D01*
X29743983Y-26351867D01*
X29756969Y-26344926D01*
X29769599Y-26337356D01*
X29781842Y-26329175D01*
X29793669Y-26320404D01*
X29805052Y-26311063D01*
X29815962Y-26301174D01*
X29826374Y-26290762D01*
X29836263Y-26279852D01*
X29845604Y-26268469D01*
X29854375Y-26256642D01*
X29862556Y-26244399D01*
X29870126Y-26231769D01*
X29877067Y-26218783D01*
X29883363Y-26205472D01*
X29888998Y-26191869D01*
X29893958Y-26178005D01*
X29898233Y-26163914D01*
X29901811Y-26149630D01*
X29904683Y-26135189D01*
X29906844Y-26120623D01*
X29908287Y-26105969D01*
X29909010Y-26091262D01*
X29909010Y-25276538D01*
X29908287Y-25261831D01*
X29906844Y-25247177D01*
X29904683Y-25232611D01*
X29901811Y-25218170D01*
X29898233Y-25203886D01*
X29893958Y-25189795D01*
X29888998Y-25175931D01*
X29883363Y-25162328D01*
X29877067Y-25149017D01*
X29870126Y-25136031D01*
X29862556Y-25123401D01*
X29854375Y-25111158D01*
X29845604Y-25099331D01*
X29836263Y-25087948D01*
X29826374Y-25077038D01*
X29815962Y-25066626D01*
X29805052Y-25056737D01*
X29793669Y-25047396D01*
X29781842Y-25038625D01*
X29769599Y-25030444D01*
X29756969Y-25022874D01*
X29743983Y-25015933D01*
X29730672Y-25009637D01*
X29717069Y-25004002D01*
X29703205Y-24999042D01*
X29689114Y-24994767D01*
X29674830Y-24991189D01*
X29660389Y-24988317D01*
X29645823Y-24986156D01*
X29631169Y-24984713D01*
X29616462Y-24983990D01*
X29601738Y-24983990D01*
X29587031Y-24984713D01*
X29572377Y-24986156D01*
X29557811Y-24988317D01*
X29543370Y-24991189D01*
X29529086Y-24994767D01*
X29514995Y-24999042D01*
X29501131Y-25004002D01*
X29487528Y-25009637D01*
X29474217Y-25015933D01*
X29461231Y-25022874D01*
X29448601Y-25030444D01*
X29436358Y-25038625D01*
X29424531Y-25047396D01*
X29413148Y-25056737D01*
X29402238Y-25066626D01*
X29391826Y-25077038D01*
X29381937Y-25087948D01*
X29372596Y-25099331D01*
X29363825Y-25111158D01*
X29355644Y-25123401D01*
X29348074Y-25136031D01*
X29341133Y-25149017D01*
X29334837Y-25162328D01*
X29329202Y-25175931D01*
X29324242Y-25189795D01*
X29319967Y-25203886D01*
X29316389Y-25218170D01*
X29313517Y-25232611D01*
X29311356Y-25247177D01*
X29309913Y-25261831D01*
X29309190Y-25276538D01*
X29309190Y-26076538D01*
X29309190Y-26091262D01*
X29109251Y-26091262D01*
X29109251Y-26071629D01*
X29109251Y-25271629D01*
X29110455Y-25247118D01*
X29112860Y-25222695D01*
X29116461Y-25198419D01*
X29121249Y-25174349D01*
X29127212Y-25150544D01*
X29134336Y-25127059D01*
X29142604Y-25103952D01*
X29151995Y-25081279D01*
X29162488Y-25059094D01*
X29174057Y-25037451D01*
X29186673Y-25016401D01*
X29200308Y-24995996D01*
X29214927Y-24976284D01*
X29230496Y-24957314D01*
X29246976Y-24939130D01*
X29264330Y-24921776D01*
X29282514Y-24905296D01*
X29301484Y-24889727D01*
X29321196Y-24875108D01*
X29341601Y-24861473D01*
X29362651Y-24848857D01*
X29384294Y-24837288D01*
X29406479Y-24826795D01*
X29429152Y-24817404D01*
X29452259Y-24809136D01*
X29475744Y-24802012D01*
X29499549Y-24796049D01*
X29523619Y-24791261D01*
X29547895Y-24787660D01*
X29572318Y-24785255D01*
X29596829Y-24784051D01*
X29621371Y-24784051D01*
X29645882Y-24785255D01*
G37*
G36*
X41933352Y-18990768D02*
G01*
X41972429Y-18994616D01*
X42011270Y-19000378D01*
X42049781Y-19008038D01*
X42087870Y-19017579D01*
X42125445Y-19028977D01*
X42162416Y-19042206D01*
X42198693Y-19057232D01*
X42234189Y-19074021D01*
X42268819Y-19092530D01*
X42302498Y-19112717D01*
X42335147Y-19134532D01*
X42366685Y-19157923D01*
X42397038Y-19182833D01*
X42426132Y-19209202D01*
X42453898Y-19236968D01*
X42480267Y-19266062D01*
X42505177Y-19296415D01*
X42528568Y-19327953D01*
X42550383Y-19360602D01*
X42570570Y-19394281D01*
X42589079Y-19428911D01*
X42605868Y-19464407D01*
X42620894Y-19500684D01*
X42634123Y-19537655D01*
X42645521Y-19575230D01*
X42655062Y-19613319D01*
X42662722Y-19651830D01*
X42668484Y-19690671D01*
X42672332Y-19729748D01*
X42674259Y-19768967D01*
X42674259Y-19808233D01*
X42672332Y-19847452D01*
X42668484Y-19886529D01*
X42662722Y-19925370D01*
X42655062Y-19963881D01*
X42645521Y-20001970D01*
X42634123Y-20039545D01*
X42620894Y-20076516D01*
X42605868Y-20112793D01*
X42589079Y-20148289D01*
X42570570Y-20182919D01*
X42550383Y-20216598D01*
X42528568Y-20249247D01*
X42505177Y-20280785D01*
X42480267Y-20311138D01*
X42453898Y-20340232D01*
X42426132Y-20367998D01*
X42397038Y-20394367D01*
X42366685Y-20419277D01*
X42335147Y-20442668D01*
X42302498Y-20464483D01*
X42268819Y-20484670D01*
X42234189Y-20503179D01*
X42198693Y-20519968D01*
X42162416Y-20534994D01*
X42125445Y-20548223D01*
X42087870Y-20559621D01*
X42049781Y-20569162D01*
X42011270Y-20576822D01*
X41972429Y-20582584D01*
X41933352Y-20586432D01*
X41894133Y-20588359D01*
X41854867Y-20588359D01*
X41815648Y-20586432D01*
X41776571Y-20582584D01*
X41737730Y-20576822D01*
X41699219Y-20569162D01*
X41661130Y-20559621D01*
X41623555Y-20548223D01*
X41586584Y-20534994D01*
X41550307Y-20519968D01*
X41514811Y-20503179D01*
X41480181Y-20484670D01*
X41446502Y-20464483D01*
X41413853Y-20442668D01*
X41382315Y-20419277D01*
X41351962Y-20394367D01*
X41322868Y-20367998D01*
X41295102Y-20340232D01*
X41268733Y-20311138D01*
X41243823Y-20280785D01*
X41220432Y-20249247D01*
X41198617Y-20216598D01*
X41178430Y-20182919D01*
X41159921Y-20148289D01*
X41143132Y-20112793D01*
X41128106Y-20076516D01*
X41114877Y-20039545D01*
X41103479Y-20001970D01*
X41093938Y-19963881D01*
X41086278Y-19925370D01*
X41080516Y-19886529D01*
X41076668Y-19847452D01*
X41074741Y-19808233D01*
X41074741Y-19798416D01*
X41474620Y-19798416D01*
X41475584Y-19818026D01*
X41477508Y-19837564D01*
X41480389Y-19856985D01*
X41484219Y-19876240D01*
X41488990Y-19895285D01*
X41494689Y-19914073D01*
X41501303Y-19932558D01*
X41508816Y-19950697D01*
X41517210Y-19968445D01*
X41526465Y-19985759D01*
X41536559Y-20002599D01*
X41547466Y-20018923D01*
X41559161Y-20034693D01*
X41571616Y-20049869D01*
X41584801Y-20064416D01*
X41598684Y-20078299D01*
X41613231Y-20091484D01*
X41628407Y-20103939D01*
X41644177Y-20115634D01*
X41660501Y-20126541D01*
X41677341Y-20136635D01*
X41694655Y-20145890D01*
X41712403Y-20154284D01*
X41730542Y-20161797D01*
X41749027Y-20168411D01*
X41767815Y-20174110D01*
X41786860Y-20178881D01*
X41806115Y-20182711D01*
X41825536Y-20185592D01*
X41845074Y-20187516D01*
X41864684Y-20188480D01*
X41884316Y-20188480D01*
X41903926Y-20187516D01*
X41923464Y-20185592D01*
X41942885Y-20182711D01*
X41962140Y-20178881D01*
X41981185Y-20174110D01*
X41999973Y-20168411D01*
X42018458Y-20161797D01*
X42036597Y-20154284D01*
X42054345Y-20145890D01*
X42071659Y-20136635D01*
X42088499Y-20126541D01*
X42104823Y-20115634D01*
X42120593Y-20103939D01*
X42135769Y-20091484D01*
X42150316Y-20078299D01*
X42164199Y-20064416D01*
X42177384Y-20049869D01*
X42189839Y-20034693D01*
X42201534Y-20018923D01*
X42212441Y-20002599D01*
X42222535Y-19985759D01*
X42231790Y-19968445D01*
X42240184Y-19950697D01*
X42247697Y-19932558D01*
X42254311Y-19914073D01*
X42260010Y-19895285D01*
X42264781Y-19876240D01*
X42268611Y-19856985D01*
X42271492Y-19837564D01*
X42273416Y-19818026D01*
X42274380Y-19798416D01*
X42274380Y-19778784D01*
X42273416Y-19759174D01*
X42271492Y-19739636D01*
X42268611Y-19720215D01*
X42264781Y-19700960D01*
X42260010Y-19681915D01*
X42254311Y-19663127D01*
X42247697Y-19644642D01*
X42240184Y-19626503D01*
X42231790Y-19608755D01*
X42222535Y-19591441D01*
X42212441Y-19574601D01*
X42201534Y-19558277D01*
X42189839Y-19542507D01*
X42177384Y-19527331D01*
X42164199Y-19512784D01*
X42150316Y-19498901D01*
X42135769Y-19485716D01*
X42120593Y-19473261D01*
X42104823Y-19461566D01*
X42088499Y-19450659D01*
X42071659Y-19440565D01*
X42054345Y-19431310D01*
X42036597Y-19422916D01*
X42018458Y-19415403D01*
X41999973Y-19408789D01*
X41981185Y-19403090D01*
X41962140Y-19398319D01*
X41942885Y-19394489D01*
X41923464Y-19391608D01*
X41903926Y-19389684D01*
X41884316Y-19388720D01*
X41864684Y-19388720D01*
X41845074Y-19389684D01*
X41825536Y-19391608D01*
X41806115Y-19394489D01*
X41786860Y-19398319D01*
X41767815Y-19403090D01*
X41749027Y-19408789D01*
X41730542Y-19415403D01*
X41712403Y-19422916D01*
X41694655Y-19431310D01*
X41677341Y-19440565D01*
X41660501Y-19450659D01*
X41644177Y-19461566D01*
X41628407Y-19473261D01*
X41613231Y-19485716D01*
X41598684Y-19498901D01*
X41584801Y-19512784D01*
X41571616Y-19527331D01*
X41559161Y-19542507D01*
X41547466Y-19558277D01*
X41536559Y-19574601D01*
X41526465Y-19591441D01*
X41517210Y-19608755D01*
X41508816Y-19626503D01*
X41501303Y-19644642D01*
X41494689Y-19663127D01*
X41488990Y-19681915D01*
X41484219Y-19700960D01*
X41480389Y-19720215D01*
X41477508Y-19739636D01*
X41475584Y-19759174D01*
X41474620Y-19778784D01*
X41474620Y-19798416D01*
X41074741Y-19798416D01*
X41074741Y-19768967D01*
X41076668Y-19729748D01*
X41080516Y-19690671D01*
X41086278Y-19651830D01*
X41093938Y-19613319D01*
X41103479Y-19575230D01*
X41114877Y-19537655D01*
X41128106Y-19500684D01*
X41143132Y-19464407D01*
X41159921Y-19428911D01*
X41178430Y-19394281D01*
X41198617Y-19360602D01*
X41220432Y-19327953D01*
X41243823Y-19296415D01*
X41268733Y-19266062D01*
X41295102Y-19236968D01*
X41322868Y-19209202D01*
X41351962Y-19182833D01*
X41382315Y-19157923D01*
X41413853Y-19134532D01*
X41446502Y-19112717D01*
X41480181Y-19092530D01*
X41514811Y-19074021D01*
X41550307Y-19057232D01*
X41586584Y-19042206D01*
X41623555Y-19028977D01*
X41661130Y-19017579D01*
X41699219Y-19008038D01*
X41737730Y-19000378D01*
X41776571Y-18994616D01*
X41815648Y-18990768D01*
X41854867Y-18988841D01*
X41894133Y-18988841D01*
X41933352Y-18990768D01*
G37*
G36*
X39433352Y-18990768D02*
G01*
X39472429Y-18994616D01*
X39511270Y-19000378D01*
X39549781Y-19008038D01*
X39587870Y-19017579D01*
X39625445Y-19028977D01*
X39662416Y-19042206D01*
X39698693Y-19057232D01*
X39734189Y-19074021D01*
X39768819Y-19092530D01*
X39802498Y-19112717D01*
X39835147Y-19134532D01*
X39866685Y-19157923D01*
X39897038Y-19182833D01*
X39926132Y-19209202D01*
X39953898Y-19236968D01*
X39980267Y-19266062D01*
X40005177Y-19296415D01*
X40028568Y-19327953D01*
X40050383Y-19360602D01*
X40070570Y-19394281D01*
X40089079Y-19428911D01*
X40105868Y-19464407D01*
X40120894Y-19500684D01*
X40134123Y-19537655D01*
X40145521Y-19575230D01*
X40155062Y-19613319D01*
X40162722Y-19651830D01*
X40168484Y-19690671D01*
X40172332Y-19729748D01*
X40174259Y-19768967D01*
X40174259Y-19808233D01*
X40172332Y-19847452D01*
X40168484Y-19886529D01*
X40162722Y-19925370D01*
X40155062Y-19963881D01*
X40145521Y-20001970D01*
X40134123Y-20039545D01*
X40120894Y-20076516D01*
X40105868Y-20112793D01*
X40089079Y-20148289D01*
X40070570Y-20182919D01*
X40050383Y-20216598D01*
X40028568Y-20249247D01*
X40005177Y-20280785D01*
X39980267Y-20311138D01*
X39953898Y-20340232D01*
X39926132Y-20367998D01*
X39897038Y-20394367D01*
X39866685Y-20419277D01*
X39835147Y-20442668D01*
X39802498Y-20464483D01*
X39768819Y-20484670D01*
X39734189Y-20503179D01*
X39698693Y-20519968D01*
X39662416Y-20534994D01*
X39625445Y-20548223D01*
X39587870Y-20559621D01*
X39549781Y-20569162D01*
X39511270Y-20576822D01*
X39472429Y-20582584D01*
X39433352Y-20586432D01*
X39394133Y-20588359D01*
X39354867Y-20588359D01*
X39315648Y-20586432D01*
X39276571Y-20582584D01*
X39237730Y-20576822D01*
X39199219Y-20569162D01*
X39161130Y-20559621D01*
X39123555Y-20548223D01*
X39086584Y-20534994D01*
X39050307Y-20519968D01*
X39014811Y-20503179D01*
X38980181Y-20484670D01*
X38946502Y-20464483D01*
X38913853Y-20442668D01*
X38882315Y-20419277D01*
X38851962Y-20394367D01*
X38822868Y-20367998D01*
X38795102Y-20340232D01*
X38768733Y-20311138D01*
X38743823Y-20280785D01*
X38720432Y-20249247D01*
X38698617Y-20216598D01*
X38678430Y-20182919D01*
X38659921Y-20148289D01*
X38643132Y-20112793D01*
X38628106Y-20076516D01*
X38614877Y-20039545D01*
X38603479Y-20001970D01*
X38593938Y-19963881D01*
X38586278Y-19925370D01*
X38580516Y-19886529D01*
X38576668Y-19847452D01*
X38574741Y-19808233D01*
X38574741Y-19798416D01*
X38974620Y-19798416D01*
X38975584Y-19818026D01*
X38977508Y-19837564D01*
X38980389Y-19856985D01*
X38984219Y-19876240D01*
X38988990Y-19895285D01*
X38994689Y-19914073D01*
X39001303Y-19932558D01*
X39008816Y-19950697D01*
X39017210Y-19968445D01*
X39026465Y-19985759D01*
X39036559Y-20002599D01*
X39047466Y-20018923D01*
X39059161Y-20034693D01*
X39071616Y-20049869D01*
X39084801Y-20064416D01*
X39098684Y-20078299D01*
X39113231Y-20091484D01*
X39128407Y-20103939D01*
X39144177Y-20115634D01*
X39160501Y-20126541D01*
X39177341Y-20136635D01*
X39194655Y-20145890D01*
X39212403Y-20154284D01*
X39230542Y-20161797D01*
X39249027Y-20168411D01*
X39267815Y-20174110D01*
X39286860Y-20178881D01*
X39306115Y-20182711D01*
X39325536Y-20185592D01*
X39345074Y-20187516D01*
X39364684Y-20188480D01*
X39384316Y-20188480D01*
X39403926Y-20187516D01*
X39423464Y-20185592D01*
X39442885Y-20182711D01*
X39462140Y-20178881D01*
X39481185Y-20174110D01*
X39499973Y-20168411D01*
X39518458Y-20161797D01*
X39536597Y-20154284D01*
X39554345Y-20145890D01*
X39571659Y-20136635D01*
X39588499Y-20126541D01*
X39604823Y-20115634D01*
X39620593Y-20103939D01*
X39635769Y-20091484D01*
X39650316Y-20078299D01*
X39664199Y-20064416D01*
X39677384Y-20049869D01*
X39689839Y-20034693D01*
X39701534Y-20018923D01*
X39712441Y-20002599D01*
X39722535Y-19985759D01*
X39731790Y-19968445D01*
X39740184Y-19950697D01*
X39747697Y-19932558D01*
X39754311Y-19914073D01*
X39760010Y-19895285D01*
X39764781Y-19876240D01*
X39768611Y-19856985D01*
X39771492Y-19837564D01*
X39773416Y-19818026D01*
X39774380Y-19798416D01*
X39774380Y-19778784D01*
X39773416Y-19759174D01*
X39771492Y-19739636D01*
X39768611Y-19720215D01*
X39764781Y-19700960D01*
X39760010Y-19681915D01*
X39754311Y-19663127D01*
X39747697Y-19644642D01*
X39740184Y-19626503D01*
X39731790Y-19608755D01*
X39722535Y-19591441D01*
X39712441Y-19574601D01*
X39701534Y-19558277D01*
X39689839Y-19542507D01*
X39677384Y-19527331D01*
X39664199Y-19512784D01*
X39650316Y-19498901D01*
X39635769Y-19485716D01*
X39620593Y-19473261D01*
X39604823Y-19461566D01*
X39588499Y-19450659D01*
X39571659Y-19440565D01*
X39554345Y-19431310D01*
X39536597Y-19422916D01*
X39518458Y-19415403D01*
X39499973Y-19408789D01*
X39481185Y-19403090D01*
X39462140Y-19398319D01*
X39442885Y-19394489D01*
X39423464Y-19391608D01*
X39403926Y-19389684D01*
X39384316Y-19388720D01*
X39364684Y-19388720D01*
X39345074Y-19389684D01*
X39325536Y-19391608D01*
X39306115Y-19394489D01*
X39286860Y-19398319D01*
X39267815Y-19403090D01*
X39249027Y-19408789D01*
X39230542Y-19415403D01*
X39212403Y-19422916D01*
X39194655Y-19431310D01*
X39177341Y-19440565D01*
X39160501Y-19450659D01*
X39144177Y-19461566D01*
X39128407Y-19473261D01*
X39113231Y-19485716D01*
X39098684Y-19498901D01*
X39084801Y-19512784D01*
X39071616Y-19527331D01*
X39059161Y-19542507D01*
X39047466Y-19558277D01*
X39036559Y-19574601D01*
X39026465Y-19591441D01*
X39017210Y-19608755D01*
X39008816Y-19626503D01*
X39001303Y-19644642D01*
X38994689Y-19663127D01*
X38988990Y-19681915D01*
X38984219Y-19700960D01*
X38980389Y-19720215D01*
X38977508Y-19739636D01*
X38975584Y-19759174D01*
X38974620Y-19778784D01*
X38974620Y-19798416D01*
X38574741Y-19798416D01*
X38574741Y-19768967D01*
X38576668Y-19729748D01*
X38580516Y-19690671D01*
X38586278Y-19651830D01*
X38593938Y-19613319D01*
X38603479Y-19575230D01*
X38614877Y-19537655D01*
X38628106Y-19500684D01*
X38643132Y-19464407D01*
X38659921Y-19428911D01*
X38678430Y-19394281D01*
X38698617Y-19360602D01*
X38720432Y-19327953D01*
X38743823Y-19296415D01*
X38768733Y-19266062D01*
X38795102Y-19236968D01*
X38822868Y-19209202D01*
X38851962Y-19182833D01*
X38882315Y-19157923D01*
X38913853Y-19134532D01*
X38946502Y-19112717D01*
X38980181Y-19092530D01*
X39014811Y-19074021D01*
X39050307Y-19057232D01*
X39086584Y-19042206D01*
X39123555Y-19028977D01*
X39161130Y-19017579D01*
X39199219Y-19008038D01*
X39237730Y-19000378D01*
X39276571Y-18994616D01*
X39315648Y-18990768D01*
X39354867Y-18988841D01*
X39394133Y-18988841D01*
X39433352Y-18990768D01*
G37*
G36*
X38449052Y-14415768D02*
G01*
X38488129Y-14419616D01*
X38526970Y-14425378D01*
X38565481Y-14433038D01*
X38603570Y-14442579D01*
X38641145Y-14453977D01*
X38678116Y-14467206D01*
X38714393Y-14482232D01*
X38749889Y-14499021D01*
X38784519Y-14517530D01*
X38818198Y-14537717D01*
X38850847Y-14559532D01*
X38882385Y-14582923D01*
X38912738Y-14607833D01*
X38941832Y-14634202D01*
X38969598Y-14661968D01*
X38995967Y-14691062D01*
X39020877Y-14721415D01*
X39044268Y-14752953D01*
X39066083Y-14785602D01*
X39086270Y-14819281D01*
X39104779Y-14853911D01*
X39121568Y-14889407D01*
X39136594Y-14925684D01*
X39149823Y-14962655D01*
X39161221Y-15000230D01*
X39170762Y-15038319D01*
X39178422Y-15076830D01*
X39184184Y-15115671D01*
X39188032Y-15154748D01*
X39189959Y-15193967D01*
X39189959Y-15233233D01*
X39188032Y-15272452D01*
X39184184Y-15311529D01*
X39178422Y-15350370D01*
X39170762Y-15388881D01*
X39161221Y-15426970D01*
X39149823Y-15464545D01*
X39136594Y-15501516D01*
X39121568Y-15537793D01*
X39104779Y-15573289D01*
X39086270Y-15607919D01*
X39066083Y-15641598D01*
X39044268Y-15674247D01*
X39020877Y-15705785D01*
X38995967Y-15736138D01*
X38969598Y-15765232D01*
X38941832Y-15792998D01*
X38912738Y-15819367D01*
X38882385Y-15844277D01*
X38850847Y-15867668D01*
X38818198Y-15889483D01*
X38784519Y-15909670D01*
X38749889Y-15928179D01*
X38714393Y-15944968D01*
X38678116Y-15959994D01*
X38641145Y-15973223D01*
X38603570Y-15984621D01*
X38565481Y-15994162D01*
X38526970Y-16001822D01*
X38488129Y-16007584D01*
X38449052Y-16011432D01*
X38409833Y-16013359D01*
X38370567Y-16013359D01*
X38331348Y-16011432D01*
X38292271Y-16007584D01*
X38253430Y-16001822D01*
X38214919Y-15994162D01*
X38176830Y-15984621D01*
X38139255Y-15973223D01*
X38102284Y-15959994D01*
X38066007Y-15944968D01*
X38030511Y-15928179D01*
X37995881Y-15909670D01*
X37962202Y-15889483D01*
X37929553Y-15867668D01*
X37898015Y-15844277D01*
X37867662Y-15819367D01*
X37838568Y-15792998D01*
X37810802Y-15765232D01*
X37784433Y-15736138D01*
X37759523Y-15705785D01*
X37736132Y-15674247D01*
X37714317Y-15641598D01*
X37694130Y-15607919D01*
X37675621Y-15573289D01*
X37658832Y-15537793D01*
X37643806Y-15501516D01*
X37630577Y-15464545D01*
X37619179Y-15426970D01*
X37609638Y-15388881D01*
X37601978Y-15350370D01*
X37596216Y-15311529D01*
X37592368Y-15272452D01*
X37590441Y-15233233D01*
X37590441Y-15223416D01*
X37990320Y-15223416D01*
X37991284Y-15243026D01*
X37993208Y-15262564D01*
X37996089Y-15281985D01*
X37999919Y-15301240D01*
X38004690Y-15320285D01*
X38010389Y-15339073D01*
X38017003Y-15357558D01*
X38024516Y-15375697D01*
X38032910Y-15393445D01*
X38042165Y-15410759D01*
X38052259Y-15427599D01*
X38063166Y-15443923D01*
X38074861Y-15459693D01*
X38087316Y-15474869D01*
X38100501Y-15489416D01*
X38114384Y-15503299D01*
X38128931Y-15516484D01*
X38144107Y-15528939D01*
X38159877Y-15540634D01*
X38176201Y-15551541D01*
X38193041Y-15561635D01*
X38210355Y-15570890D01*
X38228103Y-15579284D01*
X38246242Y-15586797D01*
X38264727Y-15593411D01*
X38283515Y-15599110D01*
X38302560Y-15603881D01*
X38321815Y-15607711D01*
X38341236Y-15610592D01*
X38360774Y-15612516D01*
X38380384Y-15613480D01*
X38400016Y-15613480D01*
X38419626Y-15612516D01*
X38439164Y-15610592D01*
X38458585Y-15607711D01*
X38477840Y-15603881D01*
X38496885Y-15599110D01*
X38515673Y-15593411D01*
X38534158Y-15586797D01*
X38552297Y-15579284D01*
X38570045Y-15570890D01*
X38587359Y-15561635D01*
X38604199Y-15551541D01*
X38620523Y-15540634D01*
X38636293Y-15528939D01*
X38651469Y-15516484D01*
X38666016Y-15503299D01*
X38679899Y-15489416D01*
X38693084Y-15474869D01*
X38705539Y-15459693D01*
X38717234Y-15443923D01*
X38728141Y-15427599D01*
X38738235Y-15410759D01*
X38747490Y-15393445D01*
X38755884Y-15375697D01*
X38763397Y-15357558D01*
X38770011Y-15339073D01*
X38775710Y-15320285D01*
X38780481Y-15301240D01*
X38784311Y-15281985D01*
X38787192Y-15262564D01*
X38789116Y-15243026D01*
X38790080Y-15223416D01*
X38790080Y-15203784D01*
X38789116Y-15184174D01*
X38787192Y-15164636D01*
X38784311Y-15145215D01*
X38780481Y-15125960D01*
X38775710Y-15106915D01*
X38770011Y-15088127D01*
X38763397Y-15069642D01*
X38755884Y-15051503D01*
X38747490Y-15033755D01*
X38738235Y-15016441D01*
X38728141Y-14999601D01*
X38717234Y-14983277D01*
X38705539Y-14967507D01*
X38693084Y-14952331D01*
X38679899Y-14937784D01*
X38666016Y-14923901D01*
X38651469Y-14910716D01*
X38636293Y-14898261D01*
X38620523Y-14886566D01*
X38604199Y-14875659D01*
X38587359Y-14865565D01*
X38570045Y-14856310D01*
X38552297Y-14847916D01*
X38534158Y-14840403D01*
X38515673Y-14833789D01*
X38496885Y-14828090D01*
X38477840Y-14823319D01*
X38458585Y-14819489D01*
X38439164Y-14816608D01*
X38419626Y-14814684D01*
X38400016Y-14813720D01*
X38380384Y-14813720D01*
X38360774Y-14814684D01*
X38341236Y-14816608D01*
X38321815Y-14819489D01*
X38302560Y-14823319D01*
X38283515Y-14828090D01*
X38264727Y-14833789D01*
X38246242Y-14840403D01*
X38228103Y-14847916D01*
X38210355Y-14856310D01*
X38193041Y-14865565D01*
X38176201Y-14875659D01*
X38159877Y-14886566D01*
X38144107Y-14898261D01*
X38128931Y-14910716D01*
X38114384Y-14923901D01*
X38100501Y-14937784D01*
X38087316Y-14952331D01*
X38074861Y-14967507D01*
X38063166Y-14983277D01*
X38052259Y-14999601D01*
X38042165Y-15016441D01*
X38032910Y-15033755D01*
X38024516Y-15051503D01*
X38017003Y-15069642D01*
X38010389Y-15088127D01*
X38004690Y-15106915D01*
X37999919Y-15125960D01*
X37996089Y-15145215D01*
X37993208Y-15164636D01*
X37991284Y-15184174D01*
X37990320Y-15203784D01*
X37990320Y-15223416D01*
X37590441Y-15223416D01*
X37590441Y-15193967D01*
X37592368Y-15154748D01*
X37596216Y-15115671D01*
X37601978Y-15076830D01*
X37609638Y-15038319D01*
X37619179Y-15000230D01*
X37630577Y-14962655D01*
X37643806Y-14925684D01*
X37658832Y-14889407D01*
X37675621Y-14853911D01*
X37694130Y-14819281D01*
X37714317Y-14785602D01*
X37736132Y-14752953D01*
X37759523Y-14721415D01*
X37784433Y-14691062D01*
X37810802Y-14661968D01*
X37838568Y-14634202D01*
X37867662Y-14607833D01*
X37898015Y-14582923D01*
X37929553Y-14559532D01*
X37962202Y-14537717D01*
X37995881Y-14517530D01*
X38030511Y-14499021D01*
X38066007Y-14482232D01*
X38102284Y-14467206D01*
X38139255Y-14453977D01*
X38176830Y-14442579D01*
X38214919Y-14433038D01*
X38253430Y-14425378D01*
X38292271Y-14419616D01*
X38331348Y-14415768D01*
X38370567Y-14413841D01*
X38409833Y-14413841D01*
X38449052Y-14415768D01*
G37*
G36*
X35949052Y-14415768D02*
G01*
X35988129Y-14419616D01*
X36026970Y-14425378D01*
X36065481Y-14433038D01*
X36103570Y-14442579D01*
X36141145Y-14453977D01*
X36178116Y-14467206D01*
X36214393Y-14482232D01*
X36249889Y-14499021D01*
X36284519Y-14517530D01*
X36318198Y-14537717D01*
X36350847Y-14559532D01*
X36382385Y-14582923D01*
X36412738Y-14607833D01*
X36441832Y-14634202D01*
X36469598Y-14661968D01*
X36495967Y-14691062D01*
X36520877Y-14721415D01*
X36544268Y-14752953D01*
X36566083Y-14785602D01*
X36586270Y-14819281D01*
X36604779Y-14853911D01*
X36621568Y-14889407D01*
X36636594Y-14925684D01*
X36649823Y-14962655D01*
X36661221Y-15000230D01*
X36670762Y-15038319D01*
X36678422Y-15076830D01*
X36684184Y-15115671D01*
X36688032Y-15154748D01*
X36689959Y-15193967D01*
X36689959Y-15233233D01*
X36688032Y-15272452D01*
X36684184Y-15311529D01*
X36678422Y-15350370D01*
X36670762Y-15388881D01*
X36661221Y-15426970D01*
X36649823Y-15464545D01*
X36636594Y-15501516D01*
X36621568Y-15537793D01*
X36604779Y-15573289D01*
X36586270Y-15607919D01*
X36566083Y-15641598D01*
X36544268Y-15674247D01*
X36520877Y-15705785D01*
X36495967Y-15736138D01*
X36469598Y-15765232D01*
X36441832Y-15792998D01*
X36412738Y-15819367D01*
X36382385Y-15844277D01*
X36350847Y-15867668D01*
X36318198Y-15889483D01*
X36284519Y-15909670D01*
X36249889Y-15928179D01*
X36214393Y-15944968D01*
X36178116Y-15959994D01*
X36141145Y-15973223D01*
X36103570Y-15984621D01*
X36065481Y-15994162D01*
X36026970Y-16001822D01*
X35988129Y-16007584D01*
X35949052Y-16011432D01*
X35909833Y-16013359D01*
X35870567Y-16013359D01*
X35831348Y-16011432D01*
X35792271Y-16007584D01*
X35753430Y-16001822D01*
X35714919Y-15994162D01*
X35676830Y-15984621D01*
X35639255Y-15973223D01*
X35602284Y-15959994D01*
X35566007Y-15944968D01*
X35530511Y-15928179D01*
X35495881Y-15909670D01*
X35462202Y-15889483D01*
X35429553Y-15867668D01*
X35398015Y-15844277D01*
X35367662Y-15819367D01*
X35338568Y-15792998D01*
X35310802Y-15765232D01*
X35284433Y-15736138D01*
X35259523Y-15705785D01*
X35236132Y-15674247D01*
X35214317Y-15641598D01*
X35194130Y-15607919D01*
X35175621Y-15573289D01*
X35158832Y-15537793D01*
X35143806Y-15501516D01*
X35130577Y-15464545D01*
X35119179Y-15426970D01*
X35109638Y-15388881D01*
X35101978Y-15350370D01*
X35096216Y-15311529D01*
X35092368Y-15272452D01*
X35090441Y-15233233D01*
X35090441Y-15223416D01*
X35490320Y-15223416D01*
X35491284Y-15243026D01*
X35493208Y-15262564D01*
X35496089Y-15281985D01*
X35499919Y-15301240D01*
X35504690Y-15320285D01*
X35510389Y-15339073D01*
X35517003Y-15357558D01*
X35524516Y-15375697D01*
X35532910Y-15393445D01*
X35542165Y-15410759D01*
X35552259Y-15427599D01*
X35563166Y-15443923D01*
X35574861Y-15459693D01*
X35587316Y-15474869D01*
X35600501Y-15489416D01*
X35614384Y-15503299D01*
X35628931Y-15516484D01*
X35644107Y-15528939D01*
X35659877Y-15540634D01*
X35676201Y-15551541D01*
X35693041Y-15561635D01*
X35710355Y-15570890D01*
X35728103Y-15579284D01*
X35746242Y-15586797D01*
X35764727Y-15593411D01*
X35783515Y-15599110D01*
X35802560Y-15603881D01*
X35821815Y-15607711D01*
X35841236Y-15610592D01*
X35860774Y-15612516D01*
X35880384Y-15613480D01*
X35900016Y-15613480D01*
X35919626Y-15612516D01*
X35939164Y-15610592D01*
X35958585Y-15607711D01*
X35977840Y-15603881D01*
X35996885Y-15599110D01*
X36015673Y-15593411D01*
X36034158Y-15586797D01*
X36052297Y-15579284D01*
X36070045Y-15570890D01*
X36087359Y-15561635D01*
X36104199Y-15551541D01*
X36120523Y-15540634D01*
X36136293Y-15528939D01*
X36151469Y-15516484D01*
X36166016Y-15503299D01*
X36179899Y-15489416D01*
X36193084Y-15474869D01*
X36205539Y-15459693D01*
X36217234Y-15443923D01*
X36228141Y-15427599D01*
X36238235Y-15410759D01*
X36247490Y-15393445D01*
X36255884Y-15375697D01*
X36263397Y-15357558D01*
X36270011Y-15339073D01*
X36275710Y-15320285D01*
X36280481Y-15301240D01*
X36284311Y-15281985D01*
X36287192Y-15262564D01*
X36289116Y-15243026D01*
X36290080Y-15223416D01*
X36290080Y-15203784D01*
X36289116Y-15184174D01*
X36287192Y-15164636D01*
X36284311Y-15145215D01*
X36280481Y-15125960D01*
X36275710Y-15106915D01*
X36270011Y-15088127D01*
X36263397Y-15069642D01*
X36255884Y-15051503D01*
X36247490Y-15033755D01*
X36238235Y-15016441D01*
X36228141Y-14999601D01*
X36217234Y-14983277D01*
X36205539Y-14967507D01*
X36193084Y-14952331D01*
X36179899Y-14937784D01*
X36166016Y-14923901D01*
X36151469Y-14910716D01*
X36136293Y-14898261D01*
X36120523Y-14886566D01*
X36104199Y-14875659D01*
X36087359Y-14865565D01*
X36070045Y-14856310D01*
X36052297Y-14847916D01*
X36034158Y-14840403D01*
X36015673Y-14833789D01*
X35996885Y-14828090D01*
X35977840Y-14823319D01*
X35958585Y-14819489D01*
X35939164Y-14816608D01*
X35919626Y-14814684D01*
X35900016Y-14813720D01*
X35880384Y-14813720D01*
X35860774Y-14814684D01*
X35841236Y-14816608D01*
X35821815Y-14819489D01*
X35802560Y-14823319D01*
X35783515Y-14828090D01*
X35764727Y-14833789D01*
X35746242Y-14840403D01*
X35728103Y-14847916D01*
X35710355Y-14856310D01*
X35693041Y-14865565D01*
X35676201Y-14875659D01*
X35659877Y-14886566D01*
X35644107Y-14898261D01*
X35628931Y-14910716D01*
X35614384Y-14923901D01*
X35600501Y-14937784D01*
X35587316Y-14952331D01*
X35574861Y-14967507D01*
X35563166Y-14983277D01*
X35552259Y-14999601D01*
X35542165Y-15016441D01*
X35532910Y-15033755D01*
X35524516Y-15051503D01*
X35517003Y-15069642D01*
X35510389Y-15088127D01*
X35504690Y-15106915D01*
X35499919Y-15125960D01*
X35496089Y-15145215D01*
X35493208Y-15164636D01*
X35491284Y-15184174D01*
X35490320Y-15203784D01*
X35490320Y-15223416D01*
X35090441Y-15223416D01*
X35090441Y-15193967D01*
X35092368Y-15154748D01*
X35096216Y-15115671D01*
X35101978Y-15076830D01*
X35109638Y-15038319D01*
X35119179Y-15000230D01*
X35130577Y-14962655D01*
X35143806Y-14925684D01*
X35158832Y-14889407D01*
X35175621Y-14853911D01*
X35194130Y-14819281D01*
X35214317Y-14785602D01*
X35236132Y-14752953D01*
X35259523Y-14721415D01*
X35284433Y-14691062D01*
X35310802Y-14661968D01*
X35338568Y-14634202D01*
X35367662Y-14607833D01*
X35398015Y-14582923D01*
X35429553Y-14559532D01*
X35462202Y-14537717D01*
X35495881Y-14517530D01*
X35530511Y-14499021D01*
X35566007Y-14482232D01*
X35602284Y-14467206D01*
X35639255Y-14453977D01*
X35676830Y-14442579D01*
X35714919Y-14433038D01*
X35753430Y-14425378D01*
X35792271Y-14419616D01*
X35831348Y-14415768D01*
X35870567Y-14413841D01*
X35909833Y-14413841D01*
X35949052Y-14415768D01*
G37*
G36*
X37737952Y-11989868D02*
G01*
X37777029Y-11993716D01*
X37815870Y-11999478D01*
X37854381Y-12007138D01*
X37892470Y-12016679D01*
X37930045Y-12028077D01*
X37967016Y-12041306D01*
X38003293Y-12056332D01*
X38038789Y-12073121D01*
X38073419Y-12091630D01*
X38107098Y-12111817D01*
X38139747Y-12133632D01*
X38171285Y-12157023D01*
X38201638Y-12181933D01*
X38230732Y-12208302D01*
X38258498Y-12236068D01*
X38284867Y-12265162D01*
X38309777Y-12295515D01*
X38333168Y-12327053D01*
X38354983Y-12359702D01*
X38375170Y-12393381D01*
X38393679Y-12428011D01*
X38410468Y-12463507D01*
X38425494Y-12499784D01*
X38438723Y-12536755D01*
X38450121Y-12574330D01*
X38459662Y-12612419D01*
X38467322Y-12650930D01*
X38473084Y-12689771D01*
X38476932Y-12728848D01*
X38478859Y-12768067D01*
X38478859Y-12807333D01*
X38476932Y-12846552D01*
X38473084Y-12885629D01*
X38467322Y-12924470D01*
X38459662Y-12962981D01*
X38450121Y-13001070D01*
X38438723Y-13038645D01*
X38425494Y-13075616D01*
X38410468Y-13111893D01*
X38393679Y-13147389D01*
X38375170Y-13182019D01*
X38354983Y-13215698D01*
X38333168Y-13248347D01*
X38309777Y-13279885D01*
X38284867Y-13310238D01*
X38258498Y-13339332D01*
X38230732Y-13367098D01*
X38201638Y-13393467D01*
X38171285Y-13418377D01*
X38139747Y-13441768D01*
X38107098Y-13463583D01*
X38073419Y-13483770D01*
X38038789Y-13502279D01*
X38003293Y-13519068D01*
X37967016Y-13534094D01*
X37930045Y-13547323D01*
X37892470Y-13558721D01*
X37854381Y-13568262D01*
X37815870Y-13575922D01*
X37777029Y-13581684D01*
X37737952Y-13585532D01*
X37698733Y-13587459D01*
X37659467Y-13587459D01*
X37620248Y-13585532D01*
X37581171Y-13581684D01*
X37542330Y-13575922D01*
X37503819Y-13568262D01*
X37465730Y-13558721D01*
X37428155Y-13547323D01*
X37391184Y-13534094D01*
X37354907Y-13519068D01*
X37319411Y-13502279D01*
X37284781Y-13483770D01*
X37251102Y-13463583D01*
X37218453Y-13441768D01*
X37186915Y-13418377D01*
X37156562Y-13393467D01*
X37127468Y-13367098D01*
X37099702Y-13339332D01*
X37073333Y-13310238D01*
X37048423Y-13279885D01*
X37025032Y-13248347D01*
X37003217Y-13215698D01*
X36983030Y-13182019D01*
X36964521Y-13147389D01*
X36947732Y-13111893D01*
X36932706Y-13075616D01*
X36919477Y-13038645D01*
X36908079Y-13001070D01*
X36898538Y-12962981D01*
X36890878Y-12924470D01*
X36885116Y-12885629D01*
X36881268Y-12846552D01*
X36879341Y-12807333D01*
X36879341Y-12797516D01*
X37279220Y-12797516D01*
X37280184Y-12817126D01*
X37282108Y-12836664D01*
X37284989Y-12856085D01*
X37288819Y-12875340D01*
X37293590Y-12894385D01*
X37299289Y-12913173D01*
X37305903Y-12931658D01*
X37313416Y-12949797D01*
X37321810Y-12967545D01*
X37331065Y-12984859D01*
X37341159Y-13001699D01*
X37352066Y-13018023D01*
X37363761Y-13033793D01*
X37376216Y-13048969D01*
X37389401Y-13063516D01*
X37403284Y-13077399D01*
X37417831Y-13090584D01*
X37433007Y-13103039D01*
X37448777Y-13114734D01*
X37465101Y-13125641D01*
X37481941Y-13135735D01*
X37499255Y-13144990D01*
X37517003Y-13153384D01*
X37535142Y-13160897D01*
X37553627Y-13167511D01*
X37572415Y-13173210D01*
X37591460Y-13177981D01*
X37610715Y-13181811D01*
X37630136Y-13184692D01*
X37649674Y-13186616D01*
X37669284Y-13187580D01*
X37688916Y-13187580D01*
X37708526Y-13186616D01*
X37728064Y-13184692D01*
X37747485Y-13181811D01*
X37766740Y-13177981D01*
X37785785Y-13173210D01*
X37804573Y-13167511D01*
X37823058Y-13160897D01*
X37841197Y-13153384D01*
X37858945Y-13144990D01*
X37876259Y-13135735D01*
X37893099Y-13125641D01*
X37909423Y-13114734D01*
X37925193Y-13103039D01*
X37940369Y-13090584D01*
X37954916Y-13077399D01*
X37968799Y-13063516D01*
X37981984Y-13048969D01*
X37994439Y-13033793D01*
X38006134Y-13018023D01*
X38017041Y-13001699D01*
X38027135Y-12984859D01*
X38036390Y-12967545D01*
X38044784Y-12949797D01*
X38052297Y-12931658D01*
X38058911Y-12913173D01*
X38064610Y-12894385D01*
X38069381Y-12875340D01*
X38073211Y-12856085D01*
X38076092Y-12836664D01*
X38078016Y-12817126D01*
X38078980Y-12797516D01*
X38078980Y-12777884D01*
X38078016Y-12758274D01*
X38076092Y-12738736D01*
X38073211Y-12719315D01*
X38069381Y-12700060D01*
X38064610Y-12681015D01*
X38058911Y-12662227D01*
X38052297Y-12643742D01*
X38044784Y-12625603D01*
X38036390Y-12607855D01*
X38027135Y-12590541D01*
X38017041Y-12573701D01*
X38006134Y-12557377D01*
X37994439Y-12541607D01*
X37981984Y-12526431D01*
X37968799Y-12511884D01*
X37954916Y-12498001D01*
X37940369Y-12484816D01*
X37925193Y-12472361D01*
X37909423Y-12460666D01*
X37893099Y-12449759D01*
X37876259Y-12439665D01*
X37858945Y-12430410D01*
X37841197Y-12422016D01*
X37823058Y-12414503D01*
X37804573Y-12407889D01*
X37785785Y-12402190D01*
X37766740Y-12397419D01*
X37747485Y-12393589D01*
X37728064Y-12390708D01*
X37708526Y-12388784D01*
X37688916Y-12387820D01*
X37669284Y-12387820D01*
X37649674Y-12388784D01*
X37630136Y-12390708D01*
X37610715Y-12393589D01*
X37591460Y-12397419D01*
X37572415Y-12402190D01*
X37553627Y-12407889D01*
X37535142Y-12414503D01*
X37517003Y-12422016D01*
X37499255Y-12430410D01*
X37481941Y-12439665D01*
X37465101Y-12449759D01*
X37448777Y-12460666D01*
X37433007Y-12472361D01*
X37417831Y-12484816D01*
X37403284Y-12498001D01*
X37389401Y-12511884D01*
X37376216Y-12526431D01*
X37363761Y-12541607D01*
X37352066Y-12557377D01*
X37341159Y-12573701D01*
X37331065Y-12590541D01*
X37321810Y-12607855D01*
X37313416Y-12625603D01*
X37305903Y-12643742D01*
X37299289Y-12662227D01*
X37293590Y-12681015D01*
X37288819Y-12700060D01*
X37284989Y-12719315D01*
X37282108Y-12738736D01*
X37280184Y-12758274D01*
X37279220Y-12777884D01*
X37279220Y-12797516D01*
X36879341Y-12797516D01*
X36879341Y-12768067D01*
X36881268Y-12728848D01*
X36885116Y-12689771D01*
X36890878Y-12650930D01*
X36898538Y-12612419D01*
X36908079Y-12574330D01*
X36919477Y-12536755D01*
X36932706Y-12499784D01*
X36947732Y-12463507D01*
X36964521Y-12428011D01*
X36983030Y-12393381D01*
X37003217Y-12359702D01*
X37025032Y-12327053D01*
X37048423Y-12295515D01*
X37073333Y-12265162D01*
X37099702Y-12236068D01*
X37127468Y-12208302D01*
X37156562Y-12181933D01*
X37186915Y-12157023D01*
X37218453Y-12133632D01*
X37251102Y-12111817D01*
X37284781Y-12091630D01*
X37319411Y-12073121D01*
X37354907Y-12056332D01*
X37391184Y-12041306D01*
X37428155Y-12028077D01*
X37465730Y-12016679D01*
X37503819Y-12007138D01*
X37542330Y-11999478D01*
X37581171Y-11993716D01*
X37620248Y-11989868D01*
X37659467Y-11987941D01*
X37698733Y-11987941D01*
X37737952Y-11989868D01*
G37*
G36*
X35237952Y-11989868D02*
G01*
X35277029Y-11993716D01*
X35315870Y-11999478D01*
X35354381Y-12007138D01*
X35392470Y-12016679D01*
X35430045Y-12028077D01*
X35467016Y-12041306D01*
X35503293Y-12056332D01*
X35538789Y-12073121D01*
X35573419Y-12091630D01*
X35607098Y-12111817D01*
X35639747Y-12133632D01*
X35671285Y-12157023D01*
X35701638Y-12181933D01*
X35730732Y-12208302D01*
X35758498Y-12236068D01*
X35784867Y-12265162D01*
X35809777Y-12295515D01*
X35833168Y-12327053D01*
X35854983Y-12359702D01*
X35875170Y-12393381D01*
X35893679Y-12428011D01*
X35910468Y-12463507D01*
X35925494Y-12499784D01*
X35938723Y-12536755D01*
X35950121Y-12574330D01*
X35959662Y-12612419D01*
X35967322Y-12650930D01*
X35973084Y-12689771D01*
X35976932Y-12728848D01*
X35978859Y-12768067D01*
X35978859Y-12807333D01*
X35976932Y-12846552D01*
X35973084Y-12885629D01*
X35967322Y-12924470D01*
X35959662Y-12962981D01*
X35950121Y-13001070D01*
X35938723Y-13038645D01*
X35925494Y-13075616D01*
X35910468Y-13111893D01*
X35893679Y-13147389D01*
X35875170Y-13182019D01*
X35854983Y-13215698D01*
X35833168Y-13248347D01*
X35809777Y-13279885D01*
X35784867Y-13310238D01*
X35758498Y-13339332D01*
X35730732Y-13367098D01*
X35701638Y-13393467D01*
X35671285Y-13418377D01*
X35639747Y-13441768D01*
X35607098Y-13463583D01*
X35573419Y-13483770D01*
X35538789Y-13502279D01*
X35503293Y-13519068D01*
X35467016Y-13534094D01*
X35430045Y-13547323D01*
X35392470Y-13558721D01*
X35354381Y-13568262D01*
X35315870Y-13575922D01*
X35277029Y-13581684D01*
X35237952Y-13585532D01*
X35198733Y-13587459D01*
X35159467Y-13587459D01*
X35120248Y-13585532D01*
X35081171Y-13581684D01*
X35042330Y-13575922D01*
X35003819Y-13568262D01*
X34965730Y-13558721D01*
X34928155Y-13547323D01*
X34891184Y-13534094D01*
X34854907Y-13519068D01*
X34819411Y-13502279D01*
X34784781Y-13483770D01*
X34751102Y-13463583D01*
X34718453Y-13441768D01*
X34686915Y-13418377D01*
X34656562Y-13393467D01*
X34627468Y-13367098D01*
X34599702Y-13339332D01*
X34573333Y-13310238D01*
X34548423Y-13279885D01*
X34525032Y-13248347D01*
X34503217Y-13215698D01*
X34483030Y-13182019D01*
X34464521Y-13147389D01*
X34447732Y-13111893D01*
X34432706Y-13075616D01*
X34419477Y-13038645D01*
X34408079Y-13001070D01*
X34398538Y-12962981D01*
X34390878Y-12924470D01*
X34385116Y-12885629D01*
X34381268Y-12846552D01*
X34379341Y-12807333D01*
X34379341Y-12797516D01*
X34779220Y-12797516D01*
X34780184Y-12817126D01*
X34782108Y-12836664D01*
X34784989Y-12856085D01*
X34788819Y-12875340D01*
X34793590Y-12894385D01*
X34799289Y-12913173D01*
X34805903Y-12931658D01*
X34813416Y-12949797D01*
X34821810Y-12967545D01*
X34831065Y-12984859D01*
X34841159Y-13001699D01*
X34852066Y-13018023D01*
X34863761Y-13033793D01*
X34876216Y-13048969D01*
X34889401Y-13063516D01*
X34903284Y-13077399D01*
X34917831Y-13090584D01*
X34933007Y-13103039D01*
X34948777Y-13114734D01*
X34965101Y-13125641D01*
X34981941Y-13135735D01*
X34999255Y-13144990D01*
X35017003Y-13153384D01*
X35035142Y-13160897D01*
X35053627Y-13167511D01*
X35072415Y-13173210D01*
X35091460Y-13177981D01*
X35110715Y-13181811D01*
X35130136Y-13184692D01*
X35149674Y-13186616D01*
X35169284Y-13187580D01*
X35188916Y-13187580D01*
X35208526Y-13186616D01*
X35228064Y-13184692D01*
X35247485Y-13181811D01*
X35266740Y-13177981D01*
X35285785Y-13173210D01*
X35304573Y-13167511D01*
X35323058Y-13160897D01*
X35341197Y-13153384D01*
X35358945Y-13144990D01*
X35376259Y-13135735D01*
X35393099Y-13125641D01*
X35409423Y-13114734D01*
X35425193Y-13103039D01*
X35440369Y-13090584D01*
X35454916Y-13077399D01*
X35468799Y-13063516D01*
X35481984Y-13048969D01*
X35494439Y-13033793D01*
X35506134Y-13018023D01*
X35517041Y-13001699D01*
X35527135Y-12984859D01*
X35536390Y-12967545D01*
X35544784Y-12949797D01*
X35552297Y-12931658D01*
X35558911Y-12913173D01*
X35564610Y-12894385D01*
X35569381Y-12875340D01*
X35573211Y-12856085D01*
X35576092Y-12836664D01*
X35578016Y-12817126D01*
X35578980Y-12797516D01*
X35578980Y-12777884D01*
X35578016Y-12758274D01*
X35576092Y-12738736D01*
X35573211Y-12719315D01*
X35569381Y-12700060D01*
X35564610Y-12681015D01*
X35558911Y-12662227D01*
X35552297Y-12643742D01*
X35544784Y-12625603D01*
X35536390Y-12607855D01*
X35527135Y-12590541D01*
X35517041Y-12573701D01*
X35506134Y-12557377D01*
X35494439Y-12541607D01*
X35481984Y-12526431D01*
X35468799Y-12511884D01*
X35454916Y-12498001D01*
X35440369Y-12484816D01*
X35425193Y-12472361D01*
X35409423Y-12460666D01*
X35393099Y-12449759D01*
X35376259Y-12439665D01*
X35358945Y-12430410D01*
X35341197Y-12422016D01*
X35323058Y-12414503D01*
X35304573Y-12407889D01*
X35285785Y-12402190D01*
X35266740Y-12397419D01*
X35247485Y-12393589D01*
X35228064Y-12390708D01*
X35208526Y-12388784D01*
X35188916Y-12387820D01*
X35169284Y-12387820D01*
X35149674Y-12388784D01*
X35130136Y-12390708D01*
X35110715Y-12393589D01*
X35091460Y-12397419D01*
X35072415Y-12402190D01*
X35053627Y-12407889D01*
X35035142Y-12414503D01*
X35017003Y-12422016D01*
X34999255Y-12430410D01*
X34981941Y-12439665D01*
X34965101Y-12449759D01*
X34948777Y-12460666D01*
X34933007Y-12472361D01*
X34917831Y-12484816D01*
X34903284Y-12498001D01*
X34889401Y-12511884D01*
X34876216Y-12526431D01*
X34863761Y-12541607D01*
X34852066Y-12557377D01*
X34841159Y-12573701D01*
X34831065Y-12590541D01*
X34821810Y-12607855D01*
X34813416Y-12625603D01*
X34805903Y-12643742D01*
X34799289Y-12662227D01*
X34793590Y-12681015D01*
X34788819Y-12700060D01*
X34784989Y-12719315D01*
X34782108Y-12738736D01*
X34780184Y-12758274D01*
X34779220Y-12777884D01*
X34779220Y-12797516D01*
X34379341Y-12797516D01*
X34379341Y-12768067D01*
X34381268Y-12728848D01*
X34385116Y-12689771D01*
X34390878Y-12650930D01*
X34398538Y-12612419D01*
X34408079Y-12574330D01*
X34419477Y-12536755D01*
X34432706Y-12499784D01*
X34447732Y-12463507D01*
X34464521Y-12428011D01*
X34483030Y-12393381D01*
X34503217Y-12359702D01*
X34525032Y-12327053D01*
X34548423Y-12295515D01*
X34573333Y-12265162D01*
X34599702Y-12236068D01*
X34627468Y-12208302D01*
X34656562Y-12181933D01*
X34686915Y-12157023D01*
X34718453Y-12133632D01*
X34751102Y-12111817D01*
X34784781Y-12091630D01*
X34819411Y-12073121D01*
X34854907Y-12056332D01*
X34891184Y-12041306D01*
X34928155Y-12028077D01*
X34965730Y-12016679D01*
X35003819Y-12007138D01*
X35042330Y-11999478D01*
X35081171Y-11993716D01*
X35120248Y-11989868D01*
X35159467Y-11987941D01*
X35198733Y-11987941D01*
X35237952Y-11989868D01*
G37*
G36*
X35650252Y-8510268D02*
G01*
X35689329Y-8514116D01*
X35728170Y-8519878D01*
X35766681Y-8527538D01*
X35804770Y-8537079D01*
X35842345Y-8548477D01*
X35879316Y-8561706D01*
X35915593Y-8576732D01*
X35951089Y-8593521D01*
X35985719Y-8612030D01*
X36019398Y-8632217D01*
X36052047Y-8654032D01*
X36083585Y-8677423D01*
X36113938Y-8702333D01*
X36143032Y-8728702D01*
X36170798Y-8756468D01*
X36197167Y-8785562D01*
X36222077Y-8815915D01*
X36245468Y-8847453D01*
X36267283Y-8880102D01*
X36287470Y-8913781D01*
X36305979Y-8948411D01*
X36322768Y-8983907D01*
X36337794Y-9020184D01*
X36351023Y-9057155D01*
X36362421Y-9094730D01*
X36371962Y-9132819D01*
X36379622Y-9171330D01*
X36385384Y-9210171D01*
X36389232Y-9249248D01*
X36391159Y-9288467D01*
X36391159Y-9327733D01*
X36389232Y-9366952D01*
X36385384Y-9406029D01*
X36379622Y-9444870D01*
X36371962Y-9483381D01*
X36362421Y-9521470D01*
X36351023Y-9559045D01*
X36337794Y-9596016D01*
X36322768Y-9632293D01*
X36305979Y-9667789D01*
X36287470Y-9702419D01*
X36267283Y-9736098D01*
X36245468Y-9768747D01*
X36222077Y-9800285D01*
X36197167Y-9830638D01*
X36170798Y-9859732D01*
X36143032Y-9887498D01*
X36113938Y-9913867D01*
X36083585Y-9938777D01*
X36052047Y-9962168D01*
X36019398Y-9983983D01*
X35985719Y-10004170D01*
X35951089Y-10022679D01*
X35915593Y-10039468D01*
X35879316Y-10054494D01*
X35842345Y-10067723D01*
X35804770Y-10079121D01*
X35766681Y-10088662D01*
X35728170Y-10096322D01*
X35689329Y-10102084D01*
X35650252Y-10105932D01*
X35611033Y-10107859D01*
X35571767Y-10107859D01*
X35532548Y-10105932D01*
X35493471Y-10102084D01*
X35454630Y-10096322D01*
X35416119Y-10088662D01*
X35378030Y-10079121D01*
X35340455Y-10067723D01*
X35303484Y-10054494D01*
X35267207Y-10039468D01*
X35231711Y-10022679D01*
X35197081Y-10004170D01*
X35163402Y-9983983D01*
X35130753Y-9962168D01*
X35099215Y-9938777D01*
X35068862Y-9913867D01*
X35039768Y-9887498D01*
X35012002Y-9859732D01*
X34985633Y-9830638D01*
X34960723Y-9800285D01*
X34937332Y-9768747D01*
X34915517Y-9736098D01*
X34895330Y-9702419D01*
X34876821Y-9667789D01*
X34860032Y-9632293D01*
X34845006Y-9596016D01*
X34831777Y-9559045D01*
X34820379Y-9521470D01*
X34810838Y-9483381D01*
X34803178Y-9444870D01*
X34797416Y-9406029D01*
X34793568Y-9366952D01*
X34791641Y-9327733D01*
X34791641Y-9317916D01*
X35191520Y-9317916D01*
X35192484Y-9337526D01*
X35194408Y-9357064D01*
X35197289Y-9376485D01*
X35201119Y-9395740D01*
X35205890Y-9414785D01*
X35211589Y-9433573D01*
X35218203Y-9452058D01*
X35225716Y-9470197D01*
X35234110Y-9487945D01*
X35243365Y-9505259D01*
X35253459Y-9522099D01*
X35264366Y-9538423D01*
X35276061Y-9554193D01*
X35288516Y-9569369D01*
X35301701Y-9583916D01*
X35315584Y-9597799D01*
X35330131Y-9610984D01*
X35345307Y-9623439D01*
X35361077Y-9635134D01*
X35377401Y-9646041D01*
X35394241Y-9656135D01*
X35411555Y-9665390D01*
X35429303Y-9673784D01*
X35447442Y-9681297D01*
X35465927Y-9687911D01*
X35484715Y-9693610D01*
X35503760Y-9698381D01*
X35523015Y-9702211D01*
X35542436Y-9705092D01*
X35561974Y-9707016D01*
X35581584Y-9707980D01*
X35601216Y-9707980D01*
X35620826Y-9707016D01*
X35640364Y-9705092D01*
X35659785Y-9702211D01*
X35679040Y-9698381D01*
X35698085Y-9693610D01*
X35716873Y-9687911D01*
X35735358Y-9681297D01*
X35753497Y-9673784D01*
X35771245Y-9665390D01*
X35788559Y-9656135D01*
X35805399Y-9646041D01*
X35821723Y-9635134D01*
X35837493Y-9623439D01*
X35852669Y-9610984D01*
X35867216Y-9597799D01*
X35881099Y-9583916D01*
X35894284Y-9569369D01*
X35906739Y-9554193D01*
X35918434Y-9538423D01*
X35929341Y-9522099D01*
X35939435Y-9505259D01*
X35948690Y-9487945D01*
X35957084Y-9470197D01*
X35964597Y-9452058D01*
X35971211Y-9433573D01*
X35976910Y-9414785D01*
X35981681Y-9395740D01*
X35985511Y-9376485D01*
X35988392Y-9357064D01*
X35990316Y-9337526D01*
X35991280Y-9317916D01*
X35991280Y-9298284D01*
X35990316Y-9278674D01*
X35988392Y-9259136D01*
X35985511Y-9239715D01*
X35981681Y-9220460D01*
X35976910Y-9201415D01*
X35971211Y-9182627D01*
X35964597Y-9164142D01*
X35957084Y-9146003D01*
X35948690Y-9128255D01*
X35939435Y-9110941D01*
X35929341Y-9094101D01*
X35918434Y-9077777D01*
X35906739Y-9062007D01*
X35894284Y-9046831D01*
X35881099Y-9032284D01*
X35867216Y-9018401D01*
X35852669Y-9005216D01*
X35837493Y-8992761D01*
X35821723Y-8981066D01*
X35805399Y-8970159D01*
X35788559Y-8960065D01*
X35771245Y-8950810D01*
X35753497Y-8942416D01*
X35735358Y-8934903D01*
X35716873Y-8928289D01*
X35698085Y-8922590D01*
X35679040Y-8917819D01*
X35659785Y-8913989D01*
X35640364Y-8911108D01*
X35620826Y-8909184D01*
X35601216Y-8908220D01*
X35581584Y-8908220D01*
X35561974Y-8909184D01*
X35542436Y-8911108D01*
X35523015Y-8913989D01*
X35503760Y-8917819D01*
X35484715Y-8922590D01*
X35465927Y-8928289D01*
X35447442Y-8934903D01*
X35429303Y-8942416D01*
X35411555Y-8950810D01*
X35394241Y-8960065D01*
X35377401Y-8970159D01*
X35361077Y-8981066D01*
X35345307Y-8992761D01*
X35330131Y-9005216D01*
X35315584Y-9018401D01*
X35301701Y-9032284D01*
X35288516Y-9046831D01*
X35276061Y-9062007D01*
X35264366Y-9077777D01*
X35253459Y-9094101D01*
X35243365Y-9110941D01*
X35234110Y-9128255D01*
X35225716Y-9146003D01*
X35218203Y-9164142D01*
X35211589Y-9182627D01*
X35205890Y-9201415D01*
X35201119Y-9220460D01*
X35197289Y-9239715D01*
X35194408Y-9259136D01*
X35192484Y-9278674D01*
X35191520Y-9298284D01*
X35191520Y-9317916D01*
X34791641Y-9317916D01*
X34791641Y-9288467D01*
X34793568Y-9249248D01*
X34797416Y-9210171D01*
X34803178Y-9171330D01*
X34810838Y-9132819D01*
X34820379Y-9094730D01*
X34831777Y-9057155D01*
X34845006Y-9020184D01*
X34860032Y-8983907D01*
X34876821Y-8948411D01*
X34895330Y-8913781D01*
X34915517Y-8880102D01*
X34937332Y-8847453D01*
X34960723Y-8815915D01*
X34985633Y-8785562D01*
X35012002Y-8756468D01*
X35039768Y-8728702D01*
X35068862Y-8702333D01*
X35099215Y-8677423D01*
X35130753Y-8654032D01*
X35163402Y-8632217D01*
X35197081Y-8612030D01*
X35231711Y-8593521D01*
X35267207Y-8576732D01*
X35303484Y-8561706D01*
X35340455Y-8548477D01*
X35378030Y-8537079D01*
X35416119Y-8527538D01*
X35454630Y-8519878D01*
X35493471Y-8514116D01*
X35532548Y-8510268D01*
X35571767Y-8508341D01*
X35611033Y-8508341D01*
X35650252Y-8510268D01*
G37*
G36*
X33150252Y-8510268D02*
G01*
X33189329Y-8514116D01*
X33228170Y-8519878D01*
X33266681Y-8527538D01*
X33304770Y-8537079D01*
X33342345Y-8548477D01*
X33379316Y-8561706D01*
X33415593Y-8576732D01*
X33451089Y-8593521D01*
X33485719Y-8612030D01*
X33519398Y-8632217D01*
X33552047Y-8654032D01*
X33583585Y-8677423D01*
X33613938Y-8702333D01*
X33643032Y-8728702D01*
X33670798Y-8756468D01*
X33697167Y-8785562D01*
X33722077Y-8815915D01*
X33745468Y-8847453D01*
X33767283Y-8880102D01*
X33787470Y-8913781D01*
X33805979Y-8948411D01*
X33822768Y-8983907D01*
X33837794Y-9020184D01*
X33851023Y-9057155D01*
X33862421Y-9094730D01*
X33871962Y-9132819D01*
X33879622Y-9171330D01*
X33885384Y-9210171D01*
X33889232Y-9249248D01*
X33891159Y-9288467D01*
X33891159Y-9327733D01*
X33889232Y-9366952D01*
X33885384Y-9406029D01*
X33879622Y-9444870D01*
X33871962Y-9483381D01*
X33862421Y-9521470D01*
X33851023Y-9559045D01*
X33837794Y-9596016D01*
X33822768Y-9632293D01*
X33805979Y-9667789D01*
X33787470Y-9702419D01*
X33767283Y-9736098D01*
X33745468Y-9768747D01*
X33722077Y-9800285D01*
X33697167Y-9830638D01*
X33670798Y-9859732D01*
X33643032Y-9887498D01*
X33613938Y-9913867D01*
X33583585Y-9938777D01*
X33552047Y-9962168D01*
X33519398Y-9983983D01*
X33485719Y-10004170D01*
X33451089Y-10022679D01*
X33415593Y-10039468D01*
X33379316Y-10054494D01*
X33342345Y-10067723D01*
X33304770Y-10079121D01*
X33266681Y-10088662D01*
X33228170Y-10096322D01*
X33189329Y-10102084D01*
X33150252Y-10105932D01*
X33111033Y-10107859D01*
X33071767Y-10107859D01*
X33032548Y-10105932D01*
X32993471Y-10102084D01*
X32954630Y-10096322D01*
X32916119Y-10088662D01*
X32878030Y-10079121D01*
X32840455Y-10067723D01*
X32803484Y-10054494D01*
X32767207Y-10039468D01*
X32731711Y-10022679D01*
X32697081Y-10004170D01*
X32663402Y-9983983D01*
X32630753Y-9962168D01*
X32599215Y-9938777D01*
X32568862Y-9913867D01*
X32539768Y-9887498D01*
X32512002Y-9859732D01*
X32485633Y-9830638D01*
X32460723Y-9800285D01*
X32437332Y-9768747D01*
X32415517Y-9736098D01*
X32395330Y-9702419D01*
X32376821Y-9667789D01*
X32360032Y-9632293D01*
X32345006Y-9596016D01*
X32331777Y-9559045D01*
X32320379Y-9521470D01*
X32310838Y-9483381D01*
X32303178Y-9444870D01*
X32297416Y-9406029D01*
X32293568Y-9366952D01*
X32291641Y-9327733D01*
X32291641Y-9317916D01*
X32691520Y-9317916D01*
X32692484Y-9337526D01*
X32694408Y-9357064D01*
X32697289Y-9376485D01*
X32701119Y-9395740D01*
X32705890Y-9414785D01*
X32711589Y-9433573D01*
X32718203Y-9452058D01*
X32725716Y-9470197D01*
X32734110Y-9487945D01*
X32743365Y-9505259D01*
X32753459Y-9522099D01*
X32764366Y-9538423D01*
X32776061Y-9554193D01*
X32788516Y-9569369D01*
X32801701Y-9583916D01*
X32815584Y-9597799D01*
X32830131Y-9610984D01*
X32845307Y-9623439D01*
X32861077Y-9635134D01*
X32877401Y-9646041D01*
X32894241Y-9656135D01*
X32911555Y-9665390D01*
X32929303Y-9673784D01*
X32947442Y-9681297D01*
X32965927Y-9687911D01*
X32984715Y-9693610D01*
X33003760Y-9698381D01*
X33023015Y-9702211D01*
X33042436Y-9705092D01*
X33061974Y-9707016D01*
X33081584Y-9707980D01*
X33101216Y-9707980D01*
X33120826Y-9707016D01*
X33140364Y-9705092D01*
X33159785Y-9702211D01*
X33179040Y-9698381D01*
X33198085Y-9693610D01*
X33216873Y-9687911D01*
X33235358Y-9681297D01*
X33253497Y-9673784D01*
X33271245Y-9665390D01*
X33288559Y-9656135D01*
X33305399Y-9646041D01*
X33321723Y-9635134D01*
X33337493Y-9623439D01*
X33352669Y-9610984D01*
X33367216Y-9597799D01*
X33381099Y-9583916D01*
X33394284Y-9569369D01*
X33406739Y-9554193D01*
X33418434Y-9538423D01*
X33429341Y-9522099D01*
X33439435Y-9505259D01*
X33448690Y-9487945D01*
X33457084Y-9470197D01*
X33464597Y-9452058D01*
X33471211Y-9433573D01*
X33476910Y-9414785D01*
X33481681Y-9395740D01*
X33485511Y-9376485D01*
X33488392Y-9357064D01*
X33490316Y-9337526D01*
X33491280Y-9317916D01*
X33491280Y-9298284D01*
X33490316Y-9278674D01*
X33488392Y-9259136D01*
X33485511Y-9239715D01*
X33481681Y-9220460D01*
X33476910Y-9201415D01*
X33471211Y-9182627D01*
X33464597Y-9164142D01*
X33457084Y-9146003D01*
X33448690Y-9128255D01*
X33439435Y-9110941D01*
X33429341Y-9094101D01*
X33418434Y-9077777D01*
X33406739Y-9062007D01*
X33394284Y-9046831D01*
X33381099Y-9032284D01*
X33367216Y-9018401D01*
X33352669Y-9005216D01*
X33337493Y-8992761D01*
X33321723Y-8981066D01*
X33305399Y-8970159D01*
X33288559Y-8960065D01*
X33271245Y-8950810D01*
X33253497Y-8942416D01*
X33235358Y-8934903D01*
X33216873Y-8928289D01*
X33198085Y-8922590D01*
X33179040Y-8917819D01*
X33159785Y-8913989D01*
X33140364Y-8911108D01*
X33120826Y-8909184D01*
X33101216Y-8908220D01*
X33081584Y-8908220D01*
X33061974Y-8909184D01*
X33042436Y-8911108D01*
X33023015Y-8913989D01*
X33003760Y-8917819D01*
X32984715Y-8922590D01*
X32965927Y-8928289D01*
X32947442Y-8934903D01*
X32929303Y-8942416D01*
X32911555Y-8950810D01*
X32894241Y-8960065D01*
X32877401Y-8970159D01*
X32861077Y-8981066D01*
X32845307Y-8992761D01*
X32830131Y-9005216D01*
X32815584Y-9018401D01*
X32801701Y-9032284D01*
X32788516Y-9046831D01*
X32776061Y-9062007D01*
X32764366Y-9077777D01*
X32753459Y-9094101D01*
X32743365Y-9110941D01*
X32734110Y-9128255D01*
X32725716Y-9146003D01*
X32718203Y-9164142D01*
X32711589Y-9182627D01*
X32705890Y-9201415D01*
X32701119Y-9220460D01*
X32697289Y-9239715D01*
X32694408Y-9259136D01*
X32692484Y-9278674D01*
X32691520Y-9298284D01*
X32691520Y-9317916D01*
X32291641Y-9317916D01*
X32291641Y-9288467D01*
X32293568Y-9249248D01*
X32297416Y-9210171D01*
X32303178Y-9171330D01*
X32310838Y-9132819D01*
X32320379Y-9094730D01*
X32331777Y-9057155D01*
X32345006Y-9020184D01*
X32360032Y-8983907D01*
X32376821Y-8948411D01*
X32395330Y-8913781D01*
X32415517Y-8880102D01*
X32437332Y-8847453D01*
X32460723Y-8815915D01*
X32485633Y-8785562D01*
X32512002Y-8756468D01*
X32539768Y-8728702D01*
X32568862Y-8702333D01*
X32599215Y-8677423D01*
X32630753Y-8654032D01*
X32663402Y-8632217D01*
X32697081Y-8612030D01*
X32731711Y-8593521D01*
X32767207Y-8576732D01*
X32803484Y-8561706D01*
X32840455Y-8548477D01*
X32878030Y-8537079D01*
X32916119Y-8527538D01*
X32954630Y-8519878D01*
X32993471Y-8514116D01*
X33032548Y-8510268D01*
X33071767Y-8508341D01*
X33111033Y-8508341D01*
X33150252Y-8510268D01*
G37*
%TD*%
M02*
