M48
; DRILL file {KiCad 7.0.11-7.0.11~ubuntu20.04.1} date Thu Aug 15 15:07:56 2024
; FORMAT={-:-/ absolute / metric / decimal}
; #@! TF.CreationDate,2024-08-15T15:07:56+00:00
; #@! TF.GenerationSoftware,Kicad,Pcbnew,7.0.11-7.0.11~ubuntu20.04.1
; #@! TF.FileFunction,MixedPlating,1,2
FMAT,2
METRIC
; #@! TA.AperFunction,Plated,PTH,ComponentDrill
T1C0.300
; #@! TA.AperFunction,Plated,PTH,ComponentDrill
T2C0.600
; #@! TA.AperFunction,Plated,PTH,ComponentDrill
T3C0.800
; #@! TA.AperFunction,Plated,PTH,ComponentDrill
T4C1.000
; #@! TA.AperFunction,NonPlated,NPTH,ComponentDrill
T5C0.700
%
G90
G05
T1
X-1.119Y-15.755
X3.004Y-14.622
X3.006Y-15.64
X10.152Y-6.898
X11.178Y-9.778
X11.543Y17.273
X11.543Y15.951
X17.861Y-18.088
X17.861Y-20.414
X32.2Y3.01
X32.2Y-11.99
X32.419Y20.534
X39.485Y20.479
X40.516Y21.478
T3
X33.091Y-9.308
X35.179Y-12.788
X35.591Y-9.308
X35.89Y-15.214
X37.679Y-12.788
X38.39Y-15.214
X39.374Y-19.789
X41.874Y-19.789
T4
X-40.912Y-18.688
X-40.912Y-16.148
X-40.912Y-13.608
X-40.912Y-11.068
T5
X31.039Y-22.004
X36.819Y-22.004
T2
G00X29.609Y-21.104
M15
G01X29.609Y-21.904
M16
G05
G00X29.609Y-25.284
M15
G01X29.609Y-26.084
M16
G05
G00X38.249Y-21.104
M15
G01X38.249Y-21.904
M16
G05
G00X38.249Y-25.284
M15
G01X38.249Y-26.084
M16
G05
M30
