%TF.GenerationSoftware,Flux,Pcbnew,7.0.11-7.0.11~ubuntu20.04.1*%
%TF.CreationDate,2024-08-15T14:07:34+00:00*%
%TF.ProjectId,input,696e7075-742e-46b6-9963-61645f706362,rev?*%
%TF.SameCoordinates,Original*%
%TF.FileFunction,Soldermask,Bot*%
%TF.FilePolarity,Negative*%
%FSLAX46Y46*%
G04 Gerber Fmt 4.6, Leading zero omitted, Abs format (unit mm)*
G04 Filename: businesscardpcb*
G04 Build it with Flux! Visit our site at: https://www.flux.ai (PCBNEW 7.0.11-7.0.11~ubuntu20.04.1) date 2024-08-15 14:07:34*
%MOMM*%
%LPD*%
G01*
G04 APERTURE LIST*
G04 APERTURE END LIST*
%TO.C,*%
G36*
X-14940100Y-7684100D02*
G01*
X-15090100Y-7684100D01*
X-15090100Y-7534100D01*
X-14940100Y-7534100D01*
X-14940100Y-7684100D01*
G37*
G36*
X-40061800Y-17838300D02*
G01*
X-40061800Y-19538300D01*
X-41761800Y-19538300D01*
X-41761800Y-18700571D01*
X-41411649Y-18700571D01*
X-41410445Y-18725082D01*
X-41408040Y-18749505D01*
X-41404439Y-18773781D01*
X-41399651Y-18797851D01*
X-41393688Y-18821656D01*
X-41386564Y-18845141D01*
X-41378296Y-18868248D01*
X-41368905Y-18890921D01*
X-41358412Y-18913106D01*
X-41346843Y-18934749D01*
X-41334227Y-18955799D01*
X-41320592Y-18976204D01*
X-41305973Y-18995916D01*
X-41290404Y-19014886D01*
X-41273924Y-19033070D01*
X-41256570Y-19050424D01*
X-41238386Y-19066904D01*
X-41219416Y-19082473D01*
X-41199704Y-19097092D01*
X-41179299Y-19110727D01*
X-41158249Y-19123343D01*
X-41136606Y-19134912D01*
X-41114421Y-19145405D01*
X-41091748Y-19154796D01*
X-41068641Y-19163064D01*
X-41045156Y-19170188D01*
X-41021351Y-19176151D01*
X-40997281Y-19180939D01*
X-40973005Y-19184540D01*
X-40948582Y-19186945D01*
X-40924071Y-19188149D01*
X-40899529Y-19188149D01*
X-40875018Y-19186945D01*
X-40850595Y-19184540D01*
X-40826319Y-19180939D01*
X-40802249Y-19176151D01*
X-40778444Y-19170188D01*
X-40754959Y-19163064D01*
X-40731852Y-19154796D01*
X-40709179Y-19145405D01*
X-40686994Y-19134912D01*
X-40665351Y-19123343D01*
X-40644301Y-19110727D01*
X-40623896Y-19097092D01*
X-40604184Y-19082473D01*
X-40585214Y-19066904D01*
X-40567030Y-19050424D01*
X-40549676Y-19033070D01*
X-40533196Y-19014886D01*
X-40517627Y-18995916D01*
X-40503008Y-18976204D01*
X-40489373Y-18955799D01*
X-40476757Y-18934749D01*
X-40465188Y-18913106D01*
X-40454695Y-18890921D01*
X-40445304Y-18868248D01*
X-40437036Y-18845141D01*
X-40429912Y-18821656D01*
X-40423949Y-18797851D01*
X-40419161Y-18773781D01*
X-40415560Y-18749505D01*
X-40413155Y-18725082D01*
X-40411951Y-18700571D01*
X-40411951Y-18676029D01*
X-40413155Y-18651518D01*
X-40415560Y-18627095D01*
X-40419161Y-18602819D01*
X-40423949Y-18578749D01*
X-40429912Y-18554944D01*
X-40437036Y-18531459D01*
X-40445304Y-18508352D01*
X-40454695Y-18485679D01*
X-40458533Y-18477563D01*
X-40465188Y-18463494D01*
X-40476757Y-18441851D01*
X-40489373Y-18420801D01*
X-40503008Y-18400396D01*
X-40517627Y-18380684D01*
X-40533196Y-18361714D01*
X-40549676Y-18343530D01*
X-40567030Y-18326176D01*
X-40585214Y-18309696D01*
X-40604184Y-18294127D01*
X-40623896Y-18279508D01*
X-40644301Y-18265873D01*
X-40665351Y-18253257D01*
X-40686994Y-18241688D01*
X-40709179Y-18231195D01*
X-40731852Y-18221804D01*
X-40754959Y-18213536D01*
X-40778444Y-18206412D01*
X-40802249Y-18200449D01*
X-40826319Y-18195661D01*
X-40850595Y-18192060D01*
X-40875018Y-18189655D01*
X-40899529Y-18188451D01*
X-40924071Y-18188451D01*
X-40948582Y-18189655D01*
X-40973005Y-18192060D01*
X-40997281Y-18195661D01*
X-41021351Y-18200449D01*
X-41045156Y-18206412D01*
X-41068641Y-18213536D01*
X-41091748Y-18221804D01*
X-41114421Y-18231195D01*
X-41136606Y-18241688D01*
X-41158249Y-18253257D01*
X-41179299Y-18265873D01*
X-41199704Y-18279508D01*
X-41219416Y-18294127D01*
X-41238386Y-18309696D01*
X-41256570Y-18326176D01*
X-41273924Y-18343530D01*
X-41290404Y-18361714D01*
X-41305973Y-18380684D01*
X-41320592Y-18400396D01*
X-41334227Y-18420801D01*
X-41346843Y-18441851D01*
X-41358412Y-18463494D01*
X-41368905Y-18485679D01*
X-41378296Y-18508352D01*
X-41386564Y-18531459D01*
X-41393688Y-18554944D01*
X-41399651Y-18578749D01*
X-41404439Y-18602819D01*
X-41408040Y-18627095D01*
X-41410445Y-18651518D01*
X-41411649Y-18676029D01*
X-41411649Y-18700571D01*
X-41761800Y-18700571D01*
X-41761800Y-17838300D01*
X-40061800Y-17838300D01*
G37*
G36*
X-40849250Y-10220603D02*
G01*
X-40807731Y-10224692D01*
X-40766462Y-10230814D01*
X-40725544Y-10238953D01*
X-40685074Y-10249090D01*
X-40645150Y-10261201D01*
X-40605869Y-10275256D01*
X-40567325Y-10291222D01*
X-40529610Y-10309059D01*
X-40492816Y-10328726D01*
X-40457032Y-10350174D01*
X-40422343Y-10373353D01*
X-40388833Y-10398206D01*
X-40356583Y-10424672D01*
X-40325670Y-10452690D01*
X-40296170Y-10482191D01*
X-40268152Y-10513103D01*
X-40241685Y-10545353D01*
X-40216833Y-10578863D01*
X-40193654Y-10613552D01*
X-40172206Y-10649337D01*
X-40152539Y-10686130D01*
X-40134701Y-10723845D01*
X-40118736Y-10762389D01*
X-40104681Y-10801671D01*
X-40092570Y-10841594D01*
X-40082433Y-10882064D01*
X-40074294Y-10922982D01*
X-40068172Y-10964251D01*
X-40064083Y-11005770D01*
X-40062036Y-11047440D01*
X-40062036Y-11089160D01*
X-40064083Y-11130830D01*
X-40068172Y-11172349D01*
X-40074294Y-11213618D01*
X-40082433Y-11254536D01*
X-40092570Y-11295006D01*
X-40104681Y-11334929D01*
X-40118736Y-11374211D01*
X-40134701Y-11412755D01*
X-40152539Y-11450470D01*
X-40172206Y-11487263D01*
X-40193654Y-11523048D01*
X-40216833Y-11557737D01*
X-40241685Y-11591247D01*
X-40268152Y-11623497D01*
X-40296170Y-11654409D01*
X-40325670Y-11683910D01*
X-40356583Y-11711928D01*
X-40388833Y-11738394D01*
X-40422343Y-11763247D01*
X-40457032Y-11786426D01*
X-40492816Y-11807874D01*
X-40529610Y-11827541D01*
X-40567325Y-11845378D01*
X-40605869Y-11861344D01*
X-40645150Y-11875399D01*
X-40685074Y-11887510D01*
X-40725544Y-11897647D01*
X-40766462Y-11905786D01*
X-40807731Y-11911908D01*
X-40849250Y-11915997D01*
X-40890920Y-11918044D01*
X-40932640Y-11918044D01*
X-40974310Y-11915997D01*
X-41015829Y-11911908D01*
X-41057097Y-11905786D01*
X-41098016Y-11897647D01*
X-41138486Y-11887510D01*
X-41178409Y-11875399D01*
X-41217691Y-11861344D01*
X-41256235Y-11845378D01*
X-41293949Y-11827541D01*
X-41330743Y-11807874D01*
X-41366528Y-11786426D01*
X-41401217Y-11763247D01*
X-41434727Y-11738394D01*
X-41466977Y-11711928D01*
X-41497889Y-11683910D01*
X-41527390Y-11654409D01*
X-41555407Y-11623497D01*
X-41581874Y-11591247D01*
X-41606727Y-11557737D01*
X-41629905Y-11523048D01*
X-41651354Y-11487263D01*
X-41671020Y-11450470D01*
X-41688858Y-11412755D01*
X-41704824Y-11374211D01*
X-41718879Y-11334929D01*
X-41730989Y-11295006D01*
X-41741127Y-11254536D01*
X-41749266Y-11213618D01*
X-41755387Y-11172349D01*
X-41759477Y-11130830D01*
X-41761524Y-11089160D01*
X-41761524Y-11080571D01*
X-41411629Y-11080571D01*
X-41410425Y-11105082D01*
X-41408020Y-11129505D01*
X-41404419Y-11153781D01*
X-41399631Y-11177851D01*
X-41393668Y-11201656D01*
X-41386544Y-11225141D01*
X-41378276Y-11248248D01*
X-41368885Y-11270921D01*
X-41358392Y-11293106D01*
X-41346823Y-11314749D01*
X-41334207Y-11335799D01*
X-41320572Y-11356204D01*
X-41305953Y-11375916D01*
X-41290384Y-11394886D01*
X-41273903Y-11413070D01*
X-41256550Y-11430424D01*
X-41238366Y-11446904D01*
X-41219396Y-11462473D01*
X-41199684Y-11477092D01*
X-41179279Y-11490727D01*
X-41158229Y-11503343D01*
X-41136585Y-11514912D01*
X-41114400Y-11525405D01*
X-41091727Y-11534796D01*
X-41068621Y-11543064D01*
X-41045136Y-11550188D01*
X-41021330Y-11556151D01*
X-40997261Y-11560939D01*
X-40972985Y-11564540D01*
X-40948562Y-11566945D01*
X-40924050Y-11568149D01*
X-40899509Y-11568149D01*
X-40874997Y-11566945D01*
X-40850574Y-11564540D01*
X-40826299Y-11560939D01*
X-40802229Y-11556151D01*
X-40778423Y-11550188D01*
X-40754939Y-11543064D01*
X-40731832Y-11534796D01*
X-40709159Y-11525405D01*
X-40686974Y-11514912D01*
X-40665331Y-11503343D01*
X-40644281Y-11490727D01*
X-40623876Y-11477092D01*
X-40604164Y-11462473D01*
X-40585193Y-11446904D01*
X-40567010Y-11430424D01*
X-40549656Y-11413070D01*
X-40533175Y-11394886D01*
X-40517607Y-11375916D01*
X-40502987Y-11356204D01*
X-40489353Y-11335799D01*
X-40476736Y-11314749D01*
X-40465168Y-11293106D01*
X-40454675Y-11270921D01*
X-40445283Y-11248248D01*
X-40437016Y-11225141D01*
X-40429892Y-11201656D01*
X-40423929Y-11177851D01*
X-40419141Y-11153781D01*
X-40415540Y-11129505D01*
X-40413135Y-11105082D01*
X-40411930Y-11080571D01*
X-40411930Y-11056029D01*
X-40413135Y-11031518D01*
X-40415540Y-11007095D01*
X-40419141Y-10982819D01*
X-40423929Y-10958749D01*
X-40429892Y-10934944D01*
X-40437016Y-10911459D01*
X-40445283Y-10888352D01*
X-40454675Y-10865679D01*
X-40465168Y-10843494D01*
X-40476736Y-10821851D01*
X-40489353Y-10800801D01*
X-40502987Y-10780396D01*
X-40517607Y-10760684D01*
X-40533175Y-10741714D01*
X-40549656Y-10723530D01*
X-40567010Y-10706176D01*
X-40585193Y-10689696D01*
X-40604164Y-10674127D01*
X-40623876Y-10659508D01*
X-40644281Y-10645873D01*
X-40665331Y-10633257D01*
X-40686974Y-10621688D01*
X-40709159Y-10611195D01*
X-40731832Y-10601804D01*
X-40754939Y-10593536D01*
X-40778423Y-10586412D01*
X-40802229Y-10580449D01*
X-40826299Y-10575661D01*
X-40850574Y-10572060D01*
X-40874997Y-10569655D01*
X-40899509Y-10568451D01*
X-40924050Y-10568451D01*
X-40948562Y-10569655D01*
X-40972985Y-10572060D01*
X-40997261Y-10575661D01*
X-41021330Y-10580449D01*
X-41045136Y-10586412D01*
X-41068621Y-10593536D01*
X-41091727Y-10601804D01*
X-41114400Y-10611195D01*
X-41136585Y-10621688D01*
X-41158229Y-10633257D01*
X-41179279Y-10645873D01*
X-41199684Y-10659508D01*
X-41219396Y-10674127D01*
X-41238366Y-10689696D01*
X-41256550Y-10706176D01*
X-41273903Y-10723530D01*
X-41290384Y-10741714D01*
X-41305953Y-10760684D01*
X-41320572Y-10780396D01*
X-41334207Y-10800801D01*
X-41346823Y-10821851D01*
X-41358392Y-10843494D01*
X-41368885Y-10865679D01*
X-41378276Y-10888352D01*
X-41386544Y-10911459D01*
X-41393668Y-10934944D01*
X-41399631Y-10958749D01*
X-41404419Y-10982819D01*
X-41408020Y-11007095D01*
X-41410425Y-11031518D01*
X-41411629Y-11056029D01*
X-41411629Y-11080571D01*
X-41761524Y-11080571D01*
X-41761524Y-11047440D01*
X-41759477Y-11005770D01*
X-41755387Y-10964251D01*
X-41749266Y-10922982D01*
X-41741127Y-10882064D01*
X-41730989Y-10841594D01*
X-41718879Y-10801671D01*
X-41704824Y-10762389D01*
X-41688858Y-10723845D01*
X-41671020Y-10686130D01*
X-41651354Y-10649337D01*
X-41629905Y-10613552D01*
X-41606727Y-10578863D01*
X-41581874Y-10545353D01*
X-41555407Y-10513103D01*
X-41527390Y-10482191D01*
X-41497889Y-10452690D01*
X-41466977Y-10424672D01*
X-41434727Y-10398206D01*
X-41401217Y-10373353D01*
X-41366528Y-10350174D01*
X-41330743Y-10328726D01*
X-41293949Y-10309059D01*
X-41256235Y-10291222D01*
X-41217691Y-10275256D01*
X-41178409Y-10261201D01*
X-41138486Y-10249090D01*
X-41098016Y-10238953D01*
X-41057097Y-10230814D01*
X-41015829Y-10224692D01*
X-40974310Y-10220603D01*
X-40932640Y-10218556D01*
X-40890920Y-10218556D01*
X-40849250Y-10220603D01*
G37*
G36*
X-40849263Y-15300603D02*
G01*
X-40807744Y-15304692D01*
X-40766476Y-15310814D01*
X-40725557Y-15318953D01*
X-40685087Y-15329090D01*
X-40645164Y-15341201D01*
X-40605882Y-15355256D01*
X-40567338Y-15371222D01*
X-40529624Y-15389059D01*
X-40492830Y-15408726D01*
X-40457045Y-15430174D01*
X-40422356Y-15453353D01*
X-40388846Y-15478206D01*
X-40356596Y-15504672D01*
X-40325684Y-15532690D01*
X-40296183Y-15562191D01*
X-40268166Y-15593103D01*
X-40241699Y-15625353D01*
X-40216846Y-15658863D01*
X-40193668Y-15693552D01*
X-40172219Y-15729337D01*
X-40152553Y-15766130D01*
X-40134715Y-15803845D01*
X-40118749Y-15842389D01*
X-40104694Y-15881671D01*
X-40092584Y-15921594D01*
X-40082446Y-15962064D01*
X-40074307Y-16002982D01*
X-40068186Y-16044251D01*
X-40064096Y-16085770D01*
X-40062049Y-16127440D01*
X-40062049Y-16169160D01*
X-40064096Y-16210830D01*
X-40068186Y-16252349D01*
X-40074307Y-16293618D01*
X-40082446Y-16334536D01*
X-40092584Y-16375006D01*
X-40104694Y-16414929D01*
X-40118749Y-16454211D01*
X-40134715Y-16492755D01*
X-40152553Y-16530470D01*
X-40172219Y-16567263D01*
X-40193668Y-16603048D01*
X-40216846Y-16637737D01*
X-40241699Y-16671247D01*
X-40268166Y-16703497D01*
X-40296183Y-16734409D01*
X-40325684Y-16763910D01*
X-40356596Y-16791928D01*
X-40388846Y-16818394D01*
X-40422356Y-16843247D01*
X-40457045Y-16866426D01*
X-40492830Y-16887874D01*
X-40529624Y-16907541D01*
X-40567338Y-16925378D01*
X-40605882Y-16941344D01*
X-40645164Y-16955399D01*
X-40685087Y-16967510D01*
X-40725557Y-16977647D01*
X-40766476Y-16985786D01*
X-40807744Y-16991908D01*
X-40849263Y-16995997D01*
X-40890933Y-16998044D01*
X-40932653Y-16998044D01*
X-40974323Y-16995997D01*
X-41015842Y-16991908D01*
X-41057111Y-16985786D01*
X-41098029Y-16977647D01*
X-41138499Y-16967510D01*
X-41178423Y-16955399D01*
X-41217704Y-16941344D01*
X-41256248Y-16925378D01*
X-41293963Y-16907541D01*
X-41330757Y-16887874D01*
X-41366541Y-16866426D01*
X-41401230Y-16843247D01*
X-41434740Y-16818394D01*
X-41466990Y-16791928D01*
X-41497903Y-16763910D01*
X-41527403Y-16734409D01*
X-41555421Y-16703497D01*
X-41581888Y-16671247D01*
X-41606740Y-16637737D01*
X-41629919Y-16603048D01*
X-41651367Y-16567263D01*
X-41671034Y-16530470D01*
X-41688872Y-16492755D01*
X-41704837Y-16454211D01*
X-41718892Y-16414929D01*
X-41731003Y-16375006D01*
X-41741140Y-16334536D01*
X-41749279Y-16293618D01*
X-41755401Y-16252349D01*
X-41759490Y-16210830D01*
X-41761537Y-16169160D01*
X-41761537Y-16160571D01*
X-41411643Y-16160571D01*
X-41410438Y-16185082D01*
X-41408033Y-16209505D01*
X-41404432Y-16233781D01*
X-41399644Y-16257851D01*
X-41393681Y-16281656D01*
X-41386557Y-16305141D01*
X-41378290Y-16328248D01*
X-41368898Y-16350921D01*
X-41358405Y-16373106D01*
X-41346837Y-16394749D01*
X-41334220Y-16415799D01*
X-41320586Y-16436204D01*
X-41305966Y-16455916D01*
X-41290398Y-16474886D01*
X-41273917Y-16493070D01*
X-41256564Y-16510424D01*
X-41238380Y-16526904D01*
X-41219409Y-16542473D01*
X-41199697Y-16557092D01*
X-41179292Y-16570727D01*
X-41158242Y-16583343D01*
X-41136599Y-16594912D01*
X-41114414Y-16605405D01*
X-41091741Y-16614796D01*
X-41068634Y-16623064D01*
X-41045150Y-16630188D01*
X-41021344Y-16636151D01*
X-40997274Y-16640939D01*
X-40972999Y-16644540D01*
X-40948576Y-16646945D01*
X-40924064Y-16648149D01*
X-40899523Y-16648149D01*
X-40875011Y-16646945D01*
X-40850588Y-16644540D01*
X-40826312Y-16640939D01*
X-40802243Y-16636151D01*
X-40778437Y-16630188D01*
X-40754952Y-16623064D01*
X-40731846Y-16614796D01*
X-40709173Y-16605405D01*
X-40686988Y-16594912D01*
X-40665344Y-16583343D01*
X-40644294Y-16570727D01*
X-40623889Y-16557092D01*
X-40604177Y-16542473D01*
X-40585207Y-16526904D01*
X-40567023Y-16510424D01*
X-40549670Y-16493070D01*
X-40533189Y-16474886D01*
X-40517620Y-16455916D01*
X-40503001Y-16436204D01*
X-40489366Y-16415799D01*
X-40476750Y-16394749D01*
X-40465181Y-16373106D01*
X-40454688Y-16350921D01*
X-40445297Y-16328248D01*
X-40437029Y-16305141D01*
X-40429905Y-16281656D01*
X-40423942Y-16257851D01*
X-40419154Y-16233781D01*
X-40415553Y-16209505D01*
X-40413148Y-16185082D01*
X-40411944Y-16160571D01*
X-40411944Y-16136029D01*
X-40413148Y-16111518D01*
X-40415553Y-16087095D01*
X-40419154Y-16062819D01*
X-40423942Y-16038749D01*
X-40429905Y-16014944D01*
X-40437029Y-15991459D01*
X-40445297Y-15968352D01*
X-40454688Y-15945679D01*
X-40465181Y-15923494D01*
X-40476750Y-15901851D01*
X-40489366Y-15880801D01*
X-40503001Y-15860396D01*
X-40517620Y-15840684D01*
X-40533189Y-15821714D01*
X-40549670Y-15803530D01*
X-40567023Y-15786176D01*
X-40585207Y-15769696D01*
X-40604177Y-15754127D01*
X-40623889Y-15739508D01*
X-40644294Y-15725873D01*
X-40665344Y-15713257D01*
X-40686988Y-15701688D01*
X-40709173Y-15691195D01*
X-40731846Y-15681804D01*
X-40754952Y-15673536D01*
X-40778437Y-15666412D01*
X-40802243Y-15660449D01*
X-40826312Y-15655661D01*
X-40850588Y-15652060D01*
X-40875011Y-15649655D01*
X-40899523Y-15648451D01*
X-40924064Y-15648451D01*
X-40948576Y-15649655D01*
X-40972999Y-15652060D01*
X-40997274Y-15655661D01*
X-41021344Y-15660449D01*
X-41045150Y-15666412D01*
X-41068634Y-15673536D01*
X-41091741Y-15681804D01*
X-41114414Y-15691195D01*
X-41136599Y-15701688D01*
X-41158242Y-15713257D01*
X-41179292Y-15725873D01*
X-41199697Y-15739508D01*
X-41219409Y-15754127D01*
X-41238380Y-15769696D01*
X-41256564Y-15786176D01*
X-41273917Y-15803530D01*
X-41290398Y-15821714D01*
X-41305966Y-15840684D01*
X-41320586Y-15860396D01*
X-41334220Y-15880801D01*
X-41346837Y-15901851D01*
X-41358405Y-15923494D01*
X-41368898Y-15945679D01*
X-41378290Y-15968352D01*
X-41386557Y-15991459D01*
X-41393681Y-16014944D01*
X-41399644Y-16038749D01*
X-41404432Y-16062819D01*
X-41408033Y-16087095D01*
X-41410438Y-16111518D01*
X-41411643Y-16136029D01*
X-41411643Y-16160571D01*
X-41761537Y-16160571D01*
X-41761537Y-16127440D01*
X-41759490Y-16085770D01*
X-41755401Y-16044251D01*
X-41749279Y-16002982D01*
X-41741140Y-15962064D01*
X-41731003Y-15921594D01*
X-41718892Y-15881671D01*
X-41704837Y-15842389D01*
X-41688872Y-15803845D01*
X-41671034Y-15766130D01*
X-41651367Y-15729337D01*
X-41629919Y-15693552D01*
X-41606740Y-15658863D01*
X-41581888Y-15625353D01*
X-41555421Y-15593103D01*
X-41527403Y-15562191D01*
X-41497903Y-15532690D01*
X-41466990Y-15504672D01*
X-41434740Y-15478206D01*
X-41401230Y-15453353D01*
X-41366541Y-15430174D01*
X-41330757Y-15408726D01*
X-41293963Y-15389059D01*
X-41256248Y-15371222D01*
X-41217704Y-15355256D01*
X-41178423Y-15341201D01*
X-41138499Y-15329090D01*
X-41098029Y-15318953D01*
X-41057111Y-15310814D01*
X-41015842Y-15304692D01*
X-40974323Y-15300603D01*
X-40932653Y-15298556D01*
X-40890933Y-15298556D01*
X-40849263Y-15300603D01*
G37*
G36*
X-40849257Y-12760603D02*
G01*
X-40807737Y-12764692D01*
X-40766469Y-12770814D01*
X-40725550Y-12778953D01*
X-40685081Y-12789090D01*
X-40645157Y-12801201D01*
X-40605876Y-12815256D01*
X-40567331Y-12831222D01*
X-40529617Y-12849059D01*
X-40492823Y-12868726D01*
X-40457039Y-12890174D01*
X-40422350Y-12913353D01*
X-40388840Y-12938206D01*
X-40356590Y-12964672D01*
X-40325677Y-12992690D01*
X-40296176Y-13022191D01*
X-40268159Y-13053103D01*
X-40241692Y-13085353D01*
X-40216839Y-13118863D01*
X-40193661Y-13153552D01*
X-40172213Y-13189337D01*
X-40152546Y-13226130D01*
X-40134708Y-13263845D01*
X-40118743Y-13302389D01*
X-40104688Y-13341671D01*
X-40092577Y-13381594D01*
X-40082440Y-13422064D01*
X-40074301Y-13462982D01*
X-40068179Y-13504251D01*
X-40064090Y-13545770D01*
X-40062043Y-13587440D01*
X-40062043Y-13629160D01*
X-40064090Y-13670830D01*
X-40068179Y-13712349D01*
X-40074301Y-13753618D01*
X-40082440Y-13794536D01*
X-40092577Y-13835006D01*
X-40104688Y-13874929D01*
X-40118743Y-13914211D01*
X-40134708Y-13952755D01*
X-40152546Y-13990470D01*
X-40172213Y-14027263D01*
X-40193661Y-14063048D01*
X-40216839Y-14097737D01*
X-40241692Y-14131247D01*
X-40268159Y-14163497D01*
X-40296176Y-14194409D01*
X-40325677Y-14223910D01*
X-40356590Y-14251928D01*
X-40388840Y-14278394D01*
X-40422350Y-14303247D01*
X-40457039Y-14326426D01*
X-40492823Y-14347874D01*
X-40529617Y-14367541D01*
X-40567331Y-14385378D01*
X-40605876Y-14401344D01*
X-40645157Y-14415399D01*
X-40685081Y-14427510D01*
X-40725550Y-14437647D01*
X-40766469Y-14445786D01*
X-40807737Y-14451908D01*
X-40849257Y-14455997D01*
X-40890926Y-14458044D01*
X-40932647Y-14458044D01*
X-40974316Y-14455997D01*
X-41015836Y-14451908D01*
X-41057104Y-14445786D01*
X-41098023Y-14437647D01*
X-41138492Y-14427510D01*
X-41178416Y-14415399D01*
X-41217697Y-14401344D01*
X-41256242Y-14385378D01*
X-41293956Y-14367541D01*
X-41330750Y-14347874D01*
X-41366534Y-14326426D01*
X-41401223Y-14303247D01*
X-41434733Y-14278394D01*
X-41466983Y-14251928D01*
X-41497896Y-14223910D01*
X-41527397Y-14194409D01*
X-41555414Y-14163497D01*
X-41581881Y-14131247D01*
X-41606734Y-14097737D01*
X-41629912Y-14063048D01*
X-41651360Y-14027263D01*
X-41671027Y-13990470D01*
X-41688865Y-13952755D01*
X-41704830Y-13914211D01*
X-41718885Y-13874929D01*
X-41730996Y-13835006D01*
X-41741133Y-13794536D01*
X-41749273Y-13753618D01*
X-41755394Y-13712349D01*
X-41759483Y-13670830D01*
X-41761531Y-13629160D01*
X-41761531Y-13620571D01*
X-41411636Y-13620571D01*
X-41410432Y-13645082D01*
X-41408026Y-13669505D01*
X-41404425Y-13693781D01*
X-41399638Y-13717851D01*
X-41393675Y-13741656D01*
X-41386551Y-13765141D01*
X-41378283Y-13788248D01*
X-41368891Y-13810921D01*
X-41358399Y-13833106D01*
X-41346830Y-13854749D01*
X-41334213Y-13875799D01*
X-41320579Y-13896204D01*
X-41305960Y-13915916D01*
X-41290391Y-13934886D01*
X-41273910Y-13953070D01*
X-41256557Y-13970424D01*
X-41238373Y-13986904D01*
X-41219402Y-14002473D01*
X-41199691Y-14017092D01*
X-41179285Y-14030727D01*
X-41158236Y-14043343D01*
X-41136592Y-14054912D01*
X-41114407Y-14065405D01*
X-41091734Y-14074796D01*
X-41068627Y-14083064D01*
X-41045143Y-14090188D01*
X-41021337Y-14096151D01*
X-40997267Y-14100939D01*
X-40972992Y-14104540D01*
X-40948569Y-14106945D01*
X-40924057Y-14108149D01*
X-40899516Y-14108149D01*
X-40875004Y-14106945D01*
X-40850581Y-14104540D01*
X-40826306Y-14100939D01*
X-40802236Y-14096151D01*
X-40778430Y-14090188D01*
X-40754946Y-14083064D01*
X-40731839Y-14074796D01*
X-40709166Y-14065405D01*
X-40686981Y-14054912D01*
X-40665337Y-14043343D01*
X-40644288Y-14030727D01*
X-40623882Y-14017092D01*
X-40604171Y-14002473D01*
X-40585200Y-13986904D01*
X-40567016Y-13970424D01*
X-40549663Y-13953070D01*
X-40533182Y-13934886D01*
X-40517613Y-13915916D01*
X-40502994Y-13896204D01*
X-40489360Y-13875799D01*
X-40476743Y-13854749D01*
X-40465174Y-13833106D01*
X-40454682Y-13810921D01*
X-40445290Y-13788248D01*
X-40437022Y-13765141D01*
X-40429898Y-13741656D01*
X-40423935Y-13717851D01*
X-40419148Y-13693781D01*
X-40415547Y-13669505D01*
X-40413141Y-13645082D01*
X-40411937Y-13620571D01*
X-40411937Y-13596029D01*
X-40413141Y-13571518D01*
X-40415547Y-13547095D01*
X-40419148Y-13522819D01*
X-40423935Y-13498749D01*
X-40429898Y-13474944D01*
X-40437022Y-13451459D01*
X-40445290Y-13428352D01*
X-40454682Y-13405679D01*
X-40465174Y-13383494D01*
X-40476743Y-13361851D01*
X-40489360Y-13340801D01*
X-40502994Y-13320396D01*
X-40517613Y-13300684D01*
X-40533182Y-13281714D01*
X-40549663Y-13263530D01*
X-40567016Y-13246176D01*
X-40585200Y-13229696D01*
X-40604171Y-13214127D01*
X-40623882Y-13199508D01*
X-40644288Y-13185873D01*
X-40665337Y-13173257D01*
X-40686981Y-13161688D01*
X-40709166Y-13151195D01*
X-40731839Y-13141804D01*
X-40754946Y-13133536D01*
X-40778430Y-13126412D01*
X-40802236Y-13120449D01*
X-40826306Y-13115661D01*
X-40850581Y-13112060D01*
X-40875004Y-13109655D01*
X-40899516Y-13108451D01*
X-40924057Y-13108451D01*
X-40948569Y-13109655D01*
X-40972992Y-13112060D01*
X-40997267Y-13115661D01*
X-41021337Y-13120449D01*
X-41045143Y-13126412D01*
X-41068627Y-13133536D01*
X-41091734Y-13141804D01*
X-41114407Y-13151195D01*
X-41136592Y-13161688D01*
X-41158236Y-13173257D01*
X-41179285Y-13185873D01*
X-41199691Y-13199508D01*
X-41219402Y-13214127D01*
X-41238373Y-13229696D01*
X-41256557Y-13246176D01*
X-41273910Y-13263530D01*
X-41290391Y-13281714D01*
X-41305960Y-13300684D01*
X-41320579Y-13320396D01*
X-41334213Y-13340801D01*
X-41346830Y-13361851D01*
X-41358399Y-13383494D01*
X-41368891Y-13405679D01*
X-41378283Y-13428352D01*
X-41386551Y-13451459D01*
X-41393675Y-13474944D01*
X-41399638Y-13498749D01*
X-41404425Y-13522819D01*
X-41408026Y-13547095D01*
X-41410432Y-13571518D01*
X-41411636Y-13596029D01*
X-41411636Y-13620571D01*
X-41761531Y-13620571D01*
X-41761531Y-13587440D01*
X-41759483Y-13545770D01*
X-41755394Y-13504251D01*
X-41749273Y-13462982D01*
X-41741133Y-13422064D01*
X-41730996Y-13381594D01*
X-41718885Y-13341671D01*
X-41704830Y-13302389D01*
X-41688865Y-13263845D01*
X-41671027Y-13226130D01*
X-41651360Y-13189337D01*
X-41629912Y-13153552D01*
X-41606734Y-13118863D01*
X-41581881Y-13085353D01*
X-41555414Y-13053103D01*
X-41527397Y-13022191D01*
X-41497896Y-12992690D01*
X-41466983Y-12964672D01*
X-41434733Y-12938206D01*
X-41401223Y-12913353D01*
X-41366534Y-12890174D01*
X-41330750Y-12868726D01*
X-41293956Y-12849059D01*
X-41256242Y-12831222D01*
X-41217697Y-12815256D01*
X-41178416Y-12801201D01*
X-41138492Y-12789090D01*
X-41098023Y-12778953D01*
X-41057104Y-12770814D01*
X-41015836Y-12764692D01*
X-40974316Y-12760603D01*
X-40932647Y-12758556D01*
X-40890926Y-12758556D01*
X-40849257Y-12760603D01*
G37*
%TD*%
M02*
