%TF.GenerationSoftware,Flux,Pcbnew,7.0.11-7.0.11~ubuntu20.04.1*%
%TF.CreationDate,2024-08-15T14:07:34+00:00*%
%TF.ProjectId,input,696e7075-742e-46b6-9963-61645f706362,rev?*%
%TF.SameCoordinates,Original*%
%TF.FileFunction,Copper,L2,Bot*%
%TF.FilePolarity,Positive*%
%FSLAX46Y46*%
G04 Gerber Fmt 4.6, Leading zero omitted, Abs format (unit mm)*
G04 Filename: businesscardpcb*
G04 Build it with Flux! Visit our site at: https://www.flux.ai (PCBNEW 7.0.11-7.0.11~ubuntu20.04.1) date 2024-08-15 14:07:34*
%MOMM*%
%LPD*%
G01*
G04 APERTURE LIST*
G04 Aperture macros list*
%AMFreePoly0*
4,1,5,0.075000,-0.075000,-0.075000,-0.075000,-0.075000,0.075000,0.075000,0.075000,0.075000,-0.075000,0.075000,-0.075000,$1*%
%AMFreePoly1*
4,1,129,0.022069,0.299187,0.036723,0.297744,0.051289,0.295583,0.065730,0.292711,0.080014,0.289133,0.094105,0.284858,0.107969,0.279898,0.121572,0.274263,0.134883,0.267967,0.147869,0.261026,0.160499,0.253456,0.172742,0.245275,0.184569,0.236504,0.195952,0.227163,0.206862,0.217274,0.217274,0.206862,0.227163,0.195952,0.236504,0.184569,0.245275,0.172742,0.253456,0.160499,
0.261026,0.147869,0.267967,0.134883,0.274263,0.121572,0.279898,0.107969,0.284858,0.094105,0.289133,0.080014,0.292711,0.065730,0.295583,0.051289,0.297744,0.036723,0.299187,0.022069,0.299910,0.007362,0.299910,-0.007362,0.299187,-0.022069,0.297744,-0.036723,0.295583,-0.051289,0.292711,-0.065730,0.289133,-0.080014,0.284858,-0.094105,0.279898,-0.107969,0.274263,-0.121572,
0.267967,-0.134883,0.261026,-0.147869,0.253456,-0.160499,0.245275,-0.172742,0.236504,-0.184569,0.227163,-0.195952,0.217274,-0.206862,0.206862,-0.217274,0.195952,-0.227163,0.184569,-0.236504,0.172742,-0.245275,0.160499,-0.253456,0.147869,-0.261026,0.134883,-0.267967,0.121572,-0.274263,0.107969,-0.279898,0.094105,-0.284858,0.080014,-0.289133,0.065730,-0.292711,0.051289,-0.295583,
0.036723,-0.297744,0.022069,-0.299187,0.007362,-0.299910,-0.007362,-0.299910,-0.022069,-0.299187,-0.036723,-0.297744,-0.051289,-0.295583,-0.065730,-0.292711,-0.080014,-0.289133,-0.094105,-0.284858,-0.107969,-0.279898,-0.121572,-0.274263,-0.134883,-0.267967,-0.147869,-0.261026,-0.160499,-0.253456,-0.172742,-0.245275,-0.184569,-0.236504,-0.195952,-0.227163,-0.206862,-0.217274,-0.217274,-0.206862,
-0.227163,-0.195952,-0.236504,-0.184569,-0.245275,-0.172742,-0.253456,-0.160499,-0.261026,-0.147869,-0.267967,-0.134883,-0.274263,-0.121572,-0.279898,-0.107969,-0.284858,-0.094105,-0.289133,-0.080014,-0.292711,-0.065730,-0.295583,-0.051289,-0.297744,-0.036723,-0.299187,-0.022069,-0.299910,-0.007362,-0.299910,0.007362,-0.299187,0.022069,-0.297744,0.036723,-0.295583,0.051289,-0.292711,0.065730,
-0.289133,0.080014,-0.284858,0.094105,-0.279898,0.107969,-0.274263,0.121572,-0.267967,0.134883,-0.261026,0.147869,-0.253456,0.160499,-0.245275,0.172742,-0.236504,0.184569,-0.227163,0.195952,-0.217274,0.206862,-0.206862,0.217274,-0.195952,0.227163,-0.184569,0.236504,-0.172742,0.245275,-0.160499,0.253456,-0.147869,0.261026,-0.134883,0.267967,-0.121572,0.274263,-0.107969,0.279898,
-0.094105,0.284858,-0.080014,0.289133,-0.065730,0.292711,-0.051289,0.295583,-0.036723,0.297744,-0.022069,0.299187,-0.007362,0.299910,0.007362,0.299910,0.022069,0.299187,0.022069,0.299187,$1*%
%AMFreePoly2*
4,1,5,0.850000,-0.850000,-0.850000,-0.850000,-0.850000,0.850000,0.850000,0.850000,0.850000,-0.850000,0.850000,-0.850000,$1*%
G04 Aperture macros list end*
%TA.AperFunction,ComponentPad*%
%ADD10FreePoly0,90.000000*%
%TD*%
%TA.AperFunction,ComponentPad*%
%ADD11FreePoly1,0.000000*%
%TD*%
%TA.AperFunction,ComponentPad*%
%ADD12FreePoly2,180.000000*%
%TD*%
%TA.AperFunction,ComponentPad*%
%ADD13C,1.700000*%
%TD*%
%TA.AperFunction,Conductor*%
%ADD14C,0.300000*%
%TD*%
%TA.AperFunction,Conductor*%
%ADD15C,0.254000*%
%TD*%
G04 APERTURE END LIST*
D10*
%TO.P,,180dcbaf-095f-49bd-8aaf-839e77d25fdc*%
%TO.N,N/C*%
X-15015100Y-7609100D03*
D11*
%TO.P,,0cb6b9ad-ebc6-43ff-9b1d-ceede77acbd0__35d18e86-2e91-4a9c-90fe-8f678583db3f*%
%TO.N,Net (P1)*%
X-1119041Y-15754540D03*
%TO.P,,0cb6b9ad-ebc6-43ff-9b1d-ceede77acbd0__7562f64c-f3a7-45a8-98a7-bb9a1d4f0b9c*%
X3004455Y-14622125D03*
%TO.P,,0cb6b9ad-ebc6-43ff-9b1d-ceede77acbd0__e3c70afb-3045-422a-8aff-639b15b495bd*%
X3005959Y-15639725D03*
D12*
%TO.P,,162c6602-c9b5-47a0-aa90-31c37a0f36df__0992ee89-1032-fd30-2029-3e948a6e6976*%
%TO.N,N/C*%
X-40911800Y-18688300D03*
D13*
%TO.P,,162c6602-c9b5-47a0-aa90-31c37a0f36df__2f66f798-d8f8-3f82-91df-9498ebe19ffc*%
X-40911780Y-11068300D03*
%TO.P,,162c6602-c9b5-47a0-aa90-31c37a0f36df__6d4016d0-e35e-4bce-9ab6-94bc5e267a44*%
X-40911793Y-16148300D03*
%TO.P,,162c6602-c9b5-47a0-aa90-31c37a0f36df__e5de0347-9934-34ad-a4a7-6d6797e315f0*%
X-40911787Y-13608300D03*
D11*
%TO.P,,5da64d3f-58a2-4b44-ae71-0fe68e9d8270*%
%TO.N,GND*%
X11178100Y-9778500D03*
%TO.P,,7e97efc4-a41e-40c1-951d-58ccfa3d9723*%
X10152100Y-6897900D03*
%TO.P,,806e6511-5637-440b-85cc-980dfd3b0a26*%
%TO.N,Net 3*%
X17861300Y-20414400D03*
%TO.P,,cbc479f0-2d74-4cad-925d-133ec5e0f1d7*%
X17861300Y-18088100D03*
%TO.P,,234a51137695998c8cb9b92a49ea6836.via3.5*%
%TO.N,GND*%
X32200000Y18010000D03*
%TO.P,,234a51137695998c8cb9b92a49ea6836.via2.5*%
X32200000Y3010000D03*
%TD*%
D14*
%TO.N,Net (P1)*%
X3005959Y-15639725D02*
X-1119041Y-15639740D01*
X-1119041Y-15639740D02*
X-1119241Y-15639540D01*
X-1119041Y-15639740D02*
X-1119041Y-15754540D01*
D15*
%TO.N,GND*%
X11178100Y-7923900D02*
X11178100Y-9790500D01*
X11178100Y-9790500D02*
X11178100Y-9778500D01*
X10152100Y-6897900D02*
X11178100Y-7923900D01*
%TO.N,Net 3*%
X17861300Y-20414400D02*
X17861300Y-18088200D01*
X17861300Y-18088100D02*
X17861500Y-18087900D01*
%TD*%
%TA.AperFunction,Conductor*%
%TO.N,GND*%
G36*
X17245000Y-20925000D02*
G01*
X17371000Y-21051000D01*
X17550000Y-21158000D01*
X17755000Y-21212000D01*
X17966000Y-21212000D01*
X18171000Y-21157000D01*
X18172000Y-21157000D01*
X18353000Y-21049000D01*
X18354000Y-21049000D01*
X18499000Y-20904000D01*
X18602000Y-20727000D01*
X18659000Y-20520000D01*
X18659000Y-20309000D01*
X18602000Y-20104000D01*
X18498000Y-19923000D01*
X18488000Y-19885000D01*
X18488000Y-18617000D01*
X18498000Y-18579000D01*
X18602000Y-18398000D01*
X18659000Y-18192000D01*
X18659000Y-17984000D01*
X18602000Y-17778000D01*
X18499000Y-17598000D01*
X18351000Y-17450000D01*
X18165000Y-17343000D01*
X17967000Y-17291000D01*
X17758000Y-17291000D01*
X17553000Y-17345000D01*
X17372000Y-17450000D01*
X17245000Y-17577000D01*
X17060000Y-17500000D01*
X17060000Y24466000D01*
X-42356000Y24466000D01*
X-42446000Y24589000D01*
X-42396000Y24744000D01*
X-42396000Y24746000D01*
X-42386000Y24773000D01*
X-42389000Y24777000D01*
X-42330000Y24924000D01*
X-42329000Y24926000D01*
X-42293000Y25010000D01*
X-42292000Y25012000D01*
X-42246000Y25108000D01*
X-42209000Y25182000D01*
X-42208000Y25185000D01*
X-42155000Y25278000D01*
X-42154000Y25280000D01*
X-42111000Y25352000D01*
X-42110000Y25354000D01*
X-42061000Y25431000D01*
X-42059000Y25433000D01*
X-42006000Y25510000D01*
X-42004000Y25512000D01*
X-41941000Y25598000D01*
X-41939000Y25601000D01*
X-41887000Y25665000D01*
X-41886000Y25666000D01*
X-41818000Y25748000D01*
X-41816000Y25750000D01*
X-41762000Y25809000D01*
X-41761000Y25810000D01*
X-41699000Y25875000D01*
X-41697000Y25877000D01*
X-41620000Y25951000D01*
X-41619000Y25952000D01*
X-41560000Y26006000D01*
X-41558000Y26008000D01*
X-41476000Y26076000D01*
X-41475000Y26077000D01*
X-41411000Y26129000D01*
X-41408000Y26131000D01*
X-41323000Y26193000D01*
X-41322000Y26195000D01*
X-41244000Y26249000D01*
X-41241000Y26250000D01*
X-41172000Y26295000D01*
X-41170000Y26296000D01*
X-41090000Y26344000D01*
X-41088000Y26345000D01*
X-40995000Y26398000D01*
X-40992000Y26399000D01*
X-40919000Y26436000D01*
X-40918000Y26436000D01*
X-40821000Y26482000D01*
X-40819000Y26483000D01*
X-40737000Y26519000D01*
X-40735000Y26520000D01*
X-40587000Y26579000D01*
X-40584000Y26577000D01*
X-40561000Y26585000D01*
X-40558000Y26585000D01*
X-40465000Y26615000D01*
X-40463000Y26616000D01*
X-40380000Y26640000D01*
X-40377000Y26641000D01*
X-40293000Y26662000D01*
X-40290000Y26662000D01*
X-40184000Y26685000D01*
X-40183000Y26685000D01*
X-40106000Y26700000D01*
X-40103000Y26700000D01*
X-39998000Y26716000D01*
X-39996000Y26716000D01*
X-39917000Y26725000D01*
X-39914000Y26725000D01*
X-39819000Y26733000D01*
X-39817000Y26733000D01*
X-39711000Y26738000D01*
X-39709000Y26738000D01*
X-39614000Y26740000D01*
X39614000Y26740000D01*
X39709000Y26738000D01*
X39711000Y26738000D01*
X39817000Y26733000D01*
X39819000Y26733000D01*
X39914000Y26725000D01*
X39917000Y26725000D01*
X39996000Y26716000D01*
X39998000Y26716000D01*
X40103000Y26700000D01*
X40106000Y26700000D01*
X40183000Y26685000D01*
X40184000Y26685000D01*
X40290000Y26662000D01*
X40293000Y26662000D01*
X40377000Y26641000D01*
X40380000Y26640000D01*
X40463000Y26616000D01*
X40465000Y26615000D01*
X40558000Y26585000D01*
X40561000Y26585000D01*
X40584000Y26577000D01*
X40587000Y26579000D01*
X40735000Y26520000D01*
X40737000Y26519000D01*
X40819000Y26483000D01*
X40821000Y26482000D01*
X40918000Y26436000D01*
X40919000Y26436000D01*
X40992000Y26399000D01*
X40995000Y26398000D01*
X41088000Y26345000D01*
X41090000Y26344000D01*
X41170000Y26296000D01*
X41172000Y26295000D01*
X41241000Y26250000D01*
X41244000Y26249000D01*
X41322000Y26195000D01*
X41323000Y26193000D01*
X41408000Y26131000D01*
X41411000Y26129000D01*
X41475000Y26077000D01*
X41476000Y26076000D01*
X41558000Y26008000D01*
X41560000Y26006000D01*
X41619000Y25952000D01*
X41620000Y25951000D01*
X41697000Y25877000D01*
X41699000Y25875000D01*
X41761000Y25810000D01*
X41762000Y25809000D01*
X41816000Y25750000D01*
X41818000Y25748000D01*
X41886000Y25666000D01*
X41887000Y25665000D01*
X41939000Y25601000D01*
X41941000Y25598000D01*
X42004000Y25512000D01*
X42006000Y25510000D01*
X42059000Y25433000D01*
X42061000Y25431000D01*
X42110000Y25354000D01*
X42111000Y25352000D01*
X42154000Y25280000D01*
X42155000Y25278000D01*
X42208000Y25185000D01*
X42209000Y25182000D01*
X42246000Y25108000D01*
X42292000Y25012000D01*
X42293000Y25010000D01*
X42329000Y24926000D01*
X42330000Y24924000D01*
X42389000Y24777000D01*
X42386000Y24773000D01*
X42396000Y24746000D01*
X42396000Y24744000D01*
X42425000Y24655000D01*
X42426000Y24653000D01*
X42452000Y24563000D01*
X42453000Y24559000D01*
X42475000Y24470000D01*
X42476000Y24468000D01*
X42495000Y24376000D01*
X42495000Y24374000D01*
X42510000Y24296000D01*
X42510000Y24293000D01*
X42526000Y24188000D01*
X42526000Y24186000D01*
X42535000Y24107000D01*
X42535000Y24104000D01*
X42544000Y23997000D01*
X42544000Y23995000D01*
X42548000Y23901000D01*
X42548000Y23899000D01*
X42550000Y23804000D01*
X42550000Y-23813000D01*
X42548000Y-23899000D01*
X42548000Y-23901000D01*
X42543000Y-24007000D01*
X42543000Y-24009000D01*
X42535000Y-24104000D01*
X42535000Y-24107000D01*
X42526000Y-24186000D01*
X42526000Y-24188000D01*
X42510000Y-24293000D01*
X42510000Y-24296000D01*
X42493000Y-24385000D01*
X42493000Y-24388000D01*
X42472000Y-24481000D01*
X42472000Y-24483000D01*
X42449000Y-24575000D01*
X42448000Y-24578000D01*
X42425000Y-24654000D01*
X42425000Y-24655000D01*
X42392000Y-24756000D01*
X42392000Y-24759000D01*
X42387000Y-24774000D01*
X42389000Y-24777000D01*
X42330000Y-24924000D01*
X42329000Y-24926000D01*
X42293000Y-25010000D01*
X42292000Y-25012000D01*
X42246000Y-25108000D01*
X42209000Y-25182000D01*
X42208000Y-25185000D01*
X42155000Y-25278000D01*
X42154000Y-25280000D01*
X42106000Y-25360000D01*
X42105000Y-25362000D01*
X42061000Y-25431000D01*
X42059000Y-25433000D01*
X41999000Y-25521000D01*
X41997000Y-25523000D01*
X41941000Y-25599000D01*
X41939000Y-25601000D01*
X41887000Y-25665000D01*
X41886000Y-25666000D01*
X41818000Y-25748000D01*
X41816000Y-25750000D01*
X41762000Y-25809000D01*
X41761000Y-25810000D01*
X41699000Y-25875000D01*
X41697000Y-25877000D01*
X41620000Y-25951000D01*
X41619000Y-25952000D01*
X41560000Y-26006000D01*
X41558000Y-26008000D01*
X41476000Y-26076000D01*
X41475000Y-26077000D01*
X41411000Y-26129000D01*
X41408000Y-26131000D01*
X41322000Y-26194000D01*
X41320000Y-26196000D01*
X41243000Y-26249000D01*
X41241000Y-26251000D01*
X41164000Y-26300000D01*
X41162000Y-26301000D01*
X41090000Y-26344000D01*
X41088000Y-26345000D01*
X40995000Y-26398000D01*
X40992000Y-26399000D01*
X40918000Y-26436000D01*
X40822000Y-26482000D01*
X40820000Y-26483000D01*
X40736000Y-26519000D01*
X40734000Y-26520000D01*
X40587000Y-26579000D01*
X40583000Y-26576000D01*
X40556000Y-26586000D01*
X40554000Y-26586000D01*
X40465000Y-26615000D01*
X40463000Y-26616000D01*
X40380000Y-26640000D01*
X40377000Y-26641000D01*
X40293000Y-26662000D01*
X40291000Y-26662000D01*
X40187000Y-26685000D01*
X40184000Y-26685000D01*
X40106000Y-26700000D01*
X40103000Y-26700000D01*
X39998000Y-26716000D01*
X39996000Y-26716000D01*
X39917000Y-26725000D01*
X39914000Y-26725000D01*
X39819000Y-26733000D01*
X39817000Y-26733000D01*
X39711000Y-26738000D01*
X39709000Y-26738000D01*
X39614000Y-26740000D01*
X17148000Y-26740000D01*
X17060000Y-26652000D01*
X17060000Y-21002000D01*
X17245000Y-20925000D01*
G37*
%TD.AperFunction*%
%TD*%
M02*
